<svg id="Layer_1" data-name="Layer 1" xmlns="http://www.w3.org/2000/svg" xmlns:xlink="http://www.w3.org/1999/xlink" viewBox="0 0 1124.11 1056.87"><defs><style>.cls-1{fill:none;}.cls-2{clip-path:url(#clip-path);}.cls-3{fill:#f0efee;}.cls-4{fill:#e5e5e4;}.cls-5{fill:#d8d9d9;}.cls-6{fill:#00b2a7;}.cls-7{fill:#00ae9d;}.cls-8{fill:#fff;}.cls-9{fill:#25434c;}.cls-10{fill:#345863;}.cls-11{fill:#d4d6d5;}.cls-12{fill:#1d3c44;}.cls-13{fill:#2c4f58;}.cls-14{fill:#f8f7f6;}.cls-15{fill:#cbe9e8;}.cls-16{fill:#dbe0e1;}.cls-17{fill:#78ccc8;}.cls-18{fill:#d9dad9;}.cls-19{fill:#d2d4d3;}.cls-20{fill:#72cac4;}.cls-21{fill:#f2f1ef;}.cls-22{fill:#9ed8d8;}.cls-23{fill:#fdfdfd;}.cls-24{fill:#ecf7f6;}.cls-25{fill:#d1ebea;}.cls-26{fill:#ceeae7;}.cls-27{fill:#eeeeed;}.cls-28{fill:#005c4d;}.cls-29{fill:#a1a3a4;}.cls-30{fill:#939596;}.cls-31{fill:#003c31;}.cls-32{fill:#00a990;}.cls-33{fill:#00251f;}.cls-34{fill:#00100e;}.cls-35{fill:#676b6c;}.cls-36{fill:#004e41;}.cls-37{fill:#007665;}.cls-38{fill:#0b2b34;}.cls-39{fill:#444749;}.cls-40{fill:#414446;}.cls-41{fill:#3a3d3f;}.cls-42{fill:#004136;}.cls-43{fill:#001513;}.cls-44{fill:#a8abab;}.cls-45{fill:#002922;}.cls-46{fill:#eaeae9;}.cls-47{fill:#4ac1c0;}.cls-48{fill:#04252d;}.cls-49{fill:#00afa1;}.cls-50{fill:#e0e0df;}.cls-51{fill:#879aa0;}.cls-52{fill:#8fa3a9;}.cls-53{fill:#b4b7b7;}.cls-54{fill:#a5a8a8;}.cls-55{fill:#008e7a;}.cls-56{fill:#00907b;}.cls-57{fill:#e6e6e5;}.cls-58{fill:#fbfbfa;}.cls-59{fill:#7c8081;}.cls-60{clip-path:url(#clip-path-4);}.cls-61{fill:#c3c4c4;}.cls-62{fill:#00ad99;}.cls-63{fill:#45c0b7;}.cls-64{fill:#f69da3;}.cls-65{fill:#e08484;}.cls-66{fill:#a8abac;}.cls-67{fill:#008572;}.cls-68{fill:#00a68d;}.cls-69{fill:#f48a8f;}.cls-70{fill:#c2686a;}</style><clipPath id="clip-path" transform="translate(-397.95 -11.57)"><rect class="cls-1" x="397.95" y="11.57" width="1124.11" height="1056.87"/></clipPath><clipPath id="clip-path-4" transform="translate(-397.95 -11.57)"><path class="cls-1" d="M1254.66,312.52a4.92,4.92,0,0,1-1.84-.57l-5.83-3.11,5.83,3.1a5.84,5.84,0,0,0,1.84.58m-14.25-7.68a6,6,0,0,1-1.47-3.61V230.18h0v71a6,6,0,0,0,1.47,3.62m-1.47-103.27h0v-43a4.41,4.41,0,0,1,.17-1.17,4.41,4.41,0,0,0-.17,1.17v43"/></clipPath></defs><title>404</title><g class="cls-2"><path class="cls-3" d="M562.57,987.51c-219.5-107.9-219.5-282.85,0-390.75s575.37-107.9,794.86,0,219.5,282.85,0,390.75-575.36,107.9-794.86,0" transform="translate(-397.95 -11.57)"/></g><path class="cls-4" d="M622.09,81.23,600.62,93a22.54,22.54,0,0,0,.19-2.69V84.4c0-10.51-7.77-14.77-17.36-9.52a32.87,32.87,0,0,0-10.34,9.45c-1.57-13.22-12.49-18.14-25.75-10.87-14.33,7.86-26,27-26,42.71V125a22.38,22.38,0,0,0,2.2,10.24L505.77,145c-5.31,2.91-9.62,10-9.62,15.83s4.31,8.2,9.62,5.28l116.32-63.79c5.32-2.92,9.63-10,9.63-15.84s-4.31-8.19-9.63-5.28Z" transform="translate(-397.95 -11.57)"/><path class="cls-4" d="M725.38,125.41l-16.2,8.88a17.78,17.78,0,0,0,.14-2V127.8c0-7.94-5.87-11.15-13.1-7.19a24.92,24.92,0,0,0-7.8,7.13c-1.19-10-9.43-13.69-19.44-8.2-10.82,5.93-19.59,20.37-19.59,32.24v6.67a16.79,16.79,0,0,0,1.66,7.72l-13.46,7.38c-4,2.2-7.26,7.55-7.26,11.95s3.25,6.19,7.26,4l87.79-48.15c4-2.2,7.26-7.55,7.26-12s-3.25-6.18-7.26-4Z" transform="translate(-397.95 -11.57)"/><path class="cls-5" d="M1223.59,833.09c-45,24.69-45,64.72,0,89.41s118,24.69,163,0,45-64.72,0-89.41-118-24.69-163,0" transform="translate(-397.95 -11.57)"/><path class="cls-5" d="M559.91,939.38,457.6,883.27c-5.77-3.17-5.77-8.3,0-11.46l572.46-313.58c5.77-3.17,15.12-3.17,20.89,0l102.31,56.11c5.77,3.16,5.77,8.29,0,11.45L580.8,939.38c-5.77,3.16-15.12,3.16-20.89,0" transform="translate(-397.95 -11.57)"/><path class="cls-5" d="M1109.31,739.42l-12.73-7c-28.89-15.84-74.48-16.62-101.65-1.72l-47.51,26a3.25,3.25,0,0,0-1.28,4.55,3.6,3.6,0,0,0,4.79,1.22l47.51-26c25.22-13.83,67.67-13.06,94.63,1.72l12.73,7c12.39,6.79,19.22,15.63,19.22,24.88s-6.83,18.09-19.22,24.89L931.56,890.53c-26.95,14.78-70.81,14.77-97.77,0L783.06,862.7c-28.88-15.84-75.89-15.84-104.78,0l-12.73,7c-15.27,8.38-23.68,19.52-23.68,31.38,0,10.93,7.29,21,20.54,28.22l45.44,24.91-18.67,10.46c-8.53,4.78-8.49,12.54.08,17.25l34.13,18.71c1.39.76,1.39,2,0,2.77l-2.84,1.54c-1.4.76-1.4,2,0,2.77l4.44,2.43a5.87,5.87,0,0,0,5.06,0l15.49-8.45a5.9,5.9,0,0,1,5.06,0l28.19,15.46a5.83,5.83,0,0,0,5.06,0l4.44-2.43c1.4-.77,1.4-2,0-2.78l-28.19-15.46c-1.39-.76-1.39-2,0-2.77l10.81-5.93a5.83,5.83,0,0,1,5.06,0l28.19,15.46a5.92,5.92,0,0,0,5.07,0l4.44-2.44c1.39-.76,1.39-2,0-2.77l-28.19-15.46c-1.4-.77-1.4-2,0-2.78l13.93-7.64c1.39-.77,1.39-2,0-2.78L795,966.92a5.85,5.85,0,0,0-5.07,0l-4.43,2.43a5.92,5.92,0,0,1-5.07,0l-43.34-23.77a16,16,0,0,0-13.92.06l-8.63,4.83a3.45,3.45,0,0,0-1.08-.91l-47.5-26.06c-11-6-17-14-17-22.44,0-9.24,7.36-18.57,20.18-25.61l12.73-7c27-14.78,70.81-14.78,97.77,0l50.73,27.83c28.89,15.84,75.89,15.84,104.78,0l174.24-95.56c14.65-8,22.73-18.93,22.73-30.66s-8.07-22.62-22.73-30.66" transform="translate(-397.95 -11.57)"/><path class="cls-6" d="M1348,874.89c-.9-42.86,16.79-81.59,31.94-100.65s40.59-37.67,58.27-32.43c16.47,4.88,15.29,25.26-4.13,39.25s-48.69,31.68-56.73,55.2l-19.6,43.3-9.75-4.67" transform="translate(-397.95 -11.57)"/><path class="cls-7" d="M1363.72,849.28c-.25-2.48-.7-4.07-1.52-4.21h0v0q.15-4.17.43-8.49c4.56-13.84,10.63-27.5,18.47-39.38,15.3-23.19,37.54-37.45,50.36-42.35a1,1,0,0,0,.62-1.36,1.11,1.11,0,0,0-1-.67,1.25,1.25,0,0,0-.42.08c-13.19,5-36,19.82-51.63,43.61a159.8,159.8,0,0,0-15.78,31.74c.82-10.27,1.9-21,2.65-31.47a129.16,129.16,0,0,1,14-22.56c13.39-16.83,34.8-33.33,51.81-33.33a22.66,22.66,0,0,1,6.46.9c7.62,2.26,11.46,7.84,11.47,14.57,0,7.81-5.17,17.17-15.6,24.68-13.79,9.94-32.57,21.75-45.16,36.19a97.45,97.45,0,0,0-25.15,32" transform="translate(-397.95 -11.57)"/><path class="cls-8" d="M1353.33,870.78a1.07,1.07,0,0,0,1-.87c4.2-23.73,12.58-51.14,26.8-72.69,15.3-23.19,37.54-37.45,50.36-42.35a1,1,0,0,0,.62-1.36,1.13,1.13,0,0,0-1.44-.59c-13.19,5-36,19.82-51.63,43.61-14.29,21.7-22.67,49.17-26.89,73a1.05,1.05,0,0,0,.91,1.2h.3" transform="translate(-397.95 -11.57)"/><path class="cls-6" d="M1364.26,884.19c2.2-8.13,12.2-21.72,28.67-33.16,18.22-12.65,41.57-18.86,46.72-28.47,6.18-11.55-4.23-22-23.24-19.31s-54.63,28.78-62,75.52l9.81,5.42" transform="translate(-397.95 -11.57)"/><path class="cls-8" d="M1360.33,875.81a1.09,1.09,0,0,0,.93-.71c14.63-42.41,47.93-58,63.5-60.35a1.05,1.05,0,1,0-.34-2.07c-17.22,2.57-50.33,18.48-65.26,61.76a1,1,0,0,0,.71,1.33l.46,0" transform="translate(-397.95 -11.57)"/><path class="cls-9" d="M950.93,752.18l3.73-2,43.78-24c11.83-6.51,27.93-9.87,44.43-9.86,17.94,0,36.33,4,50.2,11.58h0l12.73,7c6.64,3.64,11.48,7.78,14.61,12a20.26,20.26,0,0,1,0,25.73c-3.13,4.25-8,8.38-14.61,12L931.56,880.16c-13.26,7.29-31.07,11.07-48.88,11.06s-35.62-3.77-48.88-11.06l-50.74-27.82c-14.7-8.05-33.55-11.94-52.39-12s-37.69,3.9-52.39,12l-12.73,7h0c-7.63,4.19-13.5,9.06-17.53,14.39s-6.16,11.14-6.15,17a26.11,26.11,0,0,0,5.3,15.47c3.49,4.8,8.6,9.11,15.24,12.75L709.92,945a3.61,3.61,0,0,0,4.79-1.22,3.25,3.25,0,0,0-1.29-4.56l-47.5-26.05c-5.92-3.25-10.2-6.94-13-10.76a19.76,19.76,0,0,1-4.07-11.69c0-4.29,1.54-8.71,4.85-13.1s8.39-8.69,15.33-12.5l12.73-7c13.26-7.29,31.07-11.07,48.88-11.06s35.62,3.77,48.88,11.06l50.74,27.82c14.7,8.05,33.55,11.94,52.39,12s37.69-3.9,52.39-12l174.24-95.55c7.34-4,13-8.76,16.84-14a26.64,26.64,0,0,0,0-33.39c-3.85-5.21-9.5-9.93-16.84-14h0l-12.73-7h0c-15.27-8.36-34.69-12.46-53.71-12.47-17.48,0-34.64,3.47-47.94,10.75l-47.51,26a3.25,3.25,0,0,0-1.28,4.55,3.6,3.6,0,0,0,4.79,1.22" transform="translate(-397.95 -11.57)"/><path class="cls-9" d="M682.17,952.64v3.83c0,6.14,4.53,13.6,10.13,16.67l37.37,20.5,38-20.85V941.54l-36.89-16.19c-5.87-2.57-15.16-2.17-20.75.89L692.3,936c-5.6,3.07-10.13,10.53-10.13,16.66" transform="translate(-397.95 -11.57)"/><path class="cls-10" d="M730.79,925.35c-5.87-2.57-15.16-2.17-20.75.89L692.3,936c-5.6,3.07-5.38,7.64.48,10.21l36.89,16.18,38-20.83-36.89-16.19" transform="translate(-397.95 -11.57)"/><polyline class="cls-11" points="364.44 927.65 360.11 925.75 360.11 925.75 364.44 927.65 364.44 927.65"/><path class="cls-12" d="M724.92,991l-3.9-2.14V963.18a9,9,0,0,1,1.13-4.11l4.08,1.79a9.29,9.29,0,0,0-1.31,4.46V991" transform="translate(-397.95 -11.57)"/><path class="cls-13" d="M726.23,960.86l-4.08-1.79a10.31,10.31,0,0,1,3.93-4.22l32-17.54,4.33,1.9L730,957a10.2,10.2,0,0,0-3.75,3.87" transform="translate(-397.95 -11.57)"/><path class="cls-9" d="M770.91,936.15a3.71,3.71,0,0,0-3.55.34L730,957a10.52,10.52,0,0,0-5.06,8.33v30.57a3.3,3.3,0,0,0,1.49,3.11l4.75,2.6a3.66,3.66,0,0,0,3.57-.32l37.38-20.5a10.54,10.54,0,0,0,5.06-8.33V941.87a3.32,3.32,0,0,0-1.47-3.1l-4.79-2.62" transform="translate(-397.95 -11.57)"/><path class="cls-10" d="M734.73,959.6l37.38-20.5c2.79-1.54,5.06-.29,5.06,2.77v30.58a10.54,10.54,0,0,1-5.06,8.33l-37.38,20.5c-2.79,1.53-5.06.29-5.06-2.78V967.93a10.54,10.54,0,0,1,5.06-8.33" transform="translate(-397.95 -11.57)"/><path class="cls-6" d="M767.76,988.27a9.88,9.88,0,0,1,4.75,7.82,4.63,4.63,0,0,1-.17,1.23,4.76,4.76,0,0,1-1.21-.48,9.84,9.84,0,0,1-4.75-7.81,4.47,4.47,0,0,1,.17-1.26,5.27,5.27,0,0,1,1.21.5m5.69-5.58-30.92-17-3.36,1.85v20.83l30.91,17c2,1.07,3.74,1.16,5,.45l3.37-1.85c1.27-.69,2-2.19,2-4.33v-5.29c0-4.3-3.17-9.52-7.08-11.67" transform="translate(-397.95 -11.57)"/><path class="cls-14" d="M774.94,1005.93h0l.33-.18h0l-.34.19" transform="translate(-397.95 -11.57)"/><path class="cls-15" d="M780.53,994.35v0h0m0-.05v0m0,0v0m0-.06v0m0-.06h0" transform="translate(-397.95 -11.57)"/><path class="cls-14" d="M774.27,983.2c-.27-.19-.55-.35-.82-.51L771,981.37h0l2.41,1.32a9.16,9.16,0,0,1,.82.51" transform="translate(-397.95 -11.57)"/><path class="cls-16" d="M771,981.37l-11.1-6.09L771,981.37h0m-30.14-14.73,1.64-.9h0l-1.64.9" transform="translate(-397.95 -11.57)"/><path class="cls-15" d="M775.09,989.55a14.06,14.06,0,0,0-5-5l-6-3.3-24.9-13.66,1.71-.94,1.64-.9,17.4,9.54,11.1,6.09,2.42,1.32c.27.16.55.32.82.51a14.86,14.86,0,0,1,4.18,4.51l-3.36,1.84" transform="translate(-397.95 -11.57)"/><path class="cls-6" d="M780.53,994.35v5.29c0,2.16-.77,3.65-2.06,4.33l-3.36,1.87-.14.07c1.35-.67,2.19-2.2,2.19-4.42V996.2a13.23,13.23,0,0,0-2.08-6.64l3.37-1.85a13.2,13.2,0,0,1,2.08,6.64" transform="translate(-397.95 -11.57)"/><path class="cls-17" d="M775.27,1005.75c1.18-.74,1.9-2.21,1.9-4.26V996.2a13.26,13.26,0,0,0-2.08-6.65l3.36-1.84a13.2,13.2,0,0,1,2.08,6.64v5.29c0,2.16-.77,3.65-2.06,4.33l-3.2,1.78" transform="translate(-397.95 -11.57)"/><path class="cls-18" d="M772.34,997.32l-.36-.11.36.1h0m-1-.38a1,1,0,0,1-.17-.1,10.1,10.1,0,0,1-4.65-6.66h0a10.12,10.12,0,0,0,4.64,6.66l.17.1" transform="translate(-397.95 -11.57)"/><path class="cls-19" d="M766.48,990.18a6.54,6.54,0,0,1-.1-1.15,4.47,4.47,0,0,1,.17-1.26h0a4.72,4.72,0,0,0-.17,1.25h0a6.69,6.69,0,0,0,.11,1.16h0" transform="translate(-397.95 -11.57)"/><path class="cls-20" d="M769.89,999.31a4.25,4.25,0,0,1-1.79-.45l-.34-.17a9.93,9.93,0,0,1-4.75-7.82c0-2,1.08-3.22,2.63-3.22a3.74,3.74,0,0,1,.91.12,4.47,4.47,0,0,0-.17,1.26,6.54,6.54,0,0,0,.1,1.15,10.1,10.1,0,0,0,4.65,6.66,1,1,0,0,0,.17.1,4.18,4.18,0,0,0,.68.27l.36.11h0a2.47,2.47,0,0,1-2,2,2.72,2.72,0,0,1-.49,0" transform="translate(-397.95 -11.57)"/><path class="cls-21" d="M773.25,1006.3a6.72,6.72,0,0,1-3.17-.92l-21.41-11.74,21.41,11.74a6.63,6.63,0,0,0,3.15.91,3.88,3.88,0,0,0,1.88-.46l.1-.05-.24.13h0l.14-.07-.17.09a3.88,3.88,0,0,1-1.69.37m-4.49-17.37a7.2,7.2,0,0,0-1-.66h0a7.2,7.2,0,0,1,1,.66h0m-1.71-1h0m0,0-.43-.14.43.14m-.43-.14h0m0,0h0m0,0h0m0,0h0" transform="translate(-397.95 -11.57)"/><path class="cls-22" d="M773.23,1006.29a6.63,6.63,0,0,1-3.15-.91l-21.41-11.74-9.5-5.22V967.59l24.91,13.65,6,3.29a14.17,14.17,0,0,1,5,5h0a13.73,13.73,0,0,1,2.06,6h0v0h0a.06.06,0,0,1,0,0h0v.15h0s0,0,0,0h0v0h0v0h0v0h0v0h0v.05h0v0h0v5.34h0c0,2.08-.74,3.56-1.95,4.29l-.1.05a3.88,3.88,0,0,1-1.88.46m-5.13-7.43a4.18,4.18,0,0,0,1.78.45,2.73,2.73,0,0,0,.5,0c1.29-.22,2.13-1.36,2.13-3.17h0a9.93,9.93,0,0,0-3.75-7.16,7.2,7.2,0,0,0-1-.66h0a5,5,0,0,0-.71-.33h0l-.43-.14h-.06a3.81,3.81,0,0,0-.92-.12c-1.55,0-2.62,1.18-2.62,3.22h0a9.9,9.9,0,0,0,4.75,7.81l.34.17" transform="translate(-397.95 -11.57)"/><path class="cls-23" d="M774.94,1005.93l.17-.09.16-.09-.33.18" transform="translate(-397.95 -11.57)"/><path class="cls-24" d="M777.16,996.15h0m0,0h0m0-.05h0m0,0h0m0,0h0m0-.05h0m0,0h0m0-.05h0m0,0v0m0,0v0m0-.06h0m0,0h0m0-.05h0m-2-6a14.17,14.17,0,0,0-5-5l-6-3.29,6,3.3a14.06,14.06,0,0,1,5,5h0" transform="translate(-397.95 -11.57)"/><path class="cls-25" d="M775,1005.91c1.35-.67,2.19-2.2,2.19-4.42V996.2h0a13.23,13.23,0,0,0-2.08-6.64h0a13.26,13.26,0,0,1,2.08,6.65v5.29c0,2-.72,3.52-1.9,4.26l-.16.09h0l-.14.07" transform="translate(-397.95 -11.57)"/><path class="cls-26" d="M769.88,999.31a4.18,4.18,0,0,1-1.78-.45,4.25,4.25,0,0,0,1.79.45,2.72,2.72,0,0,0,.49,0,2.73,2.73,0,0,1-.5,0" transform="translate(-397.95 -11.57)"/><path class="cls-26" d="M763,990.87h0c0-2,1.07-3.22,2.62-3.22a3.81,3.81,0,0,1,.92.12h0a3.74,3.74,0,0,0-.91-.12c-1.55,0-2.63,1.18-2.63,3.22" transform="translate(-397.95 -11.57)"/><path class="cls-6" d="M792.91,974.48a9.9,9.9,0,0,1,4.75,7.82,4.24,4.24,0,0,1-.18,1.23,5.1,5.1,0,0,1-1.21-.47,9.9,9.9,0,0,1-4.75-7.82,4.78,4.78,0,0,1,.17-1.25,5.27,5.27,0,0,1,1.22.49m5.68-5.58L767.68,952l-3.36,1.85v20.84l30.92,17c2,1.08,3.74,1.17,5,.45l3.36-1.85c1.28-.69,2.06-2.19,2.06-4.33v-5.29c0-4.3-3.17-9.52-7.09-11.67" transform="translate(-397.95 -11.57)"/><path class="cls-14" d="M800.09,992.14h0c.1-.06.21-.11.31-.18h0a2.68,2.68,0,0,1-.33.18" transform="translate(-397.95 -11.57)"/><path class="cls-15" d="M805.68,980.57v0h0m0-.05v0m0-.06v0m0-.06v0m0,0h0" transform="translate(-397.95 -11.57)"/><path class="cls-8" d="M798.84,969h0l-.24-.14-6.1-3.34,6.1,3.34.25.14" transform="translate(-397.95 -11.57)"/><path class="cls-14" d="M799,969.12l-.13-.08h0l.12.08" transform="translate(-397.95 -11.57)"/><polyline class="cls-16" points="368.3 941.17 369.72 940.38 369.73 940.39 368.3 941.17"/><path class="cls-15" d="M800.23,975.76a14.11,14.11,0,0,0-5-5l-6-3.3L764.33,953.8l1.92-1.06,1.42-.79,24.82,13.61,6.1,3.34.24.14.13.08a14.44,14.44,0,0,1,4.63,4.81l-3.36,1.83" transform="translate(-397.95 -11.57)"/><path class="cls-6" d="M805.68,980.57v5.28c0,2.16-.78,3.65-2.06,4.34l-3.37,1.86-.14.07c1.36-.67,2.2-2.2,2.2-4.42v-5.29a13.36,13.36,0,0,0-2.08-6.64l3.37-1.85a13.3,13.3,0,0,1,2.08,6.65" transform="translate(-397.95 -11.57)"/><path class="cls-17" d="M800.41,992a4.74,4.74,0,0,0,1.91-4.26v-5.29a13.28,13.28,0,0,0-2.09-6.65l3.37-1.84a13.3,13.3,0,0,1,2.08,6.65v5.28c0,2.16-.78,3.65-2.06,4.34L800.41,992" transform="translate(-397.95 -11.57)"/><path class="cls-18" d="M797.48,983.53l-.33-.1.34.09h0m-1.06-.39-.15-.08a10.18,10.18,0,0,1-4.65-6.67h0a10.12,10.12,0,0,0,4.64,6.67l.15.09" transform="translate(-397.95 -11.57)"/><path class="cls-19" d="M791.62,976.39a6.54,6.54,0,0,1-.1-1.15,4.78,4.78,0,0,1,.17-1.25h0a5,5,0,0,0-.16,1.24h0a6.46,6.46,0,0,0,.1,1.15h0" transform="translate(-397.95 -11.57)"/><path class="cls-20" d="M795,985.52a4.29,4.29,0,0,1-1.79-.45l-.33-.17a9.9,9.9,0,0,1-4.75-7.82c0-2,1.07-3.21,2.63-3.21a3.6,3.6,0,0,1,.9.12,4.78,4.78,0,0,0-.17,1.25,6.54,6.54,0,0,0,.1,1.15,10.18,10.18,0,0,0,4.65,6.67l.15.08a4.25,4.25,0,0,0,.73.29l.33.1h0a2.5,2.5,0,0,1-1.76,1.91,2.63,2.63,0,0,1-.7.09" transform="translate(-397.95 -11.57)"/><path class="cls-21" d="M798.39,992.51a6.66,6.66,0,0,1-3.06-.86,6.57,6.57,0,0,0,3,.85,3.81,3.81,0,0,0,1.89-.46l.09,0-.24.13h0l.14-.07-.15.09a4,4,0,0,1-1.71.37m-4.49-17.37a7.74,7.74,0,0,0-1-.66,5.27,5.27,0,0,0-1.22-.49h0a5.27,5.27,0,0,1,1.22.49,7.74,7.74,0,0,1,1,.66h0" transform="translate(-397.95 -11.57)"/><path class="cls-22" d="M798.37,992.5a6.57,6.57,0,0,1-3-.85l-.1-.06h0l-21.64-11.86-9.28-5.09V953.8l24.9,13.65,6,3.3a14,14,0,0,1,5,5h0a13.77,13.77,0,0,1,2.06,6.08h0v0h0a.11.11,0,0,1,0,.05h0v0h0v0h0v0h0a.43.43,0,0,1,0,0h0v.05h0v0h0v0h0v5.39h0c0,2.09-.74,3.57-2,4.29l-.09,0a3.81,3.81,0,0,1-1.89.46m-5.13-7.43a4.25,4.25,0,0,0,1.79.45,2.69,2.69,0,0,0,.7-.09c1.17-.31,1.93-1.42,1.93-3.13h0a10,10,0,0,0-3.76-7.16,7.74,7.74,0,0,0-1-.66,5.27,5.27,0,0,0-1.22-.49h0a3.33,3.33,0,0,0-.91-.13c-1.55,0-2.62,1.18-2.62,3.22h0a9.9,9.9,0,0,0,4.75,7.81l.33.17" transform="translate(-397.95 -11.57)"/><path class="cls-23" d="M800.1,992.14l.15-.09.16-.09c-.1.07-.21.12-.31.18" transform="translate(-397.95 -11.57)"/><path class="cls-24" d="M802.31,982.31h0m0,0h0m0,0h0m0-.05h0m0,0h0m0-.05h0m0,0h0m0,0h0m0-.06h0m0,0h0" transform="translate(-397.95 -11.57)"/><path class="cls-24" d="M800.23,975.77a14,14,0,0,0-5-5l-6-3.3,6,3.3a14.11,14.11,0,0,1,5,5h0" transform="translate(-397.95 -11.57)"/><path class="cls-25" d="M800.11,992.12c1.36-.67,2.2-2.2,2.2-4.42v-5.29h0a13.36,13.36,0,0,0-2.08-6.64h0a13.28,13.28,0,0,1,2.09,6.65v5.29a4.74,4.74,0,0,1-1.91,4.26l-.16.09h0l-.14.07" transform="translate(-397.95 -11.57)"/><path class="cls-26" d="M795,985.52a4.25,4.25,0,0,1-1.79-.45,4.29,4.29,0,0,0,1.79.45,2.63,2.63,0,0,0,.7-.09,2.69,2.69,0,0,1-.7.09" transform="translate(-397.95 -11.57)"/><polyline class="cls-27" points="393.75 962.42 393.75 962.42 393.75 962.42 393.75 962.42 393.75 962.42"/><path class="cls-26" d="M788.16,977.08h0c0-2,1.07-3.22,2.62-3.22a3.33,3.33,0,0,1,.91.13h0a3.6,3.6,0,0,0-.9-.12c-1.56,0-2.63,1.17-2.63,3.21" transform="translate(-397.95 -11.57)"/><path class="cls-6" d="M905,852.17l88-48.31c9.06-5,13.6-11.49,13.6-18s0-11.62,0-11.62l-91.25-48.88c-4.84-2.66-8.76-9.11-8.76-14.41v-103L753,692.27v103c0,5.31,3.92,11.76,8.76,14.41l77.63,42.49c18.13,9.94,47.53,9.94,65.66,0" transform="translate(-397.95 -11.57)"/><path class="cls-28" d="M872.19,859.63c-11.88,0-23.77-2.49-32.83-7.46l-49.5-27.09V813.51l-9.34-5.14,9.33,5.12h0l49.47,27.07c9.07,5,21,7.46,32.85,7.46h1.5v11.55h0c11.37-.2,22.65-2.6,31.34-7.4l36-19.73-36,19.75c-9.06,5-20.95,7.46-32.83,7.46m8.49-12c8.92-.91,17.44-3.25,24.33-7l59.91-32.88L905,840.58c-6.9,3.77-15.43,6.12-24.35,7m125.92-70.21V775c0-.23,0-.46,0-.69v0h0s0,1.18,0,3.14" transform="translate(-397.95 -11.57)"/><path class="cls-28" d="M769.17,801.51a19.74,19.74,0,0,1-4.17-6,20.34,20.34,0,0,0,2.75,4.43,17.52,17.52,0,0,0,1.42,1.55" transform="translate(-397.95 -11.57)"/><polyline class="cls-29" points="391.91 813.52 391.7 813.41 391.71 813.4 391.91 813.51 391.91 813.52"/><path class="cls-30" d="M789.65,825l-27.95-15.3c-4.8-2.64-8.74-9.07-8.74-14.4V782.4h0v12.88h0c0,5.31,3.92,11.76,8.76,14.41L789.66,825h0" transform="translate(-397.95 -11.57)"/><path class="cls-31" d="M789.86,825.08l-.2-.11-27.93-15.29c-4.84-2.65-8.76-9.1-8.76-14.41V782.39l10.6-5.82v12.91a15.13,15.13,0,0,0,1.43,6,19.74,19.74,0,0,0,4.17,6,14.67,14.67,0,0,0,3.16,2.37l.49.27,7.7,4.22,9.34,5.14v11.57" transform="translate(-397.95 -11.57)"/><path class="cls-6" d="M763.57,789.48c0,5.3,3.92,11.75,8.76,14.4l67,36.67c18.14,10,47.54,10,65.67,0l88-48.3c18.14-9.94,18.14-26.07,0-36L926,719.55c-4.84-2.65-8.76-9.1-8.76-14.4V624.66L763.57,709v80.49" transform="translate(-397.95 -11.57)"/><path class="cls-32" d="M872.19,848c-11.89,0-23.78-2.48-32.85-7.46l-49.47-27.07,153.92-84.13v0L926,719.55c-4.84-2.65-8.76-9.1-8.76-14.4h0c0,5.3,3.92,11.75,8.76,14.4L993,756.25c9.06,5,13.59,11.49,13.59,18,0,.23,0,.46,0,.69v-.71h0c0,6.53-4.55,13.06-13.6,18l-28.08,15.43L905,840.56c-6.89,3.78-15.41,6.12-24.33,7-2.31.23-4.65.35-7,.38v0h-1.5" transform="translate(-397.95 -11.57)"/><path class="cls-32" d="M772.82,804.15l-.49-.27a16.09,16.09,0,0,1-4.58-3.92,16.09,16.09,0,0,0,4.58,3.92l.49.27" transform="translate(-397.95 -11.57)"/><polyline class="cls-33" points="391.9 801.93 382.57 796.81 379.35 795.03 391.92 801.92 391.9 801.93"/><polyline class="cls-34" points="382.57 796.81 374.88 792.59 379.35 795.03 382.57 796.81"/><path class="cls-33" d="M767.75,800a20.34,20.34,0,0,1-2.75-4.43l-.18-.43a20,20,0,0,0,2.93,4.86" transform="translate(-397.95 -11.57)"/><path class="cls-34" d="M765,795.53a15.13,15.13,0,0,1-1.43-6V776.57h0v12.91h0a14.6,14.6,0,0,0,1.25,5.62l.18.43" transform="translate(-397.95 -11.57)"/><polyline class="cls-35" points="519.25 693.58 519.25 693.58 519.25 680.75 519.25 680.75 519.25 693.58"/><path class="cls-36" d="M789.87,813.48,777.3,806.6l-4.48-2.45-.49-.27a16.09,16.09,0,0,1-4.58-3.92,20,20,0,0,1-2.93-4.86,14.6,14.6,0,0,1-1.25-5.62V776.57L917.2,692.32v12.83h0c0,5.3,3.92,11.75,8.76,14.4l17.83,9.78v0L789.87,813.48" transform="translate(-397.95 -11.57)"/><path class="cls-6" d="M1006.6,774.24v11.62c0,6.53-4.55,13-13.6,18l-88,48.28c-8.69,4.8-20,7.2-31.34,7.4V848c11.37-.14,22.65-2.64,31.34-7.39l88-48.33c9-5,13.6-11.48,13.6-18" transform="translate(-397.95 -11.57)"/><g class="cls-2"><path class="cls-37" d="M873.69,859.55V848c11.37-.14,22.65-2.64,31.34-7.39l88-48.33c9-5,13.6-11.48,13.6-18v11.62c0,6.53-4.55,13-13.6,18l-88,48.28c-8.69,4.8-20,7.2-31.34,7.4" transform="translate(-397.95 -11.57)"/><path class="cls-6" d="M516.9,889.52c5.67,3.11,15.17,2.94,21.22-.37l594.11-325.83c6-3.31,10.94-11.37,10.94-9.12V40.32c0-15.52-4.59-23.42-10.26-26.53s-15.17-2.94-21.21.38L517.59,340c-6,3.31-10.94,11.37-10.94,18V871.89c0,6.63,4.6,14.52,10.26,17.63" transform="translate(-397.95 -11.57)"/></g><path class="cls-6" d="M538.12,889.13l594.11-325.82c6-3.32,11-11.38,11-9.12V40.3c0-15.51-4.9-18.2-11-14.89L538.13,351.24c-6,3.32-11,11.38-11,18V883.13c0,6.63,4.89,9.32,10.94,6" transform="translate(-397.95 -11.57)"/><path class="cls-37" d="M527.18,861.46V369.25a15.83,15.83,0,0,1,.22-2.53,21.47,21.47,0,0,1,1.41-4.67,25.2,25.2,0,0,1,4.67-7.13,19.22,19.22,0,0,1,4.65-3.67L734.44,243.58,1132.23,25.41a8.89,8.89,0,0,1,4.15-1.25c4,0,6.8,4.39,6.8,16.14V64l-20.55,11.27V60.41c0-2.82-1.48-4.45-3.63-4.45a6.21,6.21,0,0,0-2.94.85L554.27,364.92c-3.62,2-6.56,6.83-6.56,10.8V820.5h0c0,2.83,1.48,4.46,3.64,4.46a6.26,6.26,0,0,0,2.93-.85l34.21-18.76v22.49l-61.3,33.62m616-307.27v-2.25h0v2.25" transform="translate(-397.95 -11.57)"/><path class="cls-6" d="M536.51,901c-6.07,2.55-14.46,2.45-19.61-.38-5.67-3.12-10.27-11-10.27-17.67V850.26l20.53,11.29v32.68c0,6,4,8.79,9.35,6.77" transform="translate(-397.95 -11.57)"/><path class="cls-37" d="M526.83,902.83a21.08,21.08,0,0,1-9.93-2.21c-5.67-3.12-10.27-11-10.27-17.67V850.26l20.53,11.29v32.68h0c0,4.72,2.46,7.43,6.07,7.43a9.16,9.16,0,0,0,3.28-.66,25.46,25.46,0,0,1-9.68,1.83" transform="translate(-397.95 -11.57)"/><path class="cls-6" d="M527.16,861.55l0,32.67c0,6.63,4.9,9.31,10.94,6l594.11-325.83c6-3.31,11-11.38,11-18V523.63l-616,337.92" transform="translate(-397.95 -11.57)"/><polyline class="cls-32" points="129.23 849.97 129.23 849.89 129.23 849.97 129.21 849.98"/><polyline class="cls-36" points="129.23 849.97 129.23 849.89 190.53 816.28 190.53 816.35 129.21 849.98"/><path class="cls-32" d="M533.23,901.64c-3.59,0-6.05-2.72-6.05-7.42V861.54h0l61.32-33.64V839a10.9,10.9,0,0,0,5.11,8.77,10.35,10.35,0,0,0,4.95,1.11q.66,0,1.32-.06a9.74,9.74,0,0,0,4.22-1.2l.06,0,539-295.66v4.44c0,6.63-4.9,14.7-11,18l-215,117.93L763.57,776.57h0L753,782.39h0L538.12,900.22a10.37,10.37,0,0,1-4.89,1.42m65.47-57v0" transform="translate(-397.95 -11.57)"/><path class="cls-6" d="M547.7,820.5V375.72c0-4,2.94-8.81,6.56-10.8L1116.06,56.81c3.63-2,6.57-.37,6.57,3.6l0,444.79c0,4-2.94,8.82-6.57,10.8L554.27,824.11c-3.63,2-6.57.37-6.57-3.61" transform="translate(-397.95 -11.57)"/><path class="cls-38" d="M547.7,820.5V375.72c0-4,2.94-8.81,6.56-10.8L1116.06,56.81c3.63-2,6.57-.37,6.57,3.6l0,444.79c0,4-2.94,8.82-6.57,10.8L554.27,824.11c-3.63,2-6.57.37-6.57-3.61" transform="translate(-397.95 -11.57)"/><polyline class="cls-39" points="108.69 617.19 108.7 346.44 108.69 617.19 108.69 617.19"/><polyline class="cls-40" points="108.69 833.38 108.69 617.19 108.69 617.19 108.69 833.38 108.69 833.38"/><polyline class="cls-41" points="108.69 838.7 108.69 838.7 108.69 833.38 108.69 833.38 108.69 838.7"/><polyline class="cls-39" points="111.92 336.17 111.92 336.16 111.92 336.16 111.92 336.17"/><path class="cls-42" d="M527.16,861.55h0l-20.52-11.28V358a20.82,20.82,0,0,1,3.21-10.27h0l11.91,6.52,8.61,4.72h0a25.71,25.71,0,0,0-1.58,3.09,20.94,20.94,0,0,0-1.41,4.67,15.78,15.78,0,0,0-.24,2.52V861.55" transform="translate(-397.95 -11.57)"/><g class="cls-2"><path class="cls-43" d="M527.4,366.72a20.94,20.94,0,0,1,1.41-4.67,21.47,21.47,0,0,0-1.41,4.67" transform="translate(-397.95 -11.57)"/><path class="cls-44" d="M509.87,347.72h0a25.6,25.6,0,0,1,2.6-3.5,24.27,24.27,0,0,0-2.59,3.51m2.6-3.52h0m1.4-1.45h0m0,0a19.48,19.48,0,0,1,2.5-2,20.19,20.19,0,0,0-2.5,2m629.17-313a7.29,7.29,0,0,0-1.67-3.9c-1.84-6.25-4.9-10-8.39-12,5.14,2.85,9.37,9.67,10.06,15.86m-13.73-17.33a24.67,24.67,0,0,0-6.4-.81,27.39,27.39,0,0,0-5.28.51,27.39,27.39,0,0,1,5.28-.51,24.67,24.67,0,0,1,6.4.81" transform="translate(-397.95 -11.57)"/></g><path class="cls-32" d="M530.39,359l-8.61-4.71-11.91-6.53a24.27,24.27,0,0,1,2.59-3.51h0a19,19,0,0,1,1.39-1.44h0a20.19,20.19,0,0,1,2.5-2c.4-.26.8-.5,1.21-.73L1111.7,14.17a21.06,21.06,0,0,1,6-2.09,27.39,27.39,0,0,1,5.28-.51,24.67,24.67,0,0,1,6.4.81,16.9,16.9,0,0,1,3.59,1.42l.08,0c3.49,1.94,6.55,5.71,8.39,12a5.58,5.58,0,0,0-4.28-1.82,10.37,10.37,0,0,0-4.89,1.42L734.44,243.58,538.13,351.24a19.08,19.08,0,0,0-4.65,3.68,25.24,25.24,0,0,0-3.09,4" transform="translate(-397.95 -11.57)"/><path class="cls-36" d="M533.48,354.92a19.08,19.08,0,0,1,4.65-3.68L734.44,243.58,538.13,351.25a19.22,19.22,0,0,0-4.65,3.67" transform="translate(-397.95 -11.57)"/><polyline class="cls-45" points="132.44 347.4 123.84 342.69 132.44 347.4 132.44 347.4"/><path class="cls-46" d="M604.14,847.6a9.81,9.81,0,0,1-4.28,1.23,11.18,11.18,0,0,1-6.27-1.05,10.9,10.9,0,0,1-5.11-8.77l0-403.47,10.25,5.62V844.61c0,2.34,1.24,3.69,3,3.69a5.56,5.56,0,0,0,2.42-.7" transform="translate(-397.95 -11.57)"/><path class="cls-14" d="M601.72,847.11c-1.59,0-1.76-1.75-1.76-2.5V408.18l14.37-7.88c1.76-1,3.18-5.28,6-14.87,1.49-5.06,3.75-12.7,4.91-13.56l129.84-71.21c1.11.56,3.55,4.63,5,7.11,3.17,5.3,5.07,8.3,7.22,8.3a2.09,2.09,0,0,0,1-.26L1167.53,96.86V531.91a10.17,10.17,0,0,1-4.81,7.93L603.51,846.56a3.85,3.85,0,0,1-1.79.55" transform="translate(-397.95 -11.57)"/><path class="cls-5" d="M1168.79,94.79l-401,220-.41.11c-3,0-9.23-15.45-12.3-15.45l-.41.1-130,71.32c-3,1.65-7.9,26.76-10.9,28.41l-15,8.23V844.61c0,2.34,1.23,3.69,3,3.69a5.06,5.06,0,0,0,2.42-.7l559.21-306.72a11.31,11.31,0,0,0,5.44-9V94.79M755.89,301.61h0M1166.27,98.93v433a9,9,0,0,1-4.18,6.9L602.88,845.53a2.63,2.63,0,0,1-1.16.38c-.5,0-.5-1.25-.5-1.3V408.87L615,401.33c2.17-1.2,3.53-5.22,6.58-15.58,1.36-4.61,3.41-11.53,4.51-12.93l128.86-70.68a51.86,51.86,0,0,1,4.1,6.21c3.51,5.86,5.47,8.92,8.32,8.92a3.57,3.57,0,0,0,1.67-.42L1166.27,98.93" transform="translate(-397.95 -11.57)"/><path class="cls-6" d="M593.58,423.42a11,11,0,0,1-5.11-8.78V374.22a11.35,11.35,0,0,1,5.45-9L1153.12,58.53a12.23,12.23,0,0,1,10.56-.18,10.93,10.93,0,0,1,5.1,8.78v40.42a11.33,11.33,0,0,1-5.44,9L604.14,423.23a12.23,12.23,0,0,1-10.56.19" transform="translate(-397.95 -11.57)"/><path class="cls-8" d="M1162.06,57.69a11.79,11.79,0,0,0-2.84-.44,11.32,11.32,0,0,1,2.84.44" transform="translate(-397.95 -11.57)"/><path class="cls-47" d="M600.28,374.73l-10.22-5.62a11,11,0,0,1,3.85-3.86L1153.12,58.54a12,12,0,0,1,5.6-1.3h.5a11.79,11.79,0,0,1,2.84.44,7.76,7.76,0,0,1,1.61.66,11,11,0,0,1,5.06,7.94,3,3,0,0,0-3-2.87,5.12,5.12,0,0,0-2.43.71L604.14,370.85h0a10.68,10.68,0,0,0-3.64,3.54c-.07.11-.15.22-.22.34" transform="translate(-397.95 -11.57)"/><path class="cls-48" d="M598.7,441.16h0l-10.25-5.62V374.22h0v40.42a11,11,0,0,0,5.11,8.78,10.58,10.58,0,0,0,5,1.11h.16v16.63" transform="translate(-397.95 -11.57)"/><path class="cls-48" d="M588.46,374.22c0-.21,0-.41,0-.63a7.28,7.28,0,0,1,.21-1.28,11.29,11.29,0,0,1,1.36-3.19,10.15,10.15,0,0,0-1.6,5.1" transform="translate(-397.95 -11.57)"/><path class="cls-49" d="M598.54,424.53a10.58,10.58,0,0,1-5-1.11,11,11,0,0,1-5.11-8.78V374.22h0a10.15,10.15,0,0,1,1.6-5.1h0l10.22,5.62a10.13,10.13,0,0,0-1.58,5.09v44.71h-.16" transform="translate(-397.95 -11.57)"/><path class="cls-6" d="M1168.78,67.12V94.79l-401,220c-3,1.65-5.44.31-5.44-3V301.31c0-3.3-2.44-4.64-5.46-3L624.6,370.85a11.34,11.34,0,0,0-5.46,9v10.47a11.36,11.36,0,0,1-5.44,9l-15,8.23V379.82a11.36,11.36,0,0,1,5.44-9l559.2-306.72c3-1.65,5.44-.31,5.44,3" transform="translate(-397.95 -11.57)"/><path class="cls-8" d="M1143.23,84.47c3.79-2.07,6.86-.39,6.86,3.77s-3.07,9.2-6.86,11.28-6.86.39-6.86-3.76,3.07-9.21,6.86-11.29Z" transform="translate(-397.95 -11.57)"/><path class="cls-8" d="M1118.54,98c3.78-2.08,6.85-.4,6.85,3.76s-3.07,9.21-6.85,11.28-6.86.4-6.86-3.76,3.07-9.21,6.86-11.28Z" transform="translate(-397.95 -11.57)"/><path class="cls-8" d="M1093.84,111.52c3.79-2.08,6.86-.39,6.86,3.76s-3.07,9.21-6.86,11.29-6.85.39-6.85-3.76,3.06-9.21,6.85-11.29Z" transform="translate(-397.95 -11.57)"/><path class="cls-50" d="M1168.79,94.79v33.67L598.7,441.16V407.49l11.2-6.17c3-1.65,4-4.16,5.44-9l3.8-12.54c1.2-4.35,2.44-7.32,5.46-9l130-71.32c3-1.64,5.38-1.83,7.68,1.78l4.66,8c1.71,2.8,2.57,4.45,5.56,2.8L1168.79,94.79" transform="translate(-397.95 -11.57)"/><polygon class="cls-5" points="200.75 395.92 200.75 429.59 190.51 423.97 190.51 390.33 200.75 395.92 200.75 395.92"/><path class="cls-51" d="M618,421h-.45l-4.64-3.39v0l-.13-.18,0-.06-.06-.37.06-.44,0-.1.13-.32v0l4.64-8.48a.94.94,0,0,1,.7-.57.35.35,0,0,1,.27.13,1.45,1.45,0,0,1-.06,1.46l-3.27,6,8.56-4.69a.49.49,0,0,1,.24-.07c.26,0,.45.26.45.7a1.7,1.7,0,0,1-.69,1.38l-8.56,4.69,3.27,2.38c.28.21.31.83.06,1.39a1.41,1.41,0,0,1-.52.63" transform="translate(-397.95 -11.57)"/><path class="cls-51" d="M636.6,410.79l-.52-.06a1.4,1.4,0,0,1,.06-1.45l3.26-6L630.85,408a.49.49,0,0,1-.24.07c-.27,0-.45-.27-.45-.7a1.67,1.67,0,0,1,.69-1.38l8.55-4.7-3.26-2.38c-.29-.21-.31-.83-.06-1.38s.5-.7.76-.7a.35.35,0,0,1,.21.07l4.64,3.39v0l.13.17,0,.07.06.37-.06.44,0,.1-.13.31v0l-4.64,8.49a1.21,1.21,0,0,1-.45.49" transform="translate(-397.95 -11.57)"/><path class="cls-51" d="M652.89,402.35a2.76,2.76,0,0,1-1.93-.76c-2.12-1.93-2.12-7,0-11.24,1.55-3.12,3.81-5,5.75-5a1.51,1.51,0,0,1,.3,0l1.18-2.73c.12-.28.31-.43.46-.43s.24.11.27.33l.51,4.75a1,1,0,0,1-.39.91l-3.49,2.16a.32.32,0,0,1-.17.06c-.25,0-.36-.42-.17-.86l.88-2.05c-1.41.08-3,1.42-4.16,3.68-1.58,3.18-1.58,6.95,0,8.4a2.12,2.12,0,0,0,1.44.57c1.45,0,3.14-1.39,4.3-3.72.2-.4.49-.63.73-.63a.36.36,0,0,1,.25.1,1.36,1.36,0,0,1,0,1.42,10.18,10.18,0,0,1-3.85,4.43,4,4,0,0,1-1.91.54" transform="translate(-397.95 -11.57)"/><path class="cls-51" d="M745.43,324.73a.51.51,0,0,1-.34-.14,1.82,1.82,0,0,1,0-1.95l3.12-6.27-3.12-2.86a1.82,1.82,0,0,1,0-1.95c.27-.54.67-.86,1-.86a.5.5,0,0,1,.34.13l3.12,2.85,3.11-6.27c.28-.54.67-.86,1-.86a.48.48,0,0,1,.33.13,1.82,1.82,0,0,1,0,1.95l-3.12,6.27,3.12,2.86a1.81,1.81,0,0,1,0,1.95,1.79,1.79,0,0,1-.67.77.68.68,0,0,1-.33.09.5.5,0,0,1-.34-.13l-3.11-2.85-3.12,6.27a1.79,1.79,0,0,1-.67.77.7.7,0,0,1-.33.1" transform="translate(-397.95 -11.57)"/><path class="cls-14" d="M670.27,390.3V379.82a11.33,11.33,0,0,1,5.45-9l457-250.52c3-1.65,5.45-.31,5.45,3v10.48a11.36,11.36,0,0,1-5.45,9L675.72,393.29c-3,1.65-5.45.31-5.45-3Z" transform="translate(-397.95 -11.57)"/><path class="cls-5" d="M1129.49,125.88l-.86.38,1.59,3.21.82.31.34.12,3.55-1.29-.18-.44v.47l.18,0-.18-.44v-.11l-.52.32.52.26v-.58l-.52.32.31-.2-.36.09,0,.11.31-.2-.36.09.12,0-.13,0h0l.12,0-.13,0h0l-.08.24h0l-2.31,4.13h0a2.21,2.21,0,0,0-.3,1.09l0,.25.55,3.74h0l-.12.29,0,.05h0l.25.29V138l-.25.06.25.29v.2l.07-.54h-.07v.55l.07-.54-2.86-.34h-.16a1.67,1.67,0,0,0-1.28.66l0,0-2.82,3.43,0,0,.1.1-.06-.13,0,0,.1.1-.06-.13.21.43v-.47l-.21,0,.21.43v.11l.49-.34-.49-.24v.58l.49-.34-.34.24.41-.11-.07-.13-.34.24.41-.11-.18,0,.19,0v0l-.18,0,.19,0h0v0l.55-4.33h0v-.25a1.38,1.38,0,0,0-.58-1.18h0l-2.31-1.59h0l-.31.4.5-.18-.19-.22-.31.4.5-.18-.25.09.26,0V135l-.25.09.26,0h0l.06-.21.1-.15,0,0,3.17-2.32h0a2.28,2.28,0,0,0,.79-1.13h0l1.44-4.47v0l.13-.23h0l-.24-.29v.35l.24-.06-.24-.29V126l-.35.5.35.1V126l-.35.5.3-.43-.49.22.19.21.3-.43-.49.22h0l.86-.38.85-.39a1.34,1.34,0,0,0-.45-.51,1.26,1.26,0,0,0-.71-.2,1.57,1.57,0,0,0-1.12.49,2.36,2.36,0,0,0-.59,1l-1.43,4.46h0l-.08.17-.06.07-3.2,2.35h0a2.28,2.28,0,0,0-.9,1.78,1.39,1.39,0,0,0,.58,1.18h0l2.32,1.59h0l.31-.41-.5.19.19.22.31-.41-.5.19.23-.09-.25,0,0,0,.23-.09-.25,0h0v.07l-.55,4.3h0v.25a1.41,1.41,0,0,0,.29.91,1.3,1.3,0,0,0,1,.5,1.67,1.67,0,0,0,1.27-.67l2.87-3.47h0l0,0h0l-.24-.33v.38l.24-.05-.24-.33v-.18l-.07.56h.07v-.56l-.07.56h0l2.87.34h.16a1.59,1.59,0,0,0,.86-.28,2.21,2.21,0,0,0,.68-.79,2.27,2.27,0,0,0,.27-1l0-.26v0l-.54-3.71h0l.08-.24h0l2.31-4.13h0a2.21,2.21,0,0,0,.3-1.09,1.44,1.44,0,0,0-.25-.86,1.27,1.27,0,0,0-1.06-.55l-.5.09-2.86,1-.13,0-.34.84.85-.39-1.43-2.88h0l-.85.39Z" transform="translate(-397.95 -11.57)"/><path class="cls-51" d="M1144.54,119.06a1.89,1.89,0,0,1-1.63-.89,1.73,1.73,0,0,1,.69-2.45l15.34-8.42a1.95,1.95,0,0,1,2.58.66,1.74,1.74,0,0,1-.7,2.45l-15.33,8.41a1.92,1.92,0,0,1-1,.24" transform="translate(-397.95 -11.57)"/><path class="cls-51" d="M1144.54,127.48a1.88,1.88,0,0,1-1.63-.9,1.73,1.73,0,0,1,.69-2.45l15.34-8.41a1.85,1.85,0,0,1,.94-.24,1.92,1.92,0,0,1,1.64.9,1.73,1.73,0,0,1-.7,2.44l-15.33,8.42a2,2,0,0,1-1,.24" transform="translate(-397.95 -11.57)"/><path class="cls-51" d="M1144.54,135.89a1.89,1.89,0,0,1-1.63-.89,1.73,1.73,0,0,1,.69-2.45l15.34-8.41a1.87,1.87,0,0,1,.94-.25,1.94,1.94,0,0,1,1.64.9,1.74,1.74,0,0,1-.7,2.45l-15.33,8.41a1.92,1.92,0,0,1-1,.24" transform="translate(-397.95 -11.57)"/><path class="cls-52" d="M615.52,450.59a1.93,1.93,0,0,1-1.64-.9,1.75,1.75,0,0,1,.69-2.45l15.34-8.41a2,2,0,0,1,2.58.65,1.75,1.75,0,0,1-.69,2.45l-15.34,8.42a2,2,0,0,1-.94.24" transform="translate(-397.95 -11.57)"/><path class="cls-52" d="M615.52,459a1.92,1.92,0,0,1-1.64-.89,1.75,1.75,0,0,1,.69-2.45l15.34-8.42a2,2,0,0,1,1-.24,1.89,1.89,0,0,1,1.63.9,1.75,1.75,0,0,1-.69,2.45l-15.34,8.41a1.88,1.88,0,0,1-.94.24" transform="translate(-397.95 -11.57)"/><path class="cls-52" d="M615.52,467.42a1.91,1.91,0,0,1-1.64-.9,1.75,1.75,0,0,1,.69-2.45l15.34-8.41a2,2,0,0,1,2.58.65,1.76,1.76,0,0,1-.69,2.46l-15.34,8.41a2,2,0,0,1-.94.24" transform="translate(-397.95 -11.57)"/><path class="cls-50" d="M751.59,376.4v12.9c0,2.64,2,3.72,4.38,2.4L938.23,291.6V269.1L756,369.2a9.14,9.14,0,0,0-4.38,7.2Z" transform="translate(-397.95 -11.57)"/><path class="cls-6" d="M961.21,256.49c2.41-1.32,4.37-.25,4.37,2.4V271.8a9.13,9.13,0,0,1-4.37,7.2l-23,12.6V269.1l23-12.61Z" transform="translate(-397.95 -11.57)"/><path class="cls-14" d="M951.28,278.86a1.84,1.84,0,0,1-1.83.17c-.86-.47-1.39-1.86-1.39-3.64,0-3.4,1.91-7.32,4.17-8.56a2.41,2.41,0,0,1,1.15-.34,1.47,1.47,0,0,1,.69.17c.85.47,1.38,1.86,1.38,3.64,0,3.4-1.91,7.32-4.17,8.56Zm8.23-4.67-2.57-.76a12.4,12.4,0,0,0,.41-3.13c0-2.49-.85-4.39-2.33-5.2a3.78,3.78,0,0,0-3.74.17c-2.87,1.57-5.12,6-5.12,10.12,0,2.5.85,4.39,2.33,5.2a3.35,3.35,0,0,0,1.63.42,4.38,4.38,0,0,0,2.11-.59,10.3,10.3,0,0,0,4.14-5.26l2.57.76.28,0a1,1,0,0,0,.91-.64.89.89,0,0,0-.62-1.13Z" transform="translate(-397.95 -11.57)"/><path class="cls-6" d="M675.85,413.14,649.52,427.6a9.09,9.09,0,0,0-4.36,7.17v12.86c0,2.64,2,3.71,4.36,2.39l26.32-14.46a9.06,9.06,0,0,0,4.36-7.17V415.53c0-2.64-2-3.71-4.35-2.39Z" transform="translate(-397.95 -11.57)"/><path class="cls-6" d="M1133.44,162.16c-5.66,3.11-10.25,10.66-10.25,16.87s4.59,8.73,10.25,5.63,10.27-10.66,10.26-16.88-4.6-8.73-10.26-5.62Z" transform="translate(-397.95 -11.57)"/><path class="cls-8" d="M1132.24,172.07a1.85,1.85,0,0,1-.9-.23,2.08,2.08,0,0,1-1-2,5.53,5.53,0,0,1,2.7-4.44h0a2.33,2.33,0,0,1,2.27-.16,2.1,2.1,0,0,1,1,2,5.55,5.55,0,0,1-2.7,4.44,2.83,2.83,0,0,1-1.37.39Z" transform="translate(-397.95 -11.57)"/><path class="cls-8" d="M1137.49,172.71a3.7,3.7,0,0,0-3.61.27l-1.49.81a9.5,9.5,0,0,0-4.61,7.6v1c1.46.77,3.46.64,5.66-.57a15.91,15.91,0,0,0,5.66-5.64v-.24a3.49,3.49,0,0,0-1.61-3.23Z" transform="translate(-397.95 -11.57)"/><path class="cls-6" d="M1097.17,192.29v-3.44c0-3.92-2.51-5.72-5.61-4S1086,191.08,1086,195v3.07a11.74,11.74,0,0,1-1.89,6v0a3.15,3.15,0,0,0-.47,1.57c0,1,.64,1.44,1.42,1l13.1-7.19a3.19,3.19,0,0,0,1.42-2.57,1.24,1.24,0,0,0-.42-1h0c-1.16-.49-1.92-1.74-1.92-3.59Z" transform="translate(-397.95 -11.57)"/><path class="cls-6" d="M1094.25,202.68a6.05,6.05,0,0,1-2.69,4.89c-1.49.81-2.69-.06-2.69-1.94l5.38-2.95Z" transform="translate(-397.95 -11.57)"/><path class="cls-6" d="M1050.67,229.16a1.47,1.47,0,0,1-.17.69,1.11,1.11,0,0,1-.41.48l-2.72,1.49-.41,0a.66.66,0,0,1-.17-.5V228.1a1.59,1.59,0,0,1,.17-.69,1.11,1.11,0,0,1,.41-.48l2.72-1.49.41,0a.62.62,0,0,1,.17.5v3.19Zm-1.87-20.51a5.8,5.8,0,0,1,2.27-.76,3.23,3.23,0,0,1,1.86.34,3,3,0,0,1,1.23,1.37,5.38,5.38,0,0,1,.45,2.35,8.52,8.52,0,0,1-.25,2.13,14.82,14.82,0,0,1-.66,1.91,15.37,15.37,0,0,1-.87,1.72c-.32.54-.62,1.07-.92,1.59s-.56,1-.79,1.56a5.85,5.85,0,0,0-.49,1.54,3.25,3.25,0,0,1-.21.71.92.92,0,0,1-.37.46l-2.63,1.44-.41,0a.66.66,0,0,1-.18-.51,7.2,7.2,0,0,1,.29-2,15.34,15.34,0,0,1,.72-1.89,19.69,19.69,0,0,1,1-1.76c.33-.57.65-1.1.93-1.6a14.18,14.18,0,0,0,.73-1.46,3.47,3.47,0,0,0,.29-1.32c0-.61-.16-1-.48-1.18s-.8-.08-1.46.29a3.68,3.68,0,0,0-1.4,1.19,5.19,5.19,0,0,0-.61,1.26c-.13.41-.24.78-.33,1.12a1.16,1.16,0,0,1-.55.72l-2.64,1.44h-.33a.55.55,0,0,1-.14-.43,10.6,10.6,0,0,1,.43-2.55,15.56,15.56,0,0,1,1.18-2.89,14.83,14.83,0,0,1,1.86-2.71,9.17,9.17,0,0,1,2.53-2Z" transform="translate(-397.95 -11.57)"/><path class="cls-5" d="M735.78,532.29l8-4.39V513.13l-8,19.16m16.07,76.58a8.34,8.34,0,0,1-5.75-2.27,10.41,10.41,0,0,1-3.18-8.07V582.08l-46.26,25.38a9.41,9.41,0,0,1-4.55,1.22,8.37,8.37,0,0,1-5.75-2.26,10.43,10.43,0,0,1-3.19-8.09V571.25A37.58,37.58,0,0,1,685.84,557l52.25-125a28.48,28.48,0,0,1,3.68-6.62,17.78,17.78,0,0,1,5.29-4.28l26.38-14.47a9.44,9.44,0,0,1,4.55-1.22,8.42,8.42,0,0,1,5.74,2.24,10.49,10.49,0,0,1,3.2,8.1v88.49l6.25-3.43a9.39,9.39,0,0,1,4.56-1.22,8.4,8.4,0,0,1,5.72,2.23,10.5,10.5,0,0,1,3.21,8.12V537a18,18,0,0,1-1.95,8,14.1,14.1,0,0,1-5.69,6.3L786.93,558V580.8a18,18,0,0,1-1.95,8,14,14,0,0,1-5.7,6.31l-22.87,12.55a9.45,9.45,0,0,1-4.56,1.22" transform="translate(-397.95 -11.57)"/><path class="cls-5" d="M878.77,401c-.51,0-2,.17-5,1.79a24.36,24.36,0,0,0-7.06,5.71,30.5,30.5,0,0,0-4.74,7.92,48.23,48.23,0,0,0-2.83,9.95A80,80,0,0,0,858,438c-.58,14.32-.58,28.62,0,42.57a61,61,0,0,0,1,10.32,12.23,12.23,0,0,0,2.06,5.28,2.22,2.22,0,0,0,1.67,1h.06c.72,0,2.22-.2,5.09-1.78A24.08,24.08,0,0,0,875,489.6a32.28,32.28,0,0,0,4.84-8,42.76,42.76,0,0,0,2.79-9.84,87.34,87.34,0,0,0,1.07-11.66c.46-14.57.46-28.9,0-42.61a75.28,75.28,0,0,0-1.21-10.18,13.84,13.84,0,0,0-2.09-5.47,1.82,1.82,0,0,0-1.48-.88h-.17M849.45,553.33c-.47,0-.94,0-1.4,0a29,29,0,0,1-19.53-8.17c-4.83-4.71-8.44-11.26-10.72-19.48A112.31,112.31,0,0,1,814,500c-.23-6.86-.35-14.42-.35-22.49s.12-15.93.35-23.36a171.38,171.38,0,0,1,3.7-29.35,125.54,125.54,0,0,1,9.67-28.38,111.4,111.4,0,0,1,16.45-24.88A88.14,88.14,0,0,1,868,352.24c9.22-5.05,17.18-7.51,24.35-7.51.48,0,.94,0,1.4,0a29.12,29.12,0,0,1,19.54,8.18c4.83,4.72,8.43,11.27,10.72,19.47a112.2,112.2,0,0,1,3.77,25.7c.23,7.35.35,15.09.35,23s-.12,15.62-.34,22.84a172.89,172.89,0,0,1-3.7,29.35,125.72,125.72,0,0,1-9.68,28.38,111,111,0,0,1-16.45,24.88,88,88,0,0,1-24.11,19.25c-9.21,5-17.18,7.51-24.35,7.51" transform="translate(-397.95 -11.57)"/><path class="cls-5" d="M992.28,391.62l8-4.4V372.45l-8,19.17m16.08,76.57a8.38,8.38,0,0,1-5.76-2.27,10.42,10.42,0,0,1-3.17-8.07V441.4l-46.26,25.38a9.41,9.41,0,0,1-4.55,1.22,8.37,8.37,0,0,1-5.75-2.26,10.42,10.42,0,0,1-3.19-8.08V430.57a37.58,37.58,0,0,1,2.67-14.23l52.25-125a28.69,28.69,0,0,1,3.68-6.62,17.78,17.78,0,0,1,5.29-4.28L1030,266a9.45,9.45,0,0,1,4.56-1.22,8.42,8.42,0,0,1,5.73,2.24,10.49,10.49,0,0,1,3.2,8.1v88.49l6.25-3.43a9.39,9.39,0,0,1,4.56-1.22,8.44,8.44,0,0,1,5.73,2.23,10.55,10.55,0,0,1,3.2,8.12v27.08a18,18,0,0,1-2,8,14.14,14.14,0,0,1-5.68,6.3l-12.11,6.64v22.85a18,18,0,0,1-2,8,14,14,0,0,1-5.7,6.31L1012.92,467a9.42,9.42,0,0,1-4.56,1.22" transform="translate(-397.95 -11.57)"/><path class="cls-6" d="M819.5,517.06l-.59-.42-17.76-9.73V427a5.31,5.31,0,0,0-1.39-4.09l-.56-.41-19-10.4a2.72,2.72,0,0,0-2.78.16L751.06,426.7a11.87,11.87,0,0,0-3.58,2.86,23.28,23.28,0,0,0-2.88,5.28l-52.24,125a32.32,32.32,0,0,0-2.27,12.24v27.08a5.29,5.29,0,0,0,1.4,4.09l.59.42,19,10.41a2.74,2.74,0,0,0,2.76-.19l36-19.76v5.22a5.31,5.31,0,0,0,1.39,4.09l.57.41,19,10.41a2.72,2.72,0,0,0,2.76-.18l22.89-12.55a8.58,8.58,0,0,0,3.32-3.86,12.57,12.57,0,0,0,1.39-5.63V566l15-8.24a8.55,8.55,0,0,0,3.32-3.87,12.52,12.52,0,0,0,1.4-5.62V521.15a5.33,5.33,0,0,0-1.4-4.09" transform="translate(-397.95 -11.57)"/><path class="cls-53" d="M690.8,564.94l-.11-.06a29.32,29.32,0,0,1,1.52-5.06l52.22-125a23.47,23.47,0,0,1,2.9-5.29l0,0,.09.06a23.77,23.77,0,0,0-2.85,5.25l-52.24,125a29.56,29.56,0,0,0-1.56,5.13" transform="translate(-397.95 -11.57)"/><path class="cls-7" d="M709.82,575.37h0l-19-10.42h0l0,0a29.56,29.56,0,0,1,1.56-5.13l52.24-125a23.77,23.77,0,0,1,2.85-5.25L766.35,440l-.09.31a25,25,0,0,0-2.67,5l-52.23,125a28,28,0,0,0-1.54,5.14" transform="translate(-397.95 -11.57)"/><path class="cls-54" d="M700.39,608.2l-2.54-1.4h0l2.54,1.4" transform="translate(-397.95 -11.57)"/><path class="cls-30" d="M697.85,606.8l-5.78-3.15-.37-.28.38.27,5.77,3.16h0m-7-4.3a6.21,6.21,0,0,1-.8-3.38V572.06c0-.72,0-1.43.07-2.13,0,.7-.06,1.4-.06,2.12v27.08a6.25,6.25,0,0,0,.79,3.37" transform="translate(-397.95 -11.57)"/><path class="cls-32" d="M710.83,613.92l-10.44-5.72-2.54-1.4-5.77-3.16-.38-.27-.22-.17a4.09,4.09,0,0,1-.6-.7,6.25,6.25,0,0,1-.79-3.37V572.05c0-.72,0-1.42.06-2.12a34.78,34.78,0,0,1,.68-5l19,10.41a33.28,33.28,0,0,0-.73,7.11v27.08a5.29,5.29,0,0,0,1.38,4.06l.36.3" transform="translate(-397.95 -11.57)"/><path class="cls-55" d="M709.82,575.37l-19-10.41h0l19,10.42" transform="translate(-397.95 -11.57)"/><polyline class="cls-32" points="371.77 530.76 355.77 521.99 371.77 483.75 371.77 530.76"/><polyline class="cls-56" points="346.25 544.74 355.77 521.99 371.77 530.76 346.25 544.74"/><path class="cls-30" d="M755.49,605.84l-3.69-2a2.36,2.36,0,0,1-.54-.4l.54.39,3.69,2" transform="translate(-397.95 -11.57)"/><path class="cls-32" d="M770.56,614.09c-1.52-.82-10-5.5-15.07-8.25l-3.69-2-.54-.39,0,0a5.29,5.29,0,0,1-1.4-4.08V594.1l19-10.42v26.06a5.33,5.33,0,0,0,1.4,4.09l.33.26" transform="translate(-397.95 -11.57)"/><path class="cls-7" d="M801.15,525.07V506.92s15.46,8.46,17.54,9.62a2.33,2.33,0,0,0-.9-.18,3.29,3.29,0,0,0-1.6.46l-15,8.25" transform="translate(-397.95 -11.57)"/><path class="cls-57" d="M749.8,427.47c.39-.27.81-.53,1.25-.78l26.39-14.46a3.3,3.3,0,0,1,1.61-.47h0a3.48,3.48,0,0,0-1.63.47L751.06,426.7c-.45.25-.87.5-1.26.77" transform="translate(-397.95 -11.57)"/><path class="cls-58" d="M797.05,421.3l-10.12-5.55h0l10.12,5.56" transform="translate(-397.95 -11.57)"/><path class="cls-57" d="M786.93,415.75,783.8,414l3.13,1.71h0" transform="translate(-397.95 -11.57)"/><path class="cls-47" d="M766.49,440l-19-10.42a11,11,0,0,1,2.3-2.06c.39-.27.81-.52,1.26-.77l26.38-14.47a3.48,3.48,0,0,1,1.63-.47h.25a2.52,2.52,0,0,1,.9.3l3.58,2,3.13,1.72,10.12,5.55,2,1.1a2.32,2.32,0,0,0-1-.23,3.42,3.42,0,0,0-1.64.48l-26.36,14.46a12.58,12.58,0,0,0-3.58,2.84" transform="translate(-397.95 -11.57)"/><path class="cls-6" d="M769.71,542.32v-47l-25.51,61,25.51-14Zm3.84,71.73a2.64,2.64,0,0,1-3.32-.22,5.31,5.31,0,0,1-1.39-4.09V583.68l-55,30.18a2.64,2.64,0,0,1-3.32-.22,5.29,5.29,0,0,1-1.4-4.09V582.47a32.32,32.32,0,0,1,2.27-12.24l52.24-125a23.51,23.51,0,0,1,2.88-5.28,12,12,0,0,1,3.58-2.86l26.38-14.47a2.64,2.64,0,0,1,3.32.23,5.31,5.31,0,0,1,1.39,4.09v98.11l15-8.24a2.63,2.63,0,0,1,3.32.22,5.33,5.33,0,0,1,1.4,4.09v27.08a12.55,12.55,0,0,1-1.4,5.62,8.55,8.55,0,0,1-3.32,3.87l-15,8.24v26a12.57,12.57,0,0,1-1.39,5.63,8.58,8.58,0,0,1-3.32,3.86l-22.89,12.55Z" transform="translate(-397.95 -11.57)"/><path class="cls-6" d="M872.93,500.33a71.2,71.2,0,0,1-.67-8.37q-.88-21.22,0-42.93a83.64,83.64,0,0,1,1.22-12.42,54.16,54.16,0,0,1,3.14-11.05,36,36,0,0,1,5.59-9.32,29.34,29.34,0,0,1,7.6-6.4q.57,3.78.83,8.27.69,20.83,0,42.93a94.72,94.72,0,0,1-1.13,12.37,48.86,48.86,0,0,1-3.15,11,37.58,37.58,0,0,1-5.68,9.37,29.36,29.36,0,0,1-7.75,6.5m69-90.8a107.16,107.16,0,0,0-3.58-24.48q-3.06-11-9.26-17a22.71,22.71,0,0,0-4.77-3.56c-3.17-1.76-17.29-9.48-19-10.44a24.57,24.57,0,0,0-10.84-2.92q-9.42-.44-22.53,6.74a82,82,0,0,0-22.54,18,105.45,105.45,0,0,0-15.63,23.65,119.23,119.23,0,0,0-9.26,27.18,166.29,166.29,0,0,0-3.59,28.41q-.34,11.19-.34,23.19t.34,22.29A107.22,107.22,0,0,0,824.52,525q3,11,9.26,17a22.43,22.43,0,0,0,4.73,3.55c3.18,1.77,17.49,9.61,19.33,10.6A24.59,24.59,0,0,0,868.41,559q9.44.45,22.54-6.74a82.18,82.18,0,0,0,22.54-18,105.34,105.34,0,0,0,15.63-23.65,119.88,119.88,0,0,0,9.26-27.18A166.15,166.15,0,0,0,942,455q.35-10.67.35-22.68t-.35-22.8" transform="translate(-397.95 -11.57)"/><path class="cls-53" d="M844.12,548.69l-5.62-3.09a22.17,22.17,0,0,1-2.58-1.71,22.21,22.21,0,0,0,2.59,1.7l5.61,3.1m-10.23-6.54-.11-.11-.66-.67c.21.23.43.45.66.67l.11.11m-4.57-5.72a44.07,44.07,0,0,1-4.8-11.41c-.62-2.2-1.15-4.48-1.61-6.83q.69,3.52,1.61,6.83a44.22,44.22,0,0,0,4.8,11.41m-8.73-57.56v-.61h0v.62m2.55-45.05q.61-3.57,1.38-7.17,1.15-5.49,2.8-10.74-1.64,5.26-2.8,10.74-.76,3.6-1.38,7.17" transform="translate(-397.95 -11.57)"/><path class="cls-7" d="M857.33,555.9c-2.09-1.13-8.35-4.55-13.21-7.21l-5.61-3.1a22.21,22.21,0,0,1-2.59-1.7,23.9,23.9,0,0,1-2-1.74l-.11-.11c-.23-.22-.45-.44-.66-.67a29.77,29.77,0,0,1-3.8-4.94,44.22,44.22,0,0,1-4.8-11.41q-.91-3.3-1.61-6.83a115,115,0,0,1-2-17.65c-.23-6.69-.35-13.9-.35-21.67v-.62q0-12,.35-23.19a164.35,164.35,0,0,1,2.2-21.24q.61-3.57,1.38-7.17,1.17-5.47,2.8-10.74c.91-3,1.95-5.85,3.09-8.7h0l19,10.44a119.79,119.79,0,0,0-5.85,19.42,163.37,163.37,0,0,0-3.6,28.41q-.34,11.16-.35,23.2t.35,22.28a105.49,105.49,0,0,0,3.6,24.48c2,7.31,5.12,13,9.24,17a21.85,21.85,0,0,0,4.56,3.44" transform="translate(-397.95 -11.57)"/><path class="cls-57" d="M845.17,381q2-2.64,4.23-5.19a80,80,0,0,1,7.78-7.73,80,80,0,0,0-7.77,7.74c-1.47,1.69-2.89,3.42-4.24,5.18m25.31-22.34,1.47-.82a64.1,64.1,0,0,1,11.83-5.17A64.39,64.39,0,0,0,872,357.84l-1.47.82m40.95-1.29L905.32,354a22.18,22.18,0,0,0-5.29-2.09,22.18,22.18,0,0,1,5.29,2.09l6.11,3.35" transform="translate(-397.95 -11.57)"/><path class="cls-47" d="M849.4,417.65h0l-19-10.44c.44-1.14.91-2.27,1.4-3.38.63-1.47,1.27-2.91,2-4.35A105.77,105.77,0,0,1,845.17,381c1.35-1.76,2.77-3.49,4.24-5.18a80,80,0,0,1,7.77-7.74,85.54,85.54,0,0,1,13.3-9.42l1.47-.82a64.39,64.39,0,0,1,11.83-5.17,33,33,0,0,1,9.61-1.59c.37,0,.74,0,1.1,0a27.19,27.19,0,0,1,5.54.82,22.18,22.18,0,0,1,5.29,2.09l6.11,3.35c4.33,2.37,9.72,5.33,12.21,6.72a25.17,25.17,0,0,0-10.15-2.56c-.37,0-.73,0-1.1,0q-9.09,0-21.45,6.76a82.16,82.16,0,0,0-22.52,18,104.8,104.8,0,0,0-15.65,23.64c-.63,1.29-1.22,2.59-1.8,3.93s-1.05,2.53-1.57,3.82" transform="translate(-397.95 -11.57)"/><path class="cls-30" d="M884.21,488.77h0a38.47,38.47,0,0,0,2.15-4.31,47,47,0,0,0,2.55-7.95,46.69,46.69,0,0,1-2.54,7.95,37.63,37.63,0,0,1-2.15,4.31m6-21.14q.3-3.22.39-6.59.71-22.1,0-42.93c-.06-1.23-.15-2.41-.25-3.56.1,1.14.19,2.33.26,3.56q.69,20.83,0,42.93c-.06,2.25-.19,4.44-.4,6.59" transform="translate(-397.95 -11.57)"/><path class="cls-32" d="M903.19,499.19l-19-10.42a37.63,37.63,0,0,0,2.15-4.31,46.69,46.69,0,0,0,2.54-7.95c.23-1,.44-2.05.61-3.1.3-1.88.55-3.81.73-5.78.21-2.15.34-4.34.4-6.59q.69-22.11,0-42.93c-.07-1.23-.16-2.42-.26-3.56-.15-1.66-.34-3.23-.56-4.72,0,0,.49-.34,1.12-.69a16.44,16.44,0,0,1,7.87-2.53,8.51,8.51,0,0,1,.88,0,7.88,7.88,0,0,1,5.59,3.2,19.07,19.07,0,0,1,3.06,7.64,81.5,81.5,0,0,1,1.31,11q.66,20.84,0,42.93a94.81,94.81,0,0,1-1.15,12.37,48,48,0,0,1-3.13,11.05,36.26,36.26,0,0,1-2.18,4.31" transform="translate(-397.95 -11.57)"/><path class="cls-59" d="M872.93,500.33h0a29.12,29.12,0,0,0,7.74-6.49,35.76,35.76,0,0,0,3.53-5.06h0a36.34,36.34,0,0,1-3.53,5.06,29.36,29.36,0,0,1-7.75,6.5" transform="translate(-397.95 -11.57)"/><path class="cls-56" d="M883.1,513.87a8.57,8.57,0,0,1-.89,0,8,8,0,0,1-5.68-3.14,17.6,17.6,0,0,1-3.13-7.6c-.19-.88-.33-1.81-.47-2.76a29.36,29.36,0,0,0,7.75-6.5,36.34,36.34,0,0,0,3.53-5.06l19,10.42a34.77,34.77,0,0,1-3.5,5.06,29.54,29.54,0,0,1-8.75,7.09q-4.59,2.54-7.84,2.53" transform="translate(-397.95 -11.57)"/><path class="cls-6" d="M909.64,471.46q.69-22.11,0-42.93a80,80,0,0,0-1.31-11,18.83,18.83,0,0,0-3.06-7.65,7.79,7.79,0,0,0-5.59-3.2q-3.49-.37-8.73,2.49a29.81,29.81,0,0,0-8.74,7.1,36,36,0,0,0-5.59,9.32,54.16,54.16,0,0,0-3.14,11.05A83.64,83.64,0,0,0,872.26,449q-.88,21.69,0,42.93a66.7,66.7,0,0,0,1.13,11.13,17.65,17.65,0,0,0,3.15,7.6,8,8,0,0,0,5.67,3.14c2.33.26,5.25-.57,8.74-2.49a29.74,29.74,0,0,0,8.73-7.09,37.29,37.29,0,0,0,5.68-9.37,48.86,48.86,0,0,0,3.15-11.05,94.72,94.72,0,0,0,1.13-12.37ZM891,368.26q13.09-7.18,22.54-6.73A23.15,23.15,0,0,1,929.12,368q6.2,6.08,9.26,17A107.07,107.07,0,0,1,942,409.53q.35,10.8.35,22.8T942,455a166.15,166.15,0,0,1-3.58,28.4,119.88,119.88,0,0,1-9.26,27.18,105.34,105.34,0,0,1-15.63,23.65,82.18,82.18,0,0,1-22.54,18q-13.11,7.18-22.54,6.74a23,23,0,0,1-15.63-6.5q-6.21-6-9.26-17A107.14,107.14,0,0,1,839.93,511q-.34-10.29-.34-22.29t.34-23.19a166.29,166.29,0,0,1,3.59-28.41,119.57,119.57,0,0,1,9.26-27.18,105.16,105.16,0,0,1,15.63-23.64,81.88,81.88,0,0,1,22.54-18Z" transform="translate(-397.95 -11.57)"/><path class="cls-6" d="M1076,376.38l-.59-.42-17.75-9.73V286.29a5.31,5.31,0,0,0-1.4-4.09l-.56-.41-19-10.4a2.7,2.7,0,0,0-2.78.16L1007.57,286a12,12,0,0,0-3.58,2.86,23.28,23.28,0,0,0-2.88,5.28l-52.24,125a32.28,32.28,0,0,0-2.27,12.24v27.08a5.32,5.32,0,0,0,1.39,4.09l.6.42,19,10.41a2.74,2.74,0,0,0,2.76-.19l36-19.76v5.22a5.31,5.31,0,0,0,1.39,4.09l.57.41,19,10.41a2.73,2.73,0,0,0,2.77-.18L1053,460.82a8.58,8.58,0,0,0,3.32-3.86,12.59,12.59,0,0,0,1.4-5.63V425.28l15-8.25a8.47,8.47,0,0,0,3.32-3.86,12.52,12.52,0,0,0,1.4-5.62V380.47a5.33,5.33,0,0,0-1.4-4.09" transform="translate(-397.95 -11.57)"/><path class="cls-53" d="M947.31,424.26l-.11-.06a29.32,29.32,0,0,1,1.52-5.06l52.22-125a22.82,22.82,0,0,1,2.91-5.29l0,0,.09.05a24.2,24.2,0,0,0-2.85,5.25l-52.24,125a29.56,29.56,0,0,0-1.56,5.13" transform="translate(-397.95 -11.57)"/><path class="cls-7" d="M966.33,434.69h0l-19-10.42h0l0,0a29.56,29.56,0,0,1,1.56-5.13l52.24-125a24.2,24.2,0,0,1,2.85-5.25l18.9,10.37-.09.31a24.6,24.6,0,0,0-2.67,5l-52.23,125a27.64,27.64,0,0,0-1.54,5.13" transform="translate(-397.95 -11.57)"/><path class="cls-54" d="M956.55,467.32l-2.19-1.2h0l2.19,1.2" transform="translate(-397.95 -11.57)"/><path class="cls-30" d="M954.36,466.12,948.58,463l-.38-.29.39.28,5.77,3.16h0m-7-4.38a6.2,6.2,0,0,1-.76-3.3V431.38c0-.72,0-1.43.07-2.12,0,.69-.06,1.39-.06,2.11v27.08a6.29,6.29,0,0,0,.75,3.29" transform="translate(-397.95 -11.57)"/><path class="cls-32" d="M967.34,473.24l-10.79-5.92-2.19-1.2L948.59,463l-.39-.28-.21-.15a3.82,3.82,0,0,1-.64-.79,6.29,6.29,0,0,1-.75-3.29V431.37c0-.72,0-1.42.06-2.11a36.2,36.2,0,0,1,.68-5l19,10.41a33.29,33.29,0,0,0-.72,7.11v27.08a5.26,5.26,0,0,0,1.38,4.06l.35.3" transform="translate(-397.95 -11.57)"/><path class="cls-55" d="M966.33,434.69l-19-10.41h0l19,10.42" transform="translate(-397.95 -11.57)"/><polyline class="cls-32" points="628.28 390.09 612.28 381.31 628.28 343.07 628.28 390.09"/><polyline class="cls-56" points="602.76 404.06 612.28 381.31 628.28 390.09 602.76 404.06"/><path class="cls-30" d="M1011.41,464.84l-3.1-1.69-.28-.22.28.21,3.1,1.7" transform="translate(-397.95 -11.57)"/><path class="cls-32" d="M1027.07,473.41l-15.66-8.57-3.1-1.7-.28-.21-.28-.21a5.29,5.29,0,0,1-1.4-4.08v-5.22l19-10.42v26.06a5.33,5.33,0,0,0,1.4,4.09l.33.26" transform="translate(-397.95 -11.57)"/><path class="cls-7" d="M1057.66,384.39V366.24s15.46,8.46,17.54,9.62a2.3,2.3,0,0,0-.9-.18,3.24,3.24,0,0,0-1.6.47l-15,8.24" transform="translate(-397.95 -11.57)"/><path class="cls-57" d="M1004.74,288.06h0m0,0,.25-.24-.25.24m.25-.24h0m0,0h0m1.18-.93c.42-.29.87-.57,1.34-.84L1034,271.55a3.3,3.3,0,0,1,1.61-.47h0a3.48,3.48,0,0,0-1.63.47L1007.57,286a14.7,14.7,0,0,0-1.35.83" transform="translate(-397.95 -11.57)"/><path class="cls-58" d="M1053.41,280.53l-10-5.46h0l10,5.47" transform="translate(-397.95 -11.57)"/><path class="cls-57" d="M1043.44,275.07l-3.37-1.85,3.37,1.84h0" transform="translate(-397.95 -11.57)"/><path class="cls-47" d="M1023,299.28l-19-10.42a7.76,7.76,0,0,1,.73-.8h0l.25-.24h0l0,0h0a12.4,12.4,0,0,1,1.18-.93,14.7,14.7,0,0,1,1.35-.83L1034,271.55a3.48,3.48,0,0,1,1.63-.47h.26a2.41,2.41,0,0,1,.89.3l3.34,1.83,3.37,1.85,10,5.46,2.17,1.19a2.32,2.32,0,0,0-1-.23,3.42,3.42,0,0,0-1.64.48l-26.36,14.46a12.43,12.43,0,0,0-3.58,2.85" transform="translate(-397.95 -11.57)"/><path class="cls-6" d="M1026.22,401.64v-47l-25.51,61,25.51-14Zm3.85,71.73a2.64,2.64,0,0,1-3.32-.22,5.27,5.27,0,0,1-1.4-4.09V443l-55,30.18A2.64,2.64,0,0,1,967,473a5.27,5.27,0,0,1-1.4-4.09V441.79a32.32,32.32,0,0,1,2.27-12.24l52.24-125a23.92,23.92,0,0,1,2.88-5.28,12,12,0,0,1,3.58-2.86L1053,282a2.64,2.64,0,0,1,3.32.23,5.31,5.31,0,0,1,1.4,4.09V384.4l15-8.24a2.63,2.63,0,0,1,3.32.22,5.33,5.33,0,0,1,1.4,4.09v27.08a12.52,12.52,0,0,1-1.4,5.62,8.47,8.47,0,0,1-3.32,3.86l-15,8.25v26.05a12.59,12.59,0,0,1-1.4,5.63,8.58,8.58,0,0,1-3.32,3.86l-22.88,12.55Z" transform="translate(-397.95 -11.57)"/><path class="cls-10" d="M844.62,630.66a.6.6,0,0,1,.75,0,1.23,1.23,0,0,1,.31.93v6.13a2.87,2.87,0,0,1-.31,1.28,1.94,1.94,0,0,1-.75.87L825.86,650.2a.6.6,0,0,1-.75-.05,1.2,1.2,0,0,1-.32-.93V611.84a2.92,2.92,0,0,1,.32-1.28,1.94,1.94,0,0,1,.75-.87l18.44-10.11a.6.6,0,0,1,.75,0,1.16,1.16,0,0,1,.32.92v6.14a2.72,2.72,0,0,1-.32,1.27,1.91,1.91,0,0,1-.75.88l-12.19,6.68v6.25l11.32-6.21a.61.61,0,0,1,.75.05,1.19,1.19,0,0,1,.32.93v6.14a2.75,2.75,0,0,1-.32,1.27,1.94,1.94,0,0,1-.75.87L832.11,631v6.48l12.51-6.85Z" transform="translate(-397.95 -11.57)"/><path class="cls-10" d="M858.54,609.3l4.47-2.45a8.28,8.28,0,0,0,2.76-2.43,6.72,6.72,0,0,0,1.08-4q0-2.43-1.08-2.76a3.69,3.69,0,0,0-2.76.59l-4.47,2.45v8.56Zm4.47-20a14.75,14.75,0,0,1,4.68-1.75A4.74,4.74,0,0,1,873.4,591a16,16,0,0,1,.77,5.46,24.07,24.07,0,0,1-1.22,7.87,20,20,0,0,1-3.49,6.28l4.91,11.09.12.57a2.25,2.25,0,0,1-.26,1,1.56,1.56,0,0,1-.61.71l-5.38,3c-.53.29-.9.32-1.13.09a2.72,2.72,0,0,1-.53-.74l-4.39-10-3.65,2v12.38a2.8,2.8,0,0,1-.31,1.27,1.93,1.93,0,0,1-.76.88l-5.18,2.84a.58.58,0,0,1-.75-.05,1.19,1.19,0,0,1-.32-.92V597.34a2.88,2.88,0,0,1,.32-1.27,1.94,1.94,0,0,1,.75-.87L863,589.31Z" transform="translate(-397.95 -11.57)"/><path class="cls-10" d="M887,593.68l4.46-2.46a8.07,8.07,0,0,0,2.76-2.43,6.71,6.71,0,0,0,1.09-3.95c0-1.62-.37-2.54-1.09-2.76a3.68,3.68,0,0,0-2.76.58L887,585.11v8.57Zm4.46-20a14.71,14.71,0,0,1,4.67-1.75,4.76,4.76,0,0,1,5.72,3.43,16.21,16.21,0,0,1,.77,5.45,24.13,24.13,0,0,1-1.22,7.88A20.33,20.33,0,0,1,898,595l4.9,11.08.12.57a2.35,2.35,0,0,1-.26,1,1.56,1.56,0,0,1-.61.71l-5.38,3c-.53.29-.91.32-1.13.1a2.62,2.62,0,0,1-.53-.75l-4.4-10-3.63,2v12.39a2.84,2.84,0,0,1-.32,1.27,2,2,0,0,1-.75.87l-5.19,2.85A.6.6,0,0,1,880,620a1.2,1.2,0,0,1-.32-.93V581.72a2.84,2.84,0,0,1,.32-1.27,1.91,1.91,0,0,1,.75-.88l10.72-5.88Z" transform="translate(-397.95 -11.57)"/><path class="cls-10" d="M924.66,580.62c0-.71.05-1.49.08-2.36s0-1.74,0-2.62,0-1.74,0-2.56,0-1.54-.08-2.18a9.59,9.59,0,0,0-.41-2.43,3.73,3.73,0,0,0-1-1.6,2.31,2.31,0,0,0-1.53-.58,4.56,4.56,0,0,0-2.14.65,8.15,8.15,0,0,0-2.13,1.69,10.18,10.18,0,0,0-1.52,2.26,12.1,12.1,0,0,0-1,2.63,15.26,15.26,0,0,0-.42,2.89c-.05.69-.08,1.44-.1,2.28s0,1.7,0,2.59,0,1.75,0,2.59,0,1.6.1,2.26a6.23,6.23,0,0,0,1.37,4.06q1.2,1.24,3.65-.1a8.39,8.39,0,0,0,3.65-3.91,15.48,15.48,0,0,0,1.38-5.56Zm-17.37-.48a31.14,31.14,0,0,1,1-6.64,29,29,0,0,1,2.41-6.3,26.53,26.53,0,0,1,3.8-5.44,19.62,19.62,0,0,1,5.16-4.08,10.93,10.93,0,0,1,5.15-1.57,5.9,5.9,0,0,1,3.82,1.26A8,8,0,0,1,931,561a18.75,18.75,0,0,1,1,5.58c0,1.63.08,3.35.08,5.16s0,3.53-.08,5.14a31.14,31.14,0,0,1-1,6.63,29.65,29.65,0,0,1-2.41,6.33,25.18,25.18,0,0,1-3.82,5.45,19.92,19.92,0,0,1-5.15,4,11.21,11.21,0,0,1-5.16,1.62,5.78,5.78,0,0,1-3.8-1.28,8.14,8.14,0,0,1-2.41-3.68,18.74,18.74,0,0,1-1-5.57c0-1.55-.08-3.24-.08-5.05s0-3.57.08-5.25Z" transform="translate(-397.95 -11.57)"/><path class="cls-10" d="M944.92,561.93l4.47-2.45a8.07,8.07,0,0,0,2.75-2.44,6.59,6.59,0,0,0,1.09-3.95c0-1.62-.36-2.54-1.09-2.76a3.71,3.71,0,0,0-2.75.58l-4.47,2.46v8.56Zm4.47-20a14.71,14.71,0,0,1,4.67-1.75,5.27,5.27,0,0,1,3.5.51,5.35,5.35,0,0,1,2.22,2.92,16.23,16.23,0,0,1,.77,5.46,23.85,23.85,0,0,1-1.23,7.87,20,20,0,0,1-3.48,6.28l4.91,11.08.11.57a2.31,2.31,0,0,1-.25,1,1.55,1.55,0,0,1-.62.72l-5.38,3c-.52.28-.9.32-1.12.09a2.35,2.35,0,0,1-.53-.74l-4.4-10-3.64,2v12.38a2.84,2.84,0,0,1-.32,1.27,1.91,1.91,0,0,1-.75.88l-5.18,2.84a.6.6,0,0,1-.75-.05,1.17,1.17,0,0,1-.32-.93V550a2.75,2.75,0,0,1,.32-1.27,2,2,0,0,1,.75-.88l10.72-5.88Z" transform="translate(-397.95 -11.57)"/><path class="cls-5" d="M768.41,711.71l4.7-2.57a7.6,7.6,0,0,0,2.76-2.51,7.2,7.2,0,0,0,1-4c0-1.65-.34-2.61-1-2.87a3.45,3.45,0,0,0-2.76.56l-4.7,2.58v8.86Zm4.85-17.06q3.68-2,5.71-.6c1.35.94,2,3,2,6.29a17.5,17.5,0,0,1-2,8.56,14.18,14.18,0,0,1-5.71,5.7l-4.85,2.66v9.89a2.14,2.14,0,0,1-.24,1,1.4,1.4,0,0,1-.58.67l-2.45,1.35a.45.45,0,0,1-.58,0,.91.91,0,0,1-.24-.71V700.75a2.21,2.21,0,0,1,.24-1,1.45,1.45,0,0,1,.58-.67l8.12-4.45Z" transform="translate(-397.95 -11.57)"/><path class="cls-5" d="M795.43,702l-3.34-10.81-3.33,14.46,6.67-3.65Zm-1.67-18.56c.32-.17.56-.18.73,0a2.09,2.09,0,0,1,.42.9l7.43,24,0,.3a2.17,2.17,0,0,1-.24,1,1.4,1.4,0,0,1-.58.67l-2.18,1.2c-.41.22-.69.25-.85.08a1.28,1.28,0,0,1-.33-.54l-1.31-4.21L787.3,712l-1.3,5.64a4.6,4.6,0,0,1-.34.92,1.87,1.87,0,0,1-.85.84l-2.18,1.2a.46.46,0,0,1-.58,0,.94.94,0,0,1-.24-.71l0-.33,7.43-32.1a5.75,5.75,0,0,1,.43-1.36,1.7,1.7,0,0,1,.72-.78l3.34-1.83Z" transform="translate(-397.95 -11.57)"/><path class="cls-5" d="M804.71,688.88a24.38,24.38,0,0,1,.67-5.22,20.27,20.27,0,0,1,1.75-4.73,18.24,18.24,0,0,1,2.84-4,15.83,15.83,0,0,1,3.92-3,9,9,0,0,1,4.36-1.38,4.21,4.21,0,0,1,4.15,3,9.36,9.36,0,0,1,.47,2.24,1.81,1.81,0,0,1-.23,1,1.55,1.55,0,0,1-.59.66l-2.45,1.35c-.23.12-.4.14-.54.05l-.29-.36a6,6,0,0,0-.31-.6,2.31,2.31,0,0,0-.82-.79,2.88,2.88,0,0,0-1.47-.35,5,5,0,0,0-2.28.74,9.11,9.11,0,0,0-3.63,3.79,12.5,12.5,0,0,0-1.46,5.61c0,1.15-.06,2.36-.06,3.65s0,2.48.06,3.58c.06,2.42.55,3.93,1.46,4.54s2.12.51,3.63-.33a10.41,10.41,0,0,0,2.07-1.48,8.94,8.94,0,0,0,1.62-2.05,10.27,10.27,0,0,0,1.06-2.68,14.4,14.4,0,0,0,.38-3.43v-.35l-3.7,2a.45.45,0,0,1-.58,0,.92.92,0,0,1-.24-.71v-3.15a2.24,2.24,0,0,1,.24-1,1.56,1.56,0,0,1,.58-.67l7-3.82a.46.46,0,0,1,.58,0,.91.91,0,0,1,.24.71v4.88a23.83,23.83,0,0,1-.57,5.21,20.56,20.56,0,0,1-1.73,4.81,18,18,0,0,1-2.88,4.1,15.7,15.7,0,0,1-4,3.12,9,9,0,0,1-4,1.31,4,4,0,0,1-2.82-.93,6.13,6.13,0,0,1-1.71-2.9,17,17,0,0,1-.65-4.54c0-.55,0-1.16-.05-1.84s0-1.37,0-2.07,0-1.41,0-2.1,0-1.31.05-1.89Z" transform="translate(-397.95 -11.57)"/><path class="cls-5" d="M841.82,682.54a.45.45,0,0,1,.57,0,.9.9,0,0,1,.25.71v3.15a2.13,2.13,0,0,1-.25,1,1.49,1.49,0,0,1-.57.67l-13.31,7.3a.46.46,0,0,1-.58,0,.94.94,0,0,1-.24-.71V666a2.17,2.17,0,0,1,.24-1,1.45,1.45,0,0,1,.58-.67l13.07-7.17a.46.46,0,0,1,.58,0,.94.94,0,0,1,.23.71v3.15a2.3,2.3,0,0,1-.23,1,1.57,1.57,0,0,1-.58.67l-9.8,5.37v7l9.13-5a.45.45,0,0,1,.57,0,.88.88,0,0,1,.25.71V674a2.07,2.07,0,0,1-.25,1,1.44,1.44,0,0,1-.57.67l-9.13,5v7.37l10-5.51Z" transform="translate(-397.95 -11.57)"/><path class="cls-5" d="M868.59,673.4c-.34.19-.61.2-.79,0l-.39-.41-8.49-13.79v18.27a2.14,2.14,0,0,1-.24,1,1.43,1.43,0,0,1-.58.68l-2.45,1.34a.44.44,0,0,1-.58,0,.9.9,0,0,1-.25-.7V651.11a2.23,2.23,0,0,1,.25-1,1.45,1.45,0,0,1,.58-.67l2.12-1.16c.34-.19.6-.2.79,0l.39.4,8.49,13.79V644.19a2.24,2.24,0,0,1,.24-1,1.53,1.53,0,0,1,.58-.66l2.45-1.35a.46.46,0,0,1,.58,0,.92.92,0,0,1,.24.71v28.64a2.21,2.21,0,0,1-.24,1,1.51,1.51,0,0,1-.58.67l-2.12,1.16Z" transform="translate(-397.95 -11.57)"/><path class="cls-5" d="M890,642.4q-.12-3.12-1.41-4.17c-.86-.7-2-.66-3.41.12A8.39,8.39,0,0,0,881.8,642a13.19,13.19,0,0,0-1.41,5.72q-.06,1.71-.06,3.78c0,1.37,0,2.61.06,3.71.08,2.09.55,3.47,1.41,4.15s2,.64,3.41-.14a8.5,8.5,0,0,0,3.41-3.6A13,13,0,0,0,890,649.9q.06-1.73.06-3.78T890,642.4Zm-13.74,7.31a26.88,26.88,0,0,1,.66-5A20.78,20.78,0,0,1,878.6,640a18.35,18.35,0,0,1,2.73-4.07,14.12,14.12,0,0,1,3.88-3.08,8,8,0,0,1,3.85-1.19,4,4,0,0,1,2.73,1.08,6.69,6.69,0,0,1,1.67,2.9,16.93,16.93,0,0,1,.66,4.34c0,.55,0,1.16,0,1.83s0,1.38,0,2.1,0,1.43,0,2.11,0,1.32,0,1.89a27,27,0,0,1-.65,5,20.78,20.78,0,0,1-1.65,4.72,17.65,17.65,0,0,1-2.75,4,14.54,14.54,0,0,1-3.86,3.05,8.09,8.09,0,0,1-3.88,1.2,4,4,0,0,1-2.73-1A6.3,6.3,0,0,1,877,662a17.2,17.2,0,0,1-.66-4.32c0-.55,0-1.16,0-1.84s0-1.37,0-2.09,0-1.44,0-2.12,0-1.32,0-1.89Z" transform="translate(-397.95 -11.57)"/><path class="cls-5" d="M912.59,618.23a.46.46,0,0,1,.57,0,.94.94,0,0,1,.25.71v3.15a2.23,2.23,0,0,1-.25,1,1.49,1.49,0,0,1-.57.67l-5.46,3v24.3a2.1,2.1,0,0,1-.25,1,1.49,1.49,0,0,1-.57.67l-2.46,1.34a.44.44,0,0,1-.57,0,.9.9,0,0,1-.24-.7V629l-5.46,3a.46.46,0,0,1-.58,0,.92.92,0,0,1-.24-.71v-3.15a2.24,2.24,0,0,1,.24-1,1.47,1.47,0,0,1,.58-.66l15-8.24Z" transform="translate(-397.95 -11.57)"/><path class="cls-5" d="M937.87,604.37a.46.46,0,0,1,.58,0,.94.94,0,0,1,.25.71v3.15a2.23,2.23,0,0,1-.25,1,1.45,1.45,0,0,1-.58.67l-9.67,5.3v8.61l9.07-5a.46.46,0,0,1,.58,0,.94.94,0,0,1,.24.71v3.15a2.21,2.21,0,0,1-.24,1,1.57,1.57,0,0,1-.58.67l-9.07,5v10.15a2.21,2.21,0,0,1-.24,1,1.4,1.4,0,0,1-.58.67l-2.45,1.35a.46.46,0,0,1-.58,0,.94.94,0,0,1-.24-.71V613.11a2.17,2.17,0,0,1,.24-1,1.48,1.48,0,0,1,.58-.68l12.94-7.09Z" transform="translate(-397.95 -11.57)"/><path class="cls-5" d="M955.74,606.37c-.09-2.09-.56-3.48-1.42-4.17s-2-.66-3.41.11a8.53,8.53,0,0,0-3.41,3.63,13.16,13.16,0,0,0-1.41,5.72c0,1.14-.06,2.4-.06,3.77s0,2.62.06,3.72c.08,2.08.55,3.47,1.41,4.15s2,.63,3.41-.14a8.47,8.47,0,0,0,3.41-3.61,13.16,13.16,0,0,0,1.42-5.69c0-1.14,0-2.41,0-3.78s0-2.61,0-3.71ZM942,613.68a27.82,27.82,0,0,1,.65-5,21.27,21.27,0,0,1,1.65-4.72,18.35,18.35,0,0,1,2.73-4.07,14.46,14.46,0,0,1,3.88-3.08,8,8,0,0,1,3.85-1.18,3.9,3.9,0,0,1,2.73,1.07,6.64,6.64,0,0,1,1.67,2.91,16.4,16.4,0,0,1,.67,4.33c0,.55,0,1.16,0,1.84s0,1.37,0,2.09,0,1.44,0,2.12,0,1.31,0,1.89a27.6,27.6,0,0,1-.65,5,21.61,21.61,0,0,1-1.65,4.72,18,18,0,0,1-2.75,4.06,14.63,14.63,0,0,1-3.87,3.05,8.06,8.06,0,0,1-3.88,1.2,4,4,0,0,1-2.73-1.06,6.41,6.41,0,0,1-1.65-2.9,17.69,17.69,0,0,1-.65-4.33c0-.55,0-1.16,0-1.84s0-1.37,0-2.09,0-1.43,0-2.11,0-1.32,0-1.89Z" transform="translate(-397.95 -11.57)"/><path class="cls-5" d="M981,580.72a.46.46,0,0,1,.58,0,.92.92,0,0,1,.24.71v18.18a25,25,0,0,1-.54,5.26,20.42,20.42,0,0,1-1.64,4.72,16.76,16.76,0,0,1-2.73,4,14.72,14.72,0,0,1-3.79,2.94,8.55,8.55,0,0,1-3.81,1.23,3.78,3.78,0,0,1-2.71-1,6,6,0,0,1-1.62-2.93,17.51,17.51,0,0,1-.53-4.67V591a2.21,2.21,0,0,1,.24-1,1.4,1.4,0,0,1,.58-.67l2.45-1.35a.46.46,0,0,1,.58,0,.94.94,0,0,1,.24.71v18a10.07,10.07,0,0,0,.34,2.92,3.11,3.11,0,0,0,.93,1.59,1.91,1.91,0,0,0,1.46.4,5,5,0,0,0,1.85-.64,8.23,8.23,0,0,0,1.87-1.4,7.87,7.87,0,0,0,1.46-2,10.87,10.87,0,0,0,1-2.63,14.53,14.53,0,0,0,.35-3.3V583.7a2.21,2.21,0,0,1,.24-1,1.4,1.4,0,0,1,.58-.67l2.42-1.33Z" transform="translate(-397.95 -11.57)"/><path class="cls-5" d="M1000.92,600.83c-.35.19-.61.2-.79,0l-.4-.41-8.49-13.79v18.27a2.14,2.14,0,0,1-.24,1,1.43,1.43,0,0,1-.58.68L988,607.93a.44.44,0,0,1-.58,0,.9.9,0,0,1-.24-.7V578.54a2.21,2.21,0,0,1,.24-1,1.51,1.51,0,0,1,.58-.67l2.12-1.16c.34-.19.61-.2.79,0l.39.4,8.49,13.79V571.62a2.17,2.17,0,0,1,.24-1,1.51,1.51,0,0,1,.58-.67l2.46-1.35a.45.45,0,0,1,.57,0,.89.89,0,0,1,.25.71V598a2.1,2.1,0,0,1-.25,1,1.44,1.44,0,0,1-.57.67l-2.12,1.16Z" transform="translate(-397.95 -11.57)"/><path class="cls-5" d="M1022.62,570.13a9.54,9.54,0,0,0-.38-2.44,3.48,3.48,0,0,0-.94-1.61,2.2,2.2,0,0,0-1.56-.56,4.85,4.85,0,0,0-2.24.72l-4.07,2.23v19.95l4.22-2.31a7.78,7.78,0,0,0,2.15-1.69,9.77,9.77,0,0,0,1.52-2.23,11.68,11.68,0,0,0,.92-2.63,15.46,15.46,0,0,0,.38-2.87q.12-3.35,0-6.56Zm-5-9.52a8.9,8.9,0,0,1,3.9-1.27,3.85,3.85,0,0,1,2.76.95,6.28,6.28,0,0,1,1.69,2.93,18.21,18.21,0,0,1,.71,4.66c.09,2.15.09,4.33,0,6.56a28.68,28.68,0,0,1-.71,5.45,20.92,20.92,0,0,1-1.68,4.78,16.77,16.77,0,0,1-2.71,4,14.78,14.78,0,0,1-3.81,3l-7.64,4.19a.44.44,0,0,1-.57,0,.87.87,0,0,1-.25-.7V566.37a2.1,2.1,0,0,1,.25-1,1.44,1.44,0,0,1,.57-.67l7.49-4.11Z" transform="translate(-397.95 -11.57)"/><path class="cls-6" d="M1359.42,89.18,1242,153.61a6.29,6.29,0,0,0-3,5V301.22a6.23,6.23,0,0,0,3,4.95l10.84,5.77a7.09,7.09,0,0,0,6.07,0l117.45-64.42a6.32,6.32,0,0,0,3-5V99.87a6.25,6.25,0,0,0-3-5l-10.84-5.77a7.12,7.12,0,0,0-6.07,0" transform="translate(-397.95 -11.57)"/><path class="cls-6" d="M1255.86,310.25V167.61a6.29,6.29,0,0,1,3-5l117.45-64.43c1.67-.91,3-.17,3,1.66V242.51a6.32,6.32,0,0,1-3,5l-117.45,64.42c-1.67.92-3,.18-3-1.66" transform="translate(-397.95 -11.57)"/><g class="cls-60"><rect class="cls-61" x="840.99" y="145.85" width="15.72" height="155.11"/></g><path class="cls-62" d="M1255.76,312.59a8,8,0,0,1-1.1-.07,5.84,5.84,0,0,1-1.84-.58l-5.83-3.1-5-2.68a5.3,5.3,0,0,1-1.58-1.32,6,6,0,0,1-1.47-3.62v-71l16.92-19.35v99.42h0c0,1.27.66,2,1.61,2h.08a2.49,2.49,0,0,0,1-.2,7.27,7.27,0,0,1-2.74.49m.1-101.76-16.92-9.26v-43a4.41,4.41,0,0,1,.17-1.17,6.38,6.38,0,0,1,.79-1.75l16.85,9.12a9.16,9.16,0,0,0-.43.82,5.23,5.23,0,0,0-.46,2v43.24" transform="translate(-397.95 -11.57)"/><path class="cls-61" d="M1258.67,312l.14-.06.08,0-.22.11" transform="translate(-397.95 -11.57)"/><path class="cls-62" d="M1258.5,312.1l.18-.08h0l0,0h0l.06,0-.14.06-.17.08" transform="translate(-397.95 -11.57)"/><path class="cls-62" d="M1257.47,312.3c-1,0-1.6-.77-1.61-2,0,1.18.63,2,1.61,2m1.21-.28h0m0,0,0,0,0,0m.06,0h0m-2.89-1.72h0v0h0m0-99.43h0v0m.46-45.23a9.16,9.16,0,0,1,.43-.82h0a6.35,6.35,0,0,0-.44.81" transform="translate(-397.95 -11.57)"/><path class="cls-8" d="M1239.89,155.65h0a6,6,0,0,1,1.83-1.89,6.13,6.13,0,0,0-1.83,1.89M1339.71,100l19.72-10.81a7,7,0,0,1,6.06,0l10.83,5.77a6.33,6.33,0,0,1,2.83,3.62,6.36,6.36,0,0,0-2.82-3.62l-10.84-5.77a7.16,7.16,0,0,0-6.07,0L1339.71,100" transform="translate(-397.95 -11.57)"/><path class="cls-47" d="M1256.75,164.78l-16.84-9.13h0a6.13,6.13,0,0,1,1.83-1.89,1.65,1.65,0,0,1,.25-.15L1339.71,100l19.71-10.81a7.16,7.16,0,0,1,6.07,0l10.84,5.77a6.36,6.36,0,0,1,2.82,3.62,4.08,4.08,0,0,1,.18.81,1.63,1.63,0,0,0-1.64-1.53,2.8,2.8,0,0,0-1.35.39l-70.1,38.45-47.35,26a6,6,0,0,0-2.14,2.14" transform="translate(-397.95 -11.57)"/><path class="cls-47" d="M1256.76,164.79h0a6,6,0,0,1,2.14-2.14l47.35-26-47.35,26a5.93,5.93,0,0,0-2.13,2.15" transform="translate(-397.95 -11.57)"/><polyline class="cls-63" points="858.8 153.22 841.96 144.09 841.96 144.08 858.8 153.22 858.8 153.22"/><path class="cls-6" d="M1238.94,201.57l-24.34,23.52a2.47,2.47,0,0,0,.46,3.93c.5.31,16.85,9.2,16.85,9.2l23.95-27.39-16.92-9.26" transform="translate(-397.95 -11.57)"/><path class="cls-49" d="M1231.91,238.22s-16.35-8.89-16.85-9.2a2.61,2.61,0,0,1-1.23-2.18,2.43,2.43,0,0,1,.77-1.75l24.34-23.52,16.92,9.26-16.92,19.35h0l-7,8" transform="translate(-397.95 -11.57)"/><path class="cls-6" d="M1255.86,210.83l-24.33,23.51a2.55,2.55,0,0,0,2.29,4.3l22-3c2.37,0,2.37-24.79,0-24.79Z" transform="translate(-397.95 -11.57)"/><path class="cls-10" d="M1278.77,188.85l17.45,16a2.42,2.42,0,0,0,3.31-.06,2.15,2.15,0,0,0-.07-3.14L1282,185.65a2.44,2.44,0,0,0-3.31.06,2.14,2.14,0,0,0,.07,3.14" transform="translate(-397.95 -11.57)"/><path class="cls-10" d="M1282.5,213.73l17.46-35.1a2.18,2.18,0,0,0-1.12-3,2.39,2.39,0,0,0-3.11,1.06l-17.46,35.1a2.18,2.18,0,0,0,1.12,3,2.4,2.4,0,0,0,3.11-1.06" transform="translate(-397.95 -11.57)"/><path class="cls-10" d="M1335.77,157.59l17.45,15.95a2.43,2.43,0,0,0,3.31-.06,2.15,2.15,0,0,0-.07-3.14l-17.45-16a2.43,2.43,0,0,0-3.31.06,2.15,2.15,0,0,0,.07,3.14" transform="translate(-397.95 -11.57)"/><path class="cls-10" d="M1339.5,182.46,1357,147.37a2.18,2.18,0,0,0-1.12-3,2.38,2.38,0,0,0-3.11,1.06l-17.46,35.1a2.17,2.17,0,0,0,1.12,3,2.38,2.38,0,0,0,3.11-1.06" transform="translate(-397.95 -11.57)"/><path class="cls-10" d="M1280.78,254.46l76-41.68a2.16,2.16,0,0,0,.85-3,2.4,2.4,0,0,0-3.19-.82l-76,41.69a2.15,2.15,0,0,0-.86,3,2.39,2.39,0,0,0,3.19.81" transform="translate(-397.95 -11.57)"/><path class="cls-10" d="M1324.78,226.49v20.15a10.31,10.31,0,0,0,2,6.54,7.29,7.29,0,0,0,5.82,2.75,10.87,10.87,0,0,0,5.2-1.46,20.81,20.81,0,0,0,7.59-7.79,21.38,21.38,0,0,0,3.08-10.45h-2.22l2.21,0v0h-2.22l2.21,0v-20.2a2.34,2.34,0,0,0-4.68,0v20.15h2.34l-2.34,0v0a17.25,17.25,0,0,1-2.49,8.3,16.43,16.43,0,0,1-5.84,6.09,6.17,6.17,0,0,1-2.86.87,2.52,2.52,0,0,1-2.09-1,6.21,6.21,0,0,1-1-3.86V226.49a2.34,2.34,0,0,0-4.67,0Z" transform="translate(-397.95 -11.57)"/><path class="cls-10" d="M1334.28,221.28v19.46a2.34,2.34,0,0,0,4.68,0V221.28a2.34,2.34,0,0,0-4.68,0" transform="translate(-397.95 -11.57)"/><path class="cls-64" d="M1265.76,824.32c.12-3.39-.94-22.22-2-39.55-1.17-18.24-1.15-34.94-1.15-34.94l32.46,23c-7.06,41-7.75,50-7.85,56.7l-.81.62a5.66,5.66,0,0,1,.2,1.72c0,8-9.43,12.27-16.78,17.6-2.91,2.11-11.35,8.32-19.89,12.44-5.34,2.57-16.22,2.84-17.58-.42,10.34-6.15,22.7-14,29.8-21.42,3.4-3.56,3.41-8.81,3.64-15.79" transform="translate(-397.95 -11.57)"/><path class="cls-38" d="M1219.67,871.63c-.46,0-.78,4.39,1.82,6.33,3,2.23,11.5,5.91,22.6,4s17-5.15,21.3-8.91,10.31-9,15.31-10.33c4.64-1.2,9.64-3.44,11.08-4.89s.92-7.57.92-7.57l-73,21.33" transform="translate(-397.95 -11.57)"/><path class="cls-6" d="M1287.26,826.72a2,2,0,0,1,1.57,1.56c.43,1.67,1.05,6.57,1.92,9.3,1.22,3.81,2.3,11.68,1.84,14.84s-8,5.7-12.8,7.69-10.5,6-15.38,10.21c-5,4.35-15.87,9.12-23.15,9.4-8.62.33-18.45-1.89-20.86-5.58-3-4.57-1-7.39,11.52-13.59,2.37-1.17,10.63-6.33,13.44-8.19,7.59-5,15-11.9,18.22-20.35a4.6,4.6,0,0,1,1.71-2.62,4.31,4.31,0,0,1,2.47-.32,22.12,22.12,0,0,1,6.24,1.48c1.75.7,4.23,1.5,4.3,3.58a6.9,6.9,0,0,1-.38,2.15c-.13.43-.22,1,.18,1.24s.86-.08,1.18-.38a31.28,31.28,0,0,0,3.25-4.08,12,12,0,0,1,1.92-2,20.27,20.27,0,0,0,2.12-1.45,3.83,3.83,0,0,0,.69-2.85" transform="translate(-397.95 -11.57)"/><path class="cls-32" d="M1239.56,879.75c-8.17,0-16.91-2.16-19.16-5.61a6.16,6.16,0,0,1-1.22-3.33c0-2.95,3.52-5.68,12.74-10.26,2.37-1.17,10.63-6.33,13.44-8.19,7.59-5,15-11.9,18.22-20.35a4.6,4.6,0,0,1,1.71-2.62A3.38,3.38,0,0,1,1267,829c.27,0,.54,0,.8,0a22.12,22.12,0,0,1,6.24,1.48c1.75.7,4.23,1.5,4.3,3.58v.12a7.07,7.07,0,0,1-.38,2,2.19,2.19,0,0,0-.11.63.65.65,0,0,0,.29.61.6.6,0,0,0,.3.07,1.41,1.41,0,0,0,.87-.44c-6.52,8.67-22.58,20.78-30.37,24.16s-4.33,4.63-2.09,4.83h.08c2.48,0,15.26-7.9,23-14.31,8.18-6.78,13.2-14,16.24-16.49,1.14-.93,2.35-2.06,3.43-3.12-.08-.43-.15-.85-.22-1.25a56.73,56.73,0,0,0,1.4,6.61,53.08,53.08,0,0,1,2,13,13.66,13.66,0,0,1-.11,1.84c-.46,3.17-8,5.7-12.8,7.69s-10.5,6-15.38,10.21c-5,4.35-15.87,9.12-23.15,9.4-.57,0-1.13,0-1.7,0" transform="translate(-397.95 -11.57)"/><path class="cls-32" d="M1288.84,828.29h0a2,2,0,0,0-1.57-1.56h0a2,2,0,0,1,1.57,1.56h0" transform="translate(-397.95 -11.57)"/><path class="cls-65" d="M1279.27,837.15h0a27.48,27.48,0,0,0,3-3.82,27.48,27.48,0,0,1-3,3.82h0" transform="translate(-397.95 -11.57)"/><path class="cls-66" d="M1289.35,831c-.2-1.13-.37-2.09-.51-2.68.14.59.31,1.55.51,2.68" transform="translate(-397.95 -11.57)"/><path class="cls-66" d="M1287.21,828.18h0a8.83,8.83,0,0,0,0-1.45h0c0,.16,0,.32,0,.49a6.19,6.19,0,0,1-.06,1" transform="translate(-397.95 -11.57)"/><path class="cls-65" d="M1284.51,831a16.92,16.92,0,0,0,2.06-1.4,2.48,2.48,0,0,0,.64-1.39h0a2.41,2.41,0,0,1-.64,1.39,16.92,16.92,0,0,1-2.06,1.4" transform="translate(-397.95 -11.57)"/><path class="cls-67" d="M1246.89,866.14h-.08c-2.24-.2-5.7-1.46,2.09-4.83s23.85-15.49,30.37-24.16h0a27.48,27.48,0,0,0,3-3.82l.2-.26a12,12,0,0,1,1.92-2l.06,0a16.92,16.92,0,0,0,2.06-1.4,3.2,3.2,0,0,0,.7-2.35c0-.17,0-.33,0-.49h0a2,2,0,0,1,1.57,1.56h0c.14.59.31,1.55.51,2.68.07.4.14.82.22,1.25-1.08,1.06-2.29,2.19-3.43,3.12-3,2.49-8.06,9.71-16.24,16.49-7.75,6.41-20.53,14.31-23,14.31" transform="translate(-397.95 -11.57)"/><path class="cls-4" d="M1247.32,865l.48-.19a.7.7,0,0,0,.06-1c-2.37-2.51-9-5.67-14.82-4.8a.75.75,0,0,0-.65.85.76.76,0,0,0,.89.63c5.44-.81,11.53,2.33,13.42,4.32a.8.8,0,0,0,.62.24Z" transform="translate(-397.95 -11.57)"/><path class="cls-4" d="M1254,860.64l.49-.19a.71.71,0,0,0,.06-1.05c-2.37-2.51-9-5.67-14.82-4.8a.76.76,0,0,0-.66.85.79.79,0,0,0,.9.63c5.43-.8,11.53,2.33,13.41,4.32a.81.81,0,0,0,.62.24Z" transform="translate(-397.95 -11.57)"/><path class="cls-4" d="M1260.78,856.5l.49-.2a.71.71,0,0,0,.06-1c-2.37-2.51-9-5.68-14.82-4.8a.76.76,0,0,0-.66.86.78.78,0,0,0,.9.62c5.43-.8,11.53,2.33,13.41,4.32a.82.82,0,0,0,.62.25Z" transform="translate(-397.95 -11.57)"/><path class="cls-4" d="M1267,851.83l.49-.2a.72.72,0,0,0,0-1c-2.36-2.51-9-5.67-14.82-4.8a.75.75,0,0,0-.65.86.78.78,0,0,0,.9.62c5.42-.8,11.53,2.33,13.4,4.32a.84.84,0,0,0,.63.25Z" transform="translate(-397.95 -11.57)"/><path class="cls-4" d="M1273.06,847.16l.48-.18a.73.73,0,0,0,.08-1.06c-3.27-3.56-10.36-5.68-16.17-4.81a.76.76,0,0,0-.66.86.79.79,0,0,0,.9.62c5.24-.78,11.84,1.16,14.74,4.31a.77.77,0,0,0,.63.26Z" transform="translate(-397.95 -11.57)"/><path class="cls-64" d="M1331.25,779.75l35.5-.74c-.44,22.52-4.1,47.52-4.63,68.65-.1,4,.23,30.9-1.32,39.08-2.33,12.3-17.69,10.7-18.54,3.35s.84-38.8.78-42c.08-13.54-6.69-36.39-10.3-60.7-.17-1.19-1.32-6.44-1.49-7.6" transform="translate(-397.95 -11.57)"/><path class="cls-38" d="M1336.5,895.22c-.3,7.23.39,12.1,2.65,16.56s7.18,6.25,12.43,5.49,12.16-3.46,14.26-9.52,2.24-10.34,1.75-17.11l-31.09,4.58" transform="translate(-397.95 -11.57)"/><path class="cls-6" d="M1362.2,845.07c2.09.36,1.74,10.06,2,19.83.25,10.47,3.07,15.05,3.37,23.65.34,9.82-.63,14.11-4.81,19.64s-17.42,10.12-22.81,1.15c-4.39-7.31-3.83-14.92-2.38-24.56,1.5-10,2.64-17,3-24.61.32-7.3.51-14.39,2.43-15,0,1.08,0,2.45.08,3.51,0,.81-.16,4.76,1,4.91a14.63,14.63,0,0,0,.3-2.73,3.14,3.14,0,0,1,.82-2.29,4.09,4.09,0,0,1,2.45-.78,61.49,61.49,0,0,1,6.37-.34,30.78,30.78,0,0,1,3.18.16,8.83,8.83,0,0,1,2.64.61,1.8,1.8,0,0,1,1,1.09,3,3,0,0,1,0,1.12,7.51,7.51,0,0,0,.06,2c0,.29.22.66.53.62s.38-.31.4-.55c.13-1.17.06-2,.14-3.4,0-.64,0-1.5.08-2.14s.11-1.24.13-1.87" transform="translate(-397.95 -11.57)"/><path class="cls-32" d="M1349.3,914.41a10.38,10.38,0,0,1-9.38-5.07,25,25,0,0,1-3.43-13.41,77,77,0,0,1,1-11.15c1.5-10,2.64-17,3-24.61.32-7.3.51-14.39,2.43-15,0,1.08,0,2.45.08,3.51v0c0-1,0-2.24-.07-3.28l0-.22c-1.39.49-1.86,4.36-2.15,9.23,0,2.83.1,6.34.33,10.6,1,8.51-.61,20.6.09,25.53.41,2.89,1.88,4.35,3,4.35.76,0,1.33-.72,1.19-2.17a108,108,0,0,1-.76-12.49c-.07-6.54-.52-20.26-1.24-27.46.15.46.37.78.69.82a14.63,14.63,0,0,0,.3-2.73,3.14,3.14,0,0,1,.82-2.29,4.09,4.09,0,0,1,2.45-.78c2-.19,4.06-.35,6.11-.35h.26a30.78,30.78,0,0,1,3.18.16,8.83,8.83,0,0,1,2.64.61,1.8,1.8,0,0,1,1,1.09,1.54,1.54,0,0,1,.05.43c0,.23,0,.46-.05.69a6.28,6.28,0,0,0,0,.75,7.64,7.64,0,0,0,.1,1.26c0,.28.2.62.48.62h0c.25,0,.38-.31.4-.55h0c-.67,7.15-1,21.07-1,27.67a108.57,108.57,0,0,1-.67,12.49c-.12,1.43.43,2.13,1.17,2.13,1.07,0,2.56-1.49,3-4.41.66-4.94-1-16.94-.1-25.46-.23-9.77.12-19.47-2-19.83h0c2.09.36,1.74,10.06,2,19.83.25,10.47,3.07,15.05,3.37,23.65,0,1.19.06,2.3.06,3.34,0,7.54-1.2,11.44-4.87,16.3-2.47,3.28-8.11,6.22-13.43,6.22m12.58-62.21h0m0,0c.09-1,0-1.86.11-3.1,0-.64,0-1.5.08-2.14,0-.32,0-.65.08-1l-.2,4.4c0,.63,0,1.19-.07,1.82" transform="translate(-397.95 -11.57)"/><path class="cls-65" d="M1361.85,852.48l0-.28,0,.28m0-.29h0" transform="translate(-397.95 -11.57)"/><path class="cls-68" d="M1362.19,845.25a.86.86,0,0,1,0-.16v.16" transform="translate(-397.95 -11.57)"/><path class="cls-65" d="M1362.15,846l0-.53,0-.34a.86.86,0,0,0,0,.16c0,.24,0,.48,0,.71" transform="translate(-397.95 -11.57)"/><path class="cls-67" d="M1361.32,894.77c-.74,0-1.29-.7-1.17-2.13a108.57,108.57,0,0,0,.67-12.49c0-6.6.36-20.52,1-27.67h0l0-.28h0c.06-.63.06-1.19.07-1.82l.2-4.4c0-.29,0-.59,0-.89h0c2.09.36,1.74,10.06,2,19.83-.9,8.52.76,20.52.1,25.46-.39,2.92-1.88,4.41-3,4.41" transform="translate(-397.95 -11.57)"/><path class="cls-65" d="M1343.37,852.74a15.46,15.46,0,0,1-.33-3.9,15.7,15.7,0,0,0,.33,3.87v0" transform="translate(-397.95 -11.57)"/><path class="cls-67" d="M1344.18,894.86c-1.08,0-2.55-1.46-3-4.35-.7-4.93.88-17-.09-25.53-.23-4.26-.35-7.77-.33-10.6.29-4.87.76-8.74,2.15-9.23l0,.22c0,1,0,2.29.07,3.28v.19a15.46,15.46,0,0,0,.33,3.9c.72,7.2,1.17,20.92,1.24,27.46a108,108,0,0,0,.76,12.49c.14,1.45-.43,2.17-1.19,2.17" transform="translate(-397.95 -11.57)"/><path class="cls-4" d="M1344,892.94l.3-.05a26.32,26.32,0,0,1,16.43-.11.79.79,0,0,0,1-.43.72.72,0,0,0-.46-1,27.45,27.45,0,0,0-17.58.12.73.73,0,0,0-.43,1,.78.78,0,0,0,.73.46Z" transform="translate(-397.95 -11.57)"/><path class="cls-4" d="M1343,885.17l.27,0a32.54,32.54,0,0,1,18.41-.11.8.8,0,0,0,1-.47.74.74,0,0,0-.49-.95,33.79,33.79,0,0,0-19.45.12.74.74,0,0,0-.47,1,.77.77,0,0,0,.74.49Z" transform="translate(-397.95 -11.57)"/><path class="cls-4" d="M1361.89,877.74a.77.77,0,0,0,.71-.44.73.73,0,0,0-.39-1c-9.16-3.92-19-.2-19.4,0a.73.73,0,0,0-.43,1,.81.81,0,0,0,1,.41c.09,0,9.64-3.63,18.16,0l.33.06Z" transform="translate(-397.95 -11.57)"/><path class="cls-4" d="M1362,870.88a.8.8,0,0,0,.71-.43.74.74,0,0,0-.38-1,25.56,25.56,0,0,0-19.78-.13.74.74,0,0,0-.37,1,.82.82,0,0,0,1.06.35c.08,0,9.06-4,18.42.14l.34.07Z" transform="translate(-397.95 -11.57)"/><path class="cls-4" d="M1362.18,863.16a.78.78,0,0,0,.7-.42.73.73,0,0,0-.36-1c-9.41-4.37-19.52-.13-19.94.06a.73.73,0,0,0-.39,1,.79.79,0,0,0,1,.37c.1,0,9.86-4.13,18.6-.08l.35.08Z" transform="translate(-397.95 -11.57)"/><path class="cls-10" d="M1351.86,560.75c12.64,32.9,12.88,53.38,10.87,87.9-1.84,31.67-4.86,59.55-4.86,59.55.52,5.61,8.79,16.55,10,41.37,1.08,23.2-2.32,52.32-2.32,52.32s-16.39,5.75-30.24.13c0,0-14.41-59.37-18.39-88.41-3.47-25.35-8.54-55.29-8.54-55.29l-9,55.28s2.32,14.85,1.42,25.28c-1.18,13.49-8.11,49.79-8.11,49.79s-17.19,5.87-28.87-3.9c0,0-3.56-54.39-5.27-75-2.28-27.56-1.81-103.15,5-141.87l88.42-7.18Z" transform="translate(-397.95 -11.57)"/><path class="cls-38" d="M1308.33,658.32l-6.2-45.78s-23-2.83-33.39-12.08c0,0,7.86,13.57,27.1,16.14l8.47,42.76-5,54.24,9-55.28Z" transform="translate(-397.95 -11.57)"/><path class="cls-9" d="M1314.44,490l.47-.21c29.58-13.24,41.46-44.42,40-74-.46-9.36-2.12-18.76-6.05-27.35a46.92,46.92,0,0,0-18.63-21.27,48.53,48.53,0,0,0-21.39-6.11c-6.85-.42-15.72-.32-22.17,2.2-2.81,1.09-3.32.85-6.35.2a22.66,22.66,0,0,0-7-.4c-6.51.65-12,4.26-16.1,9-5.46,6.38-6.12,15.91-4.23,23.64.88,3.57,6.13,8.81,5.91,12.2-.33,4.94-4.11,8.8-8.27,13.14-4,4.17-8.79,7.48-10.79,13.76-1.73,5.4-2,16.85,10.68,21.24-18.51,23.26-.25,35.87,9.85,39.22a51.48,51.48,0,0,0,21.05,2.42c11.23-1.37,22.68-3.12,33-7.69Z" transform="translate(-397.95 -11.57)"/><path class="cls-64" d="M1250.48,529.49c10.88-10.64,30.57-34.73,30.57-34.73l11.13-36.63c.27.1-5.68.12-7.47,0-12,.76-15.57,1.73-23,9.52-5.94,6.17-28.61,35.58-36.49,45.47l-20.92-25.3c-5-7.21-4.2-15.26-6.8-21.14s-6.8-8.47-10.17-13.78-4.17-8.78-6.93-6.07.43,10,.84,11.71,4.63,6.63-2.41,4.05-17.92-14.82-20.73-17.32-4.28,1.38-3.65,4.43-2.39,10-1.3,15c1.16,5.38,2,7.83,7.45,13.05,5.08,4.86,17.51,10.82,22.37,17.19s15.24,26.2,21.58,38.14c8.06,15.19,14.93,20.19,24,15.08s18-14.77,22-18.72Z" transform="translate(-397.95 -11.57)"/><path class="cls-69" d="M1225.17,513.14c5.08,4.64,7.23,10.39,7.59,13.34,0,0,2.35-7.33-5.79-15.6l-1.8,2.26Z" transform="translate(-397.95 -11.57)"/><path class="cls-6" d="M1264.62,522.72c-14.79-11.55-9.92-26.62-4.52-36.77,10.8-20.28,22-28.26,26.73-28.18l29.43.26c14.06,1.82,25,.91,28.35,1.68,8.64,2,8.83,8.71,9.17,17.46.38,9.6,1.45,8.57-1.19,24.44,0,0-4,12.3-5.58,17.78s-4.5,14-2.13,22.9c.92,3.42,3.36,6.77,7.06,16.23a133.46,133.46,0,0,1,7.51,24.05s-20.16,17.75-62.1,12c-30.88-4.19-36.94-13.85-36.94-13.85l5.77-34.18c-.76-12-1-16.31-1.56-23.87" transform="translate(-397.95 -11.57)"/><path class="cls-49" d="M1302.73,529.49c-12.48,0-18.88-9.8-18.88-9.8a33,33,0,0,0,18.22,6,26.22,26.22,0,0,0,7.94-1.23c14.08-4.48,16.33-16.06,16.33-16.06s1.21,15.22-16.54,20.1a26.56,26.56,0,0,1-7.07,1" transform="translate(-397.95 -11.57)"/><path class="cls-64" d="M1389.4,429.88c-6.28-7.42-23.41-26-26.54-29.68a17.84,17.84,0,0,0-7.41-5.29,19.33,19.33,0,0,1-6.86-4.15c-1.22-1.14-3.86-6-4.93-7.23a47.27,47.27,0,0,0-11.26-9.95c-5-3.31-9.67-4.84-14.75-8-3-1.85-6.66-3.7-3.38-6.8a7.41,7.41,0,0,1,3.75-1.94c6.94-1.24,14.44.84,23.14,3a106.58,106.58,0,0,1,11,3.27A22.64,22.64,0,0,1,1358,366c2.27,1.72,3.68,4.23,5.2,6.58,4.07,6.31,13.39,10.53,19.17,15.36,6.79,5.66,13.49,10.4,21.22,16.64,7,5.62,15.57,12.94,21.06,19.87,4.77,6,3.33,9.6,1.43,12.27-9.67,13.53-31.18,28.87-38.83,34.88-8.18,6.41-13.9,10.4-21.2,16.6a176,176,0,0,0-14.49,14.65,3.34,3.34,0,0,1-4,.86c-8.44-4.38-14.07-26.72-7.54-40.47,1.67-3.52,3.41-3.66,3.41-3.66,13.32-8.89,46-29.65,46-29.65" transform="translate(-397.95 -11.57)"/><path class="cls-69" d="M1389.4,429.88a33.18,33.18,0,0,0,15.22,10.33s-8.08,1.81-18.9-7.75l3.68-2.58Z" transform="translate(-397.95 -11.57)"/><path class="cls-64" d="M1269.14,415.42c.12,22.05,7.56,27.62,11.3,29.25s11,.8,18.14-.19l-.24,13.22s-8.31,8-7.81,14.06,12.69,7,22,1.18a68.87,68.87,0,0,0,13.76-11.39,4.6,4.6,0,0,0,1.23-3l.57-31.13s3.8,4,10.74-.38,7.67-12.62,3.57-17.39c-2.92-3.38-10.5-3.74-14.24,1.38-2.11,3.77-1.93,6.41-4.72,6s-3-3.4-3.21-5.52-.1-2.81-.27-5.59c-6.86-1.4-14-10.47-14.76-17.1-4.9,2-10,3.52-14.93,3.2-7.69-.5-11.65-2-15.43-7.23a14.27,14.27,0,0,0-2.14,3.91,45.74,45.74,0,0,0-2.38,8.66,106.75,106.75,0,0,0-1.15,18.13Z" transform="translate(-397.95 -11.57)"/><path class="cls-69" d="M1298.59,444.47c7.48-.81,22.91-4.74,25.41-10.47,0,0-.87,3.61-5.52,7.27s-20,7.61-20,7.61l.08-4.41Z" transform="translate(-397.95 -11.57)"/><path class="cls-70" d="M1291.06,432.59a3,3,0,1,0,3.1-2.84,3,3,0,0,0-3.1,2.84Z" transform="translate(-397.95 -11.57)"/><path class="cls-38" d="M1295,410.88a3.16,3.16,0,0,0,3,3.36,3.23,3.23,0,0,0,3.43-3,3.16,3.16,0,0,0-3-3.36,3.23,3.23,0,0,0-3.43,3Z" transform="translate(-397.95 -11.57)"/><path class="cls-38" d="M1273.27,409.57a2.86,2.86,0,0,0,2.71,3.05,2.74,2.74,0,0,0,3.11-2.7,2.86,2.86,0,0,0-2.7-3.05,2.94,2.94,0,0,0-3.12,2.7Z" transform="translate(-397.95 -11.57)"/><polygon class="cls-69" points="890.32 395.14 887.99 413.56 878.06 409.65 890.32 395.14 890.32 395.14"/><path class="cls-38" d="M1306.57,402.92l-5.78-5.22a3.83,3.83,0,0,0,.17,5.5,4,4,0,0,0,5.61-.28Z" transform="translate(-397.95 -11.57)"/><path class="cls-38" d="M1277.68,396l-6.41,4.6a4,4,0,0,0,5.52.85,3.87,3.87,0,0,0,.89-5.45Z" transform="translate(-397.95 -11.57)"/></svg>