<?xml version="1.0" encoding="utf-8"?>
<!-- Generator: Adobe Illustrator 27.5.0, SVG Export Plug-In . SVG Version: 6.00 Build 0)  -->
<svg version="1.1" xmlns="http://www.w3.org/2000/svg" xmlns:xlink="http://www.w3.org/1999/xlink" x="0px" y="0px"
	 viewBox="0 0 500 500" style="enable-background:new 0 0 500 500;" xml:space="preserve">
<g id="BACKGROUND">
	<rect style="fill:#FFFFFF;" width="500" height="500"/>
</g>
<g id="OBJECTS">
	<g>
		<g>
			<rect x="219.404" y="387.598" style="fill:none;" width="61.191" height="9.795"/>
			<text transform="matrix(1 0 0 1 234.479 395.8694)" style="fill:#C7D6DD; font-family:'Dosis-Bold'; font-size:11px;">IPSUM</text>
			<rect x="203.343" y="402.075" style="fill:none;" width="93.314" height="18.652"/>
			<text transform="matrix(1 0 0 1 203.3428 405.6689)"><tspan x="0" y="0" style="fill:#C7D6DD; font-family:'SourceSansPro-Light'; font-size:5px;">Lorem</tspan><tspan x="13.32" y="0" style="fill:#C7D6DD; font-family:'SourceSansPro-Light'; font-size:5px; letter-spacing:1;"> </tspan><tspan x="16.283" y="0" style="fill:#C7D6DD; font-family:'SourceSansPro-Light'; font-size:5px;">ipsum</tspan><tspan x="29.128" y="0" style="fill:#C7D6DD; font-family:'SourceSansPro-Light'; font-size:5px; letter-spacing:1;"> </tspan><tspan x="32.091" y="0" style="fill:#C7D6DD; font-family:'SourceSansPro-Light'; font-size:5px;">dolor</tspan><tspan x="43.18" y="0" style="fill:#C7D6DD; font-family:'SourceSansPro-Light'; font-size:5px; letter-spacing:1;"> </tspan><tspan x="46.144" y="0" style="fill:#C7D6DD; font-family:'SourceSansPro-Light'; font-size:5px;">sit</tspan><tspan x="51.023" y="0" style="fill:#C7D6DD; font-family:'SourceSansPro-Light'; font-size:5px; letter-spacing:1;"> </tspan><tspan x="53.987" y="0" style="fill:#C7D6DD; font-family:'SourceSansPro-Light'; font-size:5px;">amet,</tspan><tspan x="65.822" y="0" style="fill:#C7D6DD; font-family:'SourceSansPro-Light'; font-size:5px; letter-spacing:1;"> </tspan><tspan x="68.786" y="0" style="fill:#C7D6DD; font-family:'SourceSansPro-Light'; font-size:5px;">consectetur </tspan><tspan x="0" y="6" style="fill:#C7D6DD; font-family:'SourceSansPro-Light'; font-size:5px;">adipisicing</tspan><tspan x="22.39" y="6" style="fill:#C7D6DD; font-family:'SourceSansPro-Light'; font-size:5px; letter-spacing:2;"> </tspan><tspan x="25.824" y="6" style="fill:#C7D6DD; font-family:'SourceSansPro-Light'; font-size:5px;">elit,</tspan><tspan x="33.475" y="6" style="fill:#C7D6DD; font-family:'SourceSansPro-Light'; font-size:5px; letter-spacing:2;"> </tspan><tspan x="36.909" y="6" style="fill:#C7D6DD; font-family:'SourceSansPro-Light'; font-size:5px;">sed</tspan><tspan x="44.218" y="6" style="fill:#C7D6DD; font-family:'SourceSansPro-Light'; font-size:5px; letter-spacing:2;"> </tspan><tspan x="47.652" y="6" style="fill:#C7D6DD; font-family:'SourceSansPro-Light'; font-size:5px;">do</tspan><tspan x="53.147" y="6" style="fill:#C7D6DD; font-family:'SourceSansPro-Light'; font-size:5px; letter-spacing:2;"> </tspan><tspan x="56.582" y="6" style="fill:#C7D6DD; font-family:'SourceSansPro-Light'; font-size:5px;">eiusmod</tspan><tspan x="74.616" y="6" style="fill:#C7D6DD; font-family:'SourceSansPro-Light'; font-size:5px; letter-spacing:2;"> </tspan><tspan x="78.05" y="6" style="fill:#C7D6DD; font-family:'SourceSansPro-Light'; font-size:5px;">tempor </tspan><tspan x="1.148" y="12" style="fill:#C7D6DD; font-family:'SourceSansPro-Light'; font-size:5px;">incididunt ut labore et dolore magna aliqua.</tspan></text>
			<g>
				<rect x="71.867" y="387.598" style="fill:none;" width="61.191" height="9.795"/>
				<text transform="matrix(1 0 0 1 85.6606 395.8694)" style="fill:#C7D6DD; font-family:'Dosis-Bold'; font-size:11px;">LOREM</text>
				<rect x="55.806" y="402.075" style="fill:none;" width="93.314" height="18.652"/>
				<text transform="matrix(1 0 0 1 55.8057 405.6689)"><tspan x="0" y="0" style="fill:#C7D6DD; font-family:'SourceSansPro-Light'; font-size:5px;">Lorem</tspan><tspan x="13.32" y="0" style="fill:#C7D6DD; font-family:'SourceSansPro-Light'; font-size:5px; letter-spacing:1;"> </tspan><tspan x="16.283" y="0" style="fill:#C7D6DD; font-family:'SourceSansPro-Light'; font-size:5px;">ipsum</tspan><tspan x="29.128" y="0" style="fill:#C7D6DD; font-family:'SourceSansPro-Light'; font-size:5px; letter-spacing:1;"> </tspan><tspan x="32.091" y="0" style="fill:#C7D6DD; font-family:'SourceSansPro-Light'; font-size:5px;">dolor</tspan><tspan x="43.18" y="0" style="fill:#C7D6DD; font-family:'SourceSansPro-Light'; font-size:5px; letter-spacing:1;"> </tspan><tspan x="46.144" y="0" style="fill:#C7D6DD; font-family:'SourceSansPro-Light'; font-size:5px;">sit</tspan><tspan x="51.023" y="0" style="fill:#C7D6DD; font-family:'SourceSansPro-Light'; font-size:5px; letter-spacing:1;"> </tspan><tspan x="53.987" y="0" style="fill:#C7D6DD; font-family:'SourceSansPro-Light'; font-size:5px;">amet,</tspan><tspan x="65.822" y="0" style="fill:#C7D6DD; font-family:'SourceSansPro-Light'; font-size:5px; letter-spacing:1;"> </tspan><tspan x="68.786" y="0" style="fill:#C7D6DD; font-family:'SourceSansPro-Light'; font-size:5px;">consectetur </tspan><tspan x="0" y="6" style="fill:#C7D6DD; font-family:'SourceSansPro-Light'; font-size:5px;">adipisicing</tspan><tspan x="22.39" y="6" style="fill:#C7D6DD; font-family:'SourceSansPro-Light'; font-size:5px; letter-spacing:2;"> </tspan><tspan x="25.824" y="6" style="fill:#C7D6DD; font-family:'SourceSansPro-Light'; font-size:5px;">elit,</tspan><tspan x="33.475" y="6" style="fill:#C7D6DD; font-family:'SourceSansPro-Light'; font-size:5px; letter-spacing:2;"> </tspan><tspan x="36.909" y="6" style="fill:#C7D6DD; font-family:'SourceSansPro-Light'; font-size:5px;">sed</tspan><tspan x="44.218" y="6" style="fill:#C7D6DD; font-family:'SourceSansPro-Light'; font-size:5px; letter-spacing:2;"> </tspan><tspan x="47.652" y="6" style="fill:#C7D6DD; font-family:'SourceSansPro-Light'; font-size:5px;">do</tspan><tspan x="53.147" y="6" style="fill:#C7D6DD; font-family:'SourceSansPro-Light'; font-size:5px; letter-spacing:2;"> </tspan><tspan x="56.582" y="6" style="fill:#C7D6DD; font-family:'SourceSansPro-Light'; font-size:5px;">eiusmod</tspan><tspan x="74.616" y="6" style="fill:#C7D6DD; font-family:'SourceSansPro-Light'; font-size:5px; letter-spacing:2;"> </tspan><tspan x="78.05" y="6" style="fill:#C7D6DD; font-family:'SourceSansPro-Light'; font-size:5px;">tempor </tspan><tspan x="1.148" y="12" style="fill:#C7D6DD; font-family:'SourceSansPro-Light'; font-size:5px;">incididunt ut labore et dolore magna aliqua.</tspan></text>
				<rect x="366.941" y="387.598" style="fill:none;" width="61.191" height="9.795"/>
				<text transform="matrix(1 0 0 1 381.1582 395.8694)" style="fill:#C7D6DD; font-family:'Dosis-Bold'; font-size:11px;">DOLOR</text>
				<rect x="350.88" y="402.075" style="fill:none;" width="93.314" height="18.652"/>
				<text transform="matrix(1 0 0 1 350.8799 405.6689)"><tspan x="0" y="0" style="fill:#C7D6DD; font-family:'SourceSansPro-Light'; font-size:5px;">Lorem</tspan><tspan x="13.32" y="0" style="fill:#C7D6DD; font-family:'SourceSansPro-Light'; font-size:5px; letter-spacing:1;"> </tspan><tspan x="16.283" y="0" style="fill:#C7D6DD; font-family:'SourceSansPro-Light'; font-size:5px;">ipsum</tspan><tspan x="29.128" y="0" style="fill:#C7D6DD; font-family:'SourceSansPro-Light'; font-size:5px; letter-spacing:1;"> </tspan><tspan x="32.091" y="0" style="fill:#C7D6DD; font-family:'SourceSansPro-Light'; font-size:5px;">dolor</tspan><tspan x="43.18" y="0" style="fill:#C7D6DD; font-family:'SourceSansPro-Light'; font-size:5px; letter-spacing:1;"> </tspan><tspan x="46.144" y="0" style="fill:#C7D6DD; font-family:'SourceSansPro-Light'; font-size:5px;">sit</tspan><tspan x="51.023" y="0" style="fill:#C7D6DD; font-family:'SourceSansPro-Light'; font-size:5px; letter-spacing:1;"> </tspan><tspan x="53.987" y="0" style="fill:#C7D6DD; font-family:'SourceSansPro-Light'; font-size:5px;">amet,</tspan><tspan x="65.822" y="0" style="fill:#C7D6DD; font-family:'SourceSansPro-Light'; font-size:5px; letter-spacing:1;"> </tspan><tspan x="68.786" y="0" style="fill:#C7D6DD; font-family:'SourceSansPro-Light'; font-size:5px;">consectetur </tspan><tspan x="0" y="6" style="fill:#C7D6DD; font-family:'SourceSansPro-Light'; font-size:5px;">adipisicing</tspan><tspan x="22.39" y="6" style="fill:#C7D6DD; font-family:'SourceSansPro-Light'; font-size:5px; letter-spacing:2;"> </tspan><tspan x="25.824" y="6" style="fill:#C7D6DD; font-family:'SourceSansPro-Light'; font-size:5px;">elit,</tspan><tspan x="33.475" y="6" style="fill:#C7D6DD; font-family:'SourceSansPro-Light'; font-size:5px; letter-spacing:2;"> </tspan><tspan x="36.909" y="6" style="fill:#C7D6DD; font-family:'SourceSansPro-Light'; font-size:5px;">sed</tspan><tspan x="44.218" y="6" style="fill:#C7D6DD; font-family:'SourceSansPro-Light'; font-size:5px; letter-spacing:2;"> </tspan><tspan x="47.652" y="6" style="fill:#C7D6DD; font-family:'SourceSansPro-Light'; font-size:5px;">do</tspan><tspan x="53.147" y="6" style="fill:#C7D6DD; font-family:'SourceSansPro-Light'; font-size:5px; letter-spacing:2;"> </tspan><tspan x="56.582" y="6" style="fill:#C7D6DD; font-family:'SourceSansPro-Light'; font-size:5px;">eiusmod</tspan><tspan x="74.616" y="6" style="fill:#C7D6DD; font-family:'SourceSansPro-Light'; font-size:5px; letter-spacing:2;"> </tspan><tspan x="78.05" y="6" style="fill:#C7D6DD; font-family:'SourceSansPro-Light'; font-size:5px;">tempor </tspan><tspan x="1.148" y="12" style="fill:#C7D6DD; font-family:'SourceSansPro-Light'; font-size:5px;">incididunt ut labore et dolore magna aliqua.</tspan></text>
			</g>
			<g>
				
					<line style="fill:none;stroke:#C7D6DD;stroke-width:0.75;stroke-miterlimit:10;" x1="173.56" y1="382.952" x2="173.56" y2="421.198"/>
				
					<line style="fill:none;stroke:#C7D6DD;stroke-width:0.75;stroke-miterlimit:10;" x1="326.44" y1="382.952" x2="326.44" y2="421.198"/>
			</g>
		</g>
		<g>
			<rect x="39.889" y="49.639" style="fill:none;" width="135.498" height="49.129"/>
			<text transform="matrix(1 0 0 1 39.8896 67.6874)"><tspan x="0" y="0" style="fill:#2D2D2D; font-family:'Dosis-Bold'; font-size:24px;">ERROR</tspan><tspan x="0" y="25" style="fill:#2D2D2D; font-family:'Dosis-Bold'; font-size:24px;">404</tspan></text>
			<g>
				<path style="fill:#8976C4;" d="M108.926,162.638H50.549c-5.887,0-10.66-4.772-10.66-10.66v0c0-5.887,4.773-10.66,10.66-10.66
					h58.377c5.887,0,10.66,4.772,10.66,10.66v0C119.585,157.866,114.813,162.638,108.926,162.638z"/>
				<rect x="44.842" y="147.617" style="fill:none;" width="69.508" height="9.984"/>
				<text transform="matrix(1 0 0 1 51.3605 156.6413)" style="fill:#FFFFFF; font-family:'Dosis-Bold'; font-size:12px;">MORE INFO</text>
			</g>
			<rect x="39.889" y="104.363" style="fill:none;" width="130.793" height="24.344"/>
			<text transform="matrix(1 0 0 1 39.8896 109.3961)"><tspan x="0" y="0" style="fill:#7F7F7F; font-family:'SourceSansPro-Light'; font-size:7px;">Lorem</tspan><tspan x="18.648" y="0" style="fill:#7F7F7F; font-family:'SourceSansPro-Light'; font-size:7px; letter-spacing:2;"> </tspan><tspan x="22.827" y="0" style="fill:#7F7F7F; font-family:'SourceSansPro-Light'; font-size:7px;">ipsum</tspan><tspan x="40.81" y="0" style="fill:#7F7F7F; font-family:'SourceSansPro-Light'; font-size:7px; letter-spacing:2;"> </tspan><tspan x="44.988" y="0" style="fill:#7F7F7F; font-family:'SourceSansPro-Light'; font-size:7px;">dolor</tspan><tspan x="60.515" y="0" style="fill:#7F7F7F; font-family:'SourceSansPro-Light'; font-size:7px; letter-spacing:2;"> </tspan><tspan x="64.693" y="0" style="fill:#7F7F7F; font-family:'SourceSansPro-Light'; font-size:7px;">sit</tspan><tspan x="71.525" y="0" style="fill:#7F7F7F; font-family:'SourceSansPro-Light'; font-size:7px; letter-spacing:2;"> </tspan><tspan x="75.704" y="0" style="fill:#7F7F7F; font-family:'SourceSansPro-Light'; font-size:7px;">amet,</tspan><tspan x="92.273" y="0" style="fill:#7F7F7F; font-family:'SourceSansPro-Light'; font-size:7px; letter-spacing:2;"> </tspan><tspan x="96.452" y="0" style="fill:#7F7F7F; font-family:'SourceSansPro-Light'; font-size:7px;">consectetur </tspan><tspan x="0" y="8" style="fill:#7F7F7F; font-family:'SourceSansPro-Light'; font-size:7px;">adipisicing</tspan><tspan x="31.347" y="8" style="fill:#7F7F7F; font-family:'SourceSansPro-Light'; font-size:7px; letter-spacing:3;"> </tspan><tspan x="36.185" y="8" style="fill:#7F7F7F; font-family:'SourceSansPro-Light'; font-size:7px;">elit,</tspan><tspan x="46.895" y="8" style="fill:#7F7F7F; font-family:'SourceSansPro-Light'; font-size:7px; letter-spacing:3;"> </tspan><tspan x="51.733" y="8" style="fill:#7F7F7F; font-family:'SourceSansPro-Light'; font-size:7px;">sed</tspan><tspan x="61.967" y="8" style="fill:#7F7F7F; font-family:'SourceSansPro-Light'; font-size:7px; letter-spacing:3;"> </tspan><tspan x="66.805" y="8" style="fill:#7F7F7F; font-family:'SourceSansPro-Light'; font-size:7px;">do</tspan><tspan x="74.498" y="8" style="fill:#7F7F7F; font-family:'SourceSansPro-Light'; font-size:7px; letter-spacing:3;"> </tspan><tspan x="79.336" y="8" style="fill:#7F7F7F; font-family:'SourceSansPro-Light'; font-size:7px;">eiusmod</tspan><tspan x="104.585" y="8" style="fill:#7F7F7F; font-family:'SourceSansPro-Light'; font-size:7px; letter-spacing:3;"> </tspan><tspan x="109.424" y="8" style="fill:#7F7F7F; font-family:'SourceSansPro-Light'; font-size:7px;">tempor </tspan><tspan x="0" y="16" style="fill:#7F7F7F; font-family:'SourceSansPro-Light'; font-size:7px;">incididunt ut labore et dolore magna aliqua.</tspan></text>
		</g>
		<g>
			<path style="fill:#F7EBBA;" d="M500,373.744H202.44c-26.857,0-48.629-21.772-48.629-48.629l0,0H500V373.744z"/>
			<path style="fill:#FFF5CC;" d="M500,354.06H136.295c-26.857,0-48.629-21.772-48.629-48.629l0,0H500V354.06z"/>
		</g>
		<g>
			<g>
				<path style="fill:#D0FCFB;" d="M500,325.219H166.395c0,0-76.752-111.263-2.167-165.266
					c64.927-47.01,20.905-72.479,38.145-113.478C219.404,5.976,287.243,0,287.243,0H500V325.219z"/>
				<path style="fill:#E3FFFC;" d="M500,25.063c0,0-242.613-3.588-216.911,300.156H500V25.063z"/>
				<path style="fill:#FFFFFF;" d="M395.399,60.112c1.156-0.368,3.273-1.591,2.146-3.778c-1.46-2.833-7.813-0.429-8.929-1.545
					c-1.116-1.116,2.815-5.028-0.858-8.242c-3.434-3.005-6.834-0.192-8.929-0.515c-2.318-0.358-0.868-6.611-8.242-5.752
					c-6.464,0.753-3.52,7.899-4.636,9.015c-1.116,1.116-3.005-3.348-5.752-1.202c-2.747,2.146-0.429,5.409-1.545,6.525
					c-1.116,1.116-6.783-1.889-7.641,1.202c-0.858,3.091,2.684,4.604,3.863,4.808C356.808,60.962,391.579,61.329,395.399,60.112z"/>
				<path style="fill:#FFFFFF;" d="M479.724,162.897c0.896-0.285,2.536-1.232,1.663-2.927c-1.131-2.195-6.053-0.333-6.918-1.197
					c-0.865-0.865,2.181-3.896-0.665-6.386c-2.661-2.328-5.295-0.149-6.918-0.399c-1.796-0.277-0.672-5.122-6.386-4.457
					c-5.008,0.583-2.727,6.12-3.592,6.985c-0.865,0.865-2.328-2.594-4.457-0.931c-2.129,1.663-0.333,4.191-1.197,5.055
					c-0.865,0.865-5.255-1.463-5.92,0.931c-0.665,2.395,2.079,3.567,2.993,3.725C449.823,163.555,476.764,163.839,479.724,162.897z"
					/>
				<path style="fill:#FFFFFF;" d="M255.955,128.329c0.865-0.275,2.447-1.189,1.605-2.825c-1.091-2.119-5.842-0.321-6.677-1.156
					c-0.835-0.835,2.105-3.76-0.642-6.163c-2.568-2.247-5.11-0.143-6.677-0.385c-1.733-0.267-0.649-4.943-6.163-4.301
					c-4.834,0.563-2.632,5.906-3.467,6.741c-0.835,0.835-2.247-2.504-4.301-0.899c-2.054,1.605-0.321,4.044-1.156,4.879
					c-0.834,0.835-5.072-1.412-5.714,0.899c-0.642,2.311,2.007,3.442,2.889,3.595C227.097,128.964,253.098,129.238,255.955,128.329z
					"/>
			</g>
			<g>
				<g>
					<path style="fill:#A5EFCF;" d="M140.221,325.219c0,0-3.429-12.69,1.768-18.455c5.012-5.56,7.222-3.149,14.869-8.088
						c7.646-4.939-10.314-17.49-1.966-29.1c7.131-9.917,19.494-3.53,24.084-7.482c4.589-3.952-6.274-13.73,4.589-24.913
						c8.515-8.766,15.632-2.984,21.561-5.191c12.671-4.718,13.151-25.128,32.457-22.399c22.633,3.199,13.219,21.111,22.633,24.923
						c9.414,3.811,19.248-1.599,26.771,6.86c7.523,8.459-1.956,18.229,1.734,24.931c3.69,6.702,14.402-1.2,19.655,11.656
						c4.329,10.593-0.49,16.012,2.543,25.154c3.033,9.141,23.643-3.811,20.184,22.105H140.221z"/>
					<path style="fill:#A5EFCF;" d="M192.43,286.564c0,0-4.685-17.337,2.415-25.213c6.848-7.596,9.867-4.302,20.313-11.05
						c10.446-6.748-14.091-23.895-2.686-39.756c9.742-13.549,26.633-4.822,32.903-10.221c6.27-5.399-8.572-18.757,6.27-34.036
						c11.633-11.976,21.356-4.077,29.456-7.092c17.312-6.445,17.966-34.329,44.342-30.601c30.92,4.37,18.06,28.842,30.92,34.049
						c12.861,5.207,26.296-2.185,36.574,9.372c10.278,11.557-2.672,24.904,2.369,34.06c5.041,9.156,19.677-1.639,26.853,15.925
						c5.914,14.472-0.669,21.876,3.474,34.365c4.143,12.489,32.301-5.207,27.575,30.199H192.43z"/>
					<path style="fill:#A5EFCF;" d="M293.131,325.219c0,0-3.536-13.084,1.822-19.027c5.168-5.732,7.446-3.246,15.329-8.339
						c7.883-5.093-10.634-18.032-2.027-30.002c7.352-10.225,20.098-3.639,24.83-7.714c4.732-4.074-6.469-14.155,4.732-25.685
						c8.779-9.037,16.117-3.077,22.229-5.352c13.064-4.864,13.558-25.907,33.463-23.093c23.334,3.298,13.628,21.766,23.334,25.695
						c9.706,3.929,19.844-1.649,27.601,7.073c7.756,8.722-2.016,18.794,1.788,25.704c3.804,6.909,14.849-1.237,20.265,12.017
						c4.463,10.922-0.505,16.509,2.622,25.933c3.126,9.425,24.376-3.929,20.81,22.79H293.131z"/>
				</g>
				<g>
					<g>
						<g>
							
								<linearGradient id="SVGID_1_" gradientUnits="userSpaceOnUse" x1="143.8676" y1="337.9234" x2="95.1644" y2="261.835" gradientTransform="matrix(0.9997 0.0239 -0.0239 0.9997 43.598 -13.4523)">
								<stop  offset="0" style="stop-color:#22677A"/>
								<stop  offset="0.1435" style="stop-color:#287788"/>
								<stop  offset="0.5059" style="stop-color:#3699A6"/>
								<stop  offset="0.8045" style="stop-color:#3EAEB8"/>
								<stop  offset="1" style="stop-color:#41B6BF"/>
							</linearGradient>
							<path style="fill:url(#SVGID_1_);" d="M163.152,329.719c10.94-0.264,22.785-3.211,29.404-11.926
								c2.526-3.326,4.098-7.987,2.096-11.653c-0.386-0.707-0.913-1.365-1.627-1.738c-1.466-0.767-3.234-0.162-4.826,0.29
								c-2.853,0.812-6.511,0.8-8.113-1.696c-1.508-2.351-0.22-5.573,1.778-7.524c1.999-1.951,4.614-3.184,6.592-5.156
								c3.032-3.022,4.242-7.746,3.037-11.853c-0.2-0.681-0.501-1.395-1.113-1.754c-1.034-0.607-2.327,0.085-3.285,0.806
								c-3.398,2.558-7.247,5.951-11.301,4.662c-0.593-0.189-1.163-0.483-1.597-0.93c-0.929-0.958-1.075-2.463-0.75-3.757
								c0.955-3.801,5.026-5.822,7.421-8.924c2.741-3.549,3.083-8.776,0.83-12.653c-1.021-1.757-2.597-3.274-4.552-3.827
								c-1.956-0.554-4.29,0.031-5.463,1.691c-0.847,1.198-1.046,2.814-2.089,3.846c-1.987,1.968-5.46,0.477-7.256-1.667
								c-2.537-3.03-3.615-7.029-5.89-10.261c-2.275-3.232-6.796-5.645-10.127-3.519c-3.008,1.92-3.165,6.161-3.136,9.73
								c0.029,3.569-0.574,7.9-3.857,9.299c-3.122,1.331-7.27-0.789-9.883,1.376c-2.309,1.912-1.448,5.825,0.655,7.962
								c2.103,2.137,5.039,3.224,7.413,5.054c1.475,1.138,2.815,3.089,1.965,4.748c-0.886,1.731-3.463,1.677-5.168,0.742
								c-1.705-0.934-3.083-2.471-4.931-3.076c-3.359-1.101-7.155,1.593-7.991,5.027c-0.835,3.435,0.765,7.112,3.288,9.588
								c2.523,2.476,5.845,3.951,9.155,5.191c2.447,0.917,5.104,1.864,6.565,4.03c1.461,2.166,0.706,5.912-1.879,6.292
								c-1.557,0.229-2.975-0.803-4.389-1.495c-2.351-1.15-5.4-1.326-7.42,0.338c-2.067,1.703-2.642,4.976-1.444,7.371
								C129.561,322.936,141.33,330.247,163.152,329.719z"/>
						</g>
						<g>
							<path style="fill:#22677A;" d="M166.943,329.513c0.701-0.058,1.403-0.129,2.105-0.212c-1.824-6.099-3.688-12.56-5.518-19.28
								c-2.743-10.132-5.072-19.816-6.943-28.588c-0.84-4.402-1.741-8.548-2.319-12.436c-0.304-1.942-0.679-3.801-0.904-5.593
								c-0.232-1.793-0.453-3.503-0.663-5.124c-0.426-3.202-0.775-3.187-0.6,0.049c0.095,1.64,0.195,3.37,0.3,5.184
								c0.111,1.815,0.379,3.696,0.583,5.664c0.378,3.943,1.109,8.141,1.813,12.6c1.597,8.879,3.784,18.662,6.539,28.84
								C163.134,317.219,165.03,323.55,166.943,329.513z"/>
						</g>
					</g>
					<g>
						<g>
							
								<linearGradient id="SVGID_00000058561025442261205390000018325069757619401382_" gradientUnits="userSpaceOnUse" x1="1431.5509" y1="305.7941" x2="1386.699" y2="235.7225" gradientTransform="matrix(-0.9997 0.0239 0.0239 0.9997 1856.5619 -13.4523)">
								<stop  offset="0" style="stop-color:#22677A"/>
								<stop  offset="0.1435" style="stop-color:#287788"/>
								<stop  offset="0.5059" style="stop-color:#3699A6"/>
								<stop  offset="0.8045" style="stop-color:#3EAEB8"/>
								<stop  offset="1" style="stop-color:#41B6BF"/>
							</linearGradient>
							<path style="fill:url(#SVGID_00000058561025442261205390000018325069757619401382_);" d="M447.663,328.224
								c-10.075-0.244-20.983-2.958-27.079-10.983c-2.327-3.063-3.774-7.355-1.931-10.731c0.355-0.651,0.841-1.257,1.498-1.601
								c1.35-0.707,2.978-0.15,4.444,0.268c2.628,0.747,5.996,0.737,7.471-1.562c1.389-2.165,0.203-5.132-1.638-6.929
								c-1.841-1.797-4.249-2.932-6.07-4.748c-2.792-2.784-3.906-7.133-2.797-10.916c0.184-0.627,0.462-1.284,1.025-1.615
								c0.952-0.559,2.143,0.078,3.025,0.743c3.129,2.356,6.674,5.48,10.407,4.293c0.546-0.174,1.072-0.445,1.471-0.856
								c0.856-0.882,0.99-2.268,0.69-3.46c-0.879-3.5-4.628-5.362-6.834-8.218c-2.524-3.269-2.839-8.082-0.764-11.652
								c0.941-1.618,2.391-3.015,4.192-3.525c1.801-0.51,3.951,0.028,5.031,1.557c0.78,1.103,0.964,2.592,1.924,3.542
								c1.83,1.812,5.029,0.439,6.682-1.535c2.337-2.79,3.329-6.473,5.424-9.449c2.095-2.976,6.258-5.198,9.326-3.24
								c2.77,1.768,2.915,5.674,2.888,8.961c-0.027,3.286,0.529,7.275,3.552,8.564c2.875,1.226,6.695-0.727,9.102,1.267
								c2.126,1.761,1.333,5.364-0.603,7.332c-1.937,1.968-4.641,2.969-6.827,4.655c-1.359,1.048-2.592,2.845-1.81,4.372
								c0.816,1.594,3.189,1.544,4.759,0.684c1.57-0.861,2.84-2.276,4.541-2.833c3.093-1.014,6.59,1.467,7.359,4.63
								s-0.705,6.55-3.028,8.83c-2.323,2.28-5.383,3.638-8.431,4.781c-2.253,0.844-4.7,1.716-6.046,3.711
								c-1.346,1.995-0.65,5.444,1.73,5.794c1.434,0.211,2.74-0.74,4.042-1.377c2.165-1.059,4.973-1.221,6.833,0.311
								c1.903,1.568,2.433,4.582,1.33,6.788C478.597,321.977,467.759,328.71,447.663,328.224z"/>
						</g>
						<g>
							<path style="fill:#22677A;" d="M444.171,328.034c-0.646-0.054-1.292-0.119-1.938-0.196c1.68-5.617,3.397-11.566,5.082-17.756
								c2.526-9.331,4.671-18.249,6.394-26.328c0.774-4.054,1.604-7.872,2.135-11.453c0.28-1.788,0.625-3.5,0.833-5.15
								c0.214-1.651,0.417-3.226,0.611-4.719c0.393-2.948,0.713-2.935,0.552,0.045c-0.088,1.51-0.18,3.103-0.277,4.774
								c-0.103,1.672-0.349,3.404-0.537,5.216c-0.349,3.631-1.021,7.497-1.669,11.603c-1.471,8.177-3.484,17.186-6.022,26.56
								C447.679,316.712,445.933,322.543,444.171,328.034z"/>
						</g>
					</g>
					<g>
						<g>
							
								<linearGradient id="SVGID_00000081629876791021049380000005790924845046348713_" gradientUnits="userSpaceOnUse" x1="212.4008" y1="253.3936" x2="175.4177" y2="195.6154" gradientTransform="matrix(0.9997 0.0239 -0.0239 0.9997 43.598 -13.4523)">
								<stop  offset="0" style="stop-color:#22677A"/>
								<stop  offset="0.1435" style="stop-color:#287788"/>
								<stop  offset="0.5059" style="stop-color:#3699A6"/>
								<stop  offset="0.8045" style="stop-color:#3EAEB8"/>
								<stop  offset="1" style="stop-color:#41B6BF"/>
							</linearGradient>
							<path style="fill:url(#SVGID_00000081629876791021049380000005790924845046348713_);" d="M237.582,246.393
								c8.308-0.201,17.302-2.439,22.328-9.056c1.918-2.526,3.112-6.065,1.592-8.848c-0.293-0.537-0.694-1.036-1.235-1.32
								c-1.114-0.583-2.456-0.123-3.664,0.221c-2.167,0.616-4.944,0.608-6.161-1.288c-1.145-1.785-0.167-4.232,1.35-5.714
								c1.518-1.482,3.503-2.418,5.005-3.915c2.302-2.295,3.221-5.882,2.306-9.001c-0.152-0.517-0.381-1.059-0.845-1.332
								c-0.785-0.461-1.767,0.065-2.495,0.612c-2.58,1.942-5.503,4.519-8.581,3.54c-0.45-0.143-0.883-0.367-1.213-0.706
								c-0.706-0.727-0.816-1.87-0.569-2.853c0.725-2.886,3.816-4.421,5.635-6.776c2.081-2.695,2.341-6.664,0.63-9.608
								c-0.776-1.334-1.972-2.486-3.457-2.906c-1.485-0.421-3.257,0.023-4.148,1.284c-0.643,0.91-0.794,2.137-1.586,2.921
								c-1.509,1.494-4.146,0.362-5.51-1.266c-1.927-2.301-2.745-5.337-4.472-7.792c-1.727-2.454-5.16-4.286-7.69-2.672
								c-2.284,1.458-2.404,4.679-2.382,7.389s-0.436,5.999-2.929,7.062c-2.371,1.011-5.52-0.599-7.505,1.045
								c-1.753,1.452-1.1,4.423,0.497,6.046c1.597,1.622,3.827,2.448,5.629,3.838c1.12,0.864,2.137,2.346,1.492,3.605
								c-0.673,1.314-2.629,1.273-3.924,0.564c-1.295-0.71-2.341-1.876-3.744-2.336c-2.551-0.836-5.434,1.209-6.068,3.818
								c-0.634,2.608,0.581,5.4,2.497,7.281s4.439,3,6.952,3.942c1.858,0.696,3.876,1.415,4.986,3.06
								c1.11,1.645,0.536,4.489-1.427,4.778c-1.182,0.174-2.259-0.61-3.333-1.135c-1.786-0.873-4.1-1.007-5.634,0.257
								c-1.569,1.293-2.006,3.778-1.097,5.597C212.074,241.242,221.011,246.793,237.582,246.393z"/>
						</g>
						<g>
							<path style="fill:#22677A;" d="M240.461,246.236c0.533-0.044,1.065-0.098,1.598-0.161c-1.385-4.631-2.801-9.537-4.19-14.641
								c-2.083-7.694-3.851-15.048-5.273-21.709c-0.638-3.342-1.322-6.491-1.761-9.444c-0.231-1.474-0.516-2.886-0.687-4.247
								c-0.176-1.361-0.344-2.66-0.503-3.891c-0.324-2.431-0.588-2.42-0.455,0.037c0.072,1.245,0.148,2.559,0.228,3.936
								c0.084,1.379,0.288,2.807,0.443,4.301c0.287,2.994,0.842,6.182,1.376,9.568c1.213,6.742,2.873,14.171,4.966,21.9
								C237.568,236.9,239.008,241.708,240.461,246.236z"/>
						</g>
					</g>
					<g>
						<g>
							
								<linearGradient id="SVGID_00000089547420822978750560000004288449237802483637_" gradientUnits="userSpaceOnUse" x1="1676.7252" y1="368.003" x2="1634.2151" y2="301.59" gradientTransform="matrix(-0.9846 -0.1747 -0.1747 0.9846 2085.3909 186.8079)">
								<stop  offset="0" style="stop-color:#22677A"/>
								<stop  offset="0.1435" style="stop-color:#287788"/>
								<stop  offset="0.5059" style="stop-color:#3699A6"/>
								<stop  offset="0.8045" style="stop-color:#3EAEB8"/>
								<stop  offset="1" style="stop-color:#41B6BF"/>
							</linearGradient>
							<path style="fill:url(#SVGID_00000089547420822978750560000004288449237802483637_);" d="M383.725,260.657
								c-9.314-2.118-18.938-6.687-23.094-15.288c-1.586-3.282-2.125-7.542,0.221-10.332c0.452-0.538,1.017-1.01,1.693-1.206
								c1.387-0.403,2.795,0.42,4.078,1.083c2.301,1.188,5.432,1.811,7.234-0.049c1.697-1.751,1.152-4.73-0.22-6.745
								c-1.372-2.015-3.397-3.521-4.748-5.551c-2.071-3.11-2.29-7.36-0.549-10.666c0.289-0.548,0.67-1.106,1.256-1.308
								c0.99-0.34,1.976,0.475,2.671,1.258c2.465,2.776,5.172,6.344,8.862,5.942c0.54-0.059,1.079-0.212,1.527-0.519
								c0.961-0.659,1.345-1.921,1.291-3.085c-0.16-3.417-3.293-5.85-4.806-8.918c-1.731-3.51-1.12-8.041,1.478-10.968
								c1.178-1.327,2.788-2.352,4.556-2.488c1.769-0.136,3.665,0.768,4.381,2.391c0.517,1.171,0.409,2.589,1.122,3.652
								c1.359,2.027,4.589,1.352,6.496-0.171c2.695-2.153,4.308-5.389,6.813-7.76c2.505-2.372,6.79-3.654,9.273-1.259
								c2.242,2.163,1.643,5.819,1.001,8.867c-0.642,3.048-0.875,6.858,1.692,8.623c2.441,1.678,6.356,0.582,8.218,2.886
								c1.645,2.035,0.232,5.234-1.937,6.698c-2.169,1.464-4.869,1.887-7.216,3.043c-1.459,0.718-2.942,2.156-2.502,3.722
								c0.459,1.634,2.672,2.033,4.293,1.528c1.62-0.505,3.065-1.581,4.751-1.779c3.064-0.361,5.846,2.6,5.967,5.683
								s-1.884,5.952-4.471,7.634c-2.586,1.682-5.684,2.369-8.73,2.858c-2.252,0.361-4.689,0.712-6.314,2.312
								c-1.625,1.6-1.626,4.936,0.52,5.708c1.292,0.465,2.684-0.173,4.013-0.52c2.21-0.577,4.849-0.201,6.289,1.572
								c1.474,1.814,1.4,4.714-0.039,6.556C413.636,260.662,402.303,264.882,383.725,260.657z"/>
						</g>
						<g>
							<path style="fill:#22677A;" d="M380.517,259.825c-0.59-0.171-1.178-0.353-1.764-0.546c2.615-4.903,5.327-10.107,8.055-15.541
								c4.099-8.194,7.766-16.077,10.884-23.258c1.48-3.621,2.968-7.012,4.134-10.239c0.596-1.608,1.238-3.134,1.741-4.628
								c0.508-1.494,0.993-2.919,1.453-4.269c0.918-2.665,1.214-2.592,0.504,0.145c-0.365,1.386-0.75,2.849-1.153,4.383
								c-0.409,1.534-0.963,3.097-1.478,4.745c-1.006,3.308-2.356,6.773-3.729,10.466c-2.902,7.32-6.464,15.312-10.582,23.544
								C385.901,249.965,383.184,255.054,380.517,259.825z"/>
						</g>
					</g>
				</g>
			</g>
		</g>
		<g>
			<g>
				<path style="fill:#41ABC4;" d="M362.924,210.518v-0.231c0-0.84,0.681-1.52,1.52-1.52h11.218c0.84,0,1.52,0.681,1.52,1.52v0.231
					c0,0.84-0.681,1.52-1.52,1.52h-11.218C363.605,212.038,362.924,211.357,362.924,210.518z"/>
				<path style="fill:#41ABC4;" d="M397.667,320.751h-0.231c-0.84,0-1.52-0.681-1.52-1.52v-11.218c0-0.84,0.681-1.52,1.52-1.52
					h0.231c0.84,0,1.52,0.681,1.52,1.52v11.218C399.187,320.071,398.507,320.751,397.667,320.751z"/>
				<path style="fill:#41ABC4;" d="M347.001,210.518v-0.231c0-0.84,0.681-1.52,1.52-1.52h11.218c0.839,0,1.52,0.681,1.52,1.52v0.231
					c0,0.84-0.681,1.52-1.52,1.52h-11.218C347.681,212.038,347.001,211.357,347.001,210.518z"/>
			</g>
			<g>
				<path style="fill:#13658E;" d="M390.054,334.201H238.777c-4.141,0-7.498-3.357-7.498-7.498V217.899
					c0-4.141,3.357-7.498,7.498-7.498h151.277c4.141,0,7.498,3.357,7.498,7.498v108.804
					C397.551,330.844,394.195,334.201,390.054,334.201z"/>
			</g>
			
				<linearGradient id="SVGID_00000121237059203273018590000011909662151317274034_" gradientUnits="userSpaceOnUse" x1="-768.4996" y1="356.723" x2="-768.4996" y2="226.717" gradientTransform="matrix(1 0 0 1 1086.7715 0)">
				<stop  offset="0" style="stop-color:#FFEEBD"/>
				<stop  offset="0.0026" style="stop-color:#FFEEBD"/>
				<stop  offset="0.2498" style="stop-color:#FFF5DA"/>
				<stop  offset="0.4962" style="stop-color:#FFFBEF"/>
				<stop  offset="0.7395" style="stop-color:#FFFEFB"/>
				<stop  offset="0.9762" style="stop-color:#FFFFFF"/>
			</linearGradient>
			
				<rect x="248.372" y="218.232" style="fill:url(#SVGID_00000121237059203273018590000011909662151317274034_);" width="139.799" height="108.41"/>
			<circle style="fill:#41ABC4;" cx="240.232" cy="272.437" r="4.185"/>
			<circle style="fill:#41ABC4;" cx="392.897" cy="272.302" r="1.203"/>
			<g>
				<g>
					<rect x="257.387" y="231.146" style="fill:none;" width="121.134" height="41.506"/>
					
						<text transform="matrix(1 0 0 1 273.5201 270.4578)" style="fill:#B7B2CE; font-family:'Dosis-SemiBold'; font-size:52px; letter-spacing:5;">404</text>
					<rect x="274.791" y="277.606" style="fill:none;" width="86.326" height="20.753"/>
					<text transform="matrix(1 0 0 1 274.7906 289.7009)"><tspan x="0" y="0" style="fill:#B7B2CE; font-family:'Dosis-SemiBold'; font-size:16px; letter-spacing:10;">ERRO</tspan><tspan x="77.478" y="0" style="fill:#B7B2CE; font-family:'Dosis-SemiBold'; font-size:16px;">R</tspan></text>
				</g>
			</g>
			<g>
				<rect x="274.884" y="302.247" style="fill:#B7B2CE;" width="12.894" height="12.894"/>
				<rect x="291.397" y="302.247" style="fill:#B7B2CE;" width="69.628" height="1.809"/>
				<rect x="291.397" y="313.332" style="fill:#B7B2CE;" width="69.628" height="1.809"/>
				<rect x="291.397" y="307.79" style="fill:#B7B2CE;" width="69.628" height="1.809"/>
			</g>
			<path style="opacity:0.16;fill:#FFFFFF;" d="M397.552,217.899c0-4.141-3.357-7.498-7.498-7.498H238.777
				c-4.141,0-7.498,3.357-7.498,7.498v84.342l166.272-70.254V217.899z"/>
		</g>
		<g>
			<g>
				
					<linearGradient id="SVGID_00000134967195563727774540000015323124469939103898_" gradientUnits="userSpaceOnUse" x1="324.3193" y1="215.9798" x2="324.3193" y2="180.3599">
					<stop  offset="0" style="stop-color:#963030"/>
					<stop  offset="0.2134" style="stop-color:#B34545"/>
					<stop  offset="0.5611" style="stop-color:#DC6262"/>
					<stop  offset="0.8353" style="stop-color:#F67474"/>
					<stop  offset="1" style="stop-color:#FF7B7B"/>
				</linearGradient>
				<path style="fill:url(#SVGID_00000134967195563727774540000015323124469939103898_);" d="M335.984,193.172
					c0,0,0.608,9.861,0.741,17.23h-27.517c0.044-6.873,1.049-15.677,1.049-15.677c-11.026,4.67-15.1,12.743-15.1,12.743
					l-4.808-0.277c0,0,1.568-6.107,8.371-13.926c4.531-5.208,9.442-9.238,14.644-10.777c7.159-2.118,10.71-1.83,17.564-0.529
					c5.98,1.135,9.357,3.539,15.874,1.967c7.022-1.693,7.478-9.19,7.478-9.19l3.941,0.668
					C358.222,175.404,360.672,194.837,335.984,193.172z"/>
				
					<linearGradient id="SVGID_00000163072590270629124970000004720402349052000930_" gradientUnits="userSpaceOnUse" x1="308.2825" y1="190.491" x2="297.0313" y2="199.8212">
					<stop  offset="0" style="stop-color:#FF8955"/>
					<stop  offset="0.357" style="stop-color:#FFA67D"/>
					<stop  offset="0.7823" style="stop-color:#FFC4A8"/>
					<stop  offset="1" style="stop-color:#FFD0B8"/>
				</linearGradient>
				<path style="fill:url(#SVGID_00000163072590270629124970000004720402349052000930_);" d="M298.721,193.265
					c-6.803,7.82-8.372,13.926-8.372,13.926l4.808,0.277c0,0,3.283-6.467,11.881-11.173l-2.956-8.415
					C302.243,189.454,300.454,191.272,298.721,193.265z"/>
				
					<linearGradient id="SVGID_00000042011802370203483700000009009608237201031298_" gradientUnits="userSpaceOnUse" x1="335.4745" y1="189.2975" x2="354.0995" y2="182.1725">
					<stop  offset="0" style="stop-color:#FF8955"/>
					<stop  offset="0.357" style="stop-color:#FFA67D"/>
					<stop  offset="0.7823" style="stop-color:#FFC4A8"/>
					<stop  offset="1" style="stop-color:#FFD0B8"/>
				</linearGradient>
				<path style="fill:url(#SVGID_00000042011802370203483700000009009608237201031298_);" d="M358.222,175.404l-3.942-0.668
					c0,0-0.456,7.496-7.478,9.19c-2.759,0.665-4.953,0.615-7.022,0.253l1.249,9.02C360.305,192.046,358.222,175.404,358.222,175.404
					z"/>
				
					<linearGradient id="SVGID_00000006708955009763613830000003801401406714639526_" gradientUnits="userSpaceOnUse" x1="323.6758" y1="176.4958" x2="324.2557" y2="186.2724">
					<stop  offset="0.162" style="stop-color:#FF8955"/>
					<stop  offset="0.4612" style="stop-color:#FFA67D"/>
					<stop  offset="0.8175" style="stop-color:#FFC4A8"/>
					<stop  offset="1" style="stop-color:#FFD0B8"/>
				</linearGradient>
				<path style="fill:url(#SVGID_00000006708955009763613830000003801401406714639526_);" d="M328.654,181.459l-1.514-6.541
					c0,0-3.945-0.994-6.802,0.931l-1.035,5.904c0,0,1.033,5.071,4.987,5.071C327.805,186.824,328.654,181.459,328.654,181.459z"/>
				<g>
					
						<linearGradient id="SVGID_00000059298821381606112520000008867241375728564873_" gradientUnits="userSpaceOnUse" x1="724.7358" y1="102.1132" x2="727.1077" y2="89.2372" gradientTransform="matrix(0.9659 -0.2588 0.2588 0.9659 -403.8799 260.5257)">
						<stop  offset="0" style="stop-color:#564872"/>
						<stop  offset="1" style="stop-color:#927EC4"/>
					</linearGradient>
					<path style="fill:url(#SVGID_00000059298821381606112520000008867241375728564873_);" d="M313.372,166.125
						c0.543,2.892,3.497,6.072,3.497,6.072c2.945-1.575,12.367-3.314,12.367-3.314s-0.594-2.477-0.046-6.373
						c0.302-2.143,1.923-4.713,0.549-5.618c-2.135-1.407-3.697,2.474-4.48,2.172c-1.334-0.514-0.39-2.964-1.911-3.339
						c-2.85-0.702-3.128,5.33-5.031,3.882c-1.496-1.138-1.807-1.328-2.848-0.493C314.48,159.908,312.753,162.826,313.372,166.125z"
						/>
					<g>
						
							<linearGradient id="SVGID_00000026852172748360447940000008270902081832491703_" gradientUnits="userSpaceOnUse" x1="730.079" y1="101.2191" x2="732.0628" y2="101.2191" gradientTransform="matrix(0.9659 -0.2588 0.2588 0.9659 -403.8799 260.5257)">
							<stop  offset="0" style="stop-color:#FF8955"/>
							<stop  offset="0.3867" style="stop-color:#FFA278"/>
							<stop  offset="1" style="stop-color:#FFD0B8"/>
						</linearGradient>
						<path style="fill:url(#SVGID_00000026852172748360447940000008270902081832491703_);" d="M328.227,168.539
							c0,0,0.119-1.469,1.128-0.763c1.009,0.706-0.2,3.08-0.94,2.612L328.227,168.539z"/>
						
							<linearGradient id="SVGID_00000168084556754785143500000013390841959386156973_" gradientUnits="userSpaceOnUse" x1="641.7685" y1="101.3963" x2="643.7522" y2="101.3963" gradientTransform="matrix(-0.9659 0.2588 0.2588 0.9659 911.7913 -92.1741)">
							<stop  offset="0" style="stop-color:#FF8955"/>
							<stop  offset="0.3867" style="stop-color:#FFA278"/>
							<stop  offset="1" style="stop-color:#FFD0B8"/>
						</linearGradient>
						<path style="fill:url(#SVGID_00000168084556754785143500000013390841959386156973_);" d="M317.113,171.517
							c0,0-0.837-1.213-1.358-0.097c-0.521,1.116,1.713,2.567,2.12,1.792L317.113,171.517z"/>
					</g>
					<g>
						<g>
							
								<linearGradient id="SVGID_00000134243717579693111180000008433843568027391146_" gradientUnits="userSpaceOnUse" x1="709.52" y1="103.2508" x2="729.847" y2="101.4663" gradientTransform="matrix(0.9659 -0.2588 0.2588 0.9659 -403.8799 260.5257)">
								<stop  offset="0.2893" style="stop-color:#FF8955"/>
								<stop  offset="0.4874" style="stop-color:#FFA278"/>
								<stop  offset="0.8017" style="stop-color:#FFD0B8"/>
							</linearGradient>
							<path style="fill:url(#SVGID_00000134243717579693111180000008433843568027391146_);" d="M327.369,163.797
								c1.715,7.399,3.951,12.322-2.428,14.033c-6.69,1.794-6.977-2.308-9.468-10.845
								C315.241,166.191,327.112,162.688,327.369,163.797z"/>
							<g>
								<path style="fill:#2B2B2B;" d="M320.178,171.31c0.093,0.346-0.113,0.701-0.458,0.794c-0.346,0.093-0.701-0.113-0.794-0.458
									c-0.093-0.346,0.113-0.701,0.458-0.794C319.73,170.759,320.086,170.964,320.178,171.31z"/>
								<path style="fill:#FF6969;" d="M318.347,173.491c-0.122-0.455,0.148-0.922,0.602-1.044c0.455-0.122,0.922,0.148,1.044,0.603
									c0.122,0.454-0.148,0.922-0.603,1.044C318.936,174.215,318.468,173.946,318.347,173.491z"/>
								<path style="fill:#2B2B2B;" d="M319.9,169.391c0,0-1.695,0.145-2.313,1.387l0.215,0.164c0,0,1.258-0.997,2.418-0.804
									L319.9,169.391z"/>
							</g>
							<g>
								<path style="fill:#2B2B2B;" d="M325.417,169.907c0.093,0.346,0.448,0.551,0.794,0.458c0.346-0.093,0.551-0.448,0.458-0.794
									c-0.093-0.346-0.448-0.551-0.794-0.458C325.53,169.205,325.324,169.561,325.417,169.907z"/>
								<path style="fill:#FF6969;" d="M328.094,170.88c-0.122-0.455-0.589-0.725-1.043-0.603c-0.454,0.122-0.724,0.589-0.603,1.044
									c0.122,0.454,0.589,0.724,1.044,0.603C327.946,171.801,328.215,171.334,328.094,170.88z"/>
								<path style="fill:#2B2B2B;" d="M324.695,168.132c0,0,1.54-0.722,2.697,0.045l-0.104,0.25c0,0-1.587-0.234-2.497,0.513
									L324.695,168.132z"/>
							</g>
							<path style="fill:#BC6450;" d="M325.531,174.382l-3.509,0.728c0,0-0.303-1.264,1.628-1.664
								C325.076,173.15,325.531,174.382,325.531,174.382z"/>
							<path style="fill:#F2A181;" d="M322.569,169.224c-0.281,0.075-0.222,3.273-0.005,3.36c0.217,0.087,1.682-0.399,1.753-0.588
								C324.387,171.808,322.849,169.148,322.569,169.224z"/>
						</g>
					</g>
					
						<linearGradient id="SVGID_00000147219198517037509970000017180571585278257583_" gradientUnits="userSpaceOnUse" x1="723.8397" y1="101.9481" x2="726.2117" y2="89.0721" gradientTransform="matrix(0.9659 -0.2588 0.2588 0.9659 -403.8799 260.5257)">
						<stop  offset="0" style="stop-color:#564872"/>
						<stop  offset="1" style="stop-color:#927EC4"/>
					</linearGradient>
					<path style="fill:url(#SVGID_00000147219198517037509970000017180571585278257583_);" d="M316.623,171.047
						c0,0,0.513-0.127,0.544-0.475c0,0-0.776-2.438-0.336-2.736c0.44-0.298,2.925,0.37,4.123-1.145
						c0.827-1.045,3.099-1.872,4.702-1.616c1.109,0.177,1.878-0.746,1.872-1.439l-0.504-1.126c0,0-8.539,0.413-12.277,4.082
						C314.747,166.592,315.992,170.046,316.623,171.047z"/>
				</g>
			</g>
			
				<linearGradient id="SVGID_00000160178336997234762380000008995043533175742347_" gradientUnits="userSpaceOnUse" x1="311.1035" y1="193.8927" x2="299.8523" y2="203.2229">
				<stop  offset="0" style="stop-color:#FF8955"/>
				<stop  offset="0.357" style="stop-color:#FFA67D"/>
				<stop  offset="0.7823" style="stop-color:#FFC4A8"/>
				<stop  offset="1" style="stop-color:#FFD0B8"/>
			</linearGradient>
			<path style="fill:url(#SVGID_00000160178336997234762380000008995043533175742347_);" d="M290.349,207.191
				c0,0-1.581,0.365-3.107,3.211h5.168c0,0,0.047-0.726,0.898-0.876c0.589-0.104,1.503,0.904,2.705,0.875
				c1.202-0.029,0.347-2.1-0.855-2.933L290.349,207.191z"/>
			
				<linearGradient id="SVGID_00000106141798063373731490000005046313818182187416_" gradientUnits="userSpaceOnUse" x1="332.8164" y1="182.3486" x2="351.4413" y2="175.2237">
				<stop  offset="0.2893" style="stop-color:#FF8955"/>
				<stop  offset="0.4874" style="stop-color:#FFA278"/>
				<stop  offset="0.8017" style="stop-color:#FFD0B8"/>
			</linearGradient>
			<path style="fill:url(#SVGID_00000106141798063373731490000005046313818182187416_);" d="M354.281,174.736
				c0,0-1.905-1.169-1.744-2.376c0.161-1.207,2.414,0.118,2.856,0.2c0,0,4.506-3.137,7.161-1.652c2.146,1.2-2.494,2.217-4.331,4.496
				L354.281,174.736z"/>
		</g>
		<g>
			<g>
				
					<linearGradient id="SVGID_00000021113771736085396940000013600435205251712390_" gradientUnits="userSpaceOnUse" x1="-488.0974" y1="2447.1978" x2="-482.4309" y2="2445.3516" gradientTransform="matrix(-0.157 0.9876 -0.9876 -0.157 2746.2231 1152.2946)">
					<stop  offset="0" style="stop-color:#FF8955"/>
					<stop  offset="0.1327" style="stop-color:#FF9566"/>
					<stop  offset="0.5219" style="stop-color:#FFB592"/>
					<stop  offset="0.824" style="stop-color:#FFC9AE"/>
					<stop  offset="1" style="stop-color:#FFD0B8"/>
				</linearGradient>
				<path style="fill:url(#SVGID_00000021113771736085396940000013600435205251712390_);" d="M407.874,287.954l-3.821,0.572
					c-0.868,3.057,1.464,7.421,2.607,6.581c1.131-0.832,0.04-4.315,1.406-3.829C409.101,291.645,411.021,291.578,407.874,287.954z"
					/>
				<path style="opacity:0.17;fill:#606060;" d="M401.893,339.292c0,2.073,10.936,3.754,24.426,3.754
					c13.49,0,24.426-1.681,24.426-3.754c0-2.073-10.936-3.754-24.426-3.754C412.828,335.538,401.893,337.218,401.893,339.292z"/>
				<g>
					
						<linearGradient id="SVGID_00000014605741998541376510000009775790860634692993_" gradientUnits="userSpaceOnUse" x1="-298.1461" y1="325.7951" x2="-297.3629" y2="336.4469" gradientTransform="matrix(-1 0 0 1 118.5703 0)">
						<stop  offset="0.1433" style="stop-color:#FF8955"/>
						<stop  offset="0.4402" style="stop-color:#FFA278"/>
						<stop  offset="0.911" style="stop-color:#FFD0B8"/>
					</linearGradient>
					<path style="fill:url(#SVGID_00000014605741998541376510000009775790860634692993_);" d="M430.004,280.586
						c-3.802,0.288-12.717-1.041-16.82,1.269c0,0-6.131,22.668-0.457,54.675c0,0-4.592,0.556-7.001,3.232h12.792
						C418.518,339.762,417.98,302.91,430.004,280.586z"/>
					<path style="fill:#E0924B;" d="M405.726,339.762c2.409-2.676,7.001-3.232,7.001-3.232h5.68
						c0.296,1.616,0.112,3.232,0.112,3.232H405.726z"/>
					
						<linearGradient id="SVGID_00000127755117674548935350000009852316937159084734_" gradientUnits="userSpaceOnUse" x1="-215.5011" y1="282.9738" x2="-215.5011" y2="323.3814" gradientTransform="matrix(-1 0 0 1 204.6631 0)">
						<stop  offset="0" style="stop-color:#13658E"/>
						<stop  offset="0.0938" style="stop-color:#1C6D94"/>
						<stop  offset="0.4531" style="stop-color:#3886A9"/>
						<stop  offset="0.7673" style="stop-color:#4996B6"/>
						<stop  offset="1" style="stop-color:#4F9BBA"/>
					</linearGradient>
					<path style="fill:url(#SVGID_00000127755117674548935350000009852316937159084734_);" d="M430.004,280.586
						c-3.802,0.288-12.717-1.041-16.82,1.268c0,0-5.631,20.967-1.091,50.794h6.58C419.183,321.16,421.307,296.733,430.004,280.586z"
						/>
				</g>
				<g>
					
						<linearGradient id="SVGID_00000095305164716731851210000016574020041347942585_" gradientUnits="userSpaceOnUse" x1="1958.8541" y1="325.7951" x2="1959.6373" y2="336.4469" gradientTransform="matrix(1 0 0 1 -1522.2607 0)">
						<stop  offset="0.1433" style="stop-color:#FF8955"/>
						<stop  offset="0.4402" style="stop-color:#FFA278"/>
						<stop  offset="0.911" style="stop-color:#FFD0B8"/>
					</linearGradient>
					<path style="fill:url(#SVGID_00000095305164716731851210000016574020041347942585_);" d="M423.306,280.586
						c3.802,0.288,12.717-1.041,16.82,1.269c0,0,6.131,22.668,0.457,54.675c0,0,4.592,0.556,7.001,3.232h-12.792
						C434.792,339.762,435.33,302.91,423.306,280.586z"/>
					<path style="fill:#E0924B;" d="M447.584,339.762c-2.409-2.676-7.001-3.232-7.001-3.232h-5.68
						c-0.296,1.616-0.111,3.232-0.111,3.232H447.584z"/>
					
						<linearGradient id="SVGID_00000156577908950757317840000006204712578460253330_" gradientUnits="userSpaceOnUse" x1="-228.4824" y1="282.9738" x2="-228.4824" y2="323.3814" gradientTransform="matrix(-1 0 0 1 204.6631 0)">
						<stop  offset="0" style="stop-color:#13658E"/>
						<stop  offset="0.0938" style="stop-color:#1C6D94"/>
						<stop  offset="0.4531" style="stop-color:#3886A9"/>
						<stop  offset="0.7673" style="stop-color:#4996B6"/>
						<stop  offset="1" style="stop-color:#4F9BBA"/>
					</linearGradient>
					<path style="fill:url(#SVGID_00000156577908950757317840000006204712578460253330_);" d="M423.306,280.586
						c3.802,0.288,12.717-1.041,16.82,1.268c0,0,5.631,20.967,1.091,50.794h-6.58C434.127,321.16,432.003,296.733,423.306,280.586z"
						/>
				</g>
				
					<linearGradient id="SVGID_00000031172256389785111760000003324953548351710135_" gradientUnits="userSpaceOnUse" x1="1349.089" y1="294.2736" x2="1349.089" y2="247.3351" gradientTransform="matrix(-1 0 0 1 1776.3704 0)">
					<stop  offset="0" style="stop-color:#D18311"/>
					<stop  offset="0.0556" style="stop-color:#D48917"/>
					<stop  offset="0.4671" style="stop-color:#ECAF3C"/>
					<stop  offset="0.7963" style="stop-color:#FAC753"/>
					<stop  offset="1" style="stop-color:#FFD05C"/>
				</linearGradient>
				<path style="fill:url(#SVGID_00000031172256389785111760000003324953548351710135_);" d="M440.126,281.855
					c-11.24,4.897-26.941,0-26.941,0c0.08-3.533,0.964-17.989,0.964-17.989c-6.595,7.63-6.274,24.089-6.274,24.089l-3.821,0.572
					c-5.536-22.723,4.142-35.528,13.005-37.756c8.264-2.078,10.962-2.317,17.277-0.532c0,0,8.339,1.091,9.055-5.566
					c0.629-5.853-5.811-11.568-5.811-11.568l1.967-3.483c0,0,11.791,6.15,12.549,15.97c0.771,9.993-9.777,13.085-9.777,13.085
					S440.789,276.352,440.126,281.855z"/>
				
					<linearGradient id="SVGID_00000118390071145839293830000001799759301520640406_" gradientUnits="userSpaceOnUse" x1="-1216.8108" y1="513.0246" x2="-1216.8108" y2="536.4262" gradientTransform="matrix(0.977 0.2131 -0.2131 0.977 1727.9258 -1.6445)">
					<stop  offset="0.2893" style="stop-color:#FF8955"/>
					<stop  offset="0.4874" style="stop-color:#FFA278"/>
					<stop  offset="0.8017" style="stop-color:#FFD0B8"/>
				</linearGradient>
				<path style="fill:url(#SVGID_00000118390071145839293830000001799759301520640406_);" d="M433.146,249.833l-2.295-5.906
					c0,0-3.588-1.785-6.743-0.532l-1.894,6.552C422.214,249.947,427.68,265.197,433.146,249.833z"/>
				
					<linearGradient id="SVGID_00000165226681156381224170000001397658681663043459_" gradientUnits="userSpaceOnUse" x1="1405.7515" y1="399.4375" x2="1413.1376" y2="388.3583" gradientTransform="matrix(-0.9999 0.0152 0.0152 0.9999 1830.7614 -174.077)">
					<stop  offset="0" style="stop-color:#FF8955"/>
					<stop  offset="0.911" style="stop-color:#FFD0B8"/>
				</linearGradient>
				<path style="fill:url(#SVGID_00000165226681156381224170000001397658681663043459_);" d="M432.055,233.995l-0.451,10.236
					c0,0-4.393,2.809-10.736,1.327l0.303-4.972l-1.668-0.833l2.274-7.292L432.055,233.995z"/>
				
					<linearGradient id="SVGID_00000134943993973621017680000004324003001611637406_" gradientUnits="userSpaceOnUse" x1="266.9402" y1="299.887" x2="265.3915" y2="283.0725" gradientTransform="matrix(0.9948 0.1014 -0.1014 0.9948 192.3777 -81.0777)">
					<stop  offset="0" style="stop-color:#9B4E1B"/>
					<stop  offset="0.1986" style="stop-color:#B1632A"/>
					<stop  offset="0.493" style="stop-color:#CB7D3C"/>
					<stop  offset="0.7579" style="stop-color:#DA8D47"/>
					<stop  offset="0.966" style="stop-color:#E0924B"/>
				</linearGradient>
				<path style="fill:url(#SVGID_00000134943993973621017680000004324003001611637406_);" d="M431.604,244.232
					c0,0-3.532-1.605-2.821-4.534c0.094-0.389,1.568-0.906,1.385-2.236c-0.185-1.344-1.665-0.428-1.665-0.428l-0.544,1.519
					l-0.669-0.309l-0.132-4.307c-4.924-0.527-5.38-1.477-5.38-1.477c-4.837-2.456-3.209-8.377-1.112-8.408
					c2.901-0.043,3.85,2.517,8.007,2.098c5.523-0.557,7.392,1.354,7.955,6.948c0.474,4.707-2.094,4.451-2.003,7.574
					C434.71,243.566,431.604,244.232,431.604,244.232z"/>
				<path style="fill:#2B2B2B;" d="M422.267,236.987c0.005,0.333,0.279,0.598,0.611,0.593s0.598-0.279,0.593-0.611
					c-0.005-0.333-0.279-0.598-0.611-0.593C422.527,236.381,422.262,236.654,422.267,236.987z"/>
				<path style="fill:#FF6969;" d="M424.208,239.692c0.524-0.008,0.943-0.44,0.935-0.964c-0.008-0.525-0.44-0.943-0.964-0.935
					c-0.525,0.008-0.943,0.44-0.935,0.964C423.252,239.281,423.683,239.7,424.208,239.692z"/>
				<path style="fill:#2B2B2B;" d="M422.304,235.315c0,0,1.179-0.003,2.066,0.912l-0.033,0.217c0,0-1.288-0.582-2.22-0.473
					L422.304,235.315z"/>
				<path style="fill:#FFFFFF;" d="M421.048,242.594c0,0,1.458-0.098,2.871,0.513l0.045-0.706c0,0-0.916-1.157-2.834-1.157
					L421.048,242.594z"/>
				
					<linearGradient id="SVGID_00000080188736563032229900000006858571827010743202_" gradientUnits="userSpaceOnUse" x1="-117.8996" y1="543.7049" x2="-128.3345" y2="540.9099" gradientTransform="matrix(0.9157 0.402 -0.402 0.9157 768.2422 -215.9492)">
					<stop  offset="0" style="stop-color:#FF8955"/>
					<stop  offset="0.1327" style="stop-color:#FF9566"/>
					<stop  offset="0.5219" style="stop-color:#FFB592"/>
					<stop  offset="0.824" style="stop-color:#FFC9AE"/>
					<stop  offset="1" style="stop-color:#FFD0B8"/>
				</linearGradient>
				<path style="fill:url(#SVGID_00000080188736563032229900000006858571827010743202_);" d="M439.545,229.621
					c0,0-0.895-1.404-2.492-2.253c-1.891-1.005-4.208-0.722-5.046,0.03c-1.763,1.583,2.482,1.87,3.088,2.513
					c0.354,0.375,0.633,0.874-0.603,1.454c-1.584,0.743,2.145,2.066,3.087,1.74L439.545,229.621z"/>
			</g>
		</g>
		<g>
			<path style="opacity:0.17;fill:#606060;" d="M189.975,340.289c0,2.018,7.627,3.653,17.036,3.653
				c9.409,0,17.036-1.636,17.036-3.653s-7.627-3.653-17.036-3.653C197.602,336.636,189.975,338.272,189.975,340.289z"/>
			<g>
				
					<linearGradient id="SVGID_00000181802532661815343060000004254810916151342270_" gradientUnits="userSpaceOnUse" x1="204.0554" y1="287.1576" x2="204.0554" y2="331.9413" gradientTransform="matrix(1 0 0 1 -3.6589 0)">
					<stop  offset="0.0325" style="stop-color:#FF8955"/>
					<stop  offset="0.3722" style="stop-color:#FFA278"/>
					<stop  offset="0.911" style="stop-color:#FFD0B8"/>
				</linearGradient>
				<path style="fill:url(#SVGID_00000181802532661815343060000004254810916151342270_);" d="M204.196,340.289
					c0,0-1.681-24.352,3.666-48.148l-14.93-0.556c0,0,0.5,22.5,6.758,46.264c0,0-2.495,0.141-5.307,2.44H204.196z"/>
				<path style="fill:#91C6AC;" d="M194.383,340.289c1.206-0.986,2.352-1.573,3.269-1.924c0.01,0.007,3.437,2.175,6.403-1.028l0,0
					c0.501,1.625,0.14,2.953,0.14,2.953H194.383z"/>
			</g>
			<g>
				
					<linearGradient id="SVGID_00000121249091577675270650000016932455632470937021_" gradientUnits="userSpaceOnUse" x1="1138.4602" y1="287.1576" x2="1138.4602" y2="331.9413" gradientTransform="matrix(-1 0 0 1 1352.1339 0)">
					<stop  offset="0.0325" style="stop-color:#FF8955"/>
					<stop  offset="0.3722" style="stop-color:#FFA278"/>
					<stop  offset="0.911" style="stop-color:#FFD0B8"/>
				</linearGradient>
				<path style="fill:url(#SVGID_00000121249091577675270650000016932455632470937021_);" d="M209.875,340.289
					c0,0,1.681-24.352-3.666-48.148l14.93-0.556c0,0-0.5,22.5-6.758,46.264c0,0,2.494,0.141,5.307,2.44H209.875z"/>
				<path style="fill:#91C6AC;" d="M219.687,340.289c-1.206-0.986-2.352-1.573-3.269-1.924c-0.01,0.007-3.437,2.175-6.403-1.028l0,0
					c-0.501,1.625-0.14,2.953-0.14,2.953H219.687z"/>
			</g>
			<g>
				<g>
					
						<linearGradient id="SVGID_00000082326611898374700620000007790779762566081180_" gradientUnits="userSpaceOnUse" x1="203.7383" y1="305.6898" x2="212.2383" y2="277.6898">
						<stop  offset="0" style="stop-color:#FFEEBD"/>
						<stop  offset="0.24" style="stop-color:#FFF5D8"/>
						<stop  offset="0.4968" style="stop-color:#FFFBEE"/>
						<stop  offset="0.7458" style="stop-color:#FFFEFB"/>
						<stop  offset="0.9762" style="stop-color:#FFFFFF"/>
					</linearGradient>
					<path style="fill:url(#SVGID_00000082326611898374700620000007790779762566081180_);" d="M221.613,300.481
						c0,0,0.822-14.396-5.545-23.752h-19.149c0,0-4.818,7.189-4.818,23.939C192.101,300.668,200.786,304.684,221.613,300.481z"/>
					<g>
						
							<linearGradient id="SVGID_00000069369798461639695760000013553972765149839530_" gradientUnits="userSpaceOnUse" x1="436.4334" y1="184.1719" x2="428.3082" y2="188.422" gradientTransform="matrix(0.9881 -0.1537 0.1537 0.9881 -258.7949 121.8184)">
							<stop  offset="0" style="stop-color:#A54C79"/>
							<stop  offset="0.0311" style="stop-color:#A94F7C"/>
							<stop  offset="0.4275" style="stop-color:#D776A1"/>
							<stop  offset="0.7323" style="stop-color:#F48EB8"/>
							<stop  offset="0.9068" style="stop-color:#FF97C1"/>
						</linearGradient>
						<path style="fill:url(#SVGID_00000069369798461639695760000013553972765149839530_);" d="M205.701,232.117
							c-0.765-3.073-3.567-4.455-4.68-4.716c-1.192-0.28-2.466-0.109-3.594,0.366c-0.553,0.233-1.102,0.563-1.39,1.09
							c-0.243,0.445-0.272,0.979-0.499,1.432c-0.413,0.823-1.359,1.194-2.192,1.588c-0.832,0.394-1.718,1.028-1.756,1.948
							c-0.027,0.651,0.393,1.233,0.852,1.696c0.459,0.462,0.988,0.88,1.284,1.46c0.121,0.237,0.2,0.503,0.173,0.768
							c-0.072,0.7-0.802,1.101-1.403,1.468c-0.9,0.55-1.715,1.317-2.078,2.308c-0.363,0.991-0.178,2.225,0.631,2.903
							c0.519,0.435,1.318,0.738,1.352,1.414c0.017,0.34-0.186,0.649-0.395,0.918c-0.488,0.63-1.094,1.337-0.922,2.115
							c0.064,0.29,0.235,0.548,0.436,0.767c0.64,0.699,1.631,1.059,2.571,0.934c0.94-0.125,1.802-0.732,2.237-1.574
							c0.874,0.48,1.952,0.658,2.884,0.303c0.933-0.355,1.656-1.307,1.578-2.302c-0.011-0.141-0.033-0.296,0.048-0.411
							c0.101-0.144,0.305-0.152,0.48-0.17c1.114-0.112,1.943-1.126,2.31-2.185c0.366-1.058,0.398-2.202,0.662-3.29
							c0.225-0.925,0.615-1.804,0.834-2.73C205.593,236.226,205.253,234.113,205.701,232.117z"/>
					</g>
					
						<linearGradient id="SVGID_00000000186521674107076100000003828076227314630303_" gradientUnits="userSpaceOnUse" x1="444.4142" y1="190.2029" x2="435.664" y2="179.4526" gradientTransform="matrix(0.9881 -0.1537 0.1537 0.9881 -258.7949 121.8184)">
						<stop  offset="0" style="stop-color:#A54C79"/>
						<stop  offset="0.0311" style="stop-color:#A94F7C"/>
						<stop  offset="0.4275" style="stop-color:#D776A1"/>
						<stop  offset="0.7323" style="stop-color:#F48EB8"/>
						<stop  offset="0.9068" style="stop-color:#FF97C1"/>
					</linearGradient>
					<path style="fill:url(#SVGID_00000000186521674107076100000003828076227314630303_);" d="M212.133,240.586
						c0,0,2.1-1.736,1.396-3.945c-0.704-2.209-0.997-1.629-1.623-3.903c-0.626-2.274-4.993-3.997-9.374-2.645
						c-2.762,0.853-5.252,2.583-5.572,5.59c-0.319,3.008,0.591,2.746,0.534,5.087c-0.021,0.872,1.051,3.013,2.886,2.824
						C202.217,243.406,212.133,240.586,212.133,240.586z"/>
					
						<linearGradient id="SVGID_00000101784673871132124900000002705450007434666114_" gradientUnits="userSpaceOnUse" x1="209.7168" y1="287.1252" x2="212.9668" y2="253.6251">
						<stop  offset="0" style="stop-color:#564872"/>
						<stop  offset="1" style="stop-color:#927EC4"/>
					</linearGradient>
					<path style="fill:url(#SVGID_00000101784673871132124900000002705450007434666114_);" d="M237.652,259.646l1.035,2.969
						c0,0-5.5,4.438-13.917,4.438c-3.453,0-7.333-1.917-9.691-7.018c0,0,2.307,1.51,0.952,6.001
						c-1.523,5.049,0.036,10.694,0.036,10.694c-2.852,0.2-4.809,0.524-8.22,0.524c-4.472,0-7.514-0.194-10.929-0.524
						c0,0,1.051-9.144-0.026-14.561l0,0c0,0-4.139,0.075-4.958,4.167c-1.195,5.966,4.063,10.833,4.063,10.833l-2.584,2.375
						c-18.812-14.097-0.422-25.202,4.557-26.958c7.627-2.69,16.336-1.458,19.992,1.468
						C221.188,256.636,222.438,263.603,237.652,259.646"/>
					<g>
						
							<linearGradient id="SVGID_00000142897467204388903820000000918933630774643848_" gradientUnits="userSpaceOnUse" x1="-66.5929" y1="232.3222" x2="-64.6979" y2="232.3222" gradientTransform="matrix(-0.9736 0.2282 0.2282 0.9736 83.8758 32.0323)">
							<stop  offset="0" style="stop-color:#FF8955"/>
							<stop  offset="0.3867" style="stop-color:#FFA278"/>
							<stop  offset="1" style="stop-color:#FFD0B8"/>
						</linearGradient>
						<path style="fill:url(#SVGID_00000142897467204388903820000000918933630774643848_);" d="M200.748,242.671
							c0,0-0.763-1.184-1.294-0.133c-0.531,1.05,1.558,2.503,1.97,1.775L200.748,242.671z"/>
						
							<linearGradient id="SVGID_00000162352977986644558460000014432485253298622639_" gradientUnits="userSpaceOnUse" x1="1437.7328" y1="233.5944" x2="1439.6281" y2="233.5944" gradientTransform="matrix(0.9736 -0.2282 0.2282 0.9736 -1242.3517 341.5781)">
							<stop  offset="0" style="stop-color:#FF8955"/>
							<stop  offset="0.3867" style="stop-color:#FFA278"/>
							<stop  offset="1" style="stop-color:#FFD0B8"/>
						</linearGradient>
						<path style="fill:url(#SVGID_00000162352977986644558460000014432485253298622639_);" d="M211.451,240.164
							c0,0,0.158-1.399,1.1-0.695c0.942,0.705-0.284,2.935-0.976,2.466L211.451,240.164z"/>
					</g>
					
						<linearGradient id="SVGID_00000180348462901440861590000012017854722111387054_" gradientUnits="userSpaceOnUse" x1="98.8736" y1="246.6661" x2="98.8736" y2="258.5675" gradientTransform="matrix(1 0 0 1 108.0782 0)">
						<stop  offset="0" style="stop-color:#FF8955"/>
						<stop  offset="0.1932" style="stop-color:#FFA076"/>
						<stop  offset="0.4423" style="stop-color:#FFBA9A"/>
						<stop  offset="0.6453" style="stop-color:#FFCAB0"/>
						<stop  offset="0.7752" style="stop-color:#FFD0B8"/>
					</linearGradient>
					<path style="fill:url(#SVGID_00000180348462901440861590000012017854722111387054_);" d="M211.051,251.576l-1.197-5.181
						c0,0-3.718-0.937-6.411,0.878l-0.59,4.445c0,0,3.026,6.844,4.314,6.604C208.769,258.023,211.051,251.576,211.051,251.576z"/>
					<g>
						<g>
							
								<linearGradient id="SVGID_00000049224287736010658570000018332664736523689393_" gradientUnits="userSpaceOnUse" x1="-86.2606" y1="234.1108" x2="-66.6944" y2="232.3932" gradientTransform="matrix(-0.9736 0.2282 0.2282 0.9736 83.8758 32.0323)">
								<stop  offset="0.2893" style="stop-color:#FF8955"/>
								<stop  offset="0.4874" style="stop-color:#FFA278"/>
								<stop  offset="0.8017" style="stop-color:#FFD0B8"/>
							</linearGradient>
							<path style="fill:url(#SVGID_00000049224287736010658570000018332664736523689393_);" d="M199.184,238.325
								c0,0,1.975,12.221,8.524,10.686c6.783-1.589,3.226-13.44,3.226-13.44S205.173,234.47,199.184,238.325z"/>
							<path style="fill:#FF6969;" d="M203.293,244.958c-0.556,0.13-1.068-0.026-1.143-0.35c-0.076-0.323,0.313-0.691,0.869-0.821
								c0.556-0.13,1.068,0.026,1.143,0.349C204.238,244.461,203.849,244.828,203.293,244.958z"/>
							<path style="fill:#2B2B2B;" d="M203.368,241.316c0,0-1.547-0.093-2.175,1.075l0,0c0,0,1.258-0.837,2.361-0.618
								L203.368,241.316z"/>
							<path style="fill:#FF6969;" d="M210.094,243.365c0.556-0.13,0.945-0.498,0.869-0.821s-0.587-0.48-1.143-0.349
								c-0.556,0.13-0.945,0.498-0.869,0.821C209.027,243.339,209.539,243.495,210.094,243.365z"/>
							<path style="fill:#2B2B2B;" d="M208.409,240.135c0,0,1.344-0.77,2.426-0.003l0,0c0,0-1.499-0.191-2.39,0.495L208.409,240.135
								z"/>
							<path style="fill:#BC6450;" d="M205.646,245.803l2.611-0.612c0,0-0.158-0.804-1.594-0.467
								C205.602,244.972,205.646,245.803,205.646,245.803z"/>
							<path style="fill:#F2A181;" d="M205.878,240.96c0.224-0.053,1.379,2.201,1.26,2.342c-0.119,0.142-1.323,0.35-1.443,0.245
								C205.575,243.443,205.653,241.013,205.878,240.96z"/>
						</g>
					</g>
					
						<linearGradient id="SVGID_00000015336176374892136560000014294979439071155083_" gradientUnits="userSpaceOnUse" x1="444.2869" y1="190.3064" x2="435.5368" y2="179.5562" gradientTransform="matrix(0.9881 -0.1537 0.1537 0.9881 -258.7949 121.8184)">
						<stop  offset="0" style="stop-color:#A54C79"/>
						<stop  offset="0.0311" style="stop-color:#A94F7C"/>
						<stop  offset="0.4275" style="stop-color:#D776A1"/>
						<stop  offset="0.7323" style="stop-color:#F48EB8"/>
						<stop  offset="0.9068" style="stop-color:#FF97C1"/>
					</linearGradient>
					<path style="fill:url(#SVGID_00000015336176374892136560000014294979439071155083_);" d="M204.838,236.513
						c0,0,1.731,2.702,6.885,3.078c0,0-0.069-3.47-0.25-5.138c0,0-7.026-2.954-12.911,2.623c0,0,0.154,3.141,1.603,5.066
						C200.164,242.142,204.494,239.778,204.838,236.513z"/>
				</g>
				<path style="fill:#2B2B2B;" d="M202.239,242.968c-0.101-0.221-0.004-0.483,0.217-0.584c0.221-0.101,0.483-0.004,0.584,0.217
					c0.101,0.221,0.004,0.483-0.217,0.584C202.602,243.287,202.34,243.189,202.239,242.968z"/>
				<path style="fill:#2B2B2B;" d="M209.345,241.244c-0.101-0.221-0.004-0.483,0.217-0.584c0.221-0.101,0.483-0.004,0.584,0.217
					c0.101,0.221,0.004,0.483-0.217,0.584C209.708,241.563,209.447,241.465,209.345,241.244z"/>
				
					<linearGradient id="SVGID_00000053534533729974141210000018379763563445887410_" gradientUnits="userSpaceOnUse" x1="235.908" y1="261.1061" x2="241.4706" y2="259.2936">
					<stop  offset="0" style="stop-color:#FF8955"/>
					<stop  offset="0.1327" style="stop-color:#FF9566"/>
					<stop  offset="0.5219" style="stop-color:#FFB592"/>
					<stop  offset="0.824" style="stop-color:#FFC9AE"/>
					<stop  offset="1" style="stop-color:#FFD0B8"/>
				</linearGradient>
				<path style="fill:url(#SVGID_00000053534533729974141210000018379763563445887410_);" d="M237.652,259.646l1.035,2.969
					c2.509,0.208,6.908-2.541,5.926-3.511c-0.972-0.96-3.794,0.437-4.277-0.889C240.01,257.317,239.05,255.965,237.652,259.646z"/>
			</g>
		</g>
		
			<linearGradient id="SVGID_00000015331540287908798390000014623405265887229871_" gradientUnits="userSpaceOnUse" x1="193.0294" y1="285.7955" x2="195.2623" y2="278.558">
			<stop  offset="0" style="stop-color:#FF8955"/>
			<stop  offset="0.1932" style="stop-color:#FFA076"/>
			<stop  offset="0.4423" style="stop-color:#FFBA9A"/>
			<stop  offset="0.6453" style="stop-color:#FFCAB0"/>
			<stop  offset="0.7752" style="stop-color:#FFD0B8"/>
		</linearGradient>
		<path style="fill:url(#SVGID_00000015331540287908798390000014623405265887229871_);" d="M195.997,277.168
			c0,0,1.813,1.688,1.375,3.25s-3.32,4.165-5.813,2.831c-1.32-0.706,2.125-1.644,1.854-3.706L195.997,277.168z"/>
		<g>
			
				<linearGradient id="SVGID_00000078745969540643770230000013216290185127028645_" gradientUnits="userSpaceOnUse" x1="461.9583" y1="234.9544" x2="445.9582" y2="193.6211">
				<stop  offset="0" style="stop-color:#237087"/>
				<stop  offset="0.2253" style="stop-color:#398FA4"/>
				<stop  offset="0.5416" style="stop-color:#54B4C7"/>
				<stop  offset="0.7968" style="stop-color:#64CCDD"/>
				<stop  offset="0.957" style="stop-color:#6AD4E5"/>
			</linearGradient>
			<path style="fill:url(#SVGID_00000078745969540643770230000013216290185127028645_);" d="M440.028,212.24
				c-1.88-2.783-2.977-6.138-2.977-9.749c0-9.632,7.808-17.44,17.441-17.44c9.632,0,17.44,7.808,17.44,17.44
				c0,9.632-7.808,17.44-17.44,17.44h-22.155L440.028,212.24z"/>
			<rect x="442.695" y="189.756" style="fill:none;" width="24.346" height="26.65"/>
			
				<text transform="matrix(1 0 0 1 447.4738 215.3241)" style="fill:#FFFFFF; font-family:'Dosis-Bold'; font-size:34px; letter-spacing:3;">?</text>
		</g>
		<g>
			
				<linearGradient id="SVGID_00000081614320884494080080000006741551694453103537_" gradientUnits="userSpaceOnUse" x1="180.315" y1="230.2868" x2="200.315" y2="187.9535">
				<stop  offset="0" style="stop-color:#A54C79"/>
				<stop  offset="0.0424" style="stop-color:#AB517E"/>
				<stop  offset="0.3219" style="stop-color:#CF6F9B"/>
				<stop  offset="0.5831" style="stop-color:#EA85B0"/>
				<stop  offset="0.8169" style="stop-color:#F992BD"/>
				<stop  offset="1" style="stop-color:#FF97C1"/>
			</linearGradient>
			<path style="fill:url(#SVGID_00000081614320884494080080000006741551694453103537_);" d="M202.081,212.83
				c1.88-2.783,2.977-6.138,2.977-9.749c0-9.632-7.808-17.44-17.441-17.44c-9.632,0-17.44,7.808-17.44,17.44
				c0,9.632,7.808,17.44,17.44,17.44h22.155L202.081,212.83z"/>
			<path style="fill:#FFFFFF;" d="M198.499,205.431l-1.408-0.813c0.083-0.502,0.137-1.013,0.137-1.538
				c0-0.525-0.054-1.036-0.137-1.537l1.408-0.813c0.542-0.313,0.728-1.006,0.415-1.549l-2.166-3.751
				c-0.313-0.542-1.006-0.728-1.549-0.415l-1.402,0.81c-0.79-0.651-1.693-1.167-2.668-1.534v-1.626c0-0.626-0.508-1.134-1.134-1.134
				h-4.332c-0.626,0-1.134,0.508-1.134,1.134v1.626c-0.975,0.367-1.878,0.883-2.668,1.534l-1.402-0.81
				c-0.542-0.313-1.236-0.127-1.549,0.415l-2.166,3.752c-0.313,0.542-0.127,1.236,0.415,1.549l1.408,0.813
				c-0.083,0.501-0.137,1.013-0.137,1.537c0,0.525,0.054,1.035,0.137,1.537l-1.408,0.813c-0.542,0.313-0.728,1.006-0.415,1.549
				l2.166,3.751c0.313,0.542,1.006,0.728,1.549,0.415l1.402-0.81c0.79,0.651,1.693,1.167,2.668,1.534v1.626
				c0,0.626,0.507,1.134,1.134,1.134h4.332c0.626,0,1.134-0.508,1.134-1.134v-1.625c0.975-0.367,1.878-0.883,2.668-1.534l1.402,0.81
				c0.542,0.313,1.235,0.127,1.548-0.415l2.166-3.752C199.227,206.438,199.041,205.744,198.499,205.431z M187.83,208.88
				c-3.198,0-5.799-2.602-5.799-5.799s2.601-5.799,5.799-5.799c3.198,0,5.799,2.602,5.799,5.799S191.028,208.88,187.83,208.88z"/>
		</g>
		<g>
			
				<linearGradient id="SVGID_00000012447479232161723230000016745723240410781357_" gradientUnits="userSpaceOnUse" x1="270.6108" y1="182.2191" x2="284.6531" y2="143.8176">
				<stop  offset="0" style="stop-color:#D18311"/>
				<stop  offset="0.2946" style="stop-color:#E19E2B"/>
				<stop  offset="0.755" style="stop-color:#F7C24E"/>
				<stop  offset="1" style="stop-color:#FFD05C"/>
			</linearGradient>
			<path style="fill:url(#SVGID_00000012447479232161723230000016745723240410781357_);" d="M291.525,160.711
				c1.88-2.783,2.977-6.138,2.977-9.749c0-9.632-7.808-17.44-17.441-17.44c-9.632,0-17.44,7.808-17.44,17.44
				c0,9.632,7.808,17.44,17.44,17.44h22.155L291.525,160.711z"/>
			<g>
				<g>
					<path style="fill:#FFFFFF;" d="M286.362,159.743h-18.797c-1.023,0-1.938-0.528-2.45-1.414
						c-0.511-0.885-0.511-1.943-0.001-2.829l9.399-16.279c0.511-0.886,1.428-1.415,2.45-1.415c1.023,0,1.939,0.529,2.451,1.415
						l9.399,16.279c0.51,0.886,0.51,1.944-0.001,2.829C288.3,159.215,287.385,159.743,286.362,159.743z M276.16,140.171
						l-9.399,16.279c-0.241,0.419-0.08,0.788,0,0.927c0.081,0.14,0.32,0.464,0.804,0.464h18.797c0.484,0,0.723-0.324,0.804-0.464
						c0.08-0.139,0.241-0.509,0-0.927l-9.399-16.279c-0.241-0.419-0.642-0.464-0.804-0.464
						C276.802,139.707,276.401,139.753,276.16,140.171L276.16,140.171z"/>
				</g>
				<rect x="265.393" y="142.854" style="fill:none;" width="23.141" height="17.286"/>
				
					<text transform="matrix(1 0 0 1 274.9772 156.4346)" style="fill:#FFFFFF; font-family:'Dosis-Bold'; font-size:18.0595px; letter-spacing:1;">!</text>
			</g>
		</g>
		<g>
			
				<linearGradient id="SVGID_00000072983035046192286840000014390646292510131898_" gradientUnits="userSpaceOnUse" x1="391.7788" y1="140.2217" x2="381.1309" y2="115.6724">
				<stop  offset="0" style="stop-color:#8072B8"/>
				<stop  offset="0.0093" style="stop-color:#8173B9"/>
				<stop  offset="0.2711" style="stop-color:#9E8BD8"/>
				<stop  offset="0.5277" style="stop-color:#B29DED"/>
				<stop  offset="0.7743" style="stop-color:#BFA7FB"/>
				<stop  offset="1" style="stop-color:#C3ABFF"/>
			</linearGradient>
			<path style="fill:url(#SVGID_00000072983035046192286840000014390646292510131898_);" d="M390.41,144.619
				c4.431,1.591,4.615-3.859,4.615-3.859c-1.284-8.746-5.351-13.448-6.109-12.813c-0.758,0.635,1.966,5.575,1.272,5.643
				c-0.593,0.058-2.444-5.873-3.748-5.208c-0.961,0.49,2.18,6.451,1.812,6.566c-0.673,0.211-2.412-4.923-3.411-4.529
				C383.87,130.803,386.765,140.559,390.41,144.619z"/>
			
				<linearGradient id="SVGID_00000115516983200680634030000001929164830060543664_" gradientUnits="userSpaceOnUse" x1="389.672" y1="156.9106" x2="394.422" y2="144.9106">
				<stop  offset="0" style="stop-color:#8072B8"/>
				<stop  offset="0.0093" style="stop-color:#8173B9"/>
				<stop  offset="0.2711" style="stop-color:#9E8BD8"/>
				<stop  offset="0.5277" style="stop-color:#B29DED"/>
				<stop  offset="0.7743" style="stop-color:#BFA7FB"/>
				<stop  offset="1" style="stop-color:#C3ABFF"/>
			</linearGradient>
			<path style="fill:url(#SVGID_00000115516983200680634030000001929164830060543664_);" d="M382.593,148.925
				c-5.919-3.346-4.098-10.357-2.188-11.581c4.118-2.638,7.206,0.836,10.423,3.281c3.217,2.445,6.755,4.858,11.13,3.515
				c3.124-0.959,6.82-3.772,7.206-2.489c0.386,1.283-4.062,2.072-3.193,2.94c0.516,0.516,6.153-4.481,6.925-2.551
				c0.772,1.93-6.595,4.021-5.983,4.986c0.538,0.849,3.444-2.948,4.439-1.255C411.996,146.866,396.537,156.806,382.593,148.925z"/>
			<path style="fill:#FFAD80;" d="M380.425,137.938c0.179,0.418-0.028,1.459-0.537,1.612c-0.597,0.179-3.578-1.852-3.223-2.251
				C376.903,137.03,380.246,137.52,380.425,137.938z"/>
			<circle style="fill:#686868;" cx="382.472" cy="139.561" r="0.507"/>
			
				<linearGradient id="SVGID_00000160173493220512422760000013174767216364445323_" gradientUnits="userSpaceOnUse" x1="390.1552" y1="146.7399" x2="401.6153" y2="135.8894">
				<stop  offset="0" style="stop-color:#8072B8"/>
				<stop  offset="0.0093" style="stop-color:#8173B9"/>
				<stop  offset="0.2711" style="stop-color:#9E8BD8"/>
				<stop  offset="0.5277" style="stop-color:#B29DED"/>
				<stop  offset="0.7743" style="stop-color:#BFA7FB"/>
				<stop  offset="1" style="stop-color:#C3ABFF"/>
			</linearGradient>
			<path style="fill:url(#SVGID_00000160173493220512422760000013174767216364445323_);" d="M394.675,145.173
				c8.445-2.613,11.907-8.228,11.118-8.825c-0.789-0.597-4.993,3.166-5.214,2.505c-0.189-0.565,5.176-3.698,4.236-4.82
				c-0.693-0.826-5.798,3.57-5.993,3.238c-0.356-0.609,4.384-3.557,3.649-4.339c-0.48-0.51-7.837,3.255-12.414,7.822
				C386.928,143.874,392.115,145.965,394.675,145.173z"/>
		</g>
	</g>
</g>
<g id="DESIGNED_BY_FREEPIK">
	<g>
		<g id="XMLID_1_">
			<g id="XMLID_20_">
				<path id="XMLID_28_" style="fill:#A5B7C6;" d="M260.104,465.465c-0.433,0.443-0.804,0.932-1.108,1.453l-0.466-0.24
					c-0.066-0.299-0.349-0.504-0.658-0.467c-0.331,0.039-0.568,0.338-0.529,0.67c0.039,0.33,0.339,0.568,0.67,0.529
					c0.065-0.008,0.127-0.027,0.184-0.053l0.451,0.234c-0.251,0.553-0.433,1.139-0.539,1.744l0.746,0.131
					c0.23-1.307,0.85-2.506,1.792-3.473L260.104,465.465z"/>
				<path id="XMLID_27_" style="fill:#A5B7C6;" d="M265.592,463.162c-0.171,0-0.341,0.008-0.51,0.018l-0.073-0.625
					c0.188-0.15,0.296-0.391,0.266-0.645c-0.046-0.395-0.402-0.676-0.795-0.629c-0.394,0.047-0.675,0.402-0.629,0.795
					c0.03,0.254,0.189,0.461,0.405,0.564l0.073,0.623c-0.714,0.117-1.403,0.332-2.06,0.646l0.327,0.684
					c0.934-0.447,1.941-0.672,2.995-0.672c0.496,0,0.993,0.053,1.475,0.156l0.161-0.74
					C266.692,463.223,266.143,463.162,265.592,463.162z"/>
				<path id="XMLID_26_" style="fill:#A5B7C6;" d="M272.194,465.711c0.331-0.041,0.566-0.342,0.525-0.674
					c-0.04-0.33-0.342-0.564-0.672-0.525c-0.31,0.039-0.535,0.305-0.53,0.609l-0.416,0.363c-0.418-0.43-0.89-0.813-1.408-1.139
					l-0.403,0.641c1.134,0.715,2.02,1.727,2.563,2.926l0.69-0.313c-0.251-0.555-0.567-1.072-0.942-1.545l0.402-0.352
					C272.064,465.715,272.129,465.719,272.194,465.711z"/>
				<path id="XMLID_25_" style="fill:#A5B7C6;" d="M265.044,473.371c-0.386,0.023-0.774,0.035-1.157,0.035
					c-0.88,0-1.732-0.061-2.478-0.18c-0.391-0.063-0.847-0.154-1.27-0.291c1.046,1.859,3.069,3.125,5.389,3.125
					c2.855,0,5.262-1.916,5.949-4.504c-0.682,0.449-1.506,0.824-2.459,1.123C267.839,473.047,266.464,473.285,265.044,473.371z"/>
				<path id="XMLID_21_" style="fill:#A5B7C6;" d="M265.592,464.68c-3.353,0-6.079,2.666-6.079,5.943
					c0,0.426,0.046,0.848,0.137,1.262c0.674,0.482,2.706,0.889,5.348,0.73c2.879-0.174,5.297-0.957,6.672-2.158
					c-0.005-0.195-0.021-0.391-0.045-0.582C271.244,466.912,268.65,464.68,265.592,464.68z M263.433,471.193
					c-1.021,0-1.85-0.83-1.85-1.85c0-1.02,0.829-1.85,1.85-1.85c1.02,0,1.85,0.83,1.85,1.85
					C265.282,470.363,264.452,471.193,263.433,471.193z M268.17,470.285c-0.75,0-1.36-0.609-1.36-1.359s0.61-1.361,1.36-1.361
					s1.36,0.611,1.36,1.361S268.92,470.285,268.17,470.285z"/>
			</g>
			<path id="XMLID_18_" style="fill:#A5B7C6;" d="M281.596,466.547c-0.295-0.117-0.806-0.309-1.383-0.238
				c-0.551,0.068-0.844,0.342-0.844,1.008v0.865h2.228v1.717h-2.228v5.455h-1.932v-5.455h-1.34v-1.717h1.34v-0.889
				c0-1.68,0.896-2.783,2.568-2.783c0.642,0,1.157,0.123,1.59,0.309V466.547z"/>
			<path id="XMLID_16_" style="fill:#A5B7C6;" d="M286.298,469.879c-0.177-0.031-0.357-0.047-0.526-0.047
				c-0.895,0-1.51,0.547-1.51,1.613v3.908h-1.932v-7.172h1.873v0.785c0.451-0.674,1.14-0.978,2.021-0.978
				c0.414,0,0.848,0.129,1.094,0.338L286.298,469.879z"/>
			<path id="XMLID_13_" style="fill:#A5B7C6;" d="M293.965,471.756c0,0.223-0.015,0.488-0.037,0.652h-5.084
				c0.207,1.035,0.933,1.486,1.843,1.486c0.621,0,1.295-0.25,1.814-0.688l1.132,1.244c-0.813,0.746-1.85,1.088-3.057,1.088
				c-2.198,0-3.723-1.496-3.723-3.754c0-2.256,1.481-3.797,3.627-3.797C292.544,467.988,293.958,469.522,293.965,471.756z
				 M288.851,471.09h3.175c-0.177-0.918-0.732-1.436-1.561-1.436C289.554,469.654,289.021,470.201,288.851,471.09z"/>
			<path id="XMLID_10_" style="fill:#A5B7C6;" d="M301.618,471.756c0,0.223-0.015,0.488-0.037,0.652h-5.084
				c0.207,1.035,0.933,1.486,1.843,1.486c0.621,0,1.295-0.25,1.814-0.688l1.132,1.244c-0.814,0.746-1.851,1.088-3.057,1.088
				c-2.198,0-3.723-1.496-3.723-3.754c0-2.256,1.48-3.797,3.626-3.797C300.197,467.988,301.611,469.522,301.618,471.756z
				 M296.504,471.09h3.176c-0.178-0.918-0.733-1.436-1.563-1.436C297.207,469.654,296.674,470.201,296.504,471.09z"/>
			<path id="XMLID_7_" style="fill:#A5B7C6;" d="M309.964,471.764c0,2.154-1.495,3.775-3.471,3.775
				c-0.963,0-1.644-0.379-2.109-0.934v3.709h-1.925v-10.133h1.888v0.791c0.466-0.584,1.154-0.984,2.139-0.984
				C308.469,467.988,309.964,469.609,309.964,471.764z M304.287,471.764c0,1.133,0.748,1.977,1.843,1.977
				c1.14,0,1.851-0.881,1.851-1.977s-0.711-1.977-1.851-1.977C305.035,469.787,304.287,470.631,304.287,471.764z"/>
			<path id="XMLID_4_" style="fill:#A5B7C6;" d="M313.067,465.836c0,0.695-0.54,1.229-1.235,1.229c-0.696,0-1.23-0.533-1.23-1.229
				c0-0.697,0.533-1.244,1.23-1.244C312.527,464.592,313.067,465.139,313.067,465.836z M312.809,475.353h-1.932v-7.172h1.932
				V475.353z"/>
			<path id="XMLID_2_" style="fill:#A5B7C6;" d="M316.032,470.734l2.701-2.553h2.369l-3.479,3.375l3.501,3.797h-2.376l-2.716-2.902
				v2.902h-1.932v-10.658h1.932V470.734z"/>
		</g>
		<g>
			<path style="fill:#A5B7C6;" d="M184.412,475.289v-1.055c-0.527,0.717-1.391,1.23-2.387,1.23c-1.846,0-3.15-1.406-3.15-3.707
				c0-2.256,1.289-3.721,3.15-3.721c0.951,0,1.816,0.469,2.387,1.246v-3.766h1.1v9.771H184.412z M184.412,473.369v-3.207
				c-0.395-0.615-1.244-1.143-2.123-1.143c-1.422,0-2.271,1.172-2.271,2.738c0,1.568,0.85,2.725,2.271,2.725
				C183.168,474.482,184.018,473.984,184.412,473.369z"/>
			<path style="fill:#A5B7C6;" d="M186.932,471.744c0-2.051,1.465-3.707,3.486-3.707c2.139,0,3.398,1.67,3.398,3.795v0.277h-5.727
				c0.088,1.334,1.025,2.447,2.549,2.447c0.806,0,1.626-0.322,2.183-0.895l0.527,0.719c-0.703,0.703-1.655,1.084-2.813,1.084
				C188.44,475.465,186.932,473.955,186.932,471.744z M190.403,468.945c-1.509,0-2.256,1.275-2.314,2.359h4.643
				C192.718,470.25,192.015,468.945,190.403,468.945z"/>
			<path style="fill:#A5B7C6;" d="M194.607,474.352l0.57-0.791c0.469,0.541,1.363,1.01,2.33,1.01c1.084,0,1.67-0.512,1.67-1.215
				c0-1.715-4.381-0.66-4.381-3.281c0-1.1,0.953-2.037,2.637-2.037c1.201,0,2.051,0.455,2.623,1.025l-0.514,0.762
				c-0.424-0.512-1.201-0.893-2.109-0.893c-0.967,0-1.566,0.482-1.566,1.113c0,1.553,4.379,0.527,4.379,3.281
				c0,1.185-0.951,2.139-2.783,2.139C196.307,475.465,195.324,475.113,194.607,474.352z"/>
			<path style="fill:#A5B7C6;" d="M201.477,466.471c0-0.41,0.338-0.748,0.732-0.748c0.41,0,0.747,0.338,0.747,0.748
				c0,0.41-0.337,0.732-0.747,0.732C201.814,467.203,201.477,466.881,201.477,466.471z M201.667,475.289v-7.076h1.099v7.076H201.667
				z"/>
			<path style="fill:#A5B7C6;" d="M204.582,477.105l0.557-0.82c0.586,0.703,1.289,0.967,2.3,0.967c1.172,0,2.271-0.572,2.271-2.125
				v-1.01c-0.513,0.717-1.377,1.26-2.373,1.26c-1.846,0-3.149-1.377-3.149-3.662c0-2.271,1.288-3.678,3.149-3.678
				c0.951,0,1.802,0.469,2.373,1.246v-1.07h1.098v6.871c0,2.344-1.641,3.076-3.368,3.076
				C206.237,478.16,205.417,477.926,204.582,477.105z M209.709,473.252v-3.09c-0.381-0.615-1.231-1.143-2.109-1.143
				c-1.422,0-2.271,1.127-2.271,2.695c0,1.553,0.849,2.695,2.271,2.695C208.478,474.41,209.328,473.867,209.709,473.252z"/>
			<path style="fill:#A5B7C6;" d="M217.413,475.289v-4.629c0-1.246-0.63-1.641-1.581-1.641c-0.865,0-1.686,0.527-2.096,1.098v5.172
				h-1.098v-7.076h1.098v1.025c0.498-0.586,1.465-1.201,2.52-1.201c1.48,0,2.256,0.748,2.256,2.285v4.967H217.413z"/>
			<path style="fill:#A5B7C6;" d="M219.933,471.744c0-2.051,1.465-3.707,3.486-3.707c2.138,0,3.399,1.67,3.399,3.795v0.277h-5.728
				c0.088,1.334,1.025,2.447,2.549,2.447c0.806,0,1.626-0.322,2.183-0.895l0.527,0.719c-0.703,0.703-1.655,1.084-2.813,1.084
				C221.441,475.465,219.933,473.955,219.933,471.744z M223.404,468.945c-1.509,0-2.256,1.275-2.314,2.359h4.643
				C225.719,470.25,225.016,468.945,223.404,468.945z"/>
			<path style="fill:#A5B7C6;" d="M233.35,475.289v-1.055c-0.527,0.717-1.391,1.23-2.388,1.23c-1.845,0-3.149-1.406-3.149-3.707
				c0-2.256,1.289-3.721,3.149-3.721c0.952,0,1.817,0.469,2.388,1.246v-3.766h1.099v9.771H233.35z M233.35,473.369v-3.207
				c-0.396-0.615-1.244-1.143-2.123-1.143c-1.422,0-2.271,1.172-2.271,2.738c0,1.568,0.85,2.725,2.271,2.725
				C232.105,474.482,232.954,473.984,233.35,473.369z"/>
			<path style="fill:#A5B7C6;" d="M239.691,475.289v-9.771h1.1v3.766c0.571-0.777,1.42-1.246,2.387-1.246
				c1.846,0,3.15,1.465,3.15,3.721c0,2.301-1.305,3.707-3.15,3.707c-0.996,0-1.859-0.514-2.387-1.23v1.055H239.691z M242.9,474.482
				c1.436,0,2.285-1.156,2.285-2.725c0-1.566-0.85-2.738-2.285-2.738c-0.865,0-1.729,0.527-2.109,1.143v3.207
				C241.172,473.984,242.035,474.482,242.9,474.482z"/>
			<path style="fill:#A5B7C6;" d="M247.528,477.06c0.161,0.074,0.425,0.117,0.601,0.117c0.483,0,0.806-0.16,1.055-0.746l0.469-1.07
				l-2.959-7.148h1.188l2.357,5.801l2.344-5.801h1.201l-3.545,8.512c-0.425,1.025-1.143,1.42-2.08,1.436
				c-0.234,0-0.601-0.045-0.806-0.104L247.528,477.06z"/>
		</g>
	</g>
</g>
</svg>
