<?xml version="1.0" encoding="UTF-8" standalone="no"?>
<!-- Created with Inkscape (http://www.inkscape.org/) -->

<svg
   version="1.1"
   id="svg1"
   width="1000"
   height="666.66669"
   viewBox="0 0 1000 666.66669"
   sodipodi:docname="3957706.eps"
   xmlns:inkscape="http://www.inkscape.org/namespaces/inkscape"
   xmlns:sodipodi="http://sodipodi.sourceforge.net/DTD/sodipodi-0.dtd"
   xmlns="http://www.w3.org/2000/svg"
   xmlns:svg="http://www.w3.org/2000/svg">
  <defs
     id="defs1" />
  <sodipodi:namedview
     id="namedview1"
     pagecolor="#ffffff"
     bordercolor="#000000"
     borderopacity="0.25"
     inkscape:showpageshadow="2"
     inkscape:pageopacity="0.0"
     inkscape:pagecheckerboard="0"
     inkscape:deskcolor="#d1d1d1">
    <inkscape:page
       x="0"
       y="0"
       inkscape:label="1"
       id="page1"
       width="1000"
       height="666.66669"
       margin="0"
       bleed="0" />
  </sodipodi:namedview>
  <g
     id="g1"
     inkscape:groupmode="layer"
     inkscape:label="1">
    <g
       id="group-R5">
      <path
         id="path2"
         d="M 7500,0 H 0 V 5000 H 7500 V 0"
         style="fill:#fcedc3;fill-opacity:1;fill-rule:nonzero;stroke:none"
         transform="matrix(0.13333333,0,0,-0.13333333,0,666.66667)" />
      <path
         id="path3"
         d="m 4317.07,1143.9 c 0,-24.21 -466.45,-43.84 -1041.84,-43.84 -575.39,0 -1041.84,19.63 -1041.84,43.84 0,24.21 466.45,43.84 1041.84,43.84 575.39,0 1041.84,-19.63 1041.84,-43.84"
         style="fill:#efca83;fill-opacity:1;fill-rule:nonzero;stroke:none"
         transform="matrix(0.13333333,0,0,-0.13333333,0,666.66667)" />
      <path
         id="path4"
         d="m 5026.59,989.969 c 0,-21 -134.99,-38.028 -301.51,-38.028 -166.53,0 -301.52,17.028 -301.52,38.028 0,21.001 134.99,38.031 301.52,38.031 166.52,0 301.51,-17.03 301.51,-38.031"
         style="fill:#efca83;fill-opacity:1;fill-rule:nonzero;stroke:none"
         transform="matrix(0.13333333,0,0,-0.13333333,0,666.66667)" />
      <path
         id="path5"
         d="m 6708.49,3554.53 c -89.17,134.25 -237.63,235.75 -397.56,228.83 -141.26,-6.12 -264.42,-91.6 -391.55,-153.49 -127.13,-61.88 -289.02,-98.36 -402.59,-14.13 -77.38,57.39 -110.39,155.04 -155.47,240.17 -156.65,295.82 -497.7,467.58 -832.41,471.69 -334.71,4.1 -658.78,-141.17 -919.73,-350.81 -260.96,-209.65 -465.52,-480.67 -651.03,-759.3 -141.41,-212.37 -313.05,-455.38 -567.88,-467.87 -227.1,-11.13 -421.38,171.71 -647.34,196.98 -272.75,30.5 -511.51,-169.28 -712.78,-355.86 -26.41,-340.77 -15.41,-701.82 26.34,-1050.56 h 5652 v 2014.35"
         style="fill:#efca83;fill-opacity:1;fill-rule:nonzero;stroke:none"
         transform="matrix(0.13333333,0,0,-0.13333333,0,666.66667)" />
      <path
         id="path6"
         d="m 5690.69,2503.56 h 93.66 l -476.04,561.63 -241.51,-284.92 v 98.76 h -105.66 v -223.42 l -128.88,-152.05 h 93.66 v -303.98 h -49.39 v -63.39 h 49.39 v -604.61 h 764.77 v 604.61 h 63.5 v 63.39 h -63.5 v 303.98"
         style="fill:#fcedc3;fill-opacity:1;fill-rule:nonzero;stroke:none"
         transform="matrix(0.13333333,0,0,-0.13333333,0,666.66667)" />
      <path
         id="path7"
         d="m 5274.74,2636.59 h -89.02 v 89.02 h 89.02 v -89.02"
         style="fill:#efca83;fill-opacity:1;fill-rule:nonzero;stroke:none"
         transform="matrix(0.13333333,0,0,-0.13333333,0,666.66667)" />
      <path
         id="path8"
         d="m 5380.89,2636.59 h -89.03 v 89.02 h 89.03 v -89.02"
         style="fill:#efca83;fill-opacity:1;fill-rule:nonzero;stroke:none"
         transform="matrix(0.13333333,0,0,-0.13333333,0,666.66667)" />
      <path
         id="path9"
         d="m 5274.74,2531.3 h -89.02 v 89.02 h 89.02 v -89.02"
         style="fill:#efca83;fill-opacity:1;fill-rule:nonzero;stroke:none"
         transform="matrix(0.13333333,0,0,-0.13333333,0,666.66667)" />
      <path
         id="path10"
         d="m 5380.89,2531.3 h -89.03 v 89.02 h 89.03 v -89.02"
         style="fill:#efca83;fill-opacity:1;fill-rule:nonzero;stroke:none"
         transform="matrix(0.13333333,0,0,-0.13333333,0,666.66667)" />
      <path
         id="path11"
         d="m 5146.46,1933.67 h -89.02 v 89.02 h 89.02 v -89.02"
         style="fill:#efca83;fill-opacity:1;fill-rule:nonzero;stroke:none"
         transform="matrix(0.13333333,0,0,-0.13333333,0,666.66667)" />
      <path
         id="path12"
         d="m 5252.61,1933.67 h -89.03 v 89.02 h 89.03 v -89.02"
         style="fill:#efca83;fill-opacity:1;fill-rule:nonzero;stroke:none"
         transform="matrix(0.13333333,0,0,-0.13333333,0,666.66667)" />
      <path
         id="path13"
         d="m 5146.46,1828.38 h -89.02 v 89.03 h 89.02 v -89.03"
         style="fill:#efca83;fill-opacity:1;fill-rule:nonzero;stroke:none"
         transform="matrix(0.13333333,0,0,-0.13333333,0,666.66667)" />
      <path
         id="path14"
         d="m 5252.61,1828.38 h -89.03 v 89.03 h 89.03 v -89.03"
         style="fill:#efca83;fill-opacity:1;fill-rule:nonzero;stroke:none"
         transform="matrix(0.13333333,0,0,-0.13333333,0,666.66667)" />
      <path
         id="path15"
         d="m 5482.9,1933.67 h -89.02 v 89.02 h 89.02 v -89.02"
         style="fill:#efca83;fill-opacity:1;fill-rule:nonzero;stroke:none"
         transform="matrix(0.13333333,0,0,-0.13333333,0,666.66667)" />
      <path
         id="path16"
         d="m 5589.04,1933.67 h -89.02 v 89.02 h 89.02 v -89.02"
         style="fill:#efca83;fill-opacity:1;fill-rule:nonzero;stroke:none"
         transform="matrix(0.13333333,0,0,-0.13333333,0,666.66667)" />
      <path
         id="path17"
         d="m 5482.9,1828.38 h -89.02 v 89.03 h 89.02 v -89.03"
         style="fill:#efca83;fill-opacity:1;fill-rule:nonzero;stroke:none"
         transform="matrix(0.13333333,0,0,-0.13333333,0,666.66667)" />
      <path
         id="path18"
         d="m 5589.04,1828.38 h -89.02 v 89.03 h 89.02 v -89.03"
         style="fill:#efca83;fill-opacity:1;fill-rule:nonzero;stroke:none"
         transform="matrix(0.13333333,0,0,-0.13333333,0,666.66667)" />
      <path
         id="path19"
         d="m 3458.1,2264.89 h 70.66 l -359.15,423.72 -182.2,-214.96 v 74.51 h -79.72 V 2379.6 l -97.23,-114.71 h 70.66 v -229.34 h -37.26 v -47.82 h 37.26 v -456.15 h 576.98 v 456.15 h 47.91 v 47.82 h -47.91 v 229.34"
         style="fill:#fcedc3;fill-opacity:1;fill-rule:nonzero;stroke:none"
         transform="matrix(0.13333333,0,0,-0.13333333,0,666.66667)" />
      <path
         id="path20"
         d="m 3144.29,2365.25 h -67.16 v 67.16 h 67.16 v -67.16"
         style="fill:#efca83;fill-opacity:1;fill-rule:nonzero;stroke:none"
         transform="matrix(0.13333333,0,0,-0.13333333,0,666.66667)" />
      <path
         id="path21"
         d="m 3224.37,2365.25 h -67.17 v 67.16 h 67.17 v -67.16"
         style="fill:#efca83;fill-opacity:1;fill-rule:nonzero;stroke:none"
         transform="matrix(0.13333333,0,0,-0.13333333,0,666.66667)" />
      <path
         id="path22"
         d="m 3144.29,2285.82 h -67.16 v 67.16 h 67.16 v -67.16"
         style="fill:#efca83;fill-opacity:1;fill-rule:nonzero;stroke:none"
         transform="matrix(0.13333333,0,0,-0.13333333,0,666.66667)" />
      <path
         id="path23"
         d="m 3224.37,2285.82 h -67.17 v 67.16 h 67.17 v -67.16"
         style="fill:#efca83;fill-opacity:1;fill-rule:nonzero;stroke:none"
         transform="matrix(0.13333333,0,0,-0.13333333,0,666.66667)" />
      <path
         id="path24"
         d="m 3047.51,1834.94 h -67.17 v 67.16 h 67.17 v -67.16"
         style="fill:#efca83;fill-opacity:1;fill-rule:nonzero;stroke:none"
         transform="matrix(0.13333333,0,0,-0.13333333,0,666.66667)" />
      <path
         id="path25"
         d="m 3127.59,1834.94 h -67.17 v 67.16 h 67.17 v -67.16"
         style="fill:#efca83;fill-opacity:1;fill-rule:nonzero;stroke:none"
         transform="matrix(0.13333333,0,0,-0.13333333,0,666.66667)" />
      <path
         id="path26"
         d="m 3047.51,1755.5 h -67.17 v 67.17 h 67.17 v -67.17"
         style="fill:#efca83;fill-opacity:1;fill-rule:nonzero;stroke:none"
         transform="matrix(0.13333333,0,0,-0.13333333,0,666.66667)" />
      <path
         id="path27"
         d="m 3127.59,1755.5 h -67.17 v 67.17 h 67.17 v -67.17"
         style="fill:#efca83;fill-opacity:1;fill-rule:nonzero;stroke:none"
         transform="matrix(0.13333333,0,0,-0.13333333,0,666.66667)" />
      <path
         id="path28"
         d="m 3301.33,1834.94 h -67.16 v 67.16 h 67.16 v -67.16"
         style="fill:#efca83;fill-opacity:1;fill-rule:nonzero;stroke:none"
         transform="matrix(0.13333333,0,0,-0.13333333,0,666.66667)" />
      <path
         id="path29"
         d="m 3381.41,1834.94 h -67.16 v 67.16 h 67.16 v -67.16"
         style="fill:#efca83;fill-opacity:1;fill-rule:nonzero;stroke:none"
         transform="matrix(0.13333333,0,0,-0.13333333,0,666.66667)" />
      <path
         id="path30"
         d="m 3301.33,1755.5 h -67.16 v 67.17 h 67.16 v -67.17"
         style="fill:#efca83;fill-opacity:1;fill-rule:nonzero;stroke:none"
         transform="matrix(0.13333333,0,0,-0.13333333,0,666.66667)" />
      <path
         id="path31"
         d="m 3381.41,1755.5 h -67.16 v 67.17 h 67.16 v -67.17"
         style="fill:#efca83;fill-opacity:1;fill-rule:nonzero;stroke:none"
         transform="matrix(0.13333333,0,0,-0.13333333,0,666.66667)" />
      <path
         id="path32"
         d="m 4617.93,2346.81 h 84.68 L 4272.19,2854.62 4053.83,2597 v 89.3 h -95.53 v -202.01 l -116.52,-137.48 h 84.68 v -340.66 h -34.68 v -44.7 h 34.68 v -481.38 h 691.47 v 481.38 h 30.3 v 44.7 h -30.3 v 340.66"
         style="fill:#fcedc3;fill-opacity:1;fill-rule:nonzero;stroke:none"
         transform="matrix(0.13333333,0,0,-0.13333333,0,666.66667)" />
      <path
         id="path33"
         d="m 4042.53,2253.91 h -70.23 v 70.23 h 70.23 v -70.23"
         style="fill:#efca83;fill-opacity:1;fill-rule:nonzero;stroke:none"
         transform="matrix(0.13333333,0,0,-0.13333333,0,666.66667)" />
      <path
         id="path34"
         d="m 4126.27,2253.91 h -70.23 v 70.23 h 70.23 v -70.23"
         style="fill:#efca83;fill-opacity:1;fill-rule:nonzero;stroke:none"
         transform="matrix(0.13333333,0,0,-0.13333333,0,666.66667)" />
      <path
         id="path35"
         d="m 4042.53,2170.84 h -70.23 v 70.23 h 70.23 v -70.23"
         style="fill:#efca83;fill-opacity:1;fill-rule:nonzero;stroke:none"
         transform="matrix(0.13333333,0,0,-0.13333333,0,666.66667)" />
      <path
         id="path36"
         d="m 4126.27,2170.84 h -70.23 v 70.23 h 70.23 v -70.23"
         style="fill:#efca83;fill-opacity:1;fill-rule:nonzero;stroke:none"
         transform="matrix(0.13333333,0,0,-0.13333333,0,666.66667)" />
      <path
         id="path37"
         d="m 4261.8,2253.91 h -70.23 v 70.23 h 70.23 v -70.23"
         style="fill:#efca83;fill-opacity:1;fill-rule:nonzero;stroke:none"
         transform="matrix(0.13333333,0,0,-0.13333333,0,666.66667)" />
      <path
         id="path38"
         d="m 4345.55,2253.91 h -70.24 v 70.23 h 70.24 v -70.23"
         style="fill:#efca83;fill-opacity:1;fill-rule:nonzero;stroke:none"
         transform="matrix(0.13333333,0,0,-0.13333333,0,666.66667)" />
      <path
         id="path39"
         d="m 4261.8,2170.84 h -70.23 v 70.23 h 70.23 v -70.23"
         style="fill:#efca83;fill-opacity:1;fill-rule:nonzero;stroke:none"
         transform="matrix(0.13333333,0,0,-0.13333333,0,666.66667)" />
      <path
         id="path40"
         d="m 4345.55,2170.84 h -70.24 v 70.23 h 70.24 v -70.23"
         style="fill:#efca83;fill-opacity:1;fill-rule:nonzero;stroke:none"
         transform="matrix(0.13333333,0,0,-0.13333333,0,666.66667)" />
      <path
         id="path41"
         d="m 4481.08,2253.91 h -70.24 v 70.23 h 70.24 v -70.23"
         style="fill:#efca83;fill-opacity:1;fill-rule:nonzero;stroke:none"
         transform="matrix(0.13333333,0,0,-0.13333333,0,666.66667)" />
      <path
         id="path42"
         d="m 4564.82,2253.91 h -70.23 v 70.23 h 70.23 v -70.23"
         style="fill:#efca83;fill-opacity:1;fill-rule:nonzero;stroke:none"
         transform="matrix(0.13333333,0,0,-0.13333333,0,666.66667)" />
      <path
         id="path43"
         d="m 4481.08,2170.84 h -70.24 v 70.23 h 70.24 v -70.23"
         style="fill:#efca83;fill-opacity:1;fill-rule:nonzero;stroke:none"
         transform="matrix(0.13333333,0,0,-0.13333333,0,666.66667)" />
      <path
         id="path44"
         d="m 4564.82,2170.84 h -70.23 v 70.23 h 70.23 v -70.23"
         style="fill:#efca83;fill-opacity:1;fill-rule:nonzero;stroke:none"
         transform="matrix(0.13333333,0,0,-0.13333333,0,666.66667)" />
      <path
         id="path45"
         d="m 4079.87,1789.65 h -68.53 v 0.69 c 0,37.47 30.38,67.84 67.85,67.84 h 0.68 v -68.53"
         style="fill:#efca83;fill-opacity:1;fill-rule:nonzero;stroke:none"
         transform="matrix(0.13333333,0,0,-0.13333333,0,666.66667)" />
      <path
         id="path46"
         d="m 4161.58,1789.65 h -68.53 v 68.53 h 0.68 c 37.47,0 67.85,-30.37 67.85,-67.84 v -0.69"
         style="fill:#efca83;fill-opacity:1;fill-rule:nonzero;stroke:none"
         transform="matrix(0.13333333,0,0,-0.13333333,0,666.66667)" />
      <path
         id="path47"
         d="m 4079.87,1708.6 h -68.53 v 68.53 h 68.53 v -68.53"
         style="fill:#efca83;fill-opacity:1;fill-rule:nonzero;stroke:none"
         transform="matrix(0.13333333,0,0,-0.13333333,0,666.66667)" />
      <path
         id="path48"
         d="m 4161.58,1708.6 h -68.53 v 68.53 h 68.53 v -68.53"
         style="fill:#efca83;fill-opacity:1;fill-rule:nonzero;stroke:none"
         transform="matrix(0.13333333,0,0,-0.13333333,0,666.66667)" />
      <path
         id="path49"
         d="m 4446.06,1789.65 h -68.53 v 0.69 c 0,37.47 30.38,67.84 67.85,67.84 h 0.68 v -68.53"
         style="fill:#efca83;fill-opacity:1;fill-rule:nonzero;stroke:none"
         transform="matrix(0.13333333,0,0,-0.13333333,0,666.66667)" />
      <path
         id="path50"
         d="m 4527.77,1789.65 h -68.53 v 68.53 h 0.69 c 37.47,0 67.84,-30.37 67.84,-67.84 v -0.69"
         style="fill:#efca83;fill-opacity:1;fill-rule:nonzero;stroke:none"
         transform="matrix(0.13333333,0,0,-0.13333333,0,666.66667)" />
      <path
         id="path51"
         d="m 4446.06,1708.6 h -68.53 v 68.53 h 68.53 v -68.53"
         style="fill:#efca83;fill-opacity:1;fill-rule:nonzero;stroke:none"
         transform="matrix(0.13333333,0,0,-0.13333333,0,666.66667)" />
      <path
         id="path52"
         d="m 4527.77,1708.6 h -68.53 v 68.53 h 68.53 v -68.53"
         style="fill:#efca83;fill-opacity:1;fill-rule:nonzero;stroke:none"
         transform="matrix(0.13333333,0,0,-0.13333333,0,666.66667)" />
      <path
         id="path53"
         d="M 5456.91,4370 H 6818.52 V 1192.9 H 5456.91 V 4370"
         style="fill:#fcedc3;fill-opacity:1;fill-rule:nonzero;stroke:none"
         transform="matrix(0.13333333,0,0,-0.13333333,0,666.66667)" />
      <path
         id="path54"
         d="M 6822.62,1266.52 H 5658.49 V 3481.73 H 6822.62 V 1266.52"
         style="fill:#54c4aa;fill-opacity:1;fill-rule:nonzero;stroke:none"
         transform="matrix(0.13333333,0,0,-0.13333333,0,666.66667)" />
      <path
         id="path55"
         d="M 6759.44,1265.64 H 5718.23 V 3420.73 H 6759.44 V 1265.64"
         style="fill:#1c3257;fill-opacity:1;fill-rule:nonzero;stroke:none"
         transform="matrix(0.13333333,0,0,-0.13333333,0,666.66667)" />
      <path
         id="path56"
         d="m 6759.44,1265.64 h -834.91 v 2137.89 h 834.91 V 1265.64"
         style="fill:#3980b3;fill-opacity:1;fill-rule:nonzero;stroke:none"
         transform="matrix(0.13333333,0,0,-0.13333333,0,666.66667)" />
      <path
         id="path57"
         d="m 6821.57,1186.96 h -1259.4 v 75.38 h 1259.4 v -75.38"
         style="fill:#efca83;fill-opacity:1;fill-rule:nonzero;stroke:none"
         transform="matrix(0.13333333,0,0,-0.13333333,0,666.66667)" />
      <path
         id="path58"
         d="m 6721.07,1114.73 h -1259.4 v 75.37 h 1259.4 v -75.37"
         style="fill:#efca83;fill-opacity:1;fill-rule:nonzero;stroke:none"
         transform="matrix(0.13333333,0,0,-0.13333333,0,666.66667)" />
      <path
         id="path59"
         d="m 5870.81,2594.49 c 0,-17.81 -14.43,-32.24 -32.24,-32.24 -17.8,0 -32.23,14.43 -32.23,32.24 0,17.8 14.43,32.23 32.23,32.23 17.81,0 32.24,-14.43 32.24,-32.23"
         style="fill:#fcedc3;fill-opacity:1;fill-rule:nonzero;stroke:none"
         transform="matrix(0.13333333,0,0,-0.13333333,0,666.66667)" />
      <path
         id="path60"
         d="m 5993.43,3664.95 c 0,200.45 -168.72,361.51 -371.9,348.88 -179.67,-11.16 -323.46,-161.49 -327.19,-341.47 -1.89,-91.42 31.34,-175.01 87.1,-238.29 70.39,-79.89 137.99,-162.19 196.86,-250.91 l 65.55,-98.8 46.72,70.42 c 63.36,95.5 131.25,188.33 209.31,272.25 58.04,62.38 93.55,145.98 93.55,237.92"
         style="fill:#ef2c4a;fill-opacity:1;fill-rule:nonzero;stroke:none"
         transform="matrix(0.13333333,0,0,-0.13333333,0,666.66667)" />
      <path
         id="path61"
         d="m 5831.93,3664.95 c 0,-103.88 -84.21,-188.08 -188.08,-188.08 -103.87,0 -188.08,84.2 -188.08,188.08 0,103.87 84.21,188.08 188.08,188.08 103.87,0 188.08,-84.21 188.08,-188.08"
         style="fill:#ffffff;fill-opacity:1;fill-rule:nonzero;stroke:none"
         transform="matrix(0.13333333,0,0,-0.13333333,0,666.66667)" />
      <path
         id="path62"
         d="m 5650.32,2165.11 h -42.98 v 29.23 h 42.98 v -29.23"
         style="fill:#ef2c4a;fill-opacity:1;fill-rule:nonzero;stroke:none"
         transform="matrix(0.13333333,0,0,-0.13333333,0,666.66667)" />
      <path
         id="path63"
         d="m 5679.72,1968.98 h -102.07 v 170.38 c 0,22.99 18.63,41.62 41.61,41.62 h 18.85 c 22.98,0 41.61,-18.63 41.61,-41.62 v -170.38"
         style="fill:#ef2c4a;fill-opacity:1;fill-rule:nonzero;stroke:none"
         transform="matrix(0.13333333,0,0,-0.13333333,0,666.66667)" />
      <path
         id="path64"
         d="m 5714.79,2024.47 h -157.03 v 50.25 h 157.03 v -50.25"
         style="fill:#1c3257;fill-opacity:1;fill-rule:nonzero;stroke:none"
         transform="matrix(0.13333333,0,0,-0.13333333,0,666.66667)" />
      <path
         id="path65"
         d="m 5593.35,2228.69 v -13.72 h -30.28 c 0,0 -17.19,-1.72 -17.19,-22.35 h 11.17 c 0,0 -0.86,11.6 7.74,13.32 4.92,0.99 18.15,-2.96 28.56,-6.51 v -13.66 h 68.05 v 42.92 h -68.05"
         style="fill:#54c4aa;fill-opacity:1;fill-rule:nonzero;stroke:none"
         transform="matrix(0.13333333,0,0,-0.13333333,0,666.66667)" />
      <path
         id="path66"
         d="m 6278.69,1261.67 h -615.48 v 512.32 h 615.48 v -512.32"
         style="fill:#1c3257;fill-opacity:1;fill-rule:nonzero;stroke:none"
         transform="matrix(0.13333333,0,0,-0.13333333,0,666.66667)" />
      <path
         id="path67"
         d="m 6175.54,1261.67 h -615.48 v 512.32 h 615.48 v -512.32"
         style="fill:#54c4aa;fill-opacity:1;fill-rule:nonzero;stroke:none"
         transform="matrix(0.13333333,0,0,-0.13333333,0,666.66667)" />
      <path
         id="path68"
         d="m 6001.1,1481.3 -149.63,175.79 -149.63,-175.79 h 77.42 v -53.73 h 144.41 v 53.73 h 77.43"
         style="fill:#efca83;fill-opacity:1;fill-rule:nonzero;stroke:none"
         transform="matrix(0.13333333,0,0,-0.13333333,0,666.66667)" />
      <path
         id="path69"
         d="m 5016.25,2955.59 c -51.7,17.67 -62.72,31.45 -96.88,74.09 l -82.92,-124.67 c 46.17,-45.03 88.47,-75.5 148.04,-104.58 -7.48,55.85 0.71,118.04 31.76,155.16"
         style="fill:#f46d75;fill-opacity:1;fill-rule:nonzero;stroke:none"
         transform="matrix(0.13333333,0,0,-0.13333333,0,666.66667)" />
      <path
         id="path70"
         d="m 4984.71,2876.22 c 4.4,30.55 14.36,58.84 31.54,79.37 -46.37,15.85 -60.07,28.64 -87.04,61.87 -12.32,-59.34 13.22,-107.36 55.5,-141.24"
         style="fill:#1c3257;fill-opacity:1;fill-rule:nonzero;stroke:none"
         transform="matrix(0.13333333,0,0,-0.13333333,0,666.66667)" />
      <path
         id="path71"
         d="m 5111.12,3100.93 c -1.53,19.71 -15.34,36.88 -32.29,47.04 -16.95,10.15 -36.77,14.31 -56.32,17.21 -25.24,3.74 -53.1,5.07 -74.06,-9.48 -13.79,-9.56 -22.62,-24.84 -28.41,-40.58 -16.61,-45.15 -10.64,-97.47 13.55,-139.04 24.2,-41.57 56.78,-75.6 102.51,-84.2 16.3,29.88 30.12,48.05 42.56,83.3 2.71,7.7 -1.41,16.17 0,20.37 1.71,5.12 11.04,10.26 12.67,15.4 7.34,23.03 10.01,37.2 15.87,60.65 2.4,9.62 4.69,19.45 3.92,29.33"
         style="fill:#f46d75;fill-opacity:1;fill-rule:nonzero;stroke:none"
         transform="matrix(0.13333333,0,0,-0.13333333,0,666.66667)" />
      <path
         id="path72"
         d="m 4993.96,3041.78 c 2.46,6.99 9.92,12.82 17.04,10.77 7.08,-2.03 12.25,-10.09 11.64,-17.44 -0.85,-10.21 -1.82,-17.21 1.1,-21.89 9.02,19.36 20.44,37.6 34.13,53.99 -38.52,18.32 -77.03,36.64 -115.55,54.95 -2.96,1.41 -6.04,2.84 -9.32,2.81 -2.87,-0.04 -5.61,-1.21 -8.07,-2.69 -11.27,-6.78 -17.46,-19.84 -19.64,-32.82 -2.18,-12.97 -0.97,-26.24 -0.9,-39.4 0.08,-13.16 -1.13,-26.81 -7.59,-38.27 22.7,-2.2 45.97,1.76 66.67,11.35 8.69,4.03 18.48,9 27.32,6.05 0.74,4.56 1.94,9.09 3.17,12.59"
         style="fill:#1c3257;fill-opacity:1;fill-rule:nonzero;stroke:none"
         transform="matrix(0.13333333,0,0,-0.13333333,0,666.66667)" />
      <path
         id="path73"
         d="m 4968.67,3173.69 c 20.41,5.9 42.3,2.43 62.94,-2.62 23.4,-5.73 46.76,-13.67 66.02,-28.14 6.41,-4.81 12.54,-10.66 14.98,-18.29 1.79,-5.63 1.4,-11.69 1,-17.58 -0.66,-9.53 -1.32,-19.07 -1.98,-28.6 -0.4,-5.75 -1.08,-12.12 -5.37,-15.97 -4.51,-4.03 -11.28,-3.79 -17.3,-3.32 -32.24,2.53 -65.2,5.23 -94.75,18.35 -19.32,8.58 -36.95,21.52 -57.57,26.18 -4.74,1.07 -9.91,1.84 -13.39,5.23 -5.38,5.24 -4.26,14.16 -1.63,21.2 7.77,20.76 25.75,37.41 47.05,43.56"
         style="fill:#1c3257;fill-opacity:1;fill-rule:nonzero;stroke:none"
         transform="matrix(0.13333333,0,0,-0.13333333,0,666.66667)" />
      <path
         id="path74"
         d="m 5038.52,3176.06 c 21.94,-7.76 43.17,-17.5 63.36,-29.07 7.49,-4.28 15.31,-9.38 18.38,-17.45 2.52,-6.65 1.3,-14.08 -0.13,-21.05 -4.43,-21.62 -10.58,-42.89 -18.37,-63.55 -56.63,1.95 -112.73,17.62 -162.17,45.3 -11.79,6.59 -24.59,16.22 -24.53,29.73 0.03,6.55 3.21,12.63 6.32,18.41 6.6,12.26 13.45,24.85 24.2,33.71 12.52,10.33 29.29,14.51 45.53,14.19 16.23,-0.32 32.1,-4.81 47.41,-10.22"
         style="fill:#ef2c4a;fill-opacity:1;fill-rule:nonzero;stroke:none"
         transform="matrix(0.13333333,0,0,-0.13333333,0,666.66667)" />
      <path
         id="path75"
         d="m 5112.09,3092.12 c 2.81,10.15 5.62,20.93 2.7,31.05 -2.96,10.23 -11.43,18.05 -20.74,23.21 -9.31,5.17 -19.64,8.16 -29.5,12.18 4.75,-6.41 6.55,-14.65 6.35,-22.63 -0.19,-7.98 -2.26,-15.79 -4.61,-23.42 -6.48,-20.97 -15.28,-41.21 -26.21,-60.24 8.76,-2.01 17.59,-4.04 26.57,-4.16 8.99,-0.12 18.25,1.82 25.54,7.07 11.57,8.35 16.1,23.18 19.9,36.94"
         style="fill:#ecd615;fill-opacity:1;fill-rule:nonzero;stroke:none"
         transform="matrix(0.13333333,0,0,-0.13333333,0,666.66667)" />
      <path
         id="path76"
         d="m 5104.91,3060.35 c 12.23,-0.51 13.13,-8.58 55.24,-23.15 -23.49,-14.32 -45.18,-20.15 -71.08,-10.86 -25.9,9.28 -49.35,19.47 -73.91,32.17 29.24,-6.94 59.72,3.1 89.75,1.84"
         style="fill:#ef2c4a;fill-opacity:1;fill-rule:nonzero;stroke:none"
         transform="matrix(0.13333333,0,0,-0.13333333,0,666.66667)" />
      <path
         id="path77"
         d="m 4941.38,3141.06 c -0.18,1.84 -1.78,3.18 -3.25,4.3 -1.56,1.2 -3.39,2.46 -5.33,2.08 -1.9,-0.37 -3.12,-2.19 -4.12,-3.86 -2.42,-4.04 -4.91,-8.28 -5.18,-12.98 -0.27,-4.71 2.49,-9.94 7.13,-10.78 3.18,5.81 6.37,11.62 9.56,17.43 0.65,1.19 1.32,2.47 1.19,3.81"
         style="fill:#1c3257;fill-opacity:1;fill-rule:nonzero;stroke:none"
         transform="matrix(0.13333333,0,0,-0.13333333,0,666.66667)" />
      <path
         id="path78"
         d="m 5085.33,2965.79 c -1.29,4.96 -1.6,11.64 -6.06,14.18 -3.63,2.06 -7.98,2.34 -12.16,2.31 -21.04,-0.14 -23.56,-2.15 -44.59,-2.57 -7.51,-19.51 -27.3,-31.41 -38.03,-49.35 7.12,-8.04 9.08,-25.62 18.95,-29.85 9.87,-4.23 20.3,-6.99 30.69,-9.73 3.36,-0.88 7.05,-1.75 10.19,-0.26 1.79,0.84 3.16,2.35 4.49,3.82 4.71,5.23 7.37,9.51 12.08,14.74 7.29,8.11 16.71,17.29 21.8,26.93 5.09,9.64 5.39,19.22 2.64,29.78"
         style="fill:#ffffff;fill-opacity:1;fill-rule:nonzero;stroke:none"
         transform="matrix(0.13333333,0,0,-0.13333333,0,666.66667)" />
      <path
         id="path79"
         d="m 4995.69,2920.25 c -0.31,0 -0.64,0.04 -0.96,0.13 -7.01,1.87 -11.73,8.56 -14.04,19.91 -6.53,32.21 -4.17,65.61 6.84,96.59 0.69,1.95 2.84,2.95 4.79,2.28 1.95,-0.69 2.97,-2.84 2.28,-4.79 -10.55,-29.69 -12.82,-61.71 -6.56,-92.59 1.7,-8.32 4.6,-13.08 8.62,-14.15 2,-0.54 3.19,-2.59 2.66,-4.59 -0.45,-1.68 -1.97,-2.79 -3.63,-2.79"
         style="fill:#ffffff;fill-opacity:1;fill-rule:nonzero;stroke:none"
         transform="matrix(0.13333333,0,0,-0.13333333,0,666.66667)" />
      <path
         id="path80"
         d="m 5030.7,2964.85 c -1.29,0 -2.54,0.66 -3.23,1.85 -10.38,17.74 -12.29,39.82 -5.11,59.07 0.73,1.94 2.89,2.94 4.83,2.2 1.94,-0.72 2.93,-2.88 2.2,-4.83 -6.4,-17.15 -4.7,-36.83 4.55,-52.65 1.05,-1.78 0.44,-4.08 -1.34,-5.13 -0.6,-0.35 -1.25,-0.51 -1.9,-0.51"
         style="fill:#ffffff;fill-opacity:1;fill-rule:nonzero;stroke:none"
         transform="matrix(0.13333333,0,0,-0.13333333,0,666.66667)" />
      <path
         id="path81"
         d="m 5437.52,2323.78 c -12.05,11.87 -22.67,25.19 -31.57,39.58 -1.87,3.02 -3.69,6.16 -4.44,9.63 -0.76,3.48 -0.31,7.39 1.98,10.11 3.13,3.7 8.5,4.2 13.16,5.53 4.95,1.4 9.71,4.18 12.41,8.56 2.69,4.39 2.82,10.53 -0.56,14.41 -17.43,-8.7 -38.79,-0.61 -57.67,-5.41 -8.88,-2.25 -16.75,-7.22 -24.93,-11.38 -14.36,4.86 -28.25,11.08 -41.26,18.84 -0.1,-0.21 -0.2,-0.43 -0.3,-0.64 -151.87,96.39 -313.96,322.05 -380.86,422.67 -79.08,39.54 -127.22,13.75 -118.62,-61.89 46.99,-274.15 295.02,-402.93 463.5,-439.4 -0.55,-1.21 -1.11,-2.42 -1.66,-3.64 14.28,-3.52 28.32,-7.92 42.22,-12.71 12.68,-12.44 27.2,-23 43.09,-30.94 6.04,-3.02 12.91,-5.73 19.41,-3.87 5.99,1.73 10.58,7.12 16.74,8.12 4.81,0.79 9.76,-1.26 14.54,-0.34 7.71,1.5 12.2,10.01 19.61,12.61 3.78,1.33 7.93,0.98 11.9,1.58 3.97,0.61 8.25,2.72 9.24,6.61 1.16,4.53 -2.6,8.69 -5.93,11.97"
         style="fill:#1c3257;fill-opacity:1;fill-rule:nonzero;stroke:none"
         transform="matrix(0.13333333,0,0,-0.13333333,0,666.66667)" />
      <path
         id="path82"
         d="m 5724.25,2377.44 h -425.51 v 70.48 h 425.51 v -70.48"
         style="fill:#ef2c4a;fill-opacity:1;fill-rule:nonzero;stroke:none"
         transform="matrix(0.13333333,0,0,-0.13333333,0,666.66667)" />
      <path
         id="path83"
         d="m 5298.74,2394.63 v -17.19 h 425.51 v 17.19 h -425.51"
         style="fill:#1c3257;fill-opacity:1;fill-rule:nonzero;stroke:none"
         transform="matrix(0.13333333,0,0,-0.13333333,0,666.66667)" />
      <path
         id="path84"
         d="m 5787,2446.2 h -425.51 v 70.49 H 5787 v -70.49"
         style="fill:#ef2c4a;fill-opacity:1;fill-rule:nonzero;stroke:none"
         transform="matrix(0.13333333,0,0,-0.13333333,0,666.66667)" />
      <path
         id="path85"
         d="M 5361.49,2465.54 V 2446.2 H 5787 v 19.34 h -425.51"
         style="fill:#1c3257;fill-opacity:1;fill-rule:nonzero;stroke:none"
         transform="matrix(0.13333333,0,0,-0.13333333,0,666.66667)" />
      <path
         id="path86"
         d="m 5744.43,2312.11 h -425.51 v 70.48 h 425.51 v -70.48"
         style="fill:#ef2c4a;fill-opacity:1;fill-rule:nonzero;stroke:none"
         transform="matrix(0.13333333,0,0,-0.13333333,0,666.66667)" />
      <path
         id="path87"
         d="m 4982.84,1024.32 c -0.53,4.98 -1.07,9.96 -1.6,14.94 -64.53,-4.76 -129.27,-6.3 -193.92,-4.16 -4.41,0.15 -8.88,0.3 -13.16,-0.82 -4.29,-1.13 -7.13,1.27 -9.27,-2.89 -2.13,-4.15 -3.02,-14.96 0.36,-18 34.29,-5.37 69.18,-3.17 103.8,-5.1 19.51,-1.09 39.03,-3.5 58.54,-2.36 19.51,1.14 39.38,6.11 55.25,18.39"
         style="fill:#ffffff;fill-opacity:1;fill-rule:nonzero;stroke:none"
         transform="matrix(0.13333333,0,0,-0.13333333,0,666.66667)" />
      <path
         id="path88"
         d="m 4880.42,1016.73 c 35.09,-1.45 72.09,-2.07 103.02,14.57 -0.01,13.7 -10.12,25.72 -22.16,32.24 -12.05,6.52 -25.89,8.64 -39.36,11.11 -13.47,2.46 -27.3,5.55 -38.4,13.56 -11.11,8.01 -18.86,22.19 -15.39,35.44 -31.13,-3.35 -62.52,-4.26 -93.79,-2.73 -8.8,-31.72 -12.6,-64.83 -11.23,-97.71 39.07,-2.69 78.18,-4.85 117.31,-6.48"
         style="fill:#1c3257;fill-opacity:1;fill-rule:nonzero;stroke:none"
         transform="matrix(0.13333333,0,0,-0.13333333,0,666.66667)" />
      <path
         id="path89"
         d="m 4862.17,1090.93 c 1.61,0.54 3.3,-0.35 4.77,-1.2 23.59,-13.57 50.36,-21.56 77.53,-23.13 -4.41,-5.65 -11.81,-8.31 -18.97,-8.6 -7.16,-0.29 -14.22,1.49 -21.17,3.25 -15.41,3.91 -31.89,8.48 -42.01,20.74 -1.12,1.36 -2.18,2.88 -2.42,4.62 -0.24,1.75 0.6,3.76 2.27,4.32"
         style="fill:#d8203e;fill-opacity:1;fill-rule:nonzero;stroke:none"
         transform="matrix(0.13333333,0,0,-0.13333333,0,666.66667)" />
      <path
         id="path90"
         d="m 4872.8,1064.56 c -0.95,-0.08 -1.93,0.17 -2.76,0.78 -1.81,1.34 -2.2,3.88 -0.86,5.7 4.52,6.13 9.63,11.87 15.19,17.06 1.65,1.54 4.22,1.47 5.75,-0.18 1.55,-1.65 1.45,-4.23 -0.18,-5.76 -5.2,-4.86 -9.97,-10.23 -14.2,-15.96 -0.73,-0.99 -1.81,-1.55 -2.94,-1.64"
         style="fill:#ffffff;fill-opacity:1;fill-rule:nonzero;stroke:none"
         transform="matrix(0.13333333,0,0,-0.13333333,0,666.66667)" />
      <path
         id="path91"
         d="m 4890.01,1057.87 c -0.85,-0.07 -1.72,0.12 -2.49,0.6 -1.91,1.18 -2.51,3.7 -1.32,5.61 3.63,5.83 8.01,11.17 13.05,15.88 1.62,1.53 4.21,1.46 5.75,-0.19 1.54,-1.63 1.46,-4.22 -0.19,-5.75 -4.51,-4.23 -8.44,-9.03 -11.69,-14.24 -0.7,-1.14 -1.88,-1.81 -3.11,-1.91"
         style="fill:#ffffff;fill-opacity:1;fill-rule:nonzero;stroke:none"
         transform="matrix(0.13333333,0,0,-0.13333333,0,666.66667)" />
      <path
         id="path92"
         d="m 4910.76,1055.44 c -0.73,-0.06 -1.49,0.06 -2.19,0.42 -2,1.02 -2.8,3.47 -1.79,5.48 2.58,5.06 5.82,9.7 9.66,13.79 1.56,1.64 4.12,1.72 5.77,0.18 1.63,-1.55 1.71,-4.13 0.18,-5.77 -3.32,-3.51 -6.11,-7.52 -8.33,-11.89 -0.67,-1.3 -1.95,-2.1 -3.3,-2.21"
         style="fill:#ffffff;fill-opacity:1;fill-rule:nonzero;stroke:none"
         transform="matrix(0.13333333,0,0,-0.13333333,0,666.66667)" />
      <path
         id="path93"
         d="m 4770.94,1082.32 h 135.23 c -9.28,385.18 3.4,770.92 32.31,1154.86 -76.94,-4.61 -154.78,10.88 -225.63,44.9 l -60.7,3.58 c -56.67,-216.93 -26.27,-449.99 19,-670.28 36.35,-176.92 82.19,-353.34 99.79,-533.06"
         style="fill:#1c3257;fill-opacity:1;fill-rule:nonzero;stroke:none"
         transform="matrix(0.13333333,0,0,-0.13333333,0,666.66667)" />
      <path
         id="path94"
         d="m 4906.1,1009.04 c -0.57,4.98 -1.15,9.96 -1.72,14.94 -69.48,-4.76 -139.2,-6.3 -208.81,-4.16 -4.74,0.15 -9.56,0.3 -14.17,-0.82 -4.61,-1.13 -7.67,1.27 -9.97,-2.89 -2.3,-4.15 -3.26,-14.96 0.38,-18.001 36.93,-5.371 74.5,-3.168 111.76,-5.097 21.02,-1.09 42.03,-3.5 63.04,-2.364 21.01,1.141 42.4,6.114 59.49,18.392"
         style="fill:#ffffff;fill-opacity:1;fill-rule:nonzero;stroke:none"
         transform="matrix(0.13333333,0,0,-0.13333333,0,666.66667)" />
      <path
         id="path95"
         d="m 4795.98,1003.65 c 37.45,-1.56 76.94,-2.21 109.95,15.55 -0.01,14.62 -10.8,27.45 -23.65,34.41 -12.85,6.95 -27.63,9.22 -42.01,11.85 -14.37,2.63 -29.13,5.93 -40.99,14.48 -11.85,8.54 -20.12,23.68 -16.42,37.82 -33.22,-3.57 -66.72,-4.54 -100.1,-2.91 -9.39,-33.86 -13.45,-69.19 -11.99,-104.29 41.7,-2.87 83.44,-5.17 125.21,-6.91"
         style="fill:#1c3257;fill-opacity:1;fill-rule:nonzero;stroke:none"
         transform="matrix(0.13333333,0,0,-0.13333333,0,666.66667)" />
      <path
         id="path96"
         d="m 4780.83,1091.86 c 1.65,0.41 3.26,-0.63 4.66,-1.59 22.36,-15.5 48.38,-25.71 75.32,-29.54 -4.87,-5.26 -12.46,-7.29 -19.62,-6.98 -7.16,0.31 -14.05,2.67 -20.83,5 -15.02,5.19 -31.07,11.12 -40.12,24.18 -1.01,1.45 -1.94,3.06 -2.03,4.82 -0.09,1.76 0.91,3.69 2.62,4.11"
         style="fill:#d8203e;fill-opacity:1;fill-rule:nonzero;stroke:none"
         transform="matrix(0.13333333,0,0,-0.13333333,0,666.66667)" />
      <path
         id="path97"
         d="m 4789.22,1064.69 c -0.96,0 -1.91,0.33 -2.69,1.01 -1.69,1.48 -1.86,4.05 -0.38,5.75 5.02,5.73 10.59,11.02 16.57,15.73 1.77,1.39 4.32,1.11 5.71,-0.66 1.4,-1.78 1.1,-4.33 -0.66,-5.72 -5.59,-4.42 -10.8,-9.36 -15.49,-14.72 -0.8,-0.92 -1.93,-1.39 -3.06,-1.39"
         style="fill:#ffffff;fill-opacity:1;fill-rule:nonzero;stroke:none"
         transform="matrix(0.13333333,0,0,-0.13333333,0,666.66667)" />
      <path
         id="path98"
         d="m 4805.8,1056.58 c -0.85,0 -1.7,0.27 -2.43,0.81 -1.8,1.34 -2.18,3.89 -0.84,5.7 4.1,5.5 8.92,10.46 14.33,14.74 1.75,1.39 4.32,1.1 5.72,-0.67 1.4,-1.76 1.1,-4.33 -0.67,-5.72 -4.85,-3.84 -9.17,-8.29 -12.84,-13.21 -0.79,-1.08 -2.03,-1.65 -3.27,-1.65"
         style="fill:#ffffff;fill-opacity:1;fill-rule:nonzero;stroke:none"
         transform="matrix(0.13333333,0,0,-0.13333333,0,666.66667)" />
      <path
         id="path99"
         d="m 4826.28,1052.42 c -0.73,0 -1.47,0.19 -2.14,0.61 -1.91,1.19 -2.51,3.69 -1.33,5.61 2.99,4.83 6.61,9.18 10.78,12.94 1.69,1.49 4.25,1.36 5.76,-0.31 1.5,-1.68 1.36,-4.26 -0.3,-5.76 -3.6,-3.23 -6.72,-6.99 -9.3,-11.16 -0.77,-1.24 -2.11,-1.93 -3.47,-1.93"
         style="fill:#ffffff;fill-opacity:1;fill-rule:nonzero;stroke:none"
         transform="matrix(0.13333333,0,0,-0.13333333,0,666.66667)" />
      <path
         id="path100"
         d="m 4667.13,1082.32 h 159.36 c -7.25,389.35 53.2,770.92 82.11,1154.86 -76.94,-4.61 -154.78,10.88 -225.63,44.9 l -60.7,3.58 c -56.67,-216.93 -26.27,-449.99 19,-670.28 36.35,-176.92 22.23,-346.53 25.86,-533.06"
         style="fill:#ef2c4a;fill-opacity:1;fill-rule:nonzero;stroke:none"
         transform="matrix(0.13333333,0,0,-0.13333333,0,666.66667)" />
      <path
         id="path101"
         d="m 4908.6,2237.18 c -34.51,-2.07 -69.17,0.13 -103.33,6 -30.19,-383.05 -64.11,-776.6 -18.61,-1160.86 h 39.83 c -7.25,389.35 53.2,770.92 82.11,1154.86"
         style="fill:#d8203e;fill-opacity:1;fill-rule:nonzero;stroke:none"
         transform="matrix(0.13333333,0,0,-0.13333333,0,666.66667)" />
      <path
         id="path102"
         d="M 4926.99,2168.87 H 4613.7 v 36.22 h 313.29 v -36.22"
         style="fill:#1c3257;fill-opacity:1;fill-rule:nonzero;stroke:none"
         transform="matrix(0.13333333,0,0,-0.13333333,0,666.66667)" />
      <path
         id="path103"
         d="m 4714.21,2162.53 h -15.39 v 48.9 h 15.39 v -48.9"
         style="fill:#ef2c4a;fill-opacity:1;fill-rule:nonzero;stroke:none"
         transform="matrix(0.13333333,0,0,-0.13333333,0,666.66667)" />
      <path
         id="path104"
         d="m 4871.31,2162.53 h -15.4 v 48.9 h 15.4 v -48.9"
         style="fill:#ef2c4a;fill-opacity:1;fill-rule:nonzero;stroke:none"
         transform="matrix(0.13333333,0,0,-0.13333333,0,666.66667)" />
      <path
         id="path105"
         d="m 4831.03,2915.69 c -106.16,-101.32 -154.85,-190.92 -195.43,-331.95 -35.61,-123.77 -50.46,-228 -63.86,-350.31 -2.92,-26.65 19.81,-49.07 46.44,-45.95 103.61,12.15 188.32,17.15 290.86,-3.36 21.02,-4.21 40.24,12.01 40.21,33.45 -0.17,146.69 81.14,308.71 78.4,378.98 -2.48,63.43 -14.23,90.97 -25.51,153.45 -2.68,14.85 -5.57,31.53 -7.9,48.95 -59.57,29.08 -114.53,74.95 -160.7,119.98 l -2.51,-3.24"
         style="fill:#ef2c4a;fill-opacity:1;fill-rule:nonzero;stroke:none"
         transform="matrix(0.13333333,0,0,-0.13333333,0,666.66667)" />
      <path
         id="path106"
         d="m 5002.14,2750 c -2.67,14.85 -5.57,31.53 -7.9,48.95 -49.1,23.97 -94.98,59.37 -135.47,96.28 -96.19,-102.35 9.18,-241.51 -20.78,-361.35 -20.63,-92.83 -82.52,-165.04 -61.89,-257.88 0,-10.31 10.32,-41.26 10.32,-51.57 -9.89,-9.89 -20.54,-18.62 -31.72,-26.52 50.09,0.78 99.68,-2.86 154.34,-13.79 21.02,-4.21 40.24,12.01 40.21,33.45 -0.17,146.69 81.14,308.71 78.4,378.98 -2.48,63.43 -14.23,90.97 -25.51,153.45"
         style="fill:#d8203e;fill-opacity:1;fill-rule:nonzero;stroke:none"
         transform="matrix(0.13333333,0,0,-0.13333333,0,666.66667)" />
      <path
         id="path107"
         d="m 4781.48,2713.44 c 16.39,-119.3 85.12,-230.45 184.53,-298.41 9.21,29.39 18.42,58.79 27.63,88.18 -99.97,74.45 -166.51,192.17 -178.74,316.22 -17.26,-9.58 -28.35,-27.95 -32.89,-47.15 -4.54,-19.2 -3.22,-39.3 -0.53,-58.84"
         style="fill:#1c3257;fill-opacity:1;fill-rule:nonzero;stroke:none"
         transform="matrix(0.13333333,0,0,-0.13333333,0,666.66667)" />
      <path
         id="path108"
         d="m 4848.56,2933.93 c -10.76,-9.48 -21.51,-18.95 -32.27,-28.43 54.9,-43.73 107.08,-90.88 156.13,-141.09 2.54,15.55 4.98,28.95 17.84,38.05 3.42,-5.88 3.94,-25.57 7.36,-31.46 7.8,14.62 12.82,48.15 2.93,61.45 -9.9,13.3 -24.33,22.35 -38.42,31.08 -37.86,23.47 -75.71,46.93 -113.57,70.4"
         style="fill:#ffffff;fill-opacity:1;fill-rule:nonzero;stroke:none"
         transform="matrix(0.13333333,0,0,-0.13333333,0,666.66667)" />
      <path
         id="path109"
         d="m 4748.49,2789.09 c -1.45,4.96 -5.45,6.15 -9.1,4.38 -3.64,-1.77 -7.01,-5.9 -10.19,-10.07 -33.11,-43.31 -59.89,-102.27 -75.09,-165.3 -1.22,-5.06 -2.39,-10.35 -2.24,-15.3 0.16,-4.95 2,-9.46 4.96,-9.53 2.86,-0.07 5.72,3.77 8.17,7.39 32.42,47.93 60.13,105.55 80.7,167.78 2.25,6.79 4.48,14.88 2.79,20.65"
         style="fill:#ecd615;fill-opacity:1;fill-rule:nonzero;stroke:none"
         transform="matrix(0.13333333,0,0,-0.13333333,0,666.66667)" />
      <path
         id="path110"
         d="m 4908.48,2824.43 c -79.08,39.54 -127.22,13.75 -118.62,-61.89 51.57,-300.86 345.32,-426.7 510.27,-447.53 29.22,1.46 40.47,39.49 46.08,56.8 -166.24,67.18 -362.38,339.29 -437.73,452.62"
         style="fill:#ef2c4a;fill-opacity:1;fill-rule:nonzero;stroke:none"
         transform="matrix(0.13333333,0,0,-0.13333333,0,666.66667)" />
      <path
         id="path111"
         d="m 5422.52,2312.53 c -12.05,11.87 -22.67,25.19 -31.57,39.58 -1.87,3.02 -3.69,6.16 -4.44,9.63 -0.76,3.48 -0.31,7.39 1.99,10.11 3.12,3.7 8.49,4.2 13.15,5.53 4.95,1.4 9.71,4.18 12.41,8.56 2.69,4.39 2.82,10.53 -0.56,14.41 -17.43,-8.7 -38.79,-0.61 -57.67,-5.41 -8.88,-2.25 -16.75,-7.22 -24.93,-11.38 -14.36,4.86 -28.25,11.08 -41.26,18.84 -12.65,-27.63 -25.3,-55.26 -37.94,-82.9 14.28,-3.52 28.32,-7.92 42.22,-12.71 12.68,-12.44 27.2,-23 43.09,-30.94 6.04,-3.02 12.91,-5.73 19.41,-3.87 5.99,1.73 10.58,7.12 16.74,8.12 4.81,0.79 9.76,-1.26 14.54,-0.34 7.71,1.5 12.2,10.01 19.61,12.61 3.78,1.33 7.94,0.98 11.9,1.58 3.97,0.61 8.25,2.72 9.24,6.61 1.16,4.53 -2.6,8.69 -5.93,11.97"
         style="fill:#ffffff;fill-opacity:1;fill-rule:nonzero;stroke:none"
         transform="matrix(0.13333333,0,0,-0.13333333,0,666.66667)" />
      <path
         id="path112"
         d="m 4826.78,2734 c -1.88,-8.58 -1.6,-17.63 1.46,-26.39 7.27,-20.84 28.81,-35.21 50.85,-32.71 19.79,2.24 37.44,17.25 43.18,36.32 5.74,19.07 -0.54,41.13 -15.21,54.59 -10.08,9.25 -24.4,14.52 -37.74,11.49 -21.06,-4.78 -38.03,-22.7 -42.54,-43.3"
         style="fill:#ecd615;fill-opacity:1;fill-rule:nonzero;stroke:none"
         transform="matrix(0.13333333,0,0,-0.13333333,0,666.66667)" />
      <path
         id="path113"
         d="M 1553.43,1157.49 823.055,843.902 C 745.457,812.93 682.828,858.262 696.086,927.559 V 3748.66 c 0,65.39 66.883,109.46 126.969,83.66 l 730.375,-313.58 c 25.24,-10.84 41.6,-35.67 41.6,-63.13 V 1220.62 c 0,-27.47 -16.36,-52.3 -41.6,-63.13"
         style="fill:#1c3257;fill-opacity:1;fill-rule:nonzero;stroke:none"
         transform="matrix(0.13333333,0,0,-0.13333333,0,666.66667)" />
      <path
         id="path114"
         d="M 1546.86,1187.26 829.398,875.742 c -25.074,-10.89 -52.988,7.707 -52.988,35.309 V 3757.76 c 0,27.6 56.965,43.29 82.039,32.4 l 688.411,-308.61 c 6.82,-2.96 11.24,-9.74 11.24,-17.25 V 1204.52 c 0,-7.51 -4.42,-14.3 -11.24,-17.26"
         style="fill:#3980b3;fill-opacity:1;fill-rule:nonzero;stroke:none"
         transform="matrix(0.13333333,0,0,-0.13333333,0,666.66667)" />
      <path
         id="path115"
         d="M 1558.89,1204.37 841.434,896.332 c -25.079,-10.762 -52.989,7.629 -52.989,34.918 v 2814.88 c 0,27.29 56.961,42.8 82.039,32.03 l 688.406,-305.15 c 6.82,-2.93 11.24,-9.64 11.24,-17.06 V 1221.44 c 0,-7.43 -4.42,-14.14 -11.24,-17.07"
         style="fill:#ffffff;fill-opacity:1;fill-rule:nonzero;stroke:none"
         transform="matrix(0.13333333,0,0,-0.13333333,0,666.66667)" />
      <path
         id="path116"
         d="M 1564.57,1237.64 880.25,934.43 c -23.922,-10.59 -50.547,7.511 -50.547,34.371 V 3739.52 c 0,26.87 26.625,44.97 50.547,34.37 l 684.32,-303.2 c 6.5,-2.89 10.72,-9.49 10.72,-16.8 V 1254.44 c 0,-7.31 -4.22,-13.92 -10.72,-16.8"
         style="fill:#54c4aa;fill-opacity:1;fill-rule:nonzero;stroke:none"
         transform="matrix(0.13333333,0,0,-0.13333333,0,666.66667)" />
      <path
         id="path117"
         d="M 1510.31,1337.31 958.445,1169.81 V 2682.72 L 1510.31,2580.3 V 1337.31"
         style="fill:#fcedc3;fill-opacity:1;fill-rule:nonzero;stroke:none"
         transform="matrix(0.13333333,0,0,-0.13333333,0,666.66667)" />
      <path
         id="path118"
         d="M 1297.28,2576.56 V 1313.93 l 196.1,59.52 v 1166.72 l -196.1,36.39"
         style="fill:#1c3257;fill-opacity:1;fill-rule:nonzero;stroke:none"
         transform="matrix(0.13333333,0,0,-0.13333333,0,666.66667)" />
      <path
         id="path119"
         d="M 1279.23,2579.91 975.379,2636.3 V 1216.23 l 303.851,92.22 v 1271.46"
         style="fill:#1c3257;fill-opacity:1;fill-rule:nonzero;stroke:none"
         transform="matrix(0.13333333,0,0,-0.13333333,0,666.66667)" />
      <path
         id="path120"
         d="m 966.332,2219.42 h -1.719 l -1.91,9.62 245.847,101.44 3.82,-9.24 -245.847,-101.44 -0.191,0.45 v -0.83"
         style="fill:#fcedc3;fill-opacity:1;fill-rule:nonzero;stroke:none"
         transform="matrix(0.13333333,0,0,-0.13333333,0,666.66667)" />
      <path
         id="path121"
         d="m 1340.73,2267.86 -122.02,-8.32 -266.702,432.51 127.532,-16.87 261.19,-407.32"
         style="fill:#ecd615;fill-opacity:1;fill-rule:nonzero;stroke:none"
         transform="matrix(0.13333333,0,0,-0.13333333,0,666.66667)" />
      <path
         id="path122"
         d="m 1440.28,2274.65 -108.92,-7.43 -261.66,409.27 114.87,-15.2 255.71,-386.64"
         style="fill:#ef2c4a;fill-opacity:1;fill-rule:nonzero;stroke:none"
         transform="matrix(0.13333333,0,0,-0.13333333,0,666.66667)" />
      <path
         id="path123"
         d="m 1529.72,2280.75 -97.83,-6.67 -256.21,388.39 104,-13.76 250.04,-367.96"
         style="fill:#ecd615;fill-opacity:1;fill-rule:nonzero;stroke:none"
         transform="matrix(0.13333333,0,0,-0.13333333,0,666.66667)" />
      <path
         id="path124"
         d="m 1610.5,2286.26 -88.34,-6.02 -250.54,369.54 94.61,-12.51 244.27,-351.01"
         style="fill:#ef2c4a;fill-opacity:1;fill-rule:nonzero;stroke:none"
         transform="matrix(0.13333333,0,0,-0.13333333,0,666.66667)" />
      <path
         id="path125"
         d="m 1683.84,2291.26 -80.18,-5.47 -244.78,352.45 86.43,-11.43 238.53,-335.55"
         style="fill:#ecd615;fill-opacity:1;fill-rule:nonzero;stroke:none"
         transform="matrix(0.13333333,0,0,-0.13333333,0,666.66667)" />
      <path
         id="path126"
         d="m 1750.7,2295.82 -73.09,-4.98 -239.03,336.86 79.28,-10.49 232.84,-321.39"
         style="fill:#ef2c4a;fill-opacity:1;fill-rule:nonzero;stroke:none"
         transform="matrix(0.13333333,0,0,-0.13333333,0,666.66667)" />
      <path
         id="path127"
         d="m 1446.97,2807.37 -482.115,81.95 c -19.003,3.23 -32.91,19.7 -32.91,38.98 v 230 c 0,25.36 23.551,44.17 48.289,38.55 l 481.486,-109.29 c 17.96,-4.08 30.73,-20.02 30.79,-38.44 l 0.62,-202.65 c 0.07,-24.53 -21.98,-43.21 -46.16,-39.1"
         style="fill:#fcedc3;fill-opacity:1;fill-rule:nonzero;stroke:none"
         transform="matrix(0.13333333,0,0,-0.13333333,0,666.66667)" />
      <text
         id="text127"
         xml:space="preserve"
         transform="matrix(1.314528,0.22314547,0,1.3145149,130.59893,267.07733)"><tspan
           id="tspan127"
           style="font-variant:normal;font-weight:bold;font-size:12.5555px;font-family:Montserrat-Bold;writing-mode:lr-tb;fill:#1c3257;fill-opacity:1;fill-rule:nonzero;stroke:none"
           x="0"
           y="0">ORDER</tspan></text>
      <path
         id="path128"
         d="m 1454.17,3472.1 0.02,-11.36 -9.27,3.41 0.04,-30.06 9.27,-3.4 0.02,-11.37 89.78,-33 -0.08,52.78 -89.78,33"
         style="fill:#1c3257;fill-opacity:1;fill-rule:nonzero;stroke:none"
         transform="matrix(0.13333333,0,0,-0.13333333,0,666.66667)" />
      <path
         id="path129"
         d="m 895.953,3631.4 -17.207,5.44 -0.035,23.64 17.203,-5.43 0.039,-23.65"
         style="fill:#1c3257;fill-opacity:1;fill-rule:nonzero;stroke:none"
         transform="matrix(0.13333333,0,0,-0.13333333,0,666.66667)" />
      <path
         id="path130"
         d="m 924.289,3622.46 -17.203,5.43 -0.059,36.84 17.203,-5.43 0.059,-36.84"
         style="fill:#1c3257;fill-opacity:1;fill-rule:nonzero;stroke:none"
         transform="matrix(0.13333333,0,0,-0.13333333,0,666.66667)" />
      <path
         id="path131"
         d="m 952.625,3613.51 -17.203,5.43 -0.082,54.44 17.203,-5.43 0.082,-54.44"
         style="fill:#1c3257;fill-opacity:1;fill-rule:nonzero;stroke:none"
         transform="matrix(0.13333333,0,0,-0.13333333,0,666.66667)" />
      <path
         id="path132"
         d="m 980.965,3604.57 -17.207,5.43 -0.106,68.18 17.207,-5.44 0.106,-68.17"
         style="fill:#1c3257;fill-opacity:1;fill-rule:nonzero;stroke:none"
         transform="matrix(0.13333333,0,0,-0.13333333,0,666.66667)" />
      <path
         id="path133"
         d="m 1376.67,3562.5 c -70.01,28.01 -138.57,61.53 -208.57,89.53 15.95,-27.06 31.91,-54.12 47.87,-81.19 l 125.86,-42.25 c 13.68,11.36 23.7,19.92 34.84,33.91"
         style="fill:#1c3257;fill-opacity:1;fill-rule:nonzero;stroke:none"
         transform="matrix(0.13333333,0,0,-0.13333333,0,666.66667)" />
      <path
         id="path134"
         d="m 759.469,3029.41 v 286.84 c 0,8.48 -6.871,15.35 -15.344,15.35 -8.477,0 -15.348,-6.87 -15.348,-15.35 v -286.84 h 30.692"
         style="fill:#3980b3;fill-opacity:1;fill-rule:nonzero;stroke:none"
         transform="matrix(0.13333333,0,0,-0.13333333,0,666.66667)" />
      <path
         id="path135"
         d="m 728.777,2986.91 v -301 c 0,-8.48 6.871,-15.35 15.348,-15.35 8.473,0 15.344,6.87 15.344,15.35 v 301 h -30.692"
         style="fill:#3980b3;fill-opacity:1;fill-rule:nonzero;stroke:none"
         transform="matrix(0.13333333,0,0,-0.13333333,0,666.66667)" />
      <path
         id="path136"
         d="m 766.043,3455.81 c 0,-14.24 -11.547,-25.79 -25.789,-25.79 -14.242,0 -25.785,11.55 -25.785,25.79 0,14.24 11.543,25.79 25.785,25.79 14.242,0 25.789,-11.55 25.789,-25.79"
         style="fill:#3980b3;fill-opacity:1;fill-rule:nonzero;stroke:none"
         transform="matrix(0.13333333,0,0,-0.13333333,0,666.66667)" />
      <path
         id="path137"
         d="m 2563.48,1400.77 c -30.27,0.03 -60.86,0.05 -91.74,0.05 -639.61,0 -1158.13,-6.5 -1158.13,-14.51 0,-8.01 518.52,-14.51 1158.13,-14.51 30.88,0 61.47,0.02 91.74,0.05 v 28.92"
         style="fill:#ef2c4a;fill-opacity:1;fill-rule:nonzero;stroke:none"
         transform="matrix(0.13333333,0,0,-0.13333333,0,666.66667)" />
      <path
         id="path138"
         d="m 2615.05,1490.29 c -11.03,0.02 -22.18,0.03 -33.44,0.03 -233.14,0 -422.15,-5 -422.15,-11.17 0,-6.17 189.01,-11.18 422.15,-11.18 11.26,0 22.41,0.01 33.44,0.04 v 22.28"
         style="fill:#ef2c4a;fill-opacity:1;fill-rule:nonzero;stroke:none"
         transform="matrix(0.13333333,0,0,-0.13333333,0,666.66667)" />
      <path
         id="path139"
         d="m 2573.79,1744.36 c -16.03,0.02 -32.23,0.03 -48.58,0.03 -338.72,0 -613.31,-4.07 -613.31,-9.08 0,-5.01 274.59,-9.08 613.31,-9.08 16.35,0 32.55,0.01 48.58,0.03 v 18.1"
         style="fill:#ef2c4a;fill-opacity:1;fill-rule:nonzero;stroke:none"
         transform="matrix(0.13333333,0,0,-0.13333333,0,666.66667)" />
      <path
         id="path140"
         d="m 3005.11,1383.41 c 0,-138.07 -111.93,-250 -250,-250 -138.07,0 -250,111.93 -250,250 0,138.07 111.93,250 250,250 138.07,0 250,-111.93 250,-250"
         style="fill:#1c3257;fill-opacity:1;fill-rule:nonzero;stroke:none"
         transform="matrix(0.13333333,0,0,-0.13333333,0,666.66667)" />
      <path
         id="path141"
         d="m 2917.25,1383.41 c 0,-89.55 -72.59,-162.14 -162.14,-162.14 -89.55,0 -162.14,72.59 -162.14,162.14 0,89.55 72.59,162.14 162.14,162.14 89.55,0 162.14,-72.59 162.14,-162.14"
         style="fill:#54c4aa;fill-opacity:1;fill-rule:nonzero;stroke:none"
         transform="matrix(0.13333333,0,0,-0.13333333,0,666.66667)" />
      <path
         id="path142"
         d="m 3636.86,1392.13 c 28.35,30.72 37.87,75.87 52.77,116.39 29.2,79.46 83.69,147.45 151.82,189.44 18.18,11.21 37.39,20.69 53.91,34.65 16.52,13.95 30.47,33.45 32.97,56.14 1.96,17.74 -3.19,35.4 -8.28,52.38 -33.21,110.92 -66.45,221.94 -106.27,330.21 -10.3,28 -24.55,59.25 -51.31,66.37 -17.85,4.76 -36.29,-2.91 -53.28,-10.56 -52.33,-23.6 -107.61,-51.66 -136.22,-105.18 -20.39,-38.16 -24.18,-84.26 -22.86,-128.46 2.87,-96.57 27.6,-190.66 38.52,-286.54 10.91,-95.88 6.21,-199.63 -43.5,-279.43 -10.98,-17.62 -23.91,-33.66 -35.88,-50.49 39.01,-27.09 94.77,-20.5 127.61,15.08"
         style="fill:#1c3257;fill-opacity:1;fill-rule:nonzero;stroke:none"
         transform="matrix(0.13333333,0,0,-0.13333333,0,666.66667)" />
      <path
         id="path143"
         d="m 3140.92,1892.05 c 42.44,-4.93 89.71,-18.19 104.8,-49.52 12.57,-26.08 -1.92,-54.7 -12.16,-81.4 -20.76,-54.11 -23.88,-112.28 -8.98,-167.56 10.67,-39.6 33.13,-80.22 77.28,-101.47 39.06,-18.81 87.71,-19.14 133.61,-18.91 65.97,0.34 137.74,2.25 188.47,35.14 21.84,-50.56 -19.8,-107.22 -78.21,-134.98 -58.41,-27.76 -129.27,-33.3 -197.48,-37.17 -248.94,-14.13 -498.96,-14.99 -748.31,-6.47 -40.84,1.4 -85.27,4.17 -115.35,25.76 -36.86,26.47 -38.42,70.68 -37.34,109.75 2.49,89.69 6.95,184.61 69.54,259.86 38.61,46.42 96.92,81.46 160.66,105.73 63.75,24.27 133.04,38.38 202.59,49.23 85.85,13.4 174.28,22.07 260.88,12.01"
         style="fill:#ef2c4a;fill-opacity:1;fill-rule:nonzero;stroke:none"
         transform="matrix(0.13333333,0,0,-0.13333333,0,666.66667)" />
      <path
         id="path144"
         d="m 3362.16,1362.8 c 50.73,2.84 102.54,5.91 149.61,25.03 47.08,19.13 89.39,57.58 99.22,107.44 1.84,9.35 0.77,21.79 -8.33,24.67 -17.02,-41.82 -61.16,-67.05 -105.37,-76.18 -44.22,-9.13 -89.92,-5.3 -135.06,-6.48 -45.13,-1.18 -92.41,-8.34 -128.31,-35.72 -6.3,-4.81 -12.35,-10.43 -15.43,-17.74 -3.09,-7.31 -2.52,-16.63 3.17,-22.15 6.11,-5.94 15.7,-5.84 24.21,-5.37 38.76,2.17 77.52,4.34 116.29,6.5"
         style="fill:#1c3257;fill-opacity:1;fill-rule:nonzero;stroke:none"
         transform="matrix(0.13333333,0,0,-0.13333333,0,666.66667)" />
      <path
         id="path145"
         d="m 2738.18,1801.29 c 117.54,42.85 244.95,55.45 369.66,45.47 27.06,-2.17 58.71,-8.58 69.91,-33.31 7.5,-16.55 2.91,-35.74 -0.7,-53.54 -17.41,-85.79 -8.55,-176.72 25.09,-257.53 8.42,-20.23 18.44,-40.16 21.85,-61.8 3.4,-21.65 -1.13,-46.06 -17.69,-60.4 -17.04,-14.76 -41.76,-15.37 -64.29,-15.22 -142.95,0.94 -286.68,1.94 -427.52,26.46 -42.75,7.45 -88.83,19.31 -114.98,53.95 -25.58,33.86 -25.05,80.16 -21.99,122.5 4.23,58.57 12.71,120.71 50.57,165.6 28.12,33.33 69.13,52.88 110.09,67.82"
         style="fill:#d8203e;fill-opacity:1;fill-rule:nonzero;stroke:none"
         transform="matrix(0.13333333,0,0,-0.13333333,0,666.66667)" />
      <path
         id="path146"
         d="m 3842.31,2418.95 c 14.74,-33.99 14.73,-72.32 14.02,-109.37 -6.96,-0.65 -13.93,-1.29 -20.89,-1.94 -9.64,47.94 -23.91,94.95 -42.54,140.17 9.35,5.42 21.73,3.28 30.54,-2.99 8.8,-6.27 14.57,-15.95 18.87,-25.87"
         style="fill:#ffffff;fill-opacity:1;fill-rule:nonzero;stroke:none"
         transform="matrix(0.13333333,0,0,-0.13333333,0,666.66667)" />
      <path
         id="path147"
         d="m 3850.75,2285.54 c 0.4,46.22 -9.44,92.51 -28.61,134.57 -9.98,21.9 -26.25,45.15 -50.26,46.71 -12.67,0.83 -24.8,-4.76 -36.11,-10.52 -22.3,-11.34 -44.36,-24.15 -61.37,-42.49 -28.63,-30.86 -39.78,-73.59 -49.95,-114.43 -1.94,-7.8 -3.81,-16.39 -0.23,-23.59 4.65,-9.38 15.64,-11.86 26.7,-11.86 4.28,-13.85 8.56,-27.69 12.85,-41.53 0.67,-2.17 1.49,-4.54 3.47,-5.66 2.01,-1.14 4.51,-0.6 6.75,-0.02 16.85,4.33 33.7,8.66 50.55,12.99 8.01,2.06 16.43,4.34 22.27,10.2 4.91,4.93 7.32,11.73 10.12,18.1 2.77,6.33 6.09,12.41 9.84,18.22 27.99,3.1 55.99,6.2 83.98,9.31"
         style="fill:#ef2c4a;fill-opacity:1;fill-rule:nonzero;stroke:none"
         transform="matrix(0.13333333,0,0,-0.13333333,0,666.66667)" />
      <path
         id="path148"
         d="m 3715.09,2377.91 c -17.46,2.78 -36.6,-0.57 -49.8,-12.32 -13.2,-11.76 -18.51,-32.84 -9.37,-47.97 8.88,-14.69 29.04,-20.03 45.38,-14.78 16.35,5.26 28.79,19.21 35.87,34.85 3.66,8.09 6.04,17.67 2.23,25.69 -4.21,8.89 -14.6,12.98 -24.31,14.53"
         style="fill:#1c3257;fill-opacity:1;fill-rule:nonzero;stroke:none"
         transform="matrix(0.13333333,0,0,-0.13333333,0,666.66667)" />
      <path
         id="path149"
         d="m 4232.62,1383.41 c 0,-138.07 -111.92,-250 -250,-250 -138.07,0 -250,111.93 -250,250 0,138.07 111.93,250 250,250 138.08,0 250,-111.93 250,-250"
         style="fill:#1c3257;fill-opacity:1;fill-rule:nonzero;stroke:none"
         transform="matrix(0.13333333,0,0,-0.13333333,0,666.66667)" />
      <path
         id="path150"
         d="m 4144.77,1383.41 c 0,-89.55 -72.6,-162.14 -162.15,-162.14 -89.54,0 -162.14,72.59 -162.14,162.14 0,89.55 72.6,162.14 162.14,162.14 89.55,0 162.15,-72.59 162.15,-162.14"
         style="fill:#54c4aa;fill-opacity:1;fill-rule:nonzero;stroke:none"
         transform="matrix(0.13333333,0,0,-0.13333333,0,666.66667)" />
      <path
         id="path151"
         d="m 3888.29,1309.56 c 29.87,-26.57 76.76,-19.34 113.26,-3.01 21.59,9.65 43.54,23.67 51.39,45.98 6.96,19.77 1.29,41.53 -4.71,61.6 -26.06,87.13 -58.09,172.47 -95.81,255.23 -7.94,17.44 -18.35,36.67 -36.91,41.45 -6.16,1.58 -12.78,1.38 -18.64,3.86 -5.85,2.49 -10.76,9.31 -8.02,15.05 -32.31,-9.66 -63.31,-23.73 -91.85,-41.7 -10.25,-6.46 -20.8,-14.19 -24.71,-25.67 -3.91,-11.49 -0.25,-24.03 3.4,-35.61 27.06,-85.83 54.12,-171.66 81.18,-257.48 6.85,-21.73 14.4,-44.56 31.42,-59.7"
         style="fill:#1c3257;fill-opacity:1;fill-rule:nonzero;stroke:none"
         transform="matrix(0.13333333,0,0,-0.13333333,0,666.66667)" />
      <path
         id="path152"
         d="m 3957.75,1414.37 c -23.52,0 -42.66,-19.15 -42.66,-42.67 0,-23.53 19.14,-42.67 42.66,-42.67 23.54,0 42.68,19.14 42.68,42.67 0,23.52 -19.14,42.67 -42.68,42.67 z m 0,-92.84 c -27.66,0 -50.16,22.5 -50.16,50.17 0,27.67 22.5,50.17 50.16,50.17 27.67,0 50.18,-22.5 50.18,-50.17 0,-27.67 -22.51,-50.17 -50.18,-50.17"
         style="fill:#ffffff;fill-opacity:1;fill-rule:nonzero;stroke:none"
         transform="matrix(0.13333333,0,0,-0.13333333,0,666.66667)" />
      <path
         id="path153"
         d="m 2836.38,1798.61 c -68.11,13.24 -140.21,-6.66 -197.55,-45.73 -57.34,-39.07 -100.86,-95.98 -132.46,-157.74 -31.61,-61.77 -52.02,-128.6 -70.11,-195.59 -3.04,-11.26 -5.91,-23.77 -0.62,-34.16 4.4,-8.64 13.47,-13.74 22.19,-17.95 61.52,-29.67 130.61,-39.52 198.73,-44.49 141.16,-10.29 283.72,-1.17 422.42,27.01 15.16,3.08 30.66,6.55 43.57,15.08 10.48,6.92 18.66,16.84 25.55,27.34 30.75,46.92 37.26,107.19 24.84,161.89 -12.42,54.7 -42.4,104.21 -79.22,146.53 -36.53,42 -80.73,78.18 -131.91,100.07 -51.18,21.89 -109.7,28.75 -163.2,13.41"
         style="fill:#1c3257;fill-opacity:1;fill-rule:nonzero;stroke:none"
         transform="matrix(0.13333333,0,0,-0.13333333,0,666.66667)" />
      <path
         id="path154"
         d="m 2859.18,1808.38 c 0,-5.7 -4.62,-10.32 -10.31,-10.32 H 2341.7 c -5.7,0 -10.32,4.62 -10.32,10.32 v 0 c 0,5.69 4.62,10.31 10.32,10.31 h 507.17 c 5.69,0 10.31,-4.62 10.31,-10.31 v 0"
         style="fill:#1c3257;fill-opacity:1;fill-rule:nonzero;stroke:none"
         transform="matrix(0.13333333,0,0,-0.13333333,0,666.66667)" />
      <path
         id="path155"
         d="m 4295.15,1384.26 c -9.06,75.6 -31.22,132.75 -79.51,190.3 -16.72,19.92 -36.1,42.98 -71.98,66.72 -90.88,60.12 -210.6,71.15 -303.59,15.34 -91.55,-54.95 -149.74,-162.39 -154.94,-272.36 h 610.02"
         style="fill:#ef2c4a;fill-opacity:1;fill-rule:nonzero;stroke:none"
         transform="matrix(0.13333333,0,0,-0.13333333,0,666.66667)" />
      <path
         id="path156"
         d="m 3716,1399.1 c 6.78,73.17 52.41,141.6 117.34,175.99 64.93,34.39 147.17,33.68 211.5,-1.82 64.33,-35.5 108.77,-104.71 114.29,-177.98 L 3716,1399.1"
         style="fill:#d8203e;fill-opacity:1;fill-rule:nonzero;stroke:none"
         transform="matrix(0.13333333,0,0,-0.13333333,0,666.66667)" />
      <path
         id="path157"
         d="m 4191.61,1480.82 c -1.33,0 -2.61,0.7 -3.29,1.95 -44.59,81.67 -121.86,138.93 -206.68,153.17 -90.44,15.21 -184.39,-22.16 -233.74,-92.94 -1.18,-1.7 -3.51,-2.12 -5.22,-0.93 -1.7,1.18 -2.12,3.53 -0.93,5.22 50.97,73.1 147.82,111.67 241.14,96.05 87.07,-14.62 166.33,-73.3 212.01,-156.97 1,-1.82 0.32,-4.09 -1.49,-5.09 -0.57,-0.31 -1.18,-0.46 -1.8,-0.46"
         style="fill:#ffffff;fill-opacity:1;fill-rule:nonzero;stroke:none"
         transform="matrix(0.13333333,0,0,-0.13333333,0,666.66667)" />
      <path
         id="path158"
         d="m 3252.61,1851.46 c 9.11,9.35 3.18,25.05 -4.35,35.72 -27.65,39.2 -70.71,65.51 -116.18,80.79 -45.47,15.28 -93.65,20.43 -141.46,24.34 -22.56,1.84 -46.82,3.05 -66.15,-8.72 -27.46,-16.71 -34.77,-52.6 -39.49,-84.4 -3.31,-22.26 -3.76,-50.55 16.24,-60.89 8.24,-4.26 17.99,-4.04 27.26,-3.72 100.73,3.46 201.46,6.93 302.19,10.39 7.82,0.27 16.47,0.89 21.94,6.49"
         style="fill:#1c3257;fill-opacity:1;fill-rule:nonzero;stroke:none"
         transform="matrix(0.13333333,0,0,-0.13333333,0,666.66667)" />
      <path
         id="path159"
         d="m 3158.72,1866.22 c -1.21,0 -2.39,0.58 -3.11,1.66 -49.08,72.98 -146.56,110.29 -231.83,88.71 -2,-0.49 -4.04,0.7 -4.56,2.72 -0.5,2 0.71,4.04 2.72,4.55 88.21,22.38 189.11,-16.27 239.89,-91.8 1.15,-1.72 0.69,-4.04 -1.02,-5.2 -0.64,-0.43 -1.37,-0.64 -2.09,-0.64"
         style="fill:#ffffff;fill-opacity:1;fill-rule:nonzero;stroke:none"
         transform="matrix(0.13333333,0,0,-0.13333333,0,666.66667)" />
      <path
         id="path160"
         d="m 3616.94,1940.43 c -7.48,8.62 -21.15,6.5 -32.2,3.65 -17.18,-4.44 -36.9,-11.12 -42.66,-27.9 -2.53,-7.37 -1.76,-15.41 -0.97,-23.15 4.57,-44.37 9.13,-88.73 13.69,-133.09 1.59,-15.44 15.65,-26.48 31.02,-24.37 l 32.45,4.46 c 7.18,0.99 14.92,2.25 19.98,7.44 6.93,7.13 6.04,18.51 4.69,28.35 -6.77,49.32 -13.54,98.63 -20.31,147.95 -0.81,5.9 -1.78,12.17 -5.69,16.66"
         style="fill:#ffffff;fill-opacity:1;fill-rule:nonzero;stroke:none"
         transform="matrix(0.13333333,0,0,-0.13333333,0,666.66667)" />
      <path
         id="path161"
         d="m 3558.47,1961.39 4.3,-31.81 31.8,7.31 -10.31,30.51 -25.79,-6.01"
         style="fill:#ffffff;fill-opacity:1;fill-rule:nonzero;stroke:none"
         transform="matrix(0.13333333,0,0,-0.13333333,0,666.66667)" />
      <path
         id="path162"
         d="m 3541.22,1952.39 c 17.73,3.96 35.79,6.44 53.92,7.41 -1.01,11.17 -2.03,22.35 -3.05,33.52 -18.74,-2.45 -37.48,-4.9 -56.23,-7.35 0.48,-11.35 2.28,-22.64 5.36,-33.58"
         style="fill:#ef2c4a;fill-opacity:1;fill-rule:nonzero;stroke:none"
         transform="matrix(0.13333333,0,0,-0.13333333,0,666.66667)" />
      <path
         id="path163"
         d="m 3513.14,1957.41 c -0.91,-3.22 -0.67,-7 1.55,-9.51 2.22,-2.51 6.74,-2.96 8.81,-0.33 -0.97,4.89 1.92,9.95 6.03,12.77 4.11,2.82 9.21,3.77 14.18,4.15 4.97,0.37 10,0.24 14.89,1.19 -2.56,3.66 -3.8,8.22 -3.46,12.67 -7.71,-2.84 -16.09,-3.33 -23.97,-5.68 -7.87,-2.36 -15.79,-7.35 -18.03,-15.26"
         style="fill:#ef2c4a;fill-opacity:1;fill-rule:nonzero;stroke:none"
         transform="matrix(0.13333333,0,0,-0.13333333,0,666.66667)" />
      <path
         id="path164"
         d="m 3655.34,1830.37 c -1.52,29.91 -5.29,59.7 -11.28,89.04 -17.25,-42.65 -59.63,-73.99 -105.46,-78 0.88,-9.09 1.76,-18.18 2.64,-27.26 37.65,7.72 75.78,13.15 114.1,16.22"
         style="fill:#1c3257;fill-opacity:1;fill-rule:nonzero;stroke:none"
         transform="matrix(0.13333333,0,0,-0.13333333,0,666.66667)" />
      <path
         id="path165"
         d="m 2352.69,2307.09 c -24.96,-16.64 -50.13,-35.42 -63.44,-62.3 -15.18,-30.62 -12.57,-66.69 -9.09,-100.69 7.92,-77.37 18.55,-154.47 31.87,-231.1 5.39,-30.97 13.01,-64.86 38.28,-83.54 21.57,-15.95 50.45,-16.55 77.27,-16.51 124.59,0.2 249.18,0.39 373.76,0.58 21.92,0.04 46.88,1.43 60.81,18.36 10.57,12.86 11.38,30.89 11.7,47.53 3.12,161.5 6.24,323 9.36,484.5 0.38,19.42 0.43,40.09 -9.89,56.54 -9.53,15.19 -26.42,24.18 -43.38,30.01 -62.14,21.39 -130.67,8.67 -193.65,-10.13 -100.45,-29.99 -196.39,-75.07 -283.6,-133.25"
         style="fill:#ef2c4a;fill-opacity:1;fill-rule:nonzero;stroke:none"
         transform="matrix(0.13333333,0,0,-0.13333333,0,666.66667)" />
      <path
         id="path166"
         d="m 2835.46,2131.3 c -170.62,0.07 -341.25,-18.39 -507.9,-54.96 -1.17,49.05 -2.33,98.1 -3.5,147.15 158.68,84.39 334.59,136.2 513.68,151.3 -0.76,-81.16 -1.52,-162.33 -2.28,-243.49"
         style="fill:#ecd615;fill-opacity:1;fill-rule:nonzero;stroke:none"
         transform="matrix(0.13333333,0,0,-0.13333333,0,666.66667)" />
      <path
         id="path167"
         d="m 2687.26,1983.31 c 0,-51.99 -42.14,-94.13 -94.13,-94.13 -51.98,0 -94.12,42.14 -94.12,94.13 0,51.98 42.14,94.12 94.12,94.12 51.99,0 94.13,-42.14 94.13,-94.12"
         style="fill:#ecd615;fill-opacity:1;fill-rule:nonzero;stroke:none"
         transform="matrix(0.13333333,0,0,-0.13333333,0,666.66667)" />
      <path
         id="path168"
         d="m 2701.66,2427.14 c -91.67,-16.34 -179.36,-49.89 -264.97,-86.54 -47.33,-20.26 -97,-43.89 -124.03,-87.71 27.56,29.42 70.72,52.76 108.12,67.81 65.45,26.34 116.94,46.74 183.96,68.77 66.39,21.82 146.99,38.7 215.3,23.93 -33.25,23.71 -78.17,20.9 -118.38,13.74"
         style="fill:#ffffff;fill-opacity:1;fill-rule:nonzero;stroke:none"
         transform="matrix(0.13333333,0,0,-0.13333333,0,666.66667)" />
      <path
         id="path169"
         d="m 2802.86,1757.35 c -68.11,13.24 -140.21,-6.67 -197.55,-45.74 -57.34,-39.07 -100.86,-95.97 -132.47,-157.74 -31.61,-61.76 -52.01,-128.59 -70.1,-195.58 -3.04,-11.26 -5.92,-23.77 -0.62,-34.16 4.4,-8.64 13.46,-13.74 22.19,-17.95 61.51,-29.67 130.61,-39.52 198.72,-44.49 141.16,-10.29 283.72,-1.18 422.42,27.01 15.16,3.08 30.67,6.55 43.57,15.08 10.49,6.92 18.67,16.83 25.56,27.34 30.75,46.92 37.26,107.19 24.84,161.89 -12.42,54.7 -42.41,104.21 -79.22,146.53 -36.53,42 -80.74,78.18 -131.91,100.07 -51.18,21.89 -109.7,28.75 -163.21,13.41"
         style="fill:#ef2c4a;fill-opacity:1;fill-rule:nonzero;stroke:none"
         transform="matrix(0.13333333,0,0,-0.13333333,0,666.66667)" />
      <path
         id="path170"
         d="m 3021.25,1661.67 c -3.84,-0.02 -7.69,-0.04 -11.53,-0.06 1.38,-17.03 -18.29,-27.06 -34.56,-32.26 -170.98,-54.57 -344.42,-101.04 -517.78,-147.5 -12.86,-46.31 -25.71,-92.62 -38.56,-138.94 218.17,7.78 430.76,67.35 640.89,126.52 18.89,5.32 40.64,13.36 46.03,32.23 4.41,15.45 -4.43,31.28 -12.92,44.93 -23.85,38.36 -47.71,76.72 -71.57,115.08"
         style="fill:#ecd615;fill-opacity:1;fill-rule:nonzero;stroke:none"
         transform="matrix(0.13333333,0,0,-0.13333333,0,666.66667)" />
      <path
         id="path171"
         d="m 2481.24,1537.01 c -0.46,0 -0.94,0.09 -1.4,0.28 -1.92,0.78 -2.85,2.96 -2.07,4.88 33.76,83.38 104.24,151.92 188.53,183.37 84.28,31.43 182.44,25.8 262.55,-15.11 1.85,-0.94 2.58,-3.2 1.64,-5.05 -0.94,-1.84 -3.19,-2.59 -5.05,-1.63 -78.27,39.97 -174.17,45.48 -256.52,14.76 -82.35,-30.72 -151.21,-97.69 -184.2,-179.15 -0.59,-1.46 -2,-2.35 -3.48,-2.35"
         style="fill:#ffffff;fill-opacity:1;fill-rule:nonzero;stroke:none"
         transform="matrix(0.13333333,0,0,-0.13333333,0,666.66667)" />
      <path
         id="path172"
         d="m 3035.6,1323.38 c -0.48,-3.6 -3.9,-7.21 -7.64,-8.01 -44.4,-9.51 -66.32,-11.79 -108.2,-11.25 -3.53,0.05 -5.27,3.12 -3.9,6.81 v 0 c 1.36,3.69 5.23,6.6 8.66,6.55 40.77,-0.52 62.11,1.7 105.34,10.95 3.64,0.78 6.21,-1.46 5.74,-5.05 v 0"
         style="fill:#1c3257;fill-opacity:1;fill-rule:nonzero;stroke:none"
         transform="matrix(0.13333333,0,0,-0.13333333,0,666.66667)" />
      <path
         id="path173"
         d="m 3040.46,1352.64 c -0.47,-3.6 -3.89,-7.21 -7.63,-8.01 -44.41,-9.51 -66.32,-11.79 -108.21,-11.25 -3.52,0.05 -5.26,3.12 -3.9,6.81 v 0 c 1.36,3.69 5.23,6.6 8.67,6.56 40.76,-0.53 62.1,1.69 105.33,10.94 3.64,0.78 6.22,-1.46 5.74,-5.05 v 0"
         style="fill:#1c3257;fill-opacity:1;fill-rule:nonzero;stroke:none"
         transform="matrix(0.13333333,0,0,-0.13333333,0,666.66667)" />
      <path
         id="path174"
         d="m 3045.33,1381.9 c -0.47,-3.6 -3.89,-7.21 -7.63,-8.01 -44.41,-9.51 -66.33,-11.79 -108.21,-11.25 -3.53,0.05 -5.26,3.12 -3.9,6.81 v 0 c 1.36,3.69 5.23,6.6 8.66,6.56 40.77,-0.53 62.11,1.69 105.34,10.94 3.64,0.78 6.21,-1.46 5.74,-5.05 v 0"
         style="fill:#1c3257;fill-opacity:1;fill-rule:nonzero;stroke:none"
         transform="matrix(0.13333333,0,0,-0.13333333,0,666.66667)" />
      <path
         id="path175"
         d="m 3699.07,1521.53 c 32.43,62.15 79.75,116.14 135.58,158.53 39.25,29.8 84.85,56.51 105.12,101.42 24.5,54.26 4.34,117.21 -15.94,173.18 -21.88,60.34 -43.75,120.68 -65.63,181.03 -8.84,24.39 -20.56,47.45 -35.14,68.91 -12.3,18.11 -37.11,39.49 -62.15,32.72 -0.3,-38.15 -42.96,-71.81 -64.24,-103.47 -35.82,-53.3 -31.01,-122.96 -26.74,-187.04 5.89,-88.24 8.09,-177.42 -6.82,-264.6 -14.92,-87.17 -47.94,-172.86 -105.8,-239.75 -10.64,-12.3 -22.95,-27.41 -18.01,-42.9 5.52,-17.31 28.84,-21.3 46.4,-16.66 29.84,7.87 53.64,30.83 70.65,56.58 17,25.75 28.44,54.69 42.72,82.05"
         style="fill:#ef2c4a;fill-opacity:1;fill-rule:nonzero;stroke:none"
         transform="matrix(0.13333333,0,0,-0.13333333,0,666.66667)" />
      <path
         id="path176"
         d="m 3727.88,1976.54 c 13.36,-1.69 23.43,11.98 27.98,24.66 9.68,26.98 9.19,57.21 21.72,83 4.12,8.47 9.59,16.35 12.37,25.34 2.78,8.99 2.26,19.85 -4.43,26.48 -6.41,6.35 -16.92,7 -25.31,3.67 -8.38,-3.34 -15.01,-9.95 -20.85,-16.83 -27.91,-32.91 -43.1,-78.35 -32.94,-120.28 2.83,-11.65 9.57,-24.53 21.46,-26.04"
         style="fill:#ffffff;fill-opacity:1;fill-rule:nonzero;stroke:none"
         transform="matrix(0.13333333,0,0,-0.13333333,0,666.66667)" />
      <path
         id="path177"
         d="m 3569.21,1434.14 c -0.85,0 -1.71,0.29 -2.41,0.89 -1.59,1.33 -1.79,3.7 -0.45,5.28 104.7,124.08 119.02,280.68 112.59,390.2 -1.58,26.97 -1.61,54.49 -1.64,81.1 -0.02,21.94 -0.04,44.63 -0.94,66.81 l -0.43,10.05 c -2.01,45.87 -4.09,93.31 22.24,132.33 8.12,12.03 16.71,22.34 25.01,32.32 18.51,22.22 35.99,43.22 45.39,79.8 0.52,1.99 2.52,3.22 4.57,2.7 2.01,-0.52 3.22,-2.56 2.7,-4.58 -9.82,-38.21 -27.83,-59.83 -46.89,-82.73 -8.19,-9.82 -16.65,-19.99 -24.56,-31.71 -24.95,-36.96 -22.93,-83.15 -20.97,-127.81 l 0.43,-10.06 c 0.91,-22.33 0.93,-45.1 0.95,-67.11 0.03,-26.5 0.06,-53.91 1.63,-80.67 6.5,-110.88 -8.05,-269.5 -114.35,-395.48 -0.74,-0.88 -1.8,-1.33 -2.87,-1.33"
         style="fill:#ffffff;fill-opacity:1;fill-rule:nonzero;stroke:none"
         transform="matrix(0.13333333,0,0,-0.13333333,0,666.66667)" />
    </g>
  </g>
</svg>
