<?xml version="1.0" encoding="utf-8"?>
<!-- Generator: Adobe Illustrator 27.5.0, SVG Export Plug-In . SVG Version: 6.00 Build 0)  -->
<svg version="1.1" id="Layer_1" xmlns="http://www.w3.org/2000/svg" xmlns:xlink="http://www.w3.org/1999/xlink" x="0px" y="0px"
	 viewBox="0 0 172.014 352.717" style="enable-background:new 0 0 172.014 352.717;" xml:space="preserve">
<g>
	<g>
		<g>
			<g>
				<g>
					<path style="fill:#464645;" d="M169.027,104.094c-0.002-0.088-0.007-0.175-0.012-0.262c-0.005-0.084-0.012-0.166-0.02-0.247
						c-0.002-0.013-0.003-0.024-0.004-0.038c-0.001-0.008-0.003-0.018-0.003-0.025c-0.006-0.057-0.013-0.111-0.019-0.168
						c-0.009-0.076-0.02-0.151-0.032-0.227c-0.012-0.071-0.025-0.144-0.038-0.214c-0.008-0.039-0.016-0.078-0.023-0.116
						c-0.002-0.012-0.004-0.02-0.006-0.03c-0.004-0.021-0.008-0.042-0.013-0.062c-0.015-0.071-0.031-0.139-0.048-0.206
						c-0.016-0.065-0.033-0.129-0.051-0.193c-0.018-0.063-0.037-0.127-0.056-0.189c-0.003-0.013-0.009-0.027-0.012-0.039l0,0
						c-0.016-0.049-0.031-0.097-0.047-0.146c-0.019-0.056-0.038-0.112-0.058-0.166c-0.02-0.055-0.04-0.111-0.062-0.164
						c-0.02-0.055-0.042-0.107-0.064-0.161c-0.023-0.055-0.045-0.107-0.069-0.161c-0.024-0.053-0.048-0.105-0.072-0.158
						c-0.025-0.051-0.05-0.102-0.075-0.153c-0.02-0.041-0.042-0.081-0.063-0.123c-0.006-0.013-0.014-0.024-0.02-0.038
						c-0.012-0.02-0.022-0.043-0.034-0.065c-0.042-0.079-0.087-0.156-0.132-0.233l0,0c-0.026-0.046-0.055-0.085-0.081-0.129
						c-0.043-0.069-0.085-0.135-0.127-0.202c-0.026-0.038-0.049-0.081-0.076-0.118c-0.062-0.091-0.124-0.18-0.187-0.266
						c-0.054-0.074-0.109-0.146-0.164-0.216c-0.049-0.061-0.099-0.122-0.148-0.182c-0.014-0.018-0.028-0.034-0.042-0.05
						c-0.006-0.007-0.012-0.013-0.018-0.02c-0.031-0.038-0.063-0.075-0.094-0.112c-0.052-0.059-0.106-0.116-0.158-0.172
						c-0.027-0.029-0.055-0.056-0.081-0.086c-0.008-0.008-0.015-0.016-0.023-0.023c-0.025-0.027-0.05-0.055-0.075-0.08
						c-0.064-0.064-0.127-0.126-0.19-0.186c-0.019-0.018-0.035-0.031-0.054-0.05c-0.016-0.015-0.03-0.027-0.045-0.041
						c-0.035-0.033-0.071-0.068-0.105-0.098c-0.061-0.056-0.119-0.105-0.177-0.154c-0.007-0.006-0.014-0.014-0.021-0.02
						c-0.007-0.007-0.016-0.014-0.023-0.02c-0.077-0.065-0.152-0.126-0.224-0.182c-0.014-0.011-0.025-0.019-0.038-0.029
						c-0.01-0.008-0.019-0.014-0.029-0.022c-0.052-0.041-0.105-0.082-0.153-0.118c-0.023-0.018-0.042-0.028-0.065-0.046
						c-0.016-0.011-0.028-0.02-0.044-0.031c-0.031-0.021-0.067-0.048-0.095-0.068c-0.025-0.017-0.043-0.028-0.066-0.044
						c-0.018-0.01-0.03-0.021-0.046-0.029c-0.02-0.012-0.044-0.029-0.061-0.04h-0.002l0,0h0.002c-0.016-0.01-0.02-0.012-0.032-0.019
						c-0.024-0.014-0.037-0.024-0.052-0.032c-0.007-0.004-0.023-0.014-0.028-0.018c-0.005-0.003-0.009-0.006-0.012-0.007
						l-36.438-20.997l-21.536-12.408l-19.13-11.023c-0.018-0.009-0.063-0.035-0.129-0.071c-0.003-0.002-0.003-0.002-0.006-0.003
						c-0.046-0.026-0.102-0.055-0.167-0.088c-0.007-0.004-0.016-0.008-0.024-0.01c-0.02-0.011-0.041-0.02-0.063-0.03
						c-0.033-0.016-0.063-0.031-0.099-0.045c-0.056-0.027-0.118-0.052-0.18-0.078c-0.002,0-0.004-0.002-0.007-0.002
						c-0.002-0.002-0.004-0.003-0.007-0.003c-0.063-0.024-0.127-0.049-0.193-0.073c-0.062-0.022-0.125-0.041-0.191-0.063
						c-0.003,0-0.007-0.001-0.01-0.003c-0.059-0.018-0.12-0.035-0.183-0.049c-0.062-0.016-0.124-0.03-0.188-0.042
						c-0.016-0.002-0.033-0.006-0.05-0.008c-0.012-0.003-0.022-0.003-0.033-0.006c-0.033-0.005-0.065-0.012-0.098-0.016
						c-0.06-0.008-0.122-0.015-0.183-0.019c-0.051-0.003-0.102-0.005-0.153-0.005c-0.006,0-0.012,0-0.018,0
						c-0.003,0-0.007-0.001-0.011-0.001c-0.064,0-0.127,0.003-0.191,0.009H85.87c-0.068,0.006-0.134,0.016-0.202,0.029
						c-0.012,0.003-0.024,0.007-0.036,0.01c-0.013,0.002-0.026,0.007-0.041,0.011c-0.052,0.012-0.105,0.024-0.156,0.043
						c-0.088,0.032-0.174,0.07-0.256,0.119c-4.655,2.709-9.309,5.42-13.963,8.129c0.129-0.076,0.266-0.124,0.407-0.16
						c0.017-0.004,0.033-0.009,0.05-0.013c0.145-0.032,0.292-0.048,0.44-0.046c0.003,0,0.006,0,0.01,0
						c0.149,0,0.299,0.015,0.446,0.04c0.008,0,0.015,0.002,0.022,0.003c0.434,0.077,0.832,0.237,1.113,0.368
						c0.02,0.009,0.044,0.021,0.063,0.03c0.079,0.039,0.148,0.075,0.201,0.104c0.056,0.031,0.101,0.057,0.12,0.068
						c0.002,0.002,0.003,0.002,0.004,0.002l19.13,11.024l21.536,12.408l36.438,20.996c0.009,0.006,0.031,0.02,0.058,0.035
						c0.007,0.005,0.014,0.01,0.022,0.014c0.027,0.018,0.064,0.042,0.105,0.065c0.015,0.011,0.031,0.021,0.048,0.033
						c0.047,0.031,0.101,0.067,0.158,0.109c0.016,0.012,0.031,0.022,0.047,0.034c0.064,0.048,0.136,0.1,0.212,0.158
						c0.011,0.009,0.023,0.018,0.035,0.027c0.088,0.068,0.183,0.144,0.281,0.228c0.009,0.008,0.019,0.016,0.029,0.026
						c0.087,0.074,0.179,0.155,0.271,0.242c0.019,0.015,0.036,0.031,0.055,0.05c0.102,0.096,0.208,0.199,0.314,0.311
						c0.008,0.008,0.014,0.016,0.022,0.022c0.109,0.115,0.219,0.237,0.33,0.366c0.01,0.009,0.017,0.019,0.025,0.029
						c0.115,0.136,0.23,0.279,0.342,0.431l0,0c0.095,0.126,0.184,0.263,0.274,0.4c0.042,0.063,0.083,0.129,0.124,0.196
						c0.085,0.139,0.17,0.281,0.25,0.431c0.005,0.01,0.012,0.023,0.017,0.034c0.095,0.181,0.184,0.369,0.267,0.565
						c0.004,0.01,0.008,0.019,0.012,0.028c0.083,0.202,0.161,0.411,0.23,0.629c0.001,0.005,0.003,0.012,0.006,0.019
						c0.068,0.217,0.126,0.442,0.175,0.675c0.003,0.015,0.007,0.028,0.008,0.042c0.047,0.232,0.085,0.47,0.11,0.717
						c0.001,0.009,0.003,0.021,0.004,0.03c0.025,0.257,0.04,0.523,0.04,0.798l-0.071,35.379l-0.324,164.895
						c-0.001,0.383-0.028,0.718-0.077,1.01c-0.001,0.007-0.003,0.015-0.004,0.022c-0.022,0.135-0.051,0.261-0.083,0.378
						c-0.003,0.014-0.007,0.027-0.011,0.041c-0.031,0.107-0.067,0.207-0.104,0.301c-0.01,0.025-0.021,0.05-0.032,0.073
						c-0.029,0.068-0.06,0.128-0.093,0.187c-0.018,0.032-0.035,0.066-0.054,0.098c-0.019,0.028-0.04,0.053-0.059,0.08
						c-0.057,0.08-0.115,0.152-0.178,0.217c-0.021,0.022-0.042,0.046-0.063,0.063c-0.082,0.074-0.167,0.142-0.256,0.194
						l13.962-8.131c0.088-0.051,0.172-0.117,0.253-0.191c0.024-0.019,0.047-0.046,0.071-0.069c0.06-0.061,0.118-0.134,0.173-0.211
						c0.013-0.019,0.028-0.03,0.04-0.049c0.008-0.011,0.013-0.023,0.02-0.035c0.018-0.03,0.035-0.063,0.053-0.095
						c0.02-0.039,0.042-0.072,0.061-0.113c0.011-0.022,0.021-0.048,0.032-0.073c0.011-0.025,0.022-0.051,0.031-0.076
						c0.01-0.023,0.021-0.043,0.028-0.066c0.026-0.066,0.048-0.136,0.07-0.208c0.001-0.007,0.004-0.015,0.006-0.021
						c0.004-0.016,0.008-0.034,0.012-0.049c0.013-0.046,0.026-0.092,0.038-0.143c0.016-0.07,0.031-0.143,0.043-0.22
						c0.001-0.004,0.002-0.01,0.002-0.012c0.001-0.005,0.002-0.012,0.003-0.017c0.011-0.065,0.021-0.131,0.03-0.202
						c0.009-0.079,0.018-0.161,0.025-0.247c0-0.003,0-0.007,0-0.01c0-0.009,0.001-0.017,0.002-0.026
						c0.006-0.075,0.011-0.15,0.014-0.229c0.003-0.09,0.006-0.186,0.006-0.282c0.001-0.006,0.001-0.013,0.001-0.017l0.325-164.896
						l0.069-35.378C169.03,104.262,169.03,104.178,169.027,104.094z"/>
					<path style="fill:#343434;" d="M153.661,315.817c-0.138,0-0.274-0.071-0.349-0.199c-0.113-0.192-0.049-0.438,0.143-0.552
						c0.066-0.039,0.129-0.091,0.191-0.146c0.093-0.096,0.139-0.152,0.183-0.215l0.146,0.058l0.071-0.041l-0.149-0.12
						c0.046-0.085,0.073-0.133,0.095-0.187c0.061-0.146,0.092-0.233,0.119-0.326c0.037-0.141,0.063-0.254,0.084-0.376
						c0.05-0.303,0.074-0.62,0.075-0.965l0.396-200.274c0.001-0.261-0.013-0.512-0.038-0.757c-0.027-0.263-0.063-0.488-0.108-0.706
						c-0.055-0.26-0.109-0.472-0.173-0.677c-0.071-0.225-0.144-0.423-0.224-0.615c-0.089-0.21-0.172-0.389-0.262-0.56
						c-0.092-0.173-0.172-0.308-0.253-0.44c-0.04-0.064-0.078-0.125-0.117-0.185c-0.087-0.134-0.172-0.263-0.261-0.381
						c-0.109-0.15-0.22-0.285-0.328-0.415c-0.129-0.15-0.235-0.266-0.339-0.377c-0.122-0.127-0.222-0.226-0.32-0.318
						c-0.142-0.13-0.227-0.208-0.31-0.277c-0.123-0.106-0.211-0.177-0.296-0.242l-0.655-0.454L73.892,61.654
						c-0.005-0.002-0.009-0.004-0.013-0.006l-0.289-0.153c-0.414-0.195-0.755-0.308-1.07-0.364
						c-0.144-0.024-0.271-0.038-0.397-0.038c-0.001,0-0.002,0-0.002,0c-0.14,0-0.25,0.012-0.361,0.037
						c-0.156,0.04-0.255,0.079-0.339,0.127l-0.002,0.001c-0.192,0.112-0.439,0.047-0.552-0.145
						c-0.112-0.192-0.046-0.439,0.146-0.551v0l13.962-8.13c0.103-0.06,0.211-0.111,0.324-0.15c0.055-0.021,0.117-0.036,0.178-0.052
						c0.009-0.002,0.078-0.019,0.086-0.021c0.105-0.024,0.186-0.036,0.269-0.044c0.074-0.006,0.151-0.01,0.228-0.01
						c0.096,0.002,0.155,0.004,0.213,0.008c0.065,0.004,0.135,0.012,0.204,0.021c0.006,0,0.085,0.013,0.09,0.013
						c0.013,0.003,0.082,0.015,0.095,0.018c0.094,0.017,0.164,0.032,0.233,0.05c0.064,0.016,0.132,0.034,0.198,0.055
						c0.09,0.028,0.156,0.049,0.221,0.072l0.204,0.077c0.017,0.006,0.033,0.013,0.047,0.021c0.043,0.016,0.11,0.044,0.172,0.074
						c0.013,0.004,0.048,0.021,0.083,0.038l0.392,0.202l77.142,44.45c0.012,0.006,0.023,0.012,0.033,0.02
						c0,0,0.085,0.052,0.087,0.052l-0.131,0.396l0.211-0.344c0.004,0.003,0.088,0.058,0.092,0.06l0.097,0.067
						c0.003,0.002,0.091,0.065,0.095,0.068l0.224,0.168l0.067,0.051c0.074,0.058,0.152,0.122,0.234,0.189
						c0.107,0.092,0.169,0.145,0.235,0.206l0.073,0.068c0.002,0.002,0.084,0.078,0.086,0.08l0.249,0.24l-0.213,0.364l0.285-0.287
						c0.002,0.003,0.078,0.082,0.08,0.085l0.517,0.599c0.057,0.069,0.114,0.146,0.172,0.226c0.067,0.09,0.133,0.182,0.199,0.279
						c0.003,0.005,0.045,0.071,0.048,0.077l0.249,0.396c0.046,0.077,0.092,0.16,0.138,0.243c0.005,0.01,0.044,0.085,0.049,0.095
						l0.531,1.262c0.001,0.002,0.028,0.089,0.029,0.091l0.112,0.406c0.018,0.067,0.035,0.141,0.051,0.217l-0.376,0.176l0.396-0.077
						l0.024,0.118l0.093,0.643c0.016,0.152,0.023,0.241,0.028,0.329c0.006,0.087,0.01,0.179,0.013,0.273l0.003,0.263l-0.394,200.275
						c-0.001,0.118-0.003,0.218-0.006,0.313c-0.003,0.089-0.009,0.168-0.016,0.247c-0.009,0.126-0.018,0.215-0.028,0.299
						c-0.009,0.078-0.02,0.15-0.032,0.22c-0.02,0.114-0.036,0.195-0.053,0.271l-0.055,0.211c-0.032,0.11-0.057,0.188-0.085,0.264
						c-0.001,0.004-0.032,0.075-0.033,0.078l-0.033,0.08c-0.003,0.006-0.037,0.085-0.039,0.092c-0.015,0.03-0.033,0.062-0.05,0.094
						l-0.396-0.119l0.354,0.194c-0.003,0.006-0.04,0.07-0.043,0.076c-0.013,0.023-0.07,0.102-0.088,0.122
						c-0.055,0.079-0.126,0.168-0.202,0.244c-0.041,0.043-0.068,0.069-0.095,0.093c-0.102,0.093-0.208,0.173-0.315,0.234
						l-13.958,8.13C153.799,315.8,153.73,315.817,153.661,315.817z M74.284,60.949c0.003,0.002,0.006,0.004,0.009,0.006
						l77.104,44.428c0.011,0.005,0.079,0.047,0.089,0.054l0.108,0.067c0.007,0.006,0.064,0.044,0.072,0.05
						c0.037,0.023,0.095,0.063,0.158,0.108l0.267,0.197c0.13,0.101,0.229,0.18,0.333,0.269c0.121,0.103,0.217,0.188,0.315,0.282
						c0.162,0.148,0.272,0.257,0.384,0.374c0.137,0.144,0.252,0.271,0.368,0.405c0.146,0.174,0.268,0.323,0.385,0.482
						c0.097,0.132,0.193,0.275,0.287,0.42c0.044,0.065,0.088,0.137,0.132,0.208c0.088,0.143,0.177,0.293,0.261,0.451
						c0.118,0.226,0.212,0.425,0.299,0.631c0.101,0.243,0.182,0.463,0.255,0.692c0.078,0.25,0.14,0.486,0.192,0.732
						c0.058,0.29,0.098,0.541,0.124,0.802c0.032,0.3,0.047,0.581,0.046,0.87l-0.395,200.274c-0.001,0.387-0.028,0.748-0.081,1.074
						c-0.026,0.152-0.053,0.278-0.083,0.393l12.507-7.285c0.057-0.032,0.115-0.077,0.183-0.139c0.103-0.103,0.146-0.159,0.188-0.218
						c0.011-0.014,0.04-0.051,0.053-0.064c0.001-0.002,0.038-0.078,0.039-0.081l0.376,0.154l-0.329-0.238
						c0-0.002,0.054-0.129,0.056-0.132c0.045-0.111,0.064-0.171,0.082-0.233l0.415,0.004l-0.387-0.108l0.021-0.085
						c0.015-0.063,0.028-0.128,0.04-0.199c0.014-0.088,0.023-0.148,0.031-0.212c0.008-0.072,0.017-0.15,0.023-0.228l0.016-0.251
						c0.002-0.083,0.004-0.173,0.004-0.265l0.395-200.293l-0.003-0.24c-0.001-0.083-0.005-0.164-0.011-0.246
						c-0.005-0.083-0.012-0.162-0.019-0.238l-0.09-0.634c0-0.003-0.024-0.121-0.025-0.124l-0.161-0.631l0.359-0.202l-0.385,0.123
						l-0.444-1.072l0.313-0.273l-0.349,0.202c-0.001-0.004-0.038-0.071-0.04-0.073c-0.041-0.075-0.082-0.149-0.125-0.224
						c-0.003-0.003-0.076-0.119-0.08-0.124l-0.12-0.191l0.263-0.337l-0.335,0.225c-0.058-0.086-0.117-0.17-0.176-0.25
						c-0.052-0.069-0.103-0.138-0.156-0.203l-0.144-0.179l-0.062-0.07l-0.318-0.355l0.236-0.335l-0.295,0.274l-0.212-0.209
						l0.192-0.372l-0.269,0.301l-0.117-0.108c-0.059-0.055-0.113-0.1-0.166-0.144c-0.12-0.103-0.191-0.161-0.26-0.215l0.184-0.367
						l-0.249,0.317l-0.144-0.109c-0.002-0.002-0.068-0.049-0.07-0.05l0.201-0.353l-0.277,0.298l0.182-0.366l-0.255,0.315
						l0.167-0.373l-0.235,0.329l-0.085-0.057c-0.012-0.006-0.06-0.036-0.072-0.043h0.001c-0.007-0.004-0.013-0.007-0.02-0.011
						L87.57,53.371c-0.002-0.001-0.077-0.035-0.081-0.036c-0.009-0.004-0.088-0.041-0.096-0.045
						c-0.047-0.023-0.099-0.044-0.151-0.066c-0.013-0.004-0.023-0.009-0.036-0.014l-0.33-0.114c-0.02-0.007-0.06-0.021-0.079-0.031
						c0.01,0.009-0.043-0.005-0.097-0.018c-0.06-0.015-0.114-0.028-0.171-0.039l-0.005-0.41l-0.095,0.393
						c-0.107-0.016-0.159-0.022-0.213-0.025l-0.132-0.004c-0.076-0.002-0.126,0-0.176,0.005c-0.058,0.005-0.11,0.013-0.162,0.023
						l-0.177-0.37l0.095,0.393c-0.03,0.007-0.061,0.013-0.09,0.025c-0.069,0.024-0.132,0.052-0.192,0.088l-12.473,7.262
						c0.318,0.078,0.637,0.193,0.964,0.347c0.004,0.002,0.073,0.035,0.079,0.038c0.075,0.037,0.148,0.074,0.205,0.106L74.284,60.949
						z"/>
				</g>
				<g>
					<path style="fill:#464645;" d="M152.192,106.461c0.087,0.074,0.179,0.155,0.271,0.242c0.019,0.015,0.036,0.031,0.055,0.05
						c0.102,0.096,0.208,0.199,0.314,0.311c0.008,0.008,0.014,0.016,0.022,0.022c0.109,0.115,0.219,0.237,0.33,0.366
						c0.01,0.009,0.017,0.019,0.025,0.029c0.115,0.136,0.23,0.279,0.342,0.431l0,0c0.095,0.126,0.184,0.263,0.274,0.4
						c0.042,0.063,0.083,0.129,0.124,0.196c0.085,0.139,0.17,0.281,0.25,0.431c0.005,0.01,0.012,0.023,0.017,0.034
						c0.095,0.181,0.184,0.369,0.267,0.565c0.004,0.01,0.008,0.019,0.012,0.028c0.083,0.202,0.161,0.411,0.23,0.629
						c0.001,0.005,0.003,0.012,0.006,0.019c0.068,0.217,0.126,0.442,0.175,0.675c0.003,0.015,0.007,0.028,0.008,0.042
						c0.047,0.232,0.085,0.47,0.11,0.717c0.001,0.009,0.003,0.021,0.004,0.03c0.025,0.257,0.04,0.523,0.04,0.798l-0.004,1.82
						c1.63-0.87,3.265-1.727,4.919-2.542c3.015-1.488,6.032-2.969,9.04-4.471l0.005-2.937c0-0.084,0-0.168-0.003-0.252
						c-0.002-0.088-0.007-0.175-0.012-0.262c-0.005-0.084-0.012-0.166-0.02-0.247c-0.002-0.013-0.003-0.024-0.004-0.038
						c-0.001-0.008-0.003-0.018-0.003-0.025c-0.006-0.057-0.013-0.111-0.019-0.168c-0.009-0.076-0.02-0.151-0.032-0.227
						c-0.012-0.071-0.025-0.144-0.038-0.214c-0.008-0.039-0.016-0.078-0.023-0.116c-0.002-0.012-0.004-0.02-0.006-0.03
						c-0.004-0.021-0.008-0.042-0.013-0.062c-0.015-0.071-0.031-0.139-0.048-0.206c-0.016-0.065-0.033-0.129-0.051-0.193
						c-0.018-0.063-0.037-0.127-0.056-0.189c-0.003-0.013-0.009-0.027-0.012-0.039c-0.016-0.049-0.031-0.097-0.047-0.146
						c-0.019-0.056-0.038-0.112-0.058-0.166c-0.02-0.055-0.04-0.111-0.062-0.164c-0.02-0.055-0.042-0.107-0.064-0.161
						c-0.023-0.055-0.045-0.107-0.069-0.161c-0.024-0.053-0.048-0.105-0.072-0.158c-0.025-0.051-0.05-0.102-0.075-0.153
						c-0.02-0.041-0.042-0.081-0.063-0.123c-0.006-0.013-0.014-0.024-0.02-0.038c-0.012-0.02-0.022-0.043-0.034-0.065
						c-0.042-0.079-0.087-0.156-0.132-0.233l0,0c-0.026-0.046-0.055-0.085-0.081-0.129c-0.043-0.069-0.085-0.135-0.127-0.202
						c-0.026-0.038-0.049-0.081-0.076-0.118c-0.062-0.091-0.124-0.18-0.187-0.266c-0.054-0.074-0.109-0.146-0.164-0.216
						c-0.049-0.061-0.099-0.122-0.148-0.182c-0.014-0.018-0.028-0.034-0.042-0.05c-0.006-0.007-0.012-0.013-0.018-0.02
						c-0.031-0.038-0.063-0.075-0.094-0.112c-0.052-0.059-0.106-0.116-0.158-0.172c-0.027-0.029-0.055-0.056-0.081-0.086
						c-0.008-0.008-0.015-0.016-0.023-0.023c-0.025-0.027-0.05-0.055-0.075-0.08c-0.064-0.064-0.127-0.126-0.19-0.186
						c-0.019-0.018-0.035-0.031-0.054-0.05c-0.016-0.015-0.03-0.027-0.045-0.041c-0.035-0.033-0.071-0.068-0.105-0.098
						c-0.061-0.056-0.119-0.105-0.177-0.154c-0.007-0.006-0.014-0.014-0.021-0.02c-0.007-0.007-0.016-0.014-0.023-0.02
						c-0.021-0.017-0.039-0.031-0.058-0.048c-4.58,2.82-9.212,5.557-13.91,8.173c0.009,0.009,0.017,0.014,0.027,0.023
						C152.173,106.443,152.183,106.451,152.192,106.461z"/>
					<path style="fill:#343434;" d="M155.065,114.7c-0.072,0-0.145-0.018-0.208-0.057c-0.122-0.073-0.197-0.205-0.196-0.347
						l0.004-1.821c0.001-0.261-0.013-0.514-0.038-0.757c-0.027-0.263-0.063-0.488-0.108-0.706c-0.055-0.26-0.109-0.472-0.173-0.677
						c-0.071-0.225-0.144-0.423-0.223-0.615c-0.09-0.21-0.173-0.389-0.263-0.56c-0.092-0.173-0.172-0.308-0.253-0.44
						c-0.04-0.066-0.078-0.125-0.117-0.185c-0.087-0.134-0.172-0.263-0.261-0.381c-0.109-0.15-0.22-0.285-0.328-0.415
						c-0.129-0.15-0.235-0.266-0.339-0.377c-0.122-0.127-0.222-0.226-0.32-0.318c-0.142-0.13-0.227-0.208-0.31-0.277
						c-0.003-0.003-0.064-0.056-0.068-0.059c-0.096-0.087-0.144-0.216-0.128-0.344c0.014-0.128,0.091-0.243,0.204-0.305
						c4.462-2.484,9.006-5.156,13.895-8.165c0.146-0.091,0.335-0.078,0.468,0.032c0.001,0.001,0.063,0.051,0.063,0.052
						c0.106,0.091,0.169,0.143,0.235,0.204l0.074,0.068c0.001,0.002,0.083,0.078,0.085,0.08l0.249,0.24l-0.213,0.364l0.286-0.286
						c0.001,0.002,0.078,0.081,0.08,0.083l0.516,0.599c0.057,0.069,0.114,0.146,0.172,0.226c0.067,0.09,0.133,0.182,0.199,0.279
						c0.003,0.005,0.045,0.071,0.048,0.077l0.249,0.396c0.046,0.077,0.092,0.16,0.138,0.243c0.005,0.01,0.044,0.085,0.049,0.095
						l0.53,1.261c0.001,0.002,0.029,0.089,0.03,0.092l0.112,0.406c0.018,0.067,0.035,0.141,0.051,0.217l-0.376,0.176l0.396-0.077
						l0.024,0.118l0.093,0.643c0.016,0.152,0.023,0.241,0.028,0.329c0.006,0.087,0.01,0.179,0.013,0.273l0.003,0.263l-0.005,2.938
						c-0.001,0.152-0.086,0.292-0.223,0.36c-2.257,1.126-4.52,2.24-6.782,3.356l-2.261,1.114c-1.432,0.708-2.946,1.49-4.907,2.538
						C155.196,114.685,155.131,114.7,155.065,114.7z M152.826,106.489c0.117,0.111,0.208,0.201,0.298,0.295
						c0.137,0.144,0.252,0.271,0.368,0.405c0.146,0.174,0.268,0.323,0.385,0.482c0.097,0.132,0.193,0.275,0.287,0.42
						c0.044,0.065,0.088,0.137,0.132,0.208c0.088,0.143,0.177,0.293,0.261,0.451c0.118,0.226,0.212,0.425,0.299,0.631
						c0.101,0.243,0.182,0.463,0.255,0.692c0.078,0.25,0.14,0.486,0.192,0.732c0.058,0.29,0.098,0.541,0.124,0.802
						c0.032,0.301,0.047,0.581,0.046,0.87l-0.003,1.147c1.687-0.896,3.044-1.594,4.336-2.232l2.26-1.115
						c2.186-1.078,4.374-2.156,6.556-3.243l0.004-2.688l-0.003-0.24c-0.001-0.083-0.005-0.164-0.011-0.246
						c-0.005-0.083-0.012-0.162-0.019-0.238l-0.09-0.634c-0.001-0.003-0.024-0.122-0.025-0.124l-0.161-0.63l0.358-0.204
						l-0.384,0.124l-0.444-1.071l0.313-0.275l-0.349,0.202c-0.001-0.002-0.038-0.071-0.04-0.073
						c-0.041-0.075-0.082-0.149-0.125-0.224c-0.003-0.003-0.076-0.119-0.08-0.124l-0.12-0.191l0.263-0.337l-0.335,0.225
						c-0.058-0.086-0.117-0.17-0.176-0.25c-0.052-0.069-0.103-0.138-0.156-0.203l-0.144-0.179l-0.062-0.07l-0.318-0.355l0.236-0.335
						l-0.296,0.274l-0.211-0.209l0.192-0.372l-0.268,0.301l-0.118-0.108c-0.017-0.016-0.033-0.03-0.049-0.044
						C161.384,101.58,157.064,104.121,152.826,106.489z"/>
				</g>
				<g>
					<g>
						<polygon style="fill:#C9CAA8;" points="152.628,113.427 152.269,295.139 72.271,249.044 72.629,67.333 						"/>
					</g>
					<g>
						<path style="fill:#F5FFDF;" d="M86.174,234.544c-4.929-11.157-9.036-22.879-13.807-34.251l-0.096,48.751l27.855,16.05
							C95.315,254.986,90.699,244.783,86.174,234.544z"/>
						<path style="fill:#F5FFDF;" d="M79.072,90.265c14.281,11.439,28.688,22.713,43.028,34.076
							c10.24,8.115,20.378,16.353,30.456,24.666l0.071-35.579L72.629,67.333l-0.035,17.858
							C74.785,86.884,76.956,88.57,79.072,90.265z"/>
						<path style="fill:#F5FFDF;" d="M87.519,101.248c-4.433-3.52-8.87-7.03-13.288-10.567c-0.545-0.437-1.095-0.872-1.645-1.306
							l-0.056,28.064c5,6.742,9.994,13.491,14.989,20.239V101.248z"/>
						<path style="fill:#F5FFDF;" d="M126.257,131.928c-2.588-2.069-5.181-4.133-7.782-6.186
							c-9.204-7.262-18.401-14.531-27.586-21.813v38.302c11.702,15.797,23.445,31.564,35.368,47.189V131.928z"/>
						<path style="fill:#FFFFFF;" d="M129.626,134.634v59.198c7.505,9.786,15.086,19.51,22.785,29.139l0.138-69.643
							C144.951,147.045,137.313,140.811,129.626,134.634z"/>
						<path style="fill:#D2FF8F;" d="M89.76,146.417c0.013-0.012,0.027-0.019,0.041-0.03c-5.765-7.775-11.521-15.558-17.282-23.334
							l-0.08,41.098C77.954,157.999,83.657,152.023,89.76,146.417z"/>
						<path style="fill:#F5FFDF;" d="M87.561,195.133c6.872-8.097,13.993-16.027,20.213-24.625
							c-5.337-7.12-10.654-14.255-15.956-21.4c-6.863,6.333-13.233,13.124-19.39,20.113l-0.045,22.752
							c2.154,4.742,4.133,9.58,6.058,14.441C81.414,202.599,84.432,198.82,87.561,195.133z"/>
						<path style="fill:#D2FF8F;" d="M109.877,173.32c-6.188,8.41-13.193,16.207-19.933,24.197
							c-3.456,4.098-6.787,8.298-10.072,12.537c2.996,7.667,5.922,15.352,9.213,22.788c5.234,11.822,10.583,23.596,16.212,35.232
							l24.322,14.014v-82.02c0-0.229,0.044-0.43,0.112-0.611C123.056,190.79,116.448,182.069,109.877,173.32z"/>
						<path style="fill:#F5FFDF;" d="M132.99,203.686v80.345l19.279,11.108l0.132-66.818
							C145.851,220.173,139.391,211.953,132.99,203.686z"/>
					</g>
					<g>
						<g>
							<path style="fill:#323232;" d="M150.55,106.227c0.143,0.082,3.816,2.24,3.808,6.656l-0.069,34.956l-0.328,162.921
								c-0.007,4.492-3.628,2.373-3.819,2.261l-18.814-10.842l-21.175-12.201l-35.824-20.642c-0.12-0.071-3.816-2.235-3.809-6.656
								l0.132-66.88l0.169-69.299l0.087-34.648l0.047-17.318l0.017-8.667c-0.043-1.45,0.101-2.897,0.969-3.46
								c0.787-0.521,1.986-0.245,3.129,0.415L92.71,73.035l17.376,9.969l34.747,19.929L150.55,106.227z M152.269,295.139
								l0.359-181.712L72.629,67.333l-0.358,181.711L152.269,295.139L152.269,295.139z M107.284,83.776
								c-0.33-0.189-0.596-0.036-0.597,0.335c-0.001,0.376,0.264,0.834,0.594,1.025l10.711,6.171
								c0.322,0.187,0.588,0.034,0.59-0.341c0-0.372-0.265-0.832-0.588-1.019L107.284,83.776L107.284,83.776z"/>
							<path style="fill:#111111;" d="M152.076,314.021c-0.945,0-1.874-0.497-2.136-0.65l-75.813-43.684
								c-0.413-0.242-4.019-2.484-4.01-7.007l0.132-66.88l0.32-129.932c-0.038-1.278,0.042-3.078,1.154-3.797
								c0.836-0.554,2.146-0.407,3.55,0.403l17.639,10.214l57.841,33.189c0.164,0.095,4.019,2.372,4.01,7.007l-0.397,197.876
								C154.36,313.597,152.929,314.021,152.076,314.021z M72.932,62.54c-0.304,0-0.562,0.07-0.767,0.205
								c-0.583,0.377-0.839,1.394-0.789,3.111l-0.452,196.826c-0.008,4.142,3.461,6.22,3.608,6.306l75.811,43.683
								c0.158,0.093,0.971,0.543,1.733,0.543c0.365,0,1.477,0,1.482-2.455l0.397-197.878c0.008-4.172-3.458-6.221-3.606-6.306
								l-5.717-3.292L92.508,73.386L74.869,63.172C74.162,62.764,73.474,62.54,72.932,62.54z M152.269,295.543
								c-0.07,0-0.14-0.018-0.201-0.055l-79.999-46.095c-0.125-0.072-0.202-0.206-0.202-0.35l0.358-181.711
								c0-0.144,0.077-0.277,0.202-0.349c0.125-0.072,0.279-0.072,0.404,0l79.998,46.094c0.126,0.072,0.203,0.206,0.203,0.351
								l-0.358,181.712c-0.001,0.144-0.077,0.277-0.203,0.348C152.408,295.525,152.339,295.543,152.269,295.543z M72.675,248.811
								l79.191,45.631l0.357-180.782L73.031,68.03L72.675,248.811z M118.252,91.791c-0.154,0-0.31-0.045-0.463-0.134l-10.71-6.171
								c-0.455-0.263-0.796-0.855-0.795-1.376c0.001-0.648,0.62-1.018,1.202-0.683l10.711,6.172c0.452,0.261,0.79,0.85,0.789,1.368
								C118.984,91.452,118.683,91.791,118.252,91.791z M107.101,84.138c0.026,0.27,0.196,0.542,0.382,0.65l10.683,6.155
								c-0.025-0.269-0.194-0.541-0.373-0.646L107.101,84.138z"/>
						</g>
					</g>
					<g>
						<g>
							<path style="fill:#252525;" d="M151.197,105.732c0.167,0.097,3.88,2.285,3.872,6.744l-0.071,35.379l-0.324,164.895
								c-0.009,4.55-3.696,2.386-3.891,2.271l-19.136-11.027l-21.536-12.407L73.68,270.594c-0.144-0.084-3.88-2.278-3.872-6.744
								l0.364-184.838l0.032-15.436c0.009-4.559,3.695-2.386,3.889-2.271l19.13,11.024l21.536,12.408L151.197,105.732z
								 M154.283,147.836l0.076-34.954c0.008-4.416-3.665-6.574-3.805-6.654l-5.72-3.297l-34.747-20.115L92.71,72.76l-17.371-9.967
								c-1.412-0.816-2.664-1.117-3.504-0.556c-0.907,0.584-1.037,2.112-0.995,3.554l-0.011,8.67l-0.028,17.33l-0.05,34.67
								L70.652,195.8l-0.132,66.88c-0.008,4.421,3.688,6.586,3.806,6.654l35.827,20.644l21.175,12.201l18.814,10.842
								c0.19,0.112,3.811,2.231,3.819-2.261L154.283,147.836L154.283,147.836z"/>
							<path style="fill:#111111;" d="M152.765,316.039c-0.973,0-1.919-0.513-2.186-0.669l-77.1-44.426
								c-0.167-0.097-4.083-2.412-4.074-7.094l0.396-200.275c0.005-2.864,1.448-3.291,2.309-3.291c0.971,0,1.92,0.515,2.188,0.673
								l77.1,44.426c0.169,0.097,4.085,2.423,4.075,7.094l-0.395,200.274C155.072,315.611,153.626,316.039,152.765,316.039z
								 M70.213,263.933c0.036,4.165,3.52,6.225,3.668,6.311l77.104,44.427c0.161,0.096,0.992,0.561,1.78,0.561
								c0.372,0,1.5,0,1.505-2.482l0.001-0.861c-0.331,1.827-1.471,2.132-2.195,2.132h0c-0.946,0-1.874-0.497-2.136-0.65
								l-75.815-43.686C73.975,269.598,70.805,267.716,70.213,263.933z M72.859,62.353c-0.317,0-0.579,0.073-0.801,0.22
								c-0.602,0.389-0.867,1.436-0.815,3.206L71.056,195.8l-0.132,66.881c-0.008,4.162,3.457,6.219,3.604,6.304l75.815,43.685
								c0.158,0.092,0.97,0.542,1.733,0.543c0.002,0,0.004,0,0.006,0c0.372,0,1.471-0.013,1.476-2.455l0.321-162.923l0.076-34.955
								c0.008-4.199-3.454-6.218-3.601-6.302l-5.723-3.298L92.508,73.109l-17.371-9.966C74.231,62.618,73.465,62.353,72.859,62.353z
								 M152.383,107.186c0.667,0.68,1.391,1.629,1.863,2.857C153.793,108.793,153.047,107.843,152.383,107.186z M72.109,61.091
								c-0.368,0-1.482-0.001-1.501,2.436c0.163-0.677,0.465-1.279,1.008-1.629c0.621-0.417,1.463-0.467,2.479-0.127l-0.203-0.118
								C73.729,61.558,72.896,61.091,72.109,61.091z"/>
						</g>
					</g>
				</g>
			</g>
			<g>
				<path style="fill:#737373;" d="M110.33,274.12c3.254,1.873,5.888,6.426,5.88,10.163c-0.007,3.731-2.653,5.241-5.906,3.366
					c-3.261-1.879-5.887-6.428-5.88-10.158C104.43,273.754,107.069,272.241,110.33,274.12z"/>
			</g>
		</g>
		<g>
			<polygon style="fill:#D4C4A9;" points="135.095,284.992 50.139,347.426 2.58,308.211 84.214,255.307 			"/>
			<path style="opacity:0.3;fill:#D38D61;" d="M88.475,273.104c5.114,1.146,10.216,3.514,13.207,8.008
				c3.63,5.457,3.842,12.818,2.362,19.026c-0.906,3.801-2.406,7.414-4.301,10.834l35.352-25.98l-50.881-29.684l-31.29,20.279
				C64.438,272.68,76.998,270.531,88.475,273.104z"/>
			<polygon style="fill:#785026;" points="135.095,284.992 50.139,347.426 135.095,306.67 			"/>
		</g>
		<g>
			<g>
				<g>
					<path style="fill:#B31E23;" d="M137.504,26.989c0-11.76-9.534-21.294-21.295-21.294c-11.76,0-21.294,9.535-21.294,21.294
						c0,3.265,0.737,6.357,2.05,9.123h-0.001l0.049,0.106c0.001,0,0.002,0.002,0.002,0.004l19.207,40.808l19.26-40.918l-0.026-0.006
						C136.768,33.342,137.504,30.251,137.504,26.989z"/>
					<path style="fill:#FFFFFF;" d="M116.223,77.433c-0.157,0-0.299-0.09-0.365-0.232L96.599,36.283
						c-1.385-2.92-2.086-6.048-2.086-9.294c0-11.964,9.733-21.698,21.697-21.698c11.964,0,21.698,9.734,21.698,21.698
						c0,3.201-0.682,6.283-2.028,9.165c-0.003,0.044-0.013,0.089-0.033,0.129l-19.259,40.917
						C116.522,77.342,116.38,77.433,116.223,77.433z M116.21,6.098c-11.519,0-20.89,9.372-20.89,20.891
						c0,3.127,0.677,6.138,2.011,8.95l0.051,0.112l18.842,40.031l18.836-40.019c0.002-0.045,0.014-0.089,0.033-0.13
						c1.333-2.808,2.009-5.817,2.009-8.943C137.101,15.47,127.729,6.098,116.21,6.098z"/>
				</g>
				<path style="fill:#EE1927;" d="M135.827,27.319c0-11.413-8.783-20.664-19.618-20.664c-10.833,0-19.616,9.252-19.616,20.664
					c0,3.168,0.679,6.169,1.888,8.851l-0.001,0.001l0.045,0.103c0.001,0.002,0.001,0.004,0.002,0.004l17.695,31.089l17.741-31.196
					l-0.024-0.004C135.148,33.484,135.827,30.486,135.827,27.319z"/>
				<path style="fill:#FFFFFF;" d="M130.316,24.874c0,7.791-6.316,14.106-14.107,14.106c-7.79,0-14.106-6.315-14.106-14.106
					s6.316-14.106,14.106-14.106C124.001,10.768,130.316,17.083,130.316,24.874z"/>
			</g>
		</g>
		<path style="opacity:0.3;fill:#D38D61;" d="M72.271,286.063c0,0-24.802,14.297-18.193,19.77
			c6.609,5.473,44.643-10.164,44.643-10.164s-5.229,9.732,4.525,7.646c9.754-2.086,27.682-10.546,24.709-18.495
			c-2.973-7.949-32.484,3.985-32.484,3.985S97.868,275.915,72.271,286.063z"/>
		<g>
			<g>
				<path style="fill:#D38D61;" d="M80.371,218.222c0,0-0.803,11.173-7.45,15.2c1.883,2.02,2.435,3.362,2.435,3.362
					s10.095-2.224,9.748-15.623C82.391,219.98,80.371,218.222,80.371,218.222z"/>
				<g>
					<path style="fill:#383838;" d="M70.788,238.207c0.362,0.934,0.764,1.273-0.434,1.545c-1.199,0.271-1.719-0.613-2.535-2.044
						c-0.815-1.431-1.146-1.733-2.153-1.231c-0.328,0.164-0.642,0.237-0.921,0.271c0.536-2.18,2.67-3.745,5.312-2.962
						c0.221-1.242,2.333-1.342,3.981,0.853c1.647,2.194,1.485,3.26,1.485,3.26c-0.804,0.792-2.233,0.605-2.625,1.102
						C72.188,238.405,71.37,238.212,70.788,238.207z"/>
					<path style="opacity:0.5;fill:#383838;" d="M65.234,235.558c0.153,0.096,0.316,0.17,0.491,0.213
						c0.46,0.115,0.958,0.133,1.399,0.302c0.61,0.234,0.866,0.832,1.224,1.311c0.285,0.383,0.649,0.853,1.075,1.093
						c1.308,0.741,0.332-2.485,0.272-2.914c-0.093-0.651-0.16-1.498-0.701-1.967c0.342,0.023,0.696,0.082,1.061,0.19
						c0.01-0.059,0.029-0.112,0.046-0.165c0.585,0.844,1.356,1.824,2.347,2.051c0.916,0.209,1.684-0.199,1.496-1.145
						c0.03,0.038,0.062,0.072,0.092,0.112c1.647,2.194,1.485,3.26,1.485,3.26c-0.804,0.792-2.233,0.605-2.625,1.102
						c-0.709-0.596-1.528-0.789-2.109-0.794c0.362,0.934,0.764,1.273-0.434,1.545c-1.199,0.271-1.719-0.613-2.535-2.044
						c-0.815-1.431-1.146-1.733-2.153-1.231c-0.328,0.164-0.642,0.237-0.921,0.271C64.849,236.322,65.016,235.923,65.234,235.558z"
						/>
					<path style="fill:#2B2B2B;" d="M64.745,236.748c0.28-0.034,0.594-0.108,0.921-0.271c1.006-0.502,1.337-0.2,2.153,1.231
						c0.816,1.432,1.336,2.315,2.535,2.044c1.198-0.272,0.796-0.61,0.434-1.545c0.581,0.005,1.4,0.198,2.109,0.794
						c-0.07,0.087-0.11,0.191-0.107,0.331c0.028,0.927,0.113,1.913-3.225,2.8c-3.338,0.888-5.177-2.259-4.934-4.755
						C64.653,237.163,64.694,236.953,64.745,236.748z"/>
					<path style="fill:#2B2B2B;" d="M72.088,239.716c-0.509-0.207-1.021,0.158-1.379,0.461c-1.081,0.918-1.409,0.073-2.194-0.481
						c-1.173-0.83-1.527,0.887-1.608,2.235c-1.62-0.804-2.443-2.833-2.275-4.554c0.021-0.214,0.063-0.424,0.113-0.629
						c0.28-0.034,0.594-0.108,0.921-0.271c1.006-0.502,1.337-0.2,2.153,1.231c0.816,1.432,1.336,2.315,2.535,2.044
						c1.198-0.272,0.796-0.61,0.434-1.545c0.581,0.005,1.4,0.198,2.109,0.794c-0.07,0.087-0.11,0.191-0.107,0.331
						c0.009,0.284,0.021,0.575-0.059,0.865C72.568,239.996,72.361,239.829,72.088,239.716z"/>
				</g>
				<path d="M69.972,236.024c0.47,0.757,0.813,1.609,1.027,2.472c0.023,0.09-0.161-0.017-0.177-0.071
					c-0.271-0.836-0.565-1.632-0.952-2.423C69.836,235.932,69.954,235.996,69.972,236.024z"/>
			</g>
			<path style="fill:#006B9B;" d="M82.724,224.925c-0.109-1.765-0.226-3.529-0.356-5.292c-0.255-3.47-0.59-6.839-1.437-10.223
				c-0.219-0.874-0.483-1.735-0.694-2.608c-0.09-0.374-0.199-0.749-0.238-1.133c-0.01-0.095-0.005-0.285-0.016-0.48
				c-3.3,1.77-4.825,5.185-5.964,8.773c-0.145,0.905-0.266,1.809-0.365,2.721c-0.072,0.673-0.113,1.401-0.334,2.044
				c-0.313,0.915-0.478,1.878-0.788,2.79c-0.101,0.294-0.169,0.625-0.262,0.944c0.097,0.068,0.192,0.137,0.287,0.204
				c1.195,0.835,2.609,1.408,3.969,1.915c2.043,0.761,4.147,1.423,6.299,1.773C82.808,225.878,82.754,225.403,82.724,224.925z"/>
			<path style="fill:#006B9B;" d="M83.414,204.594c-0.582-0.146-1.398,0.958-1.795,1.31c-0.053,0.048-0.075-0.001-0.07-0.06
				c-0.12,0.124-0.237,0.251-0.354,0.378c-0.384,1.504-0.849,2.989-1.015,4.54c-0.23,2.151-0.123,4.26,0.043,6.409
				c0.199,2.578,0.415,5.167,0.835,7.72c1.774,0.628,3.591,1.16,5.444,1.462c-0.019-0.475-0.072-0.949-0.103-1.428
				c-0.11-1.765-0.225-3.529-0.356-5.292c-0.255-3.47-0.589-6.839-1.438-10.223c-0.219-0.874-0.48-1.735-0.692-2.608
				c-0.091-0.374-0.2-0.749-0.239-1.133C83.65,205.441,83.725,204.672,83.414,204.594z"/>
			<g>
				<path style="fill:#FF9520;" d="M119.309,291.72c1.488-3.262,3.048-7.378,3.696-9.125c0.992,0.759,1.107,1.53-0.145,3.922
					c-2.264,5.284-2.503,9.146-5.742,10.704c-4.133,1.563-7.349,0.999-8.315-0.105c-0.106-0.121-0.193-0.229-0.268-0.33
					C114.927,297.289,117.46,295.772,119.309,291.72z"/>
				<path style="fill:#FFEA20;" d="M108.535,296.785c-0.597-0.825-0.094-1.216,2.123-4.602c2.306-3.525,3.084-6.109,3.084-6.109
					s4.317-3.75,5.69-6.519c0.619,0.907,2.204,2.081,3.374,2.894c0.069,0.049,0.137,0.096,0.199,0.145
					c-0.648,1.747-2.208,5.864-3.696,9.125C117.46,295.772,114.927,297.289,108.535,296.785z"/>
				<path style="fill:#FFCA20;" d="M114.061,294.499c1.672-1.247,3.829-3.546,4.311-5.676c0.458-2.013-1.503-2.305-2.974-1.618
					c-1.038,0.483-1.999,1.117-2.915,1.819c0.911-1.802,1.258-2.949,1.258-2.949s4.317-3.75,5.69-6.519
					c0.619,0.907,2.204,2.081,3.374,2.894c0.069,0.049,0.137,0.096,0.199,0.145c-0.648,1.747-2.208,5.864-3.696,9.125
					c-1.848,4.052-4.382,5.569-10.774,5.065c-0.376-0.519-0.314-0.868,0.335-1.899C110.434,295.86,112.293,295.818,114.061,294.499z
					"/>
			</g>
			<g>
				<path style="fill:#006B9B;" d="M106.163,264.732c0.634-2.161,0.803-2.954-1.122-3.38c0.549-3.307,0.874-6.131,1.047-8.53
					c0.602-8.315,1.118-14.451,1.118-14.451c-1.213,0.926-5.623,1.399-6.917,1.983c-8.439,3.811-17.61,0.242-22.371-0.112
					c-8.411,15.034-5.56,32.379-3.592,46.828c4.883,1.411,9.475,0.401,11.423-0.177c0.008-3.345-0.034-10.077-0.43-17.069
					c2.337-1.719,0.566-3.161,0.566-3.161s1.79-8.15,4.54-10.342c3.293,16.802,13.434,24.742,21.542,29.632
					c3.718-1.981,5.958-6.285,6.75-8.048C116.038,274.872,110.307,268.506,106.163,264.732z"/>
				<path style="fill:#006B9B;" d="M99.843,274.022c-4.295-5.555-7.551-12.457-8.656-19.454c-0.383,0.628-0.716,1.296-1.009,1.968
					c0.082-0.078,0.165-0.15,0.248-0.216c3.293,16.802,13.434,24.742,21.542,29.632c0.307-0.163,0.601-0.348,0.888-0.541
					C108.206,281.959,103.407,278.63,99.843,274.022z"/>
				<path style="fill:#006B9B;" d="M74.207,278.537c-0.662-5.168-0.976-10.333-0.563-15.535c0.405-5.086,1.068-10.258,2.776-15.09
					c0.909-2.57,2.044-5.039,3.322-7.433c-0.661-0.111-1.273-0.197-1.824-0.237c-8.411,15.034-5.56,32.379-3.592,46.828
					c0.356,0.105,0.711,0.192,1.064,0.272C74.885,284.414,74.577,281.439,74.207,278.537z"/>
				<path style="fill:#205C8E;" d="M85.749,286.893c-0.004,1.386-0.017,2.196-0.017,2.196s-6.199,2.315-11.168-0.249
					c-0.08-0.592-0.16-1.182-0.239-1.771C79.21,288.48,83.802,287.471,85.749,286.893z"/>
				<path style="opacity:0.5;fill:#006B9B;" d="M106.163,264.732c0.634-2.161,0.803-2.954-1.122-3.38
					c0.549-3.307,0.874-6.131,1.047-8.53c0.602-8.315,1.118-14.451,1.118-14.451c-1.213,0.926-5.623,1.399-6.917,1.983
					c-8.439,3.811-17.61,0.242-22.371-0.112c-0.319,0.57-0.615,1.145-0.902,1.721c3.647,2.408,7.804,3.445,12.193,3.245
					c2.44-0.112,4.911-0.384,7.267-1.05c2.399-0.679,4.744-1.528,7.2-1.989c0.309-0.058,0.539,0.24,0.58,0.506
					c0.341,2.233-1.283,4.255-2.512,5.959c-0.602,0.837-1.214,1.67-1.838,2.492c0.412-0.124,0.797-0.212,1.14-0.249
					c0.329-0.035,0.673,0.317,0.57,0.653c-0.598,1.962-1.79,3.583-2.752,5.371c-0.661,1.23-1.676,2.59-2.09,4.001
					c1.078-0.754,1.985-1.822,2.902-2.721c0.299-0.293,0.758-0.215,0.923,0.178c1.365,3.272,0.769,7.288,2.736,10.327
					c1.021,1.579,2.504,2.92,3.813,4.262c1.349,1.382,2.719,2.747,4.16,4.033c0.935,0.835,2.182,1.607,2.516,2.906
					c0.227,0.881,0.214,1.756,0.129,2.659c-0.051,0.556-0.114,1.425-0.294,2.275c2.712-2.185,4.395-5.439,5.058-6.916
					C116.038,274.872,110.307,268.506,106.163,264.732z"/>
				<path style="opacity:0.5;fill:#006B9B;" d="M107.206,238.371c-0.349,0.265-0.96,0.494-1.684,0.699
					c0.012,1.21-0.097,2.432-0.141,3.656c-0.087,2.49-0.13,4.972-0.401,7.452c-0.499,4.596-1.182,9.169-1.734,13.762
					c0.136-0.236,0.277-0.47,0.429-0.697c0.219-0.328,0.686-0.434,0.938-0.064c3.893,5.716,8.503,10.925,13.815,15.345
					c0.111-0.228,0.208-0.436,0.289-0.618c-2.681-3.033-8.411-9.398-12.556-13.173c0.634-2.161,0.803-2.954-1.122-3.38
					c0.549-3.307,0.874-6.131,1.047-8.53C106.69,244.507,107.206,238.371,107.206,238.371z"/>
				<path style="opacity:0.5;fill:#006B9B;" d="M103.677,242.169c0.309-0.058,0.539,0.24,0.58,0.506
					c0.016,0.104,0.024,0.208,0.031,0.313c0.003-0.063,0.005-0.125,0.009-0.188c0.057-1.145,0.167-2.309,0.164-3.461
					c-1.617,0.375-3.419,0.677-4.171,1.017c-8.439,3.811-17.61,0.242-22.371-0.112c-0.319,0.57-0.615,1.145-0.902,1.721
					c3.647,2.408,7.804,3.445,12.193,3.245c2.44-0.112,4.911-0.384,7.267-1.05C98.876,243.479,101.221,242.63,103.677,242.169z"/>
				<path style="opacity:0.5;fill:#006B9B;" d="M85.886,266.663c0,0,1.782-8.115,4.524-10.328c0.896-1.607,2.191-2.946,3.601-4.185
					c-0.06,0.035-0.12,0.07-0.177,0.104c-4.2,2.503-8.703,1.233-12.952-0.379c0.475,0.421,0.967,0.825,1.447,1.252
					c0.713,0.634,1.643,1.394,1.857,2.383c0.21,0.974,0.064,1.826-0.216,2.776c-0.353,1.193-0.602,2.407-0.9,3.616
					c-0.854,3.449-1.882,6.904-3.443,10.103c0.914-0.979,1.809-1.976,2.771-2.905c0.348-0.336,0.887-0.168,0.953,0.321
					c0.2,1.5-0.01,2.984-0.191,4.476c-0.222,1.834-0.232,3.673-0.306,5.516c-0.106,2.715-0.276,5.479-0.569,8.2
					c1.479-0.186,2.683-0.487,3.464-0.719c0.008-3.345-0.034-10.077-0.43-17.069C87.657,268.105,85.886,266.663,85.886,266.663z"/>
			</g>
			<path style="fill:#FF3028;" d="M98.363,202.04c0,0,10.894,0.958,9.552,21.632c0,0,0.146,11.276,0.281,14.632
				c0.149,3.806-20.099,7.349-31.479,3.032c-0.191-8.416-0.327-31.883,2.104-35.238c2.432-3.354,3.753-2.835,3.753-2.835
				L98.363,202.04z"/>
			<path style="fill:#FF3028;" d="M77.902,226.014c0.037-0.46,0.768-0.591,0.983-0.196c1.278,2.342,2.057,5.395,3.899,7.479
				c-1.034-2.197-2.324-4.266-3.049-6.631c-0.869-2.838-1.48-5.801-1.715-8.761c-0.248-3.127-0.035-6.119,0.587-9.188
				c0.225-1.113,0.454-2.241,0.768-3.341c-0.178,0.218-0.363,0.457-0.555,0.722c-2.431,3.354-2.295,26.821-2.104,35.238
				c0.31,0.119,0.628,0.229,0.952,0.335C76.984,236.505,77.492,231.202,77.902,226.014z"/>
			<path style="fill:#B23028;" d="M107.915,223.672c1.341-20.674-9.552-21.632-9.552-21.632l-15.79,1.223
				c0,0-0.577-0.227-1.666,0.585c0.013,0.033,0.024,0.068,0.031,0.107c0.238,1.217,0.686,2.735,1.994,3.194
				c1.428,0.503,3.511,0.124,4.369-1.224c0.3-0.472,0.932-0.342,1.03,0.206c0.539,3,4.618,1.36,6.105,0.094
				c0.316-0.268,0.838,0.029,0.849,0.415c0.06,2.119-0.181,4.31-0.644,6.476c-0.938,5.988-3.002,11.77-5.849,17.13
				c0.141-0.087,0.286-0.165,0.427-0.253c2.443-1.528,4.686-3.299,6.749-5.312c0.357-0.35,0.869-0.154,0.953,0.321
				c1.059,5.984-3.688,12.65-9.513,13.938c-3.165,0.7-6.655-0.379-9.084-2.478c-0.621-0.534-1.18-1.118-1.696-1.735
				c0.013,2.62,0.05,4.919,0.088,6.61c11.38,4.317,31.629,0.774,31.479-3.032C108.062,234.948,107.915,223.672,107.915,223.672z"/>
			<path style="fill:#B23028;" d="M107.915,223.672c1.127-17.372-6.382-20.821-8.81-21.481c-2.925,2.275-3.395,6.758-3.172,10.444
				c0.276,4.599,0.928,9.172,1.521,13.746c1.318-0.291,2.644-0.54,3.99-0.694c0.196-0.023,0.422,0.16,0.46,0.349
				c0.67,3.43,0.67,8.182-2.003,10.862c-2.527,2.534-6.631,3.774-10.069,4.343c-3.613,0.598-9.283,0.908-13.138-1.035
				c0.008,0.398,0.016,0.779,0.024,1.129c11.38,4.317,31.629,0.774,31.479-3.032C108.062,234.948,107.915,223.672,107.915,223.672z"
				/>
			<path style="fill:#383838;" d="M97.373,199.753c0,0,2.776,2.85,0.368,4.304c-2.407,1.454-5.369,3.705-7.311,1.938
				c-1.942-1.766-2.151-3.728-2.151-3.728s-0.309,3.288-2.708,3.753c-2.398,0.467-4.125-1.466-3.895-3.685
				C88.14,200.227,97.373,199.753,97.373,199.753z"/>
			<path style="opacity:0.5;fill:#383838;" d="M86.533,204.415c-0.503-0.753-1.791-0.819-2.569-0.645
				c-0.755,0.17-1.096,0.764-1.244,1.489c-0.754-0.702-1.165-1.772-1.045-2.923c6.464-2.109,15.698-2.583,15.698-2.583
				s2.228,2.289,0.956,3.811c-0.56-0.544-1.182-1.021-1.943-1.07c-1.364-0.089-3.125,0.289-4.223,1.146
				c-0.874,0.684-0.978,1.76-0.781,2.889c-0.337-0.1-0.657-0.266-0.952-0.535c-1.942-1.766-2.151-3.728-2.151-3.728
				s-0.195,2.022-1.438,3.118C86.819,205.048,86.735,204.718,86.533,204.415z"/>
			<path style="fill:#383838;" d="M88.332,202.494c0,0-1.754,8.288-1.9,9.025c1.027,0.294,1.009,0.436,1.009,0.436l1.38-8.128
				L88.332,202.494z"/>
			<path style="fill:#383838;" d="M88.707,211.109c0.027,0.397,0.372,0.698,0.771,0.671c0.398-0.027,0.699-0.371,0.672-0.77
				c-0.027-0.398-0.372-0.7-0.771-0.673C88.981,210.365,88.68,210.71,88.707,211.109z"/>
			<path style="fill:#205C8E;" d="M118.718,277.905c0.932,1.056,1.499,1.71,1.499,1.71s-1.705,4.465-6.178,7.557
				c-0.67-0.385-1.364-0.791-2.07-1.218C115.686,283.972,117.926,279.668,118.718,277.905z"/>
			<g>
				<path style="fill:#D38D61;" d="M57.087,181.935c0,0-3.4-0.811-2.972,3.323c0.429,4.134,5.676,5.861,5.896,3.615
					C58.398,185.935,57.087,181.935,57.087,181.935z"/>
				<path style="opacity:0.4;fill:#D38D61;" d="M57.087,181.935c0,0-3.4-0.811-2.972,3.323c0.429,4.134,5.676,5.861,5.896,3.615
					C58.398,185.935,57.087,181.935,57.087,181.935z"/>
				<g>
					<path style="fill:#D38D61;" d="M56.124,173.161c0.25,2.777,2.971,4.498,2.971,4.498s-1.855-5.844,5.076-6.63
						c4.653,0.256,7.962,1.301,11.601-0.277c1.278-0.556,2.56-2.419,3.688-4.603c4.631-0.074,9.491-0.086,14.267-0.022
						c-0.006,4.161,1.289,12.773,10.947,19.759c2.568-6.53,8.917-6.625,8.001,1.242c-1.076,3.864-4.819,4.564-6.62,2.678
						c-1.024,4.642-3.434,6.923-5.948,9.324c-5.465,3.27-19.344,7.444-32.006-0.062c-8.34-6.237-11.544-12.376-12.649-22.114
						l1.206,0.298C56.655,177.251,55.173,175.066,56.124,173.161z"/>
					<path style="fill:#760019;" d="M52.409,167.977c1.764-0.867,13.42-1.612,27.05-1.828c-1.128,2.183-2.41,4.047-3.688,4.603
						c-3.639,1.579-6.947,0.534-11.601,0.277c-6.931,0.786-5.076,6.63-5.076,6.63s-2.721-1.721-2.971-4.498
						c-0.951,1.906,0.531,4.091,0.531,4.091l-1.206-0.298c-1.488-0.569-2.73-2.597-3.23-3.982c0.18,1.446,0.665,3.236,0.665,3.236
						S46.677,171.281,52.409,167.977z"/>
					<g style="opacity:0.5;">
						<path style="fill:#760019;" d="M52.308,170.982c0.545,1.217,1.108,2.406,2.292,3.126c0.115,0.07,0.172-0.031,0.165-0.136
							c-0.075-1.163-0.137-2.358,0.54-3.352c0.821,1.222,1.907,2.226,2.313,3.693c0.046,0.167,0.322,0.307,0.296,0.04
							c-0.119-1.213,0.465-2.265,0.525-3.445c0.024-0.462-0.006-0.992-0.343-1.35c-0.969-1.026-2.598-0.996-3.916-0.976
							c-0.905,0.014-2.049,0.122-3.129,0.408c0.35-0.35,0.795-0.69,1.357-1.014c1.764-0.867,13.42-1.612,27.05-1.828
							c-1.128,2.183-2.41,4.047-3.688,4.603c-3.639,1.579-6.947,0.534-11.601,0.277c-6.931,0.786-5.076,6.63-5.076,6.63
							s-2.721-1.721-2.971-4.498c-0.951,1.906,0.531,4.091,0.531,4.091l-1.206-0.298c-1.488-0.569-2.73-2.597-3.23-3.982
							c0.18,1.446,0.665,3.236,0.665,3.236s-0.54-0.43-1.155-1.12C51.433,173.591,51.303,172.149,52.308,170.982z"/>
					</g>
					<path style="opacity:0.78;fill:#D38D61;" d="M88.382,192.23c0,0-7.744,5.669-16.823,2.992
						c1.969,3.262,8.204,7.211,14.015,4.914C91.386,197.84,88.382,192.23,88.382,192.23z"/>
					<g style="opacity:0.5;">
						<path style="fill:#D38D61;" d="M55.45,176.953c1.105,9.738,4.309,15.877,12.649,22.114
							c12.662,7.506,26.541,3.332,32.006,0.062c2.514-2.4,4.924-4.682,5.948-9.324c1.801,1.885,5.544,1.186,6.62-2.678
							c0.916-7.867-5.433-7.772-8.001-1.242c-9.658-6.986-10.953-15.598-10.947-19.759c-4.776-0.064-9.635-0.051-14.267,0.022
							c-1.128,2.183-2.41,4.047-3.688,4.603c-3.639,1.579-6.947,0.534-11.601,0.277c-6.931,0.786-5.076,6.63-5.076,6.63
							s-2.721-1.721-2.971-4.498c-0.951,1.906,0.531,4.091,0.531,4.091L55.45,176.953z M57.401,178.052c0,0,0.559,0.608,2.717,1.887
							c-1.017-3.557-0.591-6.823,7.736-6.223c11.209,1.055,22.551-1.657,22.551-1.657s1.785,5.318,8.358,12.514
							c6.573,7.196-0.35,17.764-16.036,17.532C59.014,199.957,57.401,178.052,57.401,178.052z"/>
					</g>
				</g>
				<g>
					<path style="opacity:0.78;fill:#D38D61;" d="M83.639,182.66c0.078,1.149,1.078,2.024,2.233,1.946
						c1.155-0.079,2.022-1.082,1.944-2.23c-0.078-1.156-1.073-2.028-2.227-1.949C84.434,180.505,83.561,181.504,83.639,182.66z"/>
					<path style="fill:#454444;" d="M83.999,182.636c0.064,0.951,0.894,1.673,1.849,1.608c0.956-0.064,1.677-0.892,1.612-1.844
						c-0.064-0.954-0.89-1.68-1.847-1.615C84.659,180.85,83.934,181.681,83.999,182.636z"/>
					<path style="fill:#1D1D1B;" d="M84.751,182.597c0.038,0.56,0.521,0.983,1.082,0.945c0.561-0.039,0.981-0.523,0.944-1.082
						c-0.038-0.565-0.52-0.987-1.081-0.949C85.134,181.548,84.712,182.033,84.751,182.597z"/>
					<path style="fill:#F1F1F1;" d="M85.898,182.156c0.019,0.28,0.262,0.492,0.544,0.473c0.281-0.019,0.493-0.262,0.474-0.542
						c-0.02-0.285-0.263-0.499-0.544-0.48C86.09,181.626,85.878,181.871,85.898,182.156z"/>
					<path style="fill:#F1F1F1;" d="M84.455,183.434c0.011,0.155,0.148,0.271,0.304,0.26c0.153-0.01,0.271-0.142,0.261-0.298
						c-0.01-0.156-0.146-0.271-0.299-0.26C84.566,183.146,84.444,183.277,84.455,183.434z"/>
				</g>
				<g>
					<path style="opacity:0.78;fill:#D38D61;" d="M62.791,182.511c0.078,1.149,1.078,2.025,2.232,1.947
						c1.156-0.079,2.024-1.081,1.945-2.229c-0.077-1.156-1.073-2.028-2.228-1.95C63.586,180.357,62.713,181.356,62.791,182.511z"/>
					<path style="fill:#454444;" d="M63.15,182.487c0.064,0.951,0.895,1.673,1.849,1.608c0.956-0.065,1.678-0.892,1.614-1.843
						c-0.065-0.956-0.893-1.681-1.848-1.615C63.81,180.702,63.085,181.531,63.15,182.487z"/>
					<path style="fill:#1D1D1B;" d="M63.902,182.447c0.037,0.56,0.521,0.984,1.083,0.945c0.561-0.038,0.982-0.522,0.944-1.082
						c-0.038-0.563-0.52-0.987-1.081-0.949C64.285,181.4,63.863,181.885,63.902,182.447z"/>
					<path style="fill:#F1F1F1;" d="M65.049,182.007c0.019,0.281,0.263,0.493,0.545,0.474c0.279-0.019,0.492-0.262,0.473-0.542
						c-0.019-0.285-0.263-0.498-0.542-0.479C65.243,181.479,65.03,181.721,65.049,182.007z"/>
					<path style="fill:#F1F1F1;" d="M63.606,183.285c0.01,0.155,0.15,0.27,0.304,0.26c0.153-0.011,0.271-0.143,0.261-0.298
						c-0.011-0.156-0.146-0.27-0.299-0.259C63.718,182.997,63.596,183.128,63.606,183.285z"/>
				</g>
				<path style="fill:#760019;" d="M106.053,189.805c1.801,1.885,5.544,1.186,6.62-2.678c0.916-7.867-5.433-7.772-8.001-1.242
					c-9.658-6.986-10.953-15.598-10.947-19.759c13.963,0.189,27.217,1.036,31.998,2.944c0,0,4.754,2.688,4.688,3.363
					c-0.066,0.673-3.115,0.098-3.115,0.098s1.83,2.33,1.764,3.003c-0.066,0.674-2.732-0.818-2.732-0.818s2.358,5.193,0.216,8.126
					c-0.651,0.267-2.158-3.869-2.158-3.869s0.571,6.765-2.506,9.091c-0.555,0.038-0.667-1.627-0.667-1.627
					s-0.897,11.434-21.108,12.692C102.619,196.729,105.029,194.447,106.053,189.805z"/>
				<g style="opacity:0.5;">
					<path style="fill:#760019;" d="M106.053,189.805c1.801,1.885,5.544,1.186,6.62-2.678c0.916-7.867-5.433-7.772-8.001-1.242
						c-9.658-6.986-10.953-15.598-10.947-19.759c13.963,0.189,27.217,1.036,31.998,2.944c0,0,4.754,2.688,4.688,3.363
						c-0.066,0.673-3.115,0.098-3.115,0.098s1.83,2.33,1.764,3.003c-0.002,0.014-0.009,0.021-0.013,0.033
						c-0.249-0.229-0.501-0.451-0.76-0.667c-1.718-1.441-3.607-2.455-5.784-3.012c-1.278-0.327-3.224-0.854-4.445-0.068
						c-1.004,0.644-0.999,1.791-0.758,2.848c-1.387-1.951-3.546-3.283-5.793-4.062c-2.546-0.882-5.765-1.487-8.364-0.465
						c-2.064,0.811-3.35,2.557-3.28,4.8c0.068,2.216,1.488,4.173,3.152,5.52c0.061,0.049,0.166,0.092,0.199-0.013
						c1.888-5.896,8.969-2.447,10.717,1.723c0.388,0.928,0.695,2.119,0.396,3.117c-0.215,0.714-0.53,1.395-0.811,2.083
						c-0.505,1.238-1.388,2.979-0.878,4.344c0.376,1.008,1.551,0.924,2.193,0.254c1.206-1.255,1.855-3.095,2.467-4.69
						c0.369-0.96,0.714-1.93,1.074-2.893c0.108-0.289,0.778-1.634,0.69-1.766c0.96,1.434,2.051,3.772,3.843,4.331
						c-0.286,0.428-0.624,0.81-1.026,1.113c-0.555,0.038-0.667-1.627-0.667-1.627s-0.897,11.434-21.108,12.692
						C102.619,196.729,105.029,194.447,106.053,189.805z"/>
				</g>
				<path style="fill:#760019;" d="M86.411,177.401c0,0-3.814-3.046-5.391,0.626C81.606,173.857,85.358,172.125,86.411,177.401z"/>
				<path style="fill:#760019;" d="M65.736,176.411c0,0-3.748-2.05-5.292,0.184C61.018,173.513,64.267,170.771,65.736,176.411z"/>
				<g>
					<path style="fill:#810023;" d="M88.041,192.946c0,0-6.298,5.127-15.683,2.69c3.745,3.904,9.65,5.675,13.316,3.753
						C89.341,197.468,88.041,192.946,88.041,192.946z"/>
					<g>
						<path style="fill:#C4D8C1;" d="M79.293,196.196c5.42-0.543,8.749-3.25,8.749-3.25s0.301,1.055,0.202,2.363
							C83.69,198.308,80.641,197.105,79.293,196.196z"/>
						<path style="fill:#FFFFFF;" d="M79.725,196.136c5.035-0.505,8.127-3.019,8.127-3.019s0.281,0.981,0.188,2.195
							C83.81,198.099,80.978,196.982,79.725,196.136z"/>
						<path style="fill:#F19C99;" d="M82.302,200.16c-0.05-1.029,0.223-2.084,0.767-2.949c1.415-0.066,3.145-0.564,5.175-1.902
							c-0.107,1.399-0.672,3.087-2.569,4.081C84.686,199.907,83.53,200.149,82.302,200.16z"/>
						<path style="fill:#F19C99;" d="M86.207,198.51c0.207-0.226,1.026-1.358,0.3-1.563c-0.557-0.156-1.225,0.069-1.76,0.22
							c-0.647,0.184-1.278,0.374-1.925,0.491c0.075-0.154,0.154-0.305,0.246-0.447c1.415-0.066,3.145-0.564,5.175-1.902
							c-0.107,1.399-0.672,3.087-2.569,4.081c-0.989,0.518-2.145,0.76-3.373,0.771c-0.004-0.064-0.002-0.129-0.002-0.194
							C83.821,199.87,85.365,199.429,86.207,198.51z"/>
					</g>
				</g>
				<path style="fill:#E3BC84;" d="M107.655,185.6c-0.616,1.317-0.492,2.676,0.279,3.037c0.77,0.36,1.893-0.418,2.508-1.735
					c0.616-1.317,0.49-2.676-0.279-3.038C109.394,183.505,108.27,184.282,107.655,185.6z"/>
				<path style="fill:#F65A3E;" d="M101.508,147.404c-0.945-7.637-6.075-11.91-9.764-12.614c0.548-0.003,1.095-0.006,1.661,0.006
					c18.792,0.846,36.995,12.77,34.28,35.256c0,0-13.197-2.228-25.74-1.378C101.945,168.673,102.493,155.367,101.508,147.404z"/>
				<path style="fill:#FF3028;" d="M95.597,134.951c6.122,2.809,11.44,7.645,14.431,13.541c3.228,6.368,4.31,13.253,5.071,20.213
					c7.179,0.435,12.587,1.346,12.587,1.346C130.294,148.441,113.582,136.593,95.597,134.951z"/>
				<path style="fill:#006B9B;" d="M60.049,159.804c1.549-11.439,8.05-24.909,31.695-25.014c3.689,0.704,8.818,4.977,9.764,12.614
					c0.985,7.963,0.437,21.269,0.437,21.269S84.272,154.148,60.049,159.804z"/>
				<path style="fill:#006B9B;" d="M71.322,140.716c0.52-0.589,1.063-1.16,1.629-1.71c-8.734,4.904-11.885,13.288-12.901,20.798
					c1.984-0.463,3.921-0.785,5.811-0.995C66.048,152.446,66.974,145.662,71.322,140.716z"/>
				<path style="fill:#006B9B;" d="M101.508,147.404c-0.945-7.637-6.075-11.91-9.764-12.614c-3.517,0.015-6.649,0.33-9.448,0.886
					c3.558,0.897,6.282,3.396,6.708,8.266c0.3,3.434,0.265,7.357-0.36,10.765c-0.338,1.845-1.26,3.412-3.266,3.693
					c-2.51,0.352-5.151,0.207-7.756,0.164c0.742,0.151,2.271,0.465,3.764,0.973c12.578,2.589,20.559,9.137,20.559,9.137
					S102.493,155.367,101.508,147.404z"/>
				<g>
					<path style="fill:#FF3028;" d="M60.049,159.804c24.223-5.656,41.896,8.869,41.896,8.869s-19.043,3.43-24.68,3.971
						c-0.877,0.076-1.608,0.115-2.246,0.119c-1.211-0.253-2.563-0.691-3.839-1.448c-3.544-2.102-10.684-4.628-18.261-3.725
						c-3.808,0.455-5.908,0.765-7.103,0.567c-0.045-0.118-0.079-0.249-0.098-0.395C45.556,166.435,52.128,162.497,60.049,159.804z"
						/>
					<path style="fill:#FF3028;" d="M65.86,158.81c-1.89,0.21-3.827,0.531-5.811,0.995c-7.921,2.692-14.494,6.631-14.33,7.958
						c0.019,0.146,0.052,0.277,0.098,0.395c0.436,0.072,0.993,0.076,1.707,0.03c4.475-2.746,8.978-5.547,13.931-7.281
						c1.447-0.507,2.911-0.926,4.387-1.271C65.848,159.36,65.853,159.086,65.86,158.81z"/>
					<path style="fill:#FF3028;" d="M68.15,159.153c1.501-0.276,3.014-0.485,4.534-0.634c-1.467-0.041-2.974-0.017-4.518,0.081
						C68.161,158.785,68.156,158.97,68.15,159.153z"/>
					<path style="fill:#FF3028;" d="M81.386,159.537c2.547,0.869,4.966,2.3,3.097,4.442c-1.473,1.686-5.19,2.44-7.18,3.049
						c-3.141,0.961-6.416,1.693-9.716,1.701c-0.954,0.003-1.903-0.036-2.852-0.091c2.659,0.759,4.896,1.759,6.445,2.677
						c1.276,0.756,2.628,1.194,3.839,1.448c0.638-0.003,1.369-0.042,2.246-0.119c5.637-0.541,24.68-3.971,24.68-3.971
						S93.964,162.126,81.386,159.537z"/>
					<path style="fill:#006B9B;" d="M52.919,167.59c7.577-0.903,14.717,1.624,18.261,3.725c1.276,0.756,2.628,1.194,3.839,1.448
						c-3.109,0.016-3.88-0.833-7.559-2.311c-4.432-1.781-9.988-2.594-15.884-1.823c-3.997,0.535-5.385,0.48-5.76-0.471
						C47.012,168.355,49.111,168.045,52.919,167.59z"/>
				</g>
			</g>
			<g>
				<path style="fill:#FFEA20;" d="M70.224,291.699c3.625-1.361,4.748-3.443,4.748-3.443c5.315,1.646,9.893,0.073,9.893,0.073
					s0.337,0.571,0.429,4.134c0.009,0.345,0.001,0.656-0.015,0.952c-1.187,1.06-3.979,2.765-9.824,3.06
					c-6.442,0.324-8.647-0.306-9.754-1.116C65.867,293.935,66.978,292.918,70.224,291.699z"/>
				<path style="fill:#FFCA20;" d="M66.981,293.317c0.608,0.957,1.535,1.624,2.93,1.845c1.296,0.204,2.645,0.116,3.952,0.095
					c1.527-0.021,3.119-0.031,4.598-0.464c1.186-0.348,2.79-1.108,3.048-2.493c0.119-0.634-0.165-1.157-0.82-1.317
					c-1.17-0.289-2.428-0.194-3.62-0.392c-1.102-0.185-2.289-0.428-3.308-0.948c0.876-0.775,1.209-1.387,1.209-1.387
					c5.315,1.646,9.893,0.073,9.893,0.073s0.337,0.571,0.429,4.134c0.009,0.345,0.001,0.656-0.015,0.952
					c-1.187,1.06-3.979,2.765-9.824,3.06c-6.442,0.324-8.647-0.306-9.754-1.116C65.79,294.594,66.158,293.944,66.981,293.317z"/>
				<path style="fill:#FF9520;" d="M85.278,293.415c-0.148,2.761-1.459,3.517-5.501,4.327c-8.534,1.322-14.062-0.163-14.103-1.869
					c-0.004-0.178,0.005-0.348,0.025-0.514c1.107,0.81,3.313,1.44,9.754,1.116C81.3,296.18,84.092,294.475,85.278,293.415z"/>
			</g>
			<path style="fill:#FFEA20;" d="M111.817,291.032c0,0-2.999,3.074-1.234,3.489C112.348,294.937,114.194,288.666,111.817,291.032z"
				/>
			<g>
				<g>
					<path style="fill:#D38D61;" d="M102.247,222.138c3.776-1.574,7.842-0.813,7.842-0.813c6.967,17.433-9.875,22.403-9.875,22.403
						c-0.947-1.999-2.292-3.708-2.292-3.708C108.597,235.623,102.247,222.138,102.247,222.138z"/>
					<path style="fill:#383838;" d="M86.467,243.383c-0.048-1.499,1.43-2.387,4.323-3.51c2.325-0.901,3.85,0.506,3.85,0.506
						l1.383-1.696c0,0,0.704,0.176,1.898,1.338c0,0,1.345,1.709,2.292,3.708l0.533,1.281c0,0-0.232,0.282-2.675,1.113
						c0.339,3.737-1.858,3.921-1.858,3.921s-1.316,0.949-1.696,0.404c-1.387,0.893-2.021-0.12-2.021-0.12s-1.127,0.776-2.895,0.319
						C86.813,249.622,86.514,244.882,86.467,243.383z"/>
					<path style="opacity:0.5;fill:#383838;" d="M87.008,243.559c0.799,0.107,1.203-0.226,1.936-0.436
						c1.563-0.445,2.002,0.797,2.206,1.999c0.104,0.623,0.247,1.517,1.004,1.624c0.895,0.126,0.88-0.855,0.787-1.55
						c0.792,0.709,2.269,1.386,2.149,0.31c0.407,0.338,0.964,0.647,1.314,0.241c0.556-0.644,0.247-1.584-0.177-2.218
						c-1.069-1.599-2.631-3.054-4.406-3.922c1.341-0.176,2.294,0.381,2.656,0.643c0.193,0.298,0.386,0.595,0.588,0.883
						c0.585,0.837,1.522,2.434,2.692,2.525c1.33,0.106,0.482-1.818,0.145-2.291c-0.594-0.831-1.341-1.649-2.169-2.329l0.291-0.355
						c0,0,0.704,0.176,1.898,1.338c0,0,1.345,1.709,2.292,3.708l0.533,1.281c0,0-0.232,0.282-2.675,1.113
						c0.339,3.737-1.858,3.921-1.858,3.921s-1.316,0.949-1.696,0.404c-1.387,0.893-2.021-0.12-2.021-0.12s-1.127,0.776-2.895,0.319
						c-2.767-1.019-3.082-5.691-3.132-7.227C86.644,243.484,86.823,243.535,87.008,243.559z"/>
				</g>
				<g>
					<path d="M95.959,250.103c0.239-0.539,0.519-0.987,0.656-1.572c0.124-0.524,0.295-1.133,0.133-1.664
						c-0.013-0.045,0.082-0.001,0.092,0.026c0.215,0.553,0.059,1.152-0.042,1.715c-0.096,0.541-0.309,1.181-0.705,1.571
						C96.058,250.215,95.937,250.15,95.959,250.103z"/>
					<path d="M94.29,250.469c0.348-0.444,0.631-0.877,0.813-1.415c0.194-0.574,0.35-1.434,0.139-2.022
						c-0.015-0.037,0.067,0.001,0.076,0.021c0.521,1.053-0.049,2.752-0.842,3.525C94.427,250.626,94.249,250.521,94.29,250.469z"/>
					<path d="M92.077,250.502c0.412-0.515,0.64-1.058,0.78-1.7c0.124-0.552,0.27-1.231,0.104-1.786c-0.012-0.044,0.08,0,0.09,0.025
						c0.219,0.577,0.084,1.244-0.018,1.835c-0.108,0.631-0.348,1.252-0.789,1.723C92.202,250.647,92.04,250.546,92.077,250.502z"/>
				</g>
				<path style="fill:#006B9B;" d="M97.886,203.379c0,0-2.377,2.269-1.119,7.036c1.258,4.767,1.918,14.281,1.918,14.281
					l13.599-2.119c0,0-1.173-7.091-3.863-13.498C105.729,202.671,100.612,201.333,97.886,203.379z"/>
				<path style="fill:#006B9B;" d="M97.886,203.379c0,0-0.092,0.089-0.231,0.267c0.9-0.463,2.011-0.538,3.303,0.002
					c3.661,1.533,4.824,5.602,5.968,9.051c0.425,1.284,0.855,2.567,1.229,3.866c0.281,0.976,0.688,2.018,0.723,3.04
					c0.057,1.596-1.765,2.341-3.014,2.768c-1.453,0.498-2.808,1.202-4.162,1.853l10.582-1.648c0,0-1.173-7.091-3.863-13.498
					C105.729,202.671,100.612,201.333,97.886,203.379z"/>
			</g>
			<g>
				<path style="fill:#5A5656;" d="M67.215,238.071c-1.088,0.13-3.306,0.639-5.065,2.639c-2.142,2.438-20.477,25.328-21.256,26.302
					l1.259,1.009c0.191-0.238,19.093-23.835,21.21-26.245c1.462-1.664,3.366-2.029,4.14-2.11
					C67.604,239.134,67.455,238.569,67.215,238.071z"/>
				<g>
					<g>
						<path style="fill:#383838;" d="M19.076,297.242c2.071-5.146,7.371-7.863,11.836-6.065c4.465,1.798,6.404,7.428,4.332,12.575
							c-2.07,5.146-7.37,7.861-11.834,6.065C18.945,308.019,17.004,302.39,19.076,297.242z"/>
						<path style="opacity:0.5;fill:#383838;" d="M21.178,306.375c1.068-1.332,0.026-2.824-0.072-4.289
							c-0.164-2.454,0.848-5.205,2.816-6.742c1.552-1.211,3.346-1.404,5.218-1.747c1.114-0.203,2.807-0.414,3.018-1.766
							c3.557,2.266,4.953,7.283,3.086,11.919c-2.07,5.146-7.37,7.861-11.834,6.065c-1.506-0.608-2.717-1.657-3.591-2.969
							C20.355,306.886,20.859,306.772,21.178,306.375z"/>
						<g>
							<path style="fill:#595959;" d="M30.13,301.554c1.126-2.798,0.401-5.729-1.614-6.591c0.578-0.069,1.152-0.009,1.694,0.209
								c2.271,0.913,3.095,4.18,1.842,7.294c-1.256,3.114-4.112,4.897-6.381,3.984c-0.702-0.283-1.264-0.791-1.671-1.449
								c0.11,0.061,0.222,0.12,0.342,0.166C26.402,305.997,28.994,304.378,30.13,301.554z"/>
							<path style="fill:#757575;" d="M23.828,299.156c0.955-2.372,2.84-3.968,4.688-4.193c2.015,0.862,2.741,3.793,1.614,6.591
								c-1.137,2.824-3.728,4.443-5.789,3.614c-0.12-0.046-0.232-0.104-0.342-0.166C23.089,303.532,22.963,301.309,23.828,299.156z"
								/>
						</g>
						<path style="fill:#383838;" d="M24.906,299.485c-0.466,0.972-0.372,1.988,0.211,2.269c0.584,0.28,1.436-0.283,1.903-1.257
							c0.466-0.973,0.372-1.987-0.211-2.268C26.224,297.948,25.373,298.512,24.906,299.485z"/>
					</g>
					<g>
						<path style="fill:#827F7D;" d="M20.276,296.224c1.295-3.084,4.188-5.096,7.535-5.166c0.092-0.001,0.233,0.261,0.119,0.285
							c-3.332,0.722-5.653,2.323-7.33,5.313C20.507,296.824,20.215,296.372,20.276,296.224z"/>
						<path style="fill:#827F7D;" d="M20.041,297.384c0.074-0.126,0.28,0.208,0.253,0.298c-0.151,0.508-0.172,1.038-0.271,1.557
							c-0.024,0.125-0.145,0.056-0.202-0.002c-0.093-0.095-0.157-0.226-0.153-0.359C19.683,298.356,19.773,297.839,20.041,297.384z"
							/>
					</g>
				</g>
				<g>
					<g>
						<polygon style="fill:#DD9F33;" points="18.616,267.979 31.139,245.654 56.029,251.41 41.488,275.659 						"/>
						<polygon style="fill:#C68926;" points="41.488,275.659 56.029,251.41 74.861,265.498 61.381,287.984 42.095,275.862 						"/>
						<polygon style="fill:#B2751B;" points="41.488,275.659 60.134,283.833 74.861,265.498 61.381,287.984 42.095,275.862 						
							"/>
						<polygon style="fill:#B2751B;" points="42.095,275.862 61.381,287.984 48.342,309.099 28.188,297.937 28.14,297.916 
							41.488,275.659 						"/>
						<polygon style="fill:#B2751B;" points="61.381,287.984 48.342,309.099 28.188,297.937 28.14,297.916 44.238,300.456 						"/>
						<polygon style="fill:#CC8E29;" points="18.616,267.979 41.488,275.659 28.14,297.916 8.734,286.631 						"/>
					</g>
					<polygon style="fill:#B76923;" points="67.842,260.283 63.164,267.608 58.243,264.563 63.287,256.839 					"/>
					<polygon style="fill:#9B5318;" points="55.029,284.041 51.559,289.099 46.858,286.44 50.111,280.791 					"/>
					<polygon style="fill:#B76923;" points="41.812,260.657 38.511,266.846 28.6,263.169 31.772,257.5 30.193,256.805 
						39.64,253.916 43.479,261.358 					"/>
					<polygon style="fill:#B76923;" points="30.795,282.017 26.881,275.037 19.032,277.271 20.951,278.264 18.549,283.531 
						25.917,286.554 28.852,281.329 					"/>
					<polygon style="fill:#DD9F33;" points="39.075,259.24 37.114,262.775 32.953,260.995 34.923,257.582 					"/>
					<polygon style="fill:#DD9F33;" points="26.614,280.506 25.024,283.41 22.028,282.082 23.438,279.287 					"/>
					<g>
						
							<rect x="22.632" y="281.071" transform="matrix(0.4487 -0.8937 0.8937 0.4487 -238.0247 176.7309)" style="fill:#B76923;" width="3.216" height="0.459"/>
						
							<rect x="24.09" y="279.597" transform="matrix(0.3704 -0.9289 0.9289 0.3704 -245.9309 199.66)" style="fill:#B76923;" width="0.459" height="3.302"/>
					</g>
					<g>
						
							<rect x="34.15" y="259.957" transform="matrix(0.446 -0.895 0.895 0.446 -212.864 176.4831)" style="fill:#B76923;" width="3.951" height="0.459"/>
						
							<rect x="35.751" y="257.964" transform="matrix(0.3946 -0.9188 0.9188 0.3946 -217.2679 190.556)" style="fill:#B76923;" width="0.459" height="4.4"/>
					</g>
				</g>
				<g>
					<path style="fill:#827F7D;" d="M7.229,284.819c0,0-3.146-1.946-4.26-0.984c-1.117,0.96,0.598,2.08,3.903,3.92
						c3.307,1.841,18.322,9.964,18.322,9.964l23.046,12.474c2.127,1.189,3.799-1.343,0.432-3.162
						c-3.369-1.818-20.718-10.404-20.718-10.404L7.229,284.819z"/>
					<path style="opacity:0.5;fill:#827F7D;" d="M28.005,296.654c1.025,0.508,17.405,8.616,20.668,10.378
						c3.367,1.819,1.696,4.351-0.432,3.162L26.69,298.532C27.15,297.92,27.585,297.292,28.005,296.654z"/>
					<path style="fill:#827F7D;" d="M4.915,283.922c4.334,2.798,8.772,5.374,13.173,8.06c0.059,0.036,0.145,0.283,0.044,0.232
						c-4.514-2.323-9.043-4.615-13.143-7.638C4.84,284.469,4.651,283.752,4.915,283.922z"/>
				</g>
				<path style="fill:#5A5656;" d="M88.076,245.017c-1.026,0.516-3.105,1.874-4.847,4.991c-2.202,3.94-33.691,55.542-34.009,56.063
					l1.378,0.842c1.297-2.128,31.822-52.15,34.04-56.117c1.701-3.044,3.736-4.149,4.366-4.433
					C88.952,245.831,88.538,245.317,88.076,245.017z"/>
				<g>
					<g>
						<path style="fill:#383838;" d="M42.169,307.407c2.071-5.147,7.371-7.863,11.836-6.065c4.465,1.798,6.404,7.428,4.332,12.575
							c-2.07,5.147-7.369,7.861-11.833,6.066C42.038,318.183,40.097,312.554,42.169,307.407z"/>
						<path style="opacity:0.5;fill:#383838;" d="M44.271,316.539c1.068-1.331,0.026-2.824-0.072-4.288
							c-0.165-2.455,0.847-5.206,2.816-6.741c1.552-1.211,3.346-1.405,5.218-1.748c1.115-0.202,2.808-0.414,3.017-1.766
							c3.557,2.266,4.953,7.283,3.087,11.919c-2.07,5.147-7.369,7.861-11.833,6.066c-1.507-0.609-2.717-1.658-3.592-2.969
							C43.45,317.052,43.952,316.937,44.271,316.539z"/>
						<g>
							<path style="fill:#595959;" d="M53.224,311.719c1.127-2.798,0.401-5.73-1.614-6.591c0.578-0.07,1.152-0.009,1.694,0.209
								c2.27,0.914,3.095,4.18,1.841,7.294c-1.254,3.114-4.11,4.898-6.38,3.984c-0.702-0.283-1.265-0.792-1.672-1.449
								c0.11,0.061,0.223,0.121,0.342,0.167C49.495,316.161,52.087,314.543,53.224,311.719z"/>
							<path style="fill:#757575;" d="M46.921,309.321c0.957-2.373,2.84-3.969,4.689-4.193c2.015,0.861,2.741,3.793,1.614,6.591
								c-1.136,2.824-3.729,4.442-5.789,3.614c-0.119-0.046-0.232-0.105-0.342-0.167C46.183,313.696,46.056,311.473,46.921,309.321z
								"/>
						</g>
						<path style="fill:#383838;" d="M48,309.65c-0.467,0.973-0.373,1.989,0.21,2.27c0.583,0.279,1.436-0.282,1.903-1.257
							c0.466-0.973,0.372-1.989-0.211-2.268C49.318,308.114,48.466,308.676,48,309.65z"/>
					</g>
					<g>
						<path style="fill:#827F7D;" d="M43.37,306.389c1.295-3.084,4.188-5.096,7.536-5.165c0.091-0.001,0.232,0.261,0.117,0.285
							c-3.331,0.722-5.652,2.324-7.329,5.315C43.601,306.989,43.309,306.536,43.37,306.389z"/>
						<path style="fill:#827F7D;" d="M43.134,307.548c0.074-0.125,0.28,0.208,0.253,0.298c-0.151,0.509-0.172,1.037-0.271,1.557
							c-0.024,0.125-0.145,0.055-0.202-0.003c-0.092-0.094-0.157-0.226-0.154-0.357C42.776,308.521,42.867,308.004,43.134,307.548z"
							/>
					</g>
				</g>
			</g>
		</g>
	</g>
</g>
</svg>
